<svg width="25" height="25" viewBox="0 0 25 25" fill="none" xmlns="http://www.w3.org/2000/svg">
<path d="M22.8426 21.0865L21.0541 18.1052C20.2281 16.7292 19.7916 15.1531 19.7916 13.549V10.9375C19.7916 7.64063 17.5916 4.8521 14.5832 3.95313V2.08335C14.5832 0.934375 13.6489 0 12.4999 0C11.3509 0 10.4165 0.934375 10.4165 2.08335V3.95313C7.40825 4.8521 5.20824 7.64063 5.20824 10.9375V13.549C5.20824 15.1531 4.77177 16.7281 3.94677 18.1042L2.15824 21.0854C2.06137 21.2469 2.05927 21.4469 2.15199 21.6105C2.24472 21.774 2.41659 21.8751 2.60409 21.8751H22.3957C22.5832 21.8751 22.7561 21.774 22.8489 21.6115C22.9416 21.449 22.9385 21.2469 22.8426 21.0865Z" fill="#C4C4C4"/>
<path d="M9.21973 22.9166C9.80723 24.1437 11.051 24.9999 12.4999 24.9999C13.9488 24.9999 15.1926 24.1437 15.7801 22.9166H9.21973Z" fill="#C4C4C4"/>
</svg>
