<svg width="1920" height="1618" viewBox="0 0 1920 1618" fill="none" xmlns="http://www.w3.org/2000/svg">
<g opacity="0.3">
<g clip-path="url(#clip0)">
<path d="M2411.21 1160.52C2411.21 1160.52 2408.47 1159.45 2403.13 1157.58C2400.44 1156.68 2397.09 1155.55 2393.11 1154.22C2389.11 1152.97 2384.47 1151.54 2379.19 1149.92C2358.09 1143.66 2326.74 1135.5 2286.27 1128.36C2245.83 1121.23 2196.2 1115.12 2139.26 1113.26C2082.33 1111.38 2018.07 1113.86 1949.27 1123.52C1880.37 1133.28 1806.23 1147.55 1726.68 1158.27C1686.95 1163.68 1645.83 1168.29 1603.58 1171.26C1561.33 1174.26 1517.81 1175.58 1473.47 1174.2C1384.92 1171.58 1292.56 1158.65 1202.79 1130.29C1157.96 1116.08 1113.88 1098.26 1071.28 1077.29C1060.7 1071.85 1050.16 1066.43 1039.56 1060.98C1029.26 1055.05 1019 1049.13 1008.68 1043.16L1000.94 1038.69C998.39 1037.19 995.925 1035.51 993.427 1033.93L978.456 1024.3L963.486 1014.67C960.949 1013.11 958.522 1011.41 956.141 1009.65L948.906 1004.48C871.302 949.958 801.35 886.229 741.997 815.821C712.371 780.723 685.342 744.366 660.099 707.735C634.963 671.073 611.544 634.147 589.03 597.727C566.516 561.306 544.892 525.326 523.531 490.366C502.139 455.397 480.95 421.43 459.698 388.816C438.284 356.308 416.806 325.151 395.07 295.686C389.649 288.331 384.041 281.166 378.594 274.016C375.851 270.451 373.138 266.895 370.425 263.339C367.704 259.81 364.852 256.397 362.076 252.944C356.517 246.067 351.002 239.263 345.57 232.514C339.929 225.918 334.333 219.396 328.811 212.956C317.915 199.905 306.331 187.874 295.409 175.821C294.036 174.327 292.663 172.834 291.29 171.34C289.871 169.894 288.451 168.448 287.023 167.03C284.206 164.174 281.389 161.318 278.602 158.472C273.021 152.806 267.483 147.214 262.02 141.705C256.371 136.386 250.775 131.112 245.253 125.92C242.492 123.325 239.761 120.738 237.053 118.188C234.352 115.609 231.636 113.087 228.818 110.688C223.259 105.852 217.783 101.07 212.381 96.3698C206.933 91.7175 201.8 86.8824 196.299 82.641C185.413 73.9791 175.059 65.4099 164.754 57.4642C154.286 49.745 144.2 42.289 134.49 35.1244C124.662 28.1389 114.936 21.8224 105.788 15.5513C101.163 12.4772 96.7829 9.35209 92.3132 6.53607C87.797 3.76749 83.4242 1.07082 79.134 -1.57145C70.5839 -6.84723 62.5 -11.8054 54.8984 -16.5022C47.07 -20.8688 39.7623 -24.9932 32.9207 -28.8001C26.1094 -32.5983 19.7804 -36.135 14.0247 -39.3841C8.15963 -42.482 2.71996 -45.1219 -2.07553 -47.6059C-21.3447 -57.3537 -31.6242 -62.5513 -31.6242 -62.5513L-11.3283 -101.385C-11.3283 -101.385 -0.689844 -95.8402 19.2367 -85.4149C24.2198 -82.7853 29.8005 -79.9523 35.8673 -76.6437C41.863 -73.2034 48.3855 -69.428 55.4428 -65.3455C62.5 -61.263 70.0618 -56.8823 78.1665 -52.2226C86.0443 -47.2327 94.4185 -41.9164 103.267 -36.3107C107.676 -33.5122 112.22 -30.6137 116.886 -27.6801C121.505 -24.6991 126.056 -21.3721 130.822 -18.105C140.26 -11.4757 150.321 -4.72748 160.483 2.68981C170.498 10.2775 180.91 18.1934 191.727 26.4093C202.32 34.8344 213.023 43.9003 224.218 53.0783C229.905 57.5865 235.163 62.6709 240.796 67.5901C246.353 72.5479 251.976 77.6163 257.682 82.7391C260.566 85.2487 263.372 87.9181 266.13 90.6349C268.928 93.3325 271.717 96.0581 274.536 98.7925C280.174 104.261 285.918 109.821 291.714 115.427C297.293 121.214 302.939 127.111 308.668 133.063C311.513 136.048 314.388 139.042 317.294 142.045C318.728 143.557 320.192 145.076 321.625 146.588C323.012 148.146 324.43 149.714 325.817 151.272C336.972 163.88 348.751 176.485 359.781 190.092C365.381 196.829 371.064 203.62 376.791 210.485C382.309 217.503 387.85 224.557 393.466 231.694C396.269 235.277 399.15 238.821 401.899 242.479C404.609 246.156 407.35 249.842 410.121 253.537C415.587 260.966 421.22 268.382 426.667 275.988C448.484 306.421 469.899 338.473 491.132 371.721C512.173 405.066 533.062 439.616 554.013 474.975C574.955 510.362 595.997 546.539 617.84 583.009C639.684 619.479 662.26 656.253 686.465 692.614C710.717 728.929 736.636 764.812 764.955 799.319C821.391 868.243 889.05 931.613 963.742 985.538L970.697 990.656C972.986 992.385 975.353 994.075 977.791 995.633L992.222 1005.2L1006.65 1014.76C1009.08 1016.35 1011.43 1018 1013.92 1019.49L1021.37 1023.93C1031.3 1029.85 1041.22 1035.73 1051.13 1041.64C1061.34 1047.07 1071.53 1052.48 1081.74 1057.9C1122.91 1078.86 1165.53 1096.73 1209.01 1111.17C1296.1 1139.94 1386.28 1153.85 1473.42 1157.59C1517.04 1159.53 1559.99 1158.8 1601.88 1156.39C1643.76 1154.01 1684.6 1149.99 1724.22 1145.13C1803.5 1135.55 1877.77 1122.29 1947.31 1113.39C2016.99 1104.56 2081.92 1102.94 2139.28 1105.59C2196.68 1108.22 2246.57 1115.04 2287.2 1122.75C2327.86 1130.5 2359.31 1139.11 2380.48 1145.69C2385.76 1147.4 2390.41 1148.9 2394.43 1150.22C2398.43 1151.62 2401.79 1152.8 2404.51 1153.74C2409.94 1155.74 2412.67 1156.83 2412.67 1156.83L2411.21 1160.52Z" fill="white"/>
<g opacity="0.7">
<path opacity="0.7" d="M2398.07 1125.26C2398.07 1125.26 2112.23 1380.9 1676.56 1232.57C1240.89 1084.25 794.811 651.33 -233.155 902.546C-312.121 836.847 -602.809 594.922 -602.809 594.922C-602.809 594.922 376.515 421.177 1123.67 823.262C1870.83 1225.35 1967.07 1273.87 2362.18 1109.12C2361.01 1108.63 2378.17 1114.2 2398.07 1125.26Z" fill="url(#paint0_linear)"/>
<path opacity="0.7" d="M2383.23 1117.71C2383.23 1117.71 2119.19 1323.4 1683.52 1175.08C1247.84 1026.75 705.595 469.165 -416.441 749.989C-495.407 684.291 -602.801 594.896 -602.801 594.896C-602.801 594.896 376.523 421.15 1123.68 823.236C1870.84 1225.32 1967.08 1273.85 2362.18 1109.09C2361.01 1108.63 2370.2 1111.11 2383.23 1117.71Z" fill="url(#paint1_linear)"/>
</g>
<g opacity="0.3">
<path opacity="0.3" d="M2460.15 1104.36C2460.15 1104.36 2130.98 879.626 1665.94 1025.52C1100.5 1202.93 779.36 1128.07 533.69 630.623C288.021 133.179 -66.0143 -34.2212 -66.0143 -34.2212L-323.483 241.106C-323.483 241.106 -7.84982 249.357 293.819 754.843C595.487 1260.33 1028.82 1409.26 1463.05 1238.34C1612.67 1179.43 2156.65 964.896 2429.31 1143.47C2426.27 1146.7 2460.15 1104.36 2460.15 1104.36Z" fill="url(#paint2_linear)"/>
<path opacity="0.3" d="M2448.5 1116.83C2448.5 1116.83 2150.98 911.788 1663.89 1077.76C1103.91 1268.6 721.265 1190.23 475.565 692.772C229.896 195.328 -124.109 27.9364 -124.109 27.9364L-270.74 184.74C-270.74 184.74 44.8935 192.99 346.562 698.476C648.231 1203.96 1030.17 1335.83 1472.88 1183.51C1861.79 1049.69 2186.54 980.73 2438.66 1130.19C2435.59 1133.44 2448.5 1116.83 2448.5 1116.83Z" fill="url(#paint3_linear)"/>
</g>
<g opacity="0.4">
<path opacity="0.4" d="M2417.18 1022.47C2417.18 1022.47 2414.78 1020.55 2409.86 1017.03C2404.94 1013.5 2397.51 1008.43 2387.58 1002.15C2367.67 989.624 2337.62 972.34 2297.33 954.255C2257.09 936.188 2206.58 917.368 2146.86 902.341C2087.19 887.359 2018.33 876.207 1943 873.168C1905.36 871.537 1866.13 872.031 1825.77 874.604C1805.59 875.924 1785.14 877.863 1764.48 880.29C1754.15 881.504 1743.77 882.887 1733.24 884.347C1722.75 885.787 1712.16 887.229 1701.5 888.654C1616.36 900.349 1526.85 914.07 1434.48 929.307C1342.07 944.414 1246.93 961.528 1149.45 976.598C1100.7 984.086 1051.34 990.877 1001.33 995.836C951.341 1000.83 900.706 1003.63 849.87 1003.72C799.064 1003.82 748.089 1001.1 697.572 995.894C647.046 990.715 596.961 983.105 547.626 974.037C535.251 971.888 522.994 969.438 510.747 966.96C498.482 964.538 486.279 962.133 474.134 959.411C461.943 956.736 450.014 954.289 437.682 951.422C431.687 950.022 425.73 948.603 419.734 947.203C413.769 945.812 407.665 944.106 401.642 942.577C353.473 930.161 306.996 914.277 262.341 895.844C173.079 858.808 92.8681 810.23 22.8274 757.926C-12.2384 731.761 -44.8883 704.619 -75.4594 677.44C-105.844 650.071 -134.082 622.653 -160.486 595.705C-212.97 541.598 -257.77 489.41 -295.98 442.235C-334.105 394.994 -365.892 352.845 -391.162 317.667C-404.023 300.18 -415.027 284.327 -424.699 270.565C-429.535 263.684 -433.992 257.309 -438.079 251.467C-442.088 245.586 -445.727 240.239 -448.965 235.435C-461.971 216.292 -468.922 206.058 -468.922 206.058L-429.343 184.071C-429.343 184.071 -422.643 194.263 -410.085 213.368C-406.938 218.146 -403.429 223.486 -399.579 229.351C-395.652 235.177 -391.346 241.509 -386.669 248.374C-377.347 262.096 -366.723 277.9 -354.332 295.312C-329.92 330.393 -299.287 372.33 -262.497 419.307C-225.66 466.237 -182.467 518.082 -131.932 571.777C-106.505 598.473 -79.3219 625.677 -50.1123 652.798C-20.7468 679.719 10.6451 706.558 44.3073 732.469C111.571 784.274 188.397 832.299 274.181 869.333C317.032 887.762 362.035 903.86 408.426 916.522C414.243 918.083 419.899 919.75 425.862 921.262C431.802 922.738 437.765 924.25 443.736 925.734C455.315 928.597 467.514 931.244 479.444 934.026C491.427 936.854 503.469 939.364 515.563 941.919C527.649 944.503 539.736 947.086 551.911 949.361C600.544 958.925 649.806 966.997 699.454 972.714C749.102 978.431 799.091 981.719 849.064 982.231C899.028 982.771 948.951 980.619 998.449 976.303C1047.97 972.025 1097.11 965.871 1145.77 959.027C1243.08 945.219 1338.61 929.281 1431.34 915.305C1524.07 901.207 1613.96 888.569 1699.43 877.912C1720.82 875.331 1741.74 872.554 1762.7 870.242C1783.6 867.977 1804.24 866.183 1824.63 865.047C1865.39 862.801 1905.01 862.663 1943 864.643C2019.02 868.396 2088.38 880.275 2148.36 895.893C2208.41 911.595 2259.09 930.98 2299.45 949.539C2339.87 968.087 2369.97 985.78 2389.9 998.553C2399.86 1004.97 2407.32 1010.17 2412.27 1013.8C2417.21 1017.39 2419.71 1019.42 2419.71 1019.42L2417.18 1022.47Z" fill="white"/>
</g>
<path opacity="0.3" d="M2482.85 1072.2C2482.85 1072.2 2197.43 1251.61 1777.75 1064.24C1358.08 876.867 874.996 273.939 -275.554 448.328C-347.514 375.886 -445.429 277.327 -445.429 277.327C-445.429 277.327 551.244 195.853 1255.44 663.621C1959.63 1131.39 2050.66 1188.4 2462.74 1061.72C2461.6 1061.11 2470.52 1064.43 2482.85 1072.2Z" fill="url(#paint4_linear)"/>
<path opacity="0.7" d="M2438.32 1041.07C2438.32 1041.07 2163.02 1256.08 1773.5 1113.77C1331.65 952.301 657.097 320.859 -462.218 568.454C-542.149 500.192 -526.295 513.124 -526.295 513.124C-526.295 513.124 361.816 279.821 1120.1 702.332C1878.37 1124.87 2013.48 1220.34 2427.23 1032.65C2427.23 1032.65 2425.08 1034.1 2438.32 1041.07Z" fill="url(#paint5_linear)"/>
<path d="M1618.54 1338.39C1515.57 1623.8 1181.98 1767.56 873.469 1659.38C564.957 1551.19 398.358 1232.07 501.333 946.633C604.332 661.114 937.883 517.375 1246.39 625.585C1554.9 733.766 1721.54 1052.87 1618.54 1338.39Z" fill="url(#paint6_radial)"/>
<path d="M1618.54 1338.39C1515.57 1623.8 1181.98 1767.56 873.469 1659.38C564.957 1551.19 398.358 1232.07 501.333 946.633C604.332 661.114 937.883 517.375 1246.39 625.585C1554.9 733.766 1721.54 1052.87 1618.54 1338.39Z" fill="url(#paint7_radial)"/>
<path d="M589.87 862.982C486.895 1148.42 153.315 1292.15 -155.197 1183.97C-463.709 1075.78 -630.308 756.658 -527.333 471.223C-424.334 185.704 -90.753 41.9736 217.721 150.174C526.241 258.328 692.87 577.463 589.87 862.982Z" fill="url(#paint8_radial)"/>
<path d="M589.87 862.982C486.895 1148.42 153.315 1292.15 -155.197 1183.97C-463.709 1075.78 -630.308 756.658 -527.333 471.223C-424.334 185.704 -90.753 41.9736 217.721 150.174C526.241 258.328 692.87 577.463 589.87 862.982Z" fill="url(#paint9_radial)"/>
<g opacity="0.5">
<path opacity="0.5" d="M-258.823 765.294L-262.949 760.72C1.5613 553.394 289.808 429.193 618.343 381.061C884.532 342.053 1182.45 350.264 1584.32 407.71C1934.46 457.771 2147.66 381.624 2264.87 308.918C2391.63 230.299 2436.25 138.935 2436.68 138.023L2442.43 140.601C2442 141.541 2396.63 234.363 2268.46 313.856C2193.29 360.505 2104.7 393.525 2005.16 412.08C1880.86 435.224 1739.05 435.73 1583.63 413.508C876.112 312.391 292.025 333.508 -258.823 765.294Z" fill="white"/>
</g>
</g>
</g>
<defs>
<linearGradient id="paint2_linear" x1="30.4207" y1="-137.358" x2="1949.23" y2="1656.85" gradientUnits="userSpaceOnUse">
<stop stop-color="#193EA4"/>
<stop offset="0.1366" stop-color="#1749AA"/>
<stop offset="0.3732" stop-color="#1265B9"/>
<stop offset="0.6814" stop-color="#0A93D3"/>
<stop offset="1" stop-color="#00C9F1"/>
</linearGradient>
<linearGradient id="paint3_linear" x1="49.476" y1="-157.733" x2="1966.65" y2="1634.94" gradientUnits="userSpaceOnUse">
<stop stop-color="#1948C2"/>
<stop offset="0.3098" stop-color="#3784D6"/>
<stop offset="0.7843" stop-color="#63DCF3"/>
<stop offset="1" stop-color="#74FFFF"/>
</linearGradient>
<clipPath id="clip0">
<rect x="-10.2832" y="0.224365" width="2414.82" height="985.263" transform="rotate(16.138 -10.2832 0.224365)" fill="white"/>
</clipPath>
</defs>
</svg>