<svg width="20" height="16" viewBox="0 0 20 16" fill="none" xmlns="http://www.w3.org/2000/svg">
<path d="M3.04248 8.46143C5.07226 10.5654 7.97276 11.6703 11.6682 11.7461V15.4998C11.6682 15.6681 11.7699 15.8206 11.9257 15.8848C12.0815 15.9481 12.2598 15.914 12.379 15.7948L19.8781 8.29563C20.0406 8.13315 20.0406 7.869 19.8781 7.70652L12.379 0.207339C12.2598 0.0873528 12.0798 0.0515366 11.9248 0.11735C11.769 0.181522 11.6674 0.334005 11.6674 0.502307V4.24858C3.29577 4.12691 0.796867 0.320686 0.77273 0.283191C0.695238 0.158205 0.560253 0.0857124 0.418591 0.0857124C0.383595 0.0857124 0.347776 0.0907125 0.31192 0.0998907C0.134441 0.147386 0.00863457 0.304048 0.00195694 0.488168C-0.00386429 0.676468 -0.127991 5.17429 3.04248 8.46143Z" fill="#E6E7E7"/>
</svg>
