<svg width="1722" height="673" viewBox="0 0 1722 673" fill="none" xmlns="http://www.w3.org/2000/svg">
<g opacity="0.8">
<path d="M190.659 509.579H1531.99C1531.99 509.579 1637.6 505.329 1583 550.205C1528.4 595.081 1318.21 584.385 1187.91 648.649C1057.62 712.913 1078.56 618.305 907.557 612.948C736.533 607.592 214.452 598.658 209.727 559.38C205.023 520.12 133.812 510.495 190.659 509.579Z" fill="#22252A"/>
<path d="M190.659 509.579H1531.99C1531.99 509.579 1637.6 505.329 1583 550.205C1528.4 595.081 1318.21 584.385 1187.91 648.649C1057.62 712.913 1078.56 618.305 907.557 612.948C736.533 607.592 214.452 598.658 209.727 559.38C205.023 520.12 133.812 510.495 190.659 509.579Z" fill="url(#paint0_linear)"/>
<path d="M449.904 219.258C461.097 214.852 472.227 244.158 472.227 244.158C491.232 264.825 517.797 237.333 515.193 268.229C510.636 322.299 590.814 285.233 553.833 341.669C516.852 398.106 586.488 373.586 563.514 419.101C540.519 464.617 570.318 518.893 535.731 496.585C535.731 496.585 505.281 441.634 473.865 424.648C442.47 407.644 492.681 387.479 482.853 364.375C468.573 330.835 434.196 332.148 458.997 296.119C483.777 260.056 411.873 234.205 449.904 219.258Z" fill="url(#paint1_linear)"/>
<path d="M546.672 475.883C531.678 467.209 514.143 406.763 513.093 370.752C512.547 352.314 505.932 344.624 500.094 337.851C494.508 331.371 489.678 325.772 492.492 312.933C497.868 288.378 483.735 277.768 483.588 277.665L485.226 276.127C485.856 276.576 500.556 287.514 494.928 313.279C492.303 325.288 496.629 330.299 502.11 336.658C507.864 343.328 515.025 351.623 515.571 370.7C516.705 409.338 534.639 466.414 548.1 474.224L546.672 475.883Z" fill="white"/>
<path d="M552.279 480.359C550.347 480.359 548.247 480.168 545.937 479.788C540.162 478.838 536.361 476.315 534.681 472.341C530.649 462.837 539.994 447.388 547.596 439.941C547.722 439.82 560.448 427.032 559.083 409.303C558.852 406.331 558.474 403.583 558.159 401.164C557.193 394.149 556.521 389.068 560.175 385.699C563.409 382.709 569.625 381.413 581.007 381.379C600.957 381.31 608.853 374.501 615.174 369.041C617.862 366.725 620.403 364.531 623.49 363.148C633.423 358.69 643.965 358.033 648.522 361.593C650.685 363.287 652.533 366.604 648.921 372.773C645.645 378.424 641.382 382.001 637.959 384.869C633.36 388.74 630.315 391.297 631.89 396.378C632.268 397.57 632.688 398.78 633.129 399.989C636.195 408.647 639.681 418.462 621.684 425.114C617.862 426.531 614.376 427.655 611.31 428.639C598.752 432.7 591.15 435.154 582.603 450.015C580.944 452.901 579.474 455.614 578.067 458.257C571.326 470.837 566.223 480.359 552.279 480.359ZM624.687 364.911C621.936 366.138 619.626 368.125 616.959 370.423C610.302 376.16 602.007 383.314 581.007 383.383C570.549 383.418 564.69 384.541 562.023 387.012C559.104 389.725 559.734 394.408 560.616 400.905C560.952 403.359 561.33 406.141 561.561 409.148C562.989 427.724 550.053 440.684 549.507 441.237C541.989 448.615 533.463 463.269 537.033 471.667C538.419 474.915 541.59 476.989 546.441 477.801C563.388 480.618 568.071 471.891 575.841 457.428C577.269 454.784 578.739 452.037 580.398 449.134C589.386 433.53 597.765 430.817 610.449 426.721C613.494 425.736 616.938 424.631 620.718 423.231C636.741 417.304 633.864 409.165 630.798 400.542C630.357 399.315 629.916 398.071 629.538 396.862C627.606 390.658 631.407 387.461 636.237 383.418C639.702 380.515 643.629 377.214 646.737 371.875C648.375 369.075 649.719 365.274 646.863 363.045C643.083 360.124 633.57 360.919 624.687 364.911Z" fill="#22252A"/>
<path d="M552.279 480.359C550.347 480.359 548.247 480.168 545.937 479.788C540.162 478.838 536.361 476.315 534.681 472.341C530.649 462.837 539.994 447.388 547.596 439.941C547.722 439.82 560.448 427.032 559.083 409.303C558.852 406.331 558.474 403.583 558.159 401.164C557.193 394.149 556.521 389.068 560.175 385.699C563.409 382.709 569.625 381.413 581.007 381.379C600.957 381.31 608.853 374.501 615.174 369.041C617.862 366.725 620.403 364.531 623.49 363.148C633.423 358.69 643.965 358.033 648.522 361.593C650.685 363.287 652.533 366.604 648.921 372.773C645.645 378.424 641.382 382.001 637.959 384.869C633.36 388.74 630.315 391.297 631.89 396.378C632.268 397.57 632.688 398.78 633.129 399.989C636.195 408.647 639.681 418.462 621.684 425.114C617.862 426.531 614.376 427.655 611.31 428.639C598.752 432.7 591.15 435.154 582.603 450.015C580.944 452.901 579.474 455.614 578.067 458.257C571.326 470.837 566.223 480.359 552.279 480.359ZM624.687 364.911C621.936 366.138 619.626 368.125 616.959 370.423C610.302 376.16 602.007 383.314 581.007 383.383C570.549 383.418 564.69 384.541 562.023 387.012C559.104 389.725 559.734 394.408 560.616 400.905C560.952 403.359 561.33 406.141 561.561 409.148C562.989 427.724 550.053 440.684 549.507 441.237C541.989 448.615 533.463 463.269 537.033 471.667C538.419 474.915 541.59 476.989 546.441 477.801C563.388 480.618 568.071 471.891 575.841 457.428C577.269 454.784 578.739 452.037 580.398 449.134C589.386 433.53 597.765 430.817 610.449 426.721C613.494 425.736 616.938 424.631 620.718 423.231C636.741 417.304 633.864 409.165 630.798 400.542C630.357 399.315 629.916 398.071 629.538 396.862C627.606 390.658 631.407 387.461 636.237 383.418C639.702 380.515 643.629 377.214 646.737 371.875C648.375 369.075 649.719 365.274 646.863 363.045C643.083 360.124 633.57 360.919 624.687 364.911Z" fill="url(#paint2_linear)"/>
<path d="M546.209 492.144L543.731 492.04C543.857 490.122 546.986 445.004 568.994 431.802C593.145 417.321 600.767 401.752 604.379 391.298C608.663 378.977 630.399 375.694 631.323 375.556L631.764 377.56C631.554 377.595 610.617 380.774 606.774 391.851C603.057 402.582 595.223 418.583 570.464 433.444C549.38 446.093 546.23 491.677 546.209 492.144Z" fill="#22252A"/>
<path d="M546.209 492.144L543.731 492.04C543.857 490.122 546.986 445.004 568.994 431.802C593.145 417.321 600.767 401.752 604.379 391.298C608.663 378.977 630.399 375.694 631.323 375.556L631.764 377.56C631.554 377.595 610.617 380.774 606.774 391.851C603.057 402.582 595.223 418.583 570.464 433.444C549.38 446.093 546.23 491.677 546.209 492.144Z" fill="url(#paint3_linear)"/>
<path d="M596.526 264.773C580.881 260.35 584.136 285.164 577.521 303.533C570.906 321.901 503.979 311.55 532.077 357.515C560.175 403.497 496.545 372.894 515.55 413.019C534.555 453.143 517.209 496.049 537.873 485.128C558.537 474.207 549.486 423.698 570.969 417.684C592.452 411.688 595.959 404.672 574.686 388.36C553.413 372.03 630.419 355.839 611.414 322.886C592.41 289.933 614.606 269.888 596.526 264.773Z" fill="url(#paint4_linear)"/>
<path d="M547.449 483.21C545.475 476.332 528.675 415.904 544.362 408.595C558.18 402.149 557.844 377.111 555.681 353.454C553.77 332.511 586.446 322.731 587.853 322.333L588.672 324.251C588.357 324.338 556.395 333.928 558.159 353.299C560.364 377.594 560.616 403.359 545.58 410.357C533.673 415.904 544.635 464.478 549.864 482.726L547.449 483.21Z" fill="white"/>
<path d="M583.022 461.696L560.678 531.438H510.761L488.417 461.696H583.022Z" fill="#C4C4C4"/>
<path d="M583.022 461.696C583.022 461.696 533.84 469.299 533.84 531.438H510.761L488.417 461.696H583.022Z" fill="#C4C4C4"/>
<g opacity="0.2">
<path d="M873.788 245.178L767.822 245.575L768.179 308.768L768.263 322.091L784.37 308.717L874.145 308.371L873.788 245.178Z" fill="#488D9A"/>
<path d="M829.1 279.478C829.121 283.159 825.509 286.149 821.036 286.166C816.563 286.183 812.93 283.211 812.909 279.53C812.888 275.85 816.5 272.86 820.973 272.843C825.446 272.826 829.079 275.798 829.1 279.478Z" fill="white"/>
<path d="M855.665 279.409C855.686 283.09 852.074 286.079 847.601 286.097C843.128 286.114 839.495 283.142 839.474 279.461C839.453 275.78 843.065 272.791 847.538 272.774C852.032 272.756 855.665 275.729 855.665 279.409Z" fill="white"/>
<path d="M803.124 279.548C803.145 283.228 799.533 286.218 795.06 286.235C790.587 286.252 786.954 283.28 786.933 279.6C786.912 275.919 790.524 272.93 794.997 272.912C799.47 272.895 803.103 275.867 803.124 279.548Z" fill="white"/>
</g>
<g opacity="0.2">
<path d="M842.353 72.3949L948.319 72.7923L947.962 136.003L947.878 149.308L931.792 135.933L841.996 135.588L842.353 72.3949Z" fill="#53ABB9"/>
<path d="M887.062 106.695C887.041 110.376 890.653 113.366 895.126 113.383C899.599 113.4 903.232 110.428 903.253 106.747C903.274 103.067 899.662 100.077 895.189 100.06C890.695 100.043 887.062 103.015 887.062 106.695Z" fill="white"/>
<path d="M860.475 106.626C860.454 110.307 864.066 113.296 868.539 113.314C873.012 113.331 876.645 110.359 876.666 106.678C876.687 102.997 873.075 100.008 868.602 99.9907C864.129 99.9734 860.496 102.946 860.475 106.626Z" fill="white"/>
<path d="M913.017 106.765C912.996 110.445 916.608 113.435 921.081 113.452C925.554 113.469 929.188 110.497 929.209 106.816C929.209 103.136 925.617 100.146 921.144 100.129C916.671 100.112 913.038 103.084 913.017 106.765Z" fill="white"/>
</g>
<path d="M1342.36 55.0634L1191.69 55.6336L1192.19 145.49L1192.3 164.428L1215.19 145.403L1342.87 144.919L1342.36 55.0634Z" fill="#5EC8D9"/>
<path d="M1278.79 103.845C1278.82 109.081 1273.67 113.332 1267.33 113.349C1260.97 113.366 1255.8 109.132 1255.78 103.914C1255.76 98.6781 1260.9 94.4272 1267.24 94.41C1273.61 94.3927 1278.77 98.609 1278.79 103.845Z" fill="white"/>
<path d="M1316.59 103.741C1316.62 108.977 1311.47 113.228 1305.13 113.245C1298.77 113.262 1293.6 109.029 1293.58 103.81C1293.56 98.5744 1298.68 94.3235 1305.04 94.3062C1311.41 94.2889 1316.57 98.5225 1316.59 103.741Z" fill="white"/>
<path d="M1241.88 103.931C1241.9 109.167 1236.75 113.418 1230.41 113.435C1224.05 113.452 1218.88 109.219 1218.86 104C1218.84 98.7643 1223.98 94.5134 1230.33 94.4961C1236.69 94.4789 1241.86 98.7124 1241.88 103.931Z" fill="white"/>
<path d="M1585.77 121.384L1453.2 121.885L1453.64 200.958L1453.75 217.616L1473.89 200.889L1586.21 200.457L1585.77 121.384Z" fill="#5EC8D9"/>
<path d="M1529.85 164.307C1529.87 168.904 1525.36 172.653 1519.75 172.671C1514.16 172.688 1509.61 168.973 1509.59 164.359C1509.56 159.762 1514.1 156.013 1519.69 155.995C1525.29 155.995 1529.83 159.711 1529.85 164.307Z" fill="white"/>
<path d="M1563.11 164.221C1563.14 168.817 1558.62 172.567 1553.01 172.584C1547.43 172.602 1542.87 168.886 1542.85 164.273C1542.83 159.676 1547.34 155.926 1552.95 155.909C1558.54 155.909 1563.09 159.624 1563.11 164.221Z" fill="white"/>
<path d="M1497.36 164.394C1497.38 168.99 1492.87 172.74 1487.26 172.757C1481.68 172.775 1477.12 169.059 1477.1 164.446C1477.08 159.849 1481.59 156.099 1487.2 156.082C1492.81 156.082 1497.34 159.797 1497.36 164.394Z" fill="white"/>
<path d="M123.858 121.09L282.954 121.695L282.429 216.579L282.303 236.572L258.132 216.493L123.333 215.975L123.858 121.09Z" fill="#5EC8D9"/>
<path d="M190.974 172.602C190.953 178.131 196.371 182.607 203.091 182.624C209.811 182.642 215.25 178.183 215.271 172.654C215.292 167.124 209.874 162.648 203.154 162.631C196.455 162.614 190.995 167.072 190.974 172.602Z" fill="white"/>
<path d="M151.074 172.498C151.053 178.028 156.471 182.503 163.191 182.521C169.911 182.538 175.35 178.08 175.371 172.55C175.392 167.02 169.974 162.545 163.254 162.527C156.555 162.51 151.095 166.968 151.074 172.498Z" fill="white"/>
<path d="M229.971 172.705C229.95 178.235 235.368 182.71 242.088 182.728C248.787 182.745 254.247 178.287 254.268 172.757C254.289 167.227 248.871 162.752 242.151 162.717C235.452 162.717 229.992 167.176 229.971 172.705Z" fill="white"/>
<path d="M693.715 251.762C696.949 244.556 692.455 236.555 683.698 233.894C674.941 231.233 665.218 234.914 661.984 242.137C661.984 242.137 661.626 242.69 661.29 244.089C661.185 244.556 661.08 245.005 661.017 245.472C660.345 249.74 660.282 258.674 664.965 275.608C681.892 265.24 688.906 258.397 691.762 254.803C692.077 254.423 692.371 254.025 692.644 253.611C693.526 252.366 693.715 251.762 693.715 251.762ZM674.206 255.079C668.745 253.421 665.952 248.444 667.968 243.951C669.984 239.458 676.033 237.16 681.493 238.819C686.953 240.478 689.746 245.454 687.73 249.947C685.714 254.44 679.666 256.738 674.206 255.079Z" fill="#F5F5F5"/>
<path d="M1418.78 58.4677L1399.67 51.6421C1398.1 51.0891 1397.38 49.5857 1398.08 48.2897C1398.77 46.9937 1400.57 46.4062 1402.15 46.9765L1415.65 51.7976L1425.4 34.0165C1426.11 32.7377 1427.94 32.1675 1429.49 32.7377C1431.05 33.308 1431.74 34.8286 1431.05 36.1073L1418.78 58.4677Z" fill="#C4C4C4"/>
<path d="M1440.49 73.4665C1422.88 83.6444 1398.47 80.1366 1386.1 65.656C1373.74 51.158 1378 31.0787 1395.6 20.9007C1413.22 10.7228 1437.6 14.2134 1449.99 28.7113C1462.36 43.192 1458.11 63.2713 1440.49 73.4665ZM1398.81 24.6505C1383.71 33.3769 1380.06 50.5878 1390.66 63.0121C1401.27 75.4364 1422.18 78.4432 1437.28 69.7168C1452.38 60.9904 1456.03 43.7795 1445.43 31.3552C1434.82 18.9308 1413.91 15.9241 1398.81 24.6505Z" fill="#C4C4C4"/>
<g opacity="0.5">
<path d="M637.041 175.132L586.218 166.592L579.112 195.222L629.935 203.763L637.041 175.132Z" fill="#488D9A"/>
<path d="M579.116 195.204L608.495 183.47L629.936 203.74L579.116 195.204Z" fill="#488D9A"/>
<path d="M637.035 175.107L607.194 188.672L586.215 166.571L637.035 175.107Z" fill="#53ABB9"/>
</g>
<path d="M1339.25 187.048C1325.94 186.927 1321.36 196.794 1321.36 196.794C1321.36 196.794 1310.27 191.454 1299.98 198.401C1289.69 205.347 1294.99 212.156 1294.99 212.156C1302.25 226.74 1337.32 234.119 1337.32 234.119C1337.32 234.119 1359.06 210.29 1353.62 195.187C1353.62 195.187 1352.57 187.152 1339.25 187.048Z" fill="#F5F5F5"/>
<path d="M434.007 181.76C431.571 182.417 429.009 182.417 426.699 181.795C424.095 181.086 422.121 179.618 421.176 177.682C418.95 173.984 415.569 170.546 413.028 168.247C405.51 166.433 399.609 161.715 397.215 155.598C393.225 145.42 400.029 134.465 412.398 131.182C424.767 127.899 438.081 133.497 442.071 143.675C444.255 149.222 443.31 155.184 439.509 160.091C439.698 164.273 440.37 167.936 441.525 170.978C443.436 174.952 440.454 179.669 434.868 181.518C434.574 181.605 434.28 181.691 434.007 181.76ZM412.986 132.702C401.625 135.726 395.388 145.783 399.042 155.115C401.289 160.8 406.812 165.171 413.805 166.779L414.078 166.848L414.267 167.02C416.892 169.388 420.546 173.051 422.919 177.026L422.94 177.077C423.675 178.581 425.229 179.739 427.308 180.309C429.45 180.896 431.865 180.81 434.133 180.05C438.753 178.529 441.252 174.71 439.719 171.548L439.698 171.513V171.479C438.459 168.247 437.745 164.342 437.577 159.884L437.556 159.625L437.724 159.417C441.357 154.873 442.281 149.308 440.244 144.159C436.569 134.828 424.347 129.678 412.986 132.702Z" fill="#C4C4C4"/>
<path d="M426.931 177.008L414.331 158.397L420.967 160.108L422.647 156.272L426.616 158L429.64 153.213L436.57 173.759L434.701 174.174L429.094 157.533L427.435 160.16L423.718 158.536L422.164 162.078L418.363 161.11L428.611 176.23L426.931 177.008Z" fill="#C4C4C4"/>
<path d="M441.698 177.158L426.178 182.266L428.696 187.411L444.216 182.303L441.698 177.158Z" fill="#C4C4C4"/>
<path d="M441.644 171.081L421.133 177.832L425.182 186.103L445.693 179.351L441.644 171.081Z" fill="#C4C4C4"/>
<path d="M1576.39 361.714C1576.32 471.166 1572.61 492.593 1539.22 517.113C1526.13 526.721 1502.09 546.662 1432.66 556.598C1411.83 559.587 1386.9 561.661 1356.98 562.283C1344.76 562.542 1333.56 562.179 1323.3 561.246C1314.71 560.486 1306.77 559.328 1299.48 557.825C1223.19 542.1 1217.5 488.307 1250.87 443.068C1259.71 431.093 1269.81 420.069 1280.39 409.804C1296.73 393.941 1314.24 379.858 1330.12 366.708C1344.74 354.595 1357.97 343.276 1367.56 332.096C1371.62 327.379 1375.02 322.696 1377.62 317.996C1378.23 316.89 1378.86 315.784 1379.49 314.695C1381.55 311.135 1383.65 307.714 1385.79 304.448C1389.8 298.314 1393.88 292.698 1397.82 287.669C1400.95 283.66 1404.02 280.014 1406.85 276.8C1416.6 265.724 1423.82 259.503 1423.82 259.503C1423.82 259.503 1424.73 259.157 1426.38 258.587C1427.27 258.276 1428.38 257.913 1429.68 257.498C1430.21 257.326 1430.75 257.153 1431.34 256.98C1431.93 256.807 1432.54 256.617 1433.17 256.427C1433.76 256.254 1434.36 256.081 1434.99 255.909C1435.73 255.701 1436.51 255.494 1437.3 255.269C1437.77 255.148 1438.25 255.01 1438.75 254.889C1439.05 254.82 1439.34 254.734 1439.64 254.664C1439.74 254.63 1439.87 254.613 1439.97 254.578C1449.88 252.072 1463.45 249.48 1478.23 249.048C1522.1 247.77 1576.45 265.551 1576.39 361.714Z" fill="#488D9A"/>
<path d="M1398.94 526.479C1398.94 526.479 1400.03 533.823 1401.48 537.054C1402.93 540.286 1410.8 547.768 1407.46 554.939C1403.85 562.715 1388.14 555.215 1381.72 552.848C1375.31 550.481 1376.76 546.161 1376.09 540.89C1375.4 535.62 1372.27 535.482 1373.42 531.767C1374.58 528.051 1381.59 520.949 1381.59 520.949L1398.94 526.479Z" fill="#F5F5F5"/>
<path d="M1384.62 517.113C1384.62 517.113 1380.58 521.744 1380.71 521.882C1380.81 522.003 1397.95 530.591 1399.15 527.809C1400.09 525.597 1400.49 522.401 1400.49 522.401L1384.62 517.113Z" fill="#EEA886"/>
<path d="M1326.55 531.68C1326.55 531.68 1321.32 535.447 1316.64 541.236C1311.93 547.025 1299.48 547.336 1298.96 555.25C1298.43 563.165 1315.9 563.406 1325.08 560.832C1334.26 558.257 1335.64 550.533 1341.19 548.598C1346.73 546.662 1349.63 545.107 1349.19 541.34C1348.77 537.573 1345.68 531.456 1345.68 531.456C1345.68 531.456 1342.24 532.354 1340.2 532.544C1338.16 532.717 1331.34 532.769 1326.55 531.68Z" fill="#F5F5F5"/>
<path d="M1389.42 317.391C1389.42 317.391 1385.92 334.602 1383.08 345.972C1381.93 350.586 1380.9 354.232 1380.25 355.373C1379.43 356.824 1372.83 362.647 1364.75 369.49C1350.57 381.5 1331.84 396.62 1331.84 396.62L1324.51 385.181C1324.51 385.181 1341.14 369.127 1352.42 358.431C1357.65 353.472 1361.7 349.67 1362.46 349.117C1364.81 347.389 1367.56 330.282 1371.41 316.199C1375.25 302.116 1382.96 294.322 1382.96 294.322L1389.42 317.391Z" fill="#C4C4C4"/>
<path d="M1364.77 369.49C1350.6 381.499 1331.86 396.619 1331.86 396.619L1324.53 385.18C1324.53 385.18 1341.17 369.127 1352.44 358.431C1355.91 359.83 1362.25 363.148 1364.77 369.49Z" fill="#EEA886"/>
<path d="M1327.37 526.393L1326.55 531.663C1326.55 531.663 1335.64 534.307 1345.68 531.421L1345.89 526.738L1327.37 526.393Z" fill="#EEA886"/>
<path d="M1456.5 394.286C1457.02 395.824 1360.15 394.286 1360.15 394.286C1360.15 394.286 1386.95 378.233 1388.69 373.948C1390.43 369.662 1381.86 343.933 1380.75 335.569C1379.87 328.864 1377.62 298.901 1382.98 294.322C1388.58 289.535 1408.79 284.524 1408.79 284.524L1438.23 285.422C1438.23 285.422 1443.08 286.252 1446.57 287.582C1450.03 288.913 1469.92 294.736 1473.13 302.893C1476.36 311.066 1453.31 337.314 1453.31 337.314C1453.31 337.314 1453.26 338.489 1453.2 340.425C1453.12 342.999 1452.97 346.922 1452.87 351.173C1452.72 356.685 1452.57 362.733 1452.57 367.174C1452.57 377.594 1455.99 392.766 1456.5 394.286Z" fill="#C4C4C4"/>
<path d="M1456.52 394.287C1456.52 394.287 1469.71 410.219 1469.87 421.088C1470.06 431.957 1446.48 468.384 1442.93 473.585C1432.2 489.241 1402.8 523.023 1402.8 523.023C1402.8 523.023 1397.74 522.919 1381.91 517.856C1381.91 517.856 1401.48 473.239 1403.96 468.608C1414.48 448.961 1420.34 435.033 1416.81 431.664C1413.28 428.294 1403.62 424.907 1400.85 422.92C1398.05 420.933 1349.42 430.489 1344.34 431.577C1331.15 434.394 1337.15 453.281 1340.07 461.748C1344.97 475.918 1349.23 527.084 1349.23 527.084C1349.23 527.084 1339.82 530.384 1324.09 527.602C1324.09 527.602 1293.18 435.206 1292.19 426.013C1291.21 416.82 1290.7 401.666 1366.89 390.157L1456.52 394.287Z" fill="#22292A"/>
<path d="M1416.87 231.872C1416.87 231.872 1391.31 227.12 1397.15 253.593C1402.99 280.066 1409.14 282.14 1424.56 276.662C1439.99 271.184 1438.61 254.233 1439.38 245.904C1440.14 237.592 1425.02 232.166 1416.87 231.872Z" fill="#EEA886"/>
<path d="M1410.11 291.316C1410.11 291.316 1421.43 301.183 1439.32 292.214C1439.32 292.214 1435.31 270.804 1437.43 260.384C1439.53 249.965 1414.08 276.541 1414.08 276.541C1414.41 276.679 1414.62 277.682 1414.69 279.099C1414.73 280.291 1414.67 281.794 1414.41 283.332C1413.89 286.788 1412.59 290.452 1410.11 291.316Z" fill="#EEA886"/>
<path d="M1438.12 259.503C1438.12 259.503 1437.47 251.157 1433.75 250.897C1430.06 250.638 1429.49 253.991 1429.49 253.991L1425.75 254.578C1425.75 254.578 1426.93 247.269 1423.23 245.99C1419.54 244.711 1399.27 250.016 1396.31 247.873C1393.33 245.731 1394.74 230.904 1400.11 228.865C1405.47 226.844 1420.29 222.282 1431.15 228.33C1431.15 228.33 1439.61 227.535 1440.87 233.151C1442.13 238.784 1440.41 255.321 1438.12 259.503Z" fill="#3A3F47"/>
<path d="M1414.41 283.332C1432.87 278.649 1434.26 269.508 1434.28 269.37C1428.21 277.958 1414.69 279.098 1414.69 279.098C1414.73 280.29 1414.64 281.794 1414.41 283.332Z" fill="#A77860"/>
<path d="M1446.88 287.687C1446.88 287.687 1433.36 309.822 1411.52 308.405C1389.68 306.971 1407.8 284.714 1408.79 284.507C1409.88 284.282 1431.17 279.928 1446.88 287.687Z" fill="#EEA886"/>
<path d="M1349.06 393.164C1349.06 393.164 1415.97 399.955 1456.52 394.287L1379.07 386.321C1379.05 386.321 1378.59 387.945 1349.06 393.164Z" fill="#C4C4C4"/>
<path d="M1399.1 383.815L1394.13 385.889C1394.13 385.889 1395.26 392.404 1397.99 394.374L1403.58 393.198C1403.58 393.216 1402.42 386.062 1399.1 383.815Z" fill="#EEA886"/>
<path d="M1476.53 370.475C1475.54 371.425 1462.38 375.78 1447.51 380.48C1427.2 386.908 1404.31 393.008 1404.31 393.008L1399.1 383.815C1399.1 383.815 1423.09 373.102 1439.28 365.568C1446.94 362.025 1452.84 359.174 1453.68 358.517C1456.29 356.478 1456.96 353.195 1455.05 347.493C1453.14 341.79 1448.71 315.542 1448.22 312.466C1447.72 309.408 1449.46 301.234 1458.77 300.819C1468.07 300.405 1472.81 302.582 1472.81 302.582C1472.81 302.582 1475.15 303.377 1476.89 321.953C1478.63 340.563 1478.88 368.229 1476.53 370.475Z" fill="#C4C4C4"/>
<path d="M1453.2 340.443C1453.12 343.017 1452.97 346.94 1452.87 351.191C1443.79 332.874 1449.02 318.255 1449.13 318.013C1448.14 322.972 1453.12 340.201 1453.2 340.443Z" fill="#B0B0B0"/>
<path d="M1383.08 345.955C1381.93 350.569 1380.9 354.215 1380.25 355.355C1377.14 343 1379.93 327.189 1379.93 327.189C1380.35 334.757 1383.08 345.955 1383.08 345.955Z" fill="#B0B0B0"/>
<path d="M1447.51 380.498C1427.2 386.926 1403.58 393.216 1403.58 393.216L1399.1 383.815C1399.1 383.815 1423.09 373.102 1439.28 365.568C1439.3 365.585 1445.18 367.935 1447.51 380.498Z" fill="#EEA886"/>
<path d="M1397.66 393.769L1302.57 392.611L1350.57 412.673L1397.66 393.769Z" fill="#444C94"/>
<path d="M1350.57 412.673L1397.66 397.656V393.768L1346.86 408.836L1350.57 412.673Z" fill="#303669"/>
<path d="M1395.2 386.045C1395.2 386.045 1389.26 385.284 1385.16 384.489C1381.99 383.885 1374.07 384.714 1372.08 386.39C1370.06 388.066 1363.66 399.765 1362.46 400.473C1361.24 401.182 1363.09 402.841 1365.21 402.011C1365.21 402.011 1367.16 407.126 1371.97 405.208C1376.78 403.29 1380.06 399.108 1382.58 398.382C1385.1 397.639 1399.8 393.924 1399.8 393.924C1399.8 393.924 1398.98 384.8 1395.2 386.045Z" fill="#EEA886"/>
<path d="M1373.51 385.63C1373.51 385.63 1369.68 387.15 1368.7 387.824C1367.71 388.498 1363.66 390.986 1362.69 391.574C1361.73 392.161 1364.16 393.82 1371.39 391.246C1378.61 388.671 1373.51 385.63 1373.51 385.63Z" fill="#EEA886"/>
<path d="M1350.57 412.673L1322.29 349.117L1231.1 350.344L1258.07 408.906L1350.57 412.673Z" fill="#193236"/>
<path d="M1293.12 377.231C1295.89 381.811 1295.05 386.787 1291.25 388.36C1287.43 389.932 1282.07 387.496 1279.3 382.917C1276.53 378.337 1277.37 373.361 1281.17 371.788C1284.97 370.216 1290.32 372.652 1293.12 377.231Z" fill="#5EC8D9"/>
<path d="M1429.58 250.465C1429.91 248.133 1435.52 247.269 1435.98 250.776C1436.42 254.284 1433.44 260.419 1431.3 259.814C1429.16 259.209 1429.11 253.679 1429.58 250.465Z" fill="#EEA886"/>
<path d="M1148.81 154.838C1148.81 154.838 1163.34 153.594 1168.59 165.137C1173.82 176.697 1178.75 180.481 1179.38 186.547C1181.88 211.102 1195.82 205.555 1191.9 219.707C1187.97 233.859 1185.26 236.002 1185.26 236.002L1151.96 230.628L1118.21 230.714C1118.21 230.714 1131.42 225.289 1128.48 213.728C1125.54 202.168 1118.21 183.229 1122.35 170.321C1126.46 157.43 1140.11 155.823 1148.81 154.838Z" fill="#464240"/>
<path d="M1139.61 534.238C1139.61 534.238 1129.17 546.04 1130.64 547.941C1132.13 549.842 1143.53 550.118 1150.46 547.941C1157.39 545.764 1157.56 531.698 1160.71 525.65C1162.04 523.127 1159.22 515.645 1155.27 515.109C1151.33 514.573 1146.68 516.267 1146.68 516.267C1146.68 516.267 1150.72 524.889 1139.61 534.238Z" fill="#22252A"/>
<path d="M1139.61 534.238C1139.61 534.238 1129.17 546.04 1130.64 547.941C1132.13 549.842 1143.53 550.118 1150.46 547.941C1157.39 545.764 1157.56 531.698 1160.71 525.65C1162.04 523.127 1159.22 515.645 1155.27 515.109C1151.33 514.573 1146.68 516.267 1146.68 516.267C1146.68 516.267 1150.72 524.889 1139.61 534.238Z" fill="url(#paint5_linear)"/>
<path d="M1146.66 516.284C1146.66 516.284 1145.84 521.848 1144.52 525.805C1143.2 529.745 1136.1 538.713 1136.44 539.802C1136.77 540.89 1145.68 541.875 1149.31 539.076C1152.94 536.277 1155.76 528.155 1156.07 523.248C1156.41 518.34 1155.25 515.126 1155.25 515.126C1155.25 515.126 1150.13 513.294 1146.66 516.284Z" fill="#EEA886"/>
<path d="M1160.69 525.667V538.229H1158.72V528.518L1160.69 525.667Z" fill="#22252A"/>
<path d="M1160.69 525.667V538.229H1158.72V528.518L1160.69 525.667Z" fill="url(#paint6_linear)"/>
<path d="M1166.93 534.238C1166.93 534.238 1156.49 546.04 1157.96 547.941C1159.45 549.842 1170.86 550.118 1177.79 547.941C1184.72 545.764 1184.88 531.698 1188.03 525.65C1189.36 523.127 1186.54 515.645 1182.57 515.109C1178.63 514.573 1173.99 516.267 1173.99 516.267C1173.99 516.267 1178.04 524.889 1166.93 534.238Z" fill="#22252A"/>
<path d="M1166.93 534.238C1166.93 534.238 1156.49 546.04 1157.96 547.941C1159.45 549.842 1170.86 550.118 1177.79 547.941C1184.72 545.764 1184.88 531.698 1188.03 525.65C1189.36 523.127 1186.54 515.645 1182.57 515.109C1178.63 514.573 1173.99 516.267 1173.99 516.267C1173.99 516.267 1178.04 524.889 1166.93 534.238Z" fill="url(#paint7_linear)"/>
<path d="M1173.98 516.284C1173.98 516.284 1173.17 521.848 1171.84 525.805C1170.52 529.745 1163.42 538.713 1163.76 539.802C1164.09 540.89 1173.02 541.875 1176.63 539.076C1180.26 536.277 1183.08 528.155 1183.41 523.248C1183.75 518.34 1182.59 515.126 1182.59 515.126C1182.59 515.126 1177.45 513.294 1173.98 516.284Z" fill="#EEA886"/>
<path d="M1188.03 525.667V538.229H1186.06V528.518L1188.03 525.667Z" fill="#22252A"/>
<path d="M1188.03 525.667V538.229H1186.06V528.518L1188.03 525.667Z" fill="url(#paint8_linear)"/>
<path d="M1120.39 320.64C1120.39 320.64 1112.5 356.461 1110.35 365.429C1108.21 374.398 1102.25 417.788 1101.6 425.166C1100.95 432.545 1121.09 468.038 1122.35 470.492C1143.41 511.48 1145.82 520.759 1145.82 520.759C1145.82 520.759 1152.73 524.319 1155.92 520.068C1156.89 518.772 1142.97 471.771 1140.68 458.724C1138.54 446.594 1132.99 427.879 1134.48 423.611C1135.97 419.36 1149.65 360.712 1152.21 358.241C1154.77 355.787 1158.61 359.641 1160.1 365.101C1161.59 370.544 1164.81 417.632 1166.72 423.611C1168.65 429.59 1167.16 449.79 1168.21 459.986C1169.28 470.181 1173.73 517.753 1173.73 517.753C1173.73 517.753 1182.34 519.014 1183.18 517.891C1184.04 516.75 1191.48 465.049 1191.71 452.935C1191.92 440.805 1192.15 424.095 1192.57 418.842C1196.52 368.592 1203.99 362.025 1190.93 325.858C1158.99 237.385 1120.39 320.64 1120.39 320.64Z" fill="#EEA886"/>
<path d="M1120.39 320.639C1120.39 320.639 1112.5 356.461 1110.35 365.429C1108.21 374.397 1102.25 417.787 1101.6 425.166C1100.95 432.545 1120.39 468.038 1120.81 470.682C1121.23 473.325 1137.23 511.048 1137.23 511.048C1137.23 511.048 1153.41 510.823 1157.82 507.367C1158.7 506.676 1142.97 471.77 1140.68 458.724C1138.54 446.593 1132.99 427.879 1134.48 423.611C1135.97 419.36 1149.65 360.712 1152.21 358.241C1154.77 355.787 1158.61 359.64 1160.1 365.101C1161.6 370.544 1164.81 417.632 1166.72 423.611C1168.65 429.59 1167.16 449.79 1168.21 459.985C1169.28 470.18 1167.03 506.382 1167.03 506.382C1167.03 506.382 1188.2 507.298 1189.06 506.157C1189.92 505.034 1191.5 465.031 1191.71 452.918C1191.92 440.787 1192.15 424.077 1192.57 418.824C1196.52 368.574 1203.99 362.008 1190.93 325.841C1158.99 237.384 1120.39 320.639 1120.39 320.639Z" fill="#488D9A"/>
<path d="M1194.12 332.701C1195.36 332.286 1185.47 305.398 1183.52 297.346C1181.75 290.088 1175.73 283.453 1181.61 271.098C1184.97 264.03 1184.76 255.667 1184.76 255.667C1184.76 255.667 1193.77 272.013 1194.61 276.23C1195.47 280.446 1163.51 272.774 1163.06 273.361C1162.22 274.467 1161.28 281.586 1161.28 284.058C1161.28 286.097 1207.67 295.117 1213.17 287.116C1214.72 284.852 1204.64 241.462 1198.16 235.674C1187.49 226.187 1159.43 218.1 1159.43 218.1C1159.43 218.1 1151.75 214.713 1138.22 218.221C1124.7 221.746 1105.78 232.511 1102.48 235.328C1099.2 238.145 1086.1 280.515 1084.97 285.993C1083.89 291.16 1084.31 302.011 1098.64 300.629L1137.3 293.354L1134.9 283.66L1105.92 285.544C1100 286.373 1102.84 282.105 1103.59 279.72C1104.33 277.387 1111.59 255.822 1111.59 255.822C1111.17 261.801 1116.65 281.414 1119.49 288.205C1122.35 294.996 1116.05 331.353 1115.6 335.345C1115.6 335.327 1138.87 351.052 1194.12 332.701Z" fill="#5EC8D9"/>
<path d="M1165.73 220.07C1165.73 220.07 1156.2 236.261 1148.24 241.013C1148.24 241.013 1133.9 223.336 1134.63 219.258C1134.61 219.258 1150.51 213.469 1165.73 220.07Z" fill="#EEA886"/>
<path d="M1166.07 274.675C1166.07 274.675 1161.66 273.206 1160.48 271.893C1159.31 270.58 1155.4 269.785 1152.5 270.493C1149.6 271.202 1151.2 281.449 1151.2 281.449L1166.49 283.073L1166.07 274.675Z" fill="#EEA886"/>
<path d="M1138.39 282.502C1138.39 282.502 1139.86 275.884 1139.5 274.657C1139.15 273.431 1142.11 272.204 1142.53 275.228C1142.95 278.252 1143.16 280.17 1143.16 280.17L1138.39 282.502Z" fill="#EEA886"/>
<path d="M1144.73 287.099L1155.86 286.719C1157.29 286.667 1158.42 285.717 1158.44 284.542L1158.74 264.48C1158.76 263.218 1157.5 262.216 1155.97 262.251L1142.63 262.613C1141.1 262.665 1139.92 263.737 1140.05 264.998L1141.94 285.077C1142.06 286.235 1143.3 287.134 1144.73 287.099Z" fill="#2A2E51"/>
<path d="M1138.14 283.038C1138.14 283.038 1137.93 281.155 1142.32 279.444C1148.15 277.163 1155.92 274.83 1157.25 275.435C1159.16 276.299 1158.17 277.491 1154.5 278.494C1150.82 279.496 1149.6 279.807 1149.6 279.807C1149.6 279.807 1156.81 279.237 1158.42 279.945C1160.04 280.654 1160.12 282.295 1158.95 282.572C1157.77 282.831 1154.98 283.004 1154.98 283.004C1154.98 283.004 1158.05 283.107 1158.34 284.11C1158.57 284.853 1158.68 285.924 1155.78 286.373C1155.78 286.373 1157.73 288.17 1154.79 289.311C1151.85 290.451 1146.52 291.505 1143.85 291.868C1138.28 292.611 1125.73 292.058 1125.73 292.058L1130.89 284.87C1130.89 284.87 1133.77 285.06 1135.74 284.507C1138.41 283.747 1138.14 283.038 1138.14 283.038Z" fill="#EEA886"/>
<path d="M1134.86 283.626L1137.28 293.32L1112.64 297.968L1111.68 285.129L1134.86 283.626Z" fill="#61C0CF"/>
<path d="M1163.04 273.344C1163.04 273.344 1161.01 276.921 1161.26 284.041C1161.26 284.041 1176.53 288.637 1188.39 289.691V277.353L1163.04 273.344Z" fill="#61C0CF"/>
<path d="M1137.28 293.32L1120.01 301.217C1120.14 299.575 1120.22 297.985 1120.27 296.534L1137.28 293.32Z" fill="#488D9A"/>
<path d="M1182.66 294.374C1168.8 289.847 1163.25 285.751 1161.74 284.455C1161.41 284.179 1161.28 284.023 1161.28 284.023L1180.96 288.741C1181.44 290.711 1182.07 292.56 1182.66 294.374Z" fill="#488D9A"/>
<path d="M1150.72 161.594C1150.72 161.594 1169.97 163.875 1167.16 187.272C1164.35 210.67 1147.34 208.821 1146.2 208.786C1145.07 208.769 1129.15 209.27 1127.76 180.723C1127.78 180.741 1127.13 159.624 1150.72 161.594Z" fill="#EEA886"/>
<path d="M1159.28 204.656C1159.28 204.656 1158.09 216.822 1160.94 220.468C1163.8 224.114 1158.51 229.056 1147.61 227.362C1136.73 225.669 1137.36 220.589 1137.36 220.589C1137.36 220.589 1140.4 213.072 1139.52 207.058C1138.62 201.062 1159.28 204.656 1159.28 204.656Z" fill="#EEA886"/>
<path d="M1148.51 170.079C1148.51 170.079 1157.52 177.855 1161.7 181.812C1165.88 185.752 1166.36 193.373 1166.36 193.373C1166.36 193.373 1173.4 186.288 1170.46 178.045C1167.52 169.803 1160.54 153.767 1142.9 158.692C1125.26 163.616 1124.61 185.303 1126.69 196.051C1126.67 196.051 1134.61 172.308 1148.51 170.079Z" fill="#464240"/>
<path d="M1140.93 207.732C1140.93 207.732 1149.14 210.929 1157.12 206.211C1157.12 206.211 1154.9 209.978 1149.02 210.514C1143.14 211.05 1140.93 207.732 1140.93 207.732Z" fill="#A77860"/>
<path d="M1138.14 211.983C1138.14 211.983 1111.64 231.389 1118.52 243.485C1124.38 253.818 1145.21 247.476 1141.77 236.659C1138.33 225.842 1138.14 211.983 1138.14 211.983Z" fill="#464240"/>
<path d="M1145.34 266.467C1145.34 267.227 1144.61 267.832 1143.68 267.832C1142.76 267.832 1142.02 267.227 1142.02 266.467C1142.02 265.706 1142.76 265.101 1143.68 265.101C1144.61 265.119 1145.34 265.723 1145.34 266.467Z" fill="#48484D"/>
<path d="M428.693 535.931L409.352 430.125L413.069 429.659L432.41 535.464L428.693 535.931Z" fill="#5C5049"/>
<path d="M405.069 535.931L385.749 430.125L389.466 429.659L408.807 535.464L405.069 535.931Z" fill="#5C5049"/>
<path d="M288.792 535.931L285.054 535.464L304.395 429.659L308.112 430.125L288.792 535.931Z" fill="#5C5049"/>
<path d="M415.401 431.197L430.542 300.076C430.542 300.076 404.061 297.225 388.038 297.934L363.972 431.197H415.401Z" fill="#C4C4C4"/>
<path d="M415.4 424.544H363.992V431.214H415.4V424.544Z" fill="#667580"/>
<path d="M330.351 425.858L322.308 300.906C322.308 300.906 389.34 294.91 430.521 300.077L330.351 425.858Z" fill="#C4C4C4"/>
<path d="M383.901 260.453C383.901 260.453 394.254 235.467 374.493 227.725C354.732 219.984 337.974 231.181 334.803 237.229C331.632 243.277 332.472 254.302 335.181 261.974C337.89 269.664 337.491 281.345 331.611 285.25C325.752 289.155 318.465 295.653 318.822 308.872C319.053 317.08 358.05 287.894 358.05 287.894L383.901 260.453Z" fill="#FCCCA2"/>
<path d="M357.546 529.261C357.546 529.261 356.937 546.921 360.003 547.975C363.069 549.047 374.661 542.895 379.785 536.83C384.909 530.765 373.38 516.629 371.49 508.836C370.692 505.57 361.683 499.695 357.294 501.388C352.905 503.065 349.692 507.385 349.692 507.385C349.692 507.385 360.843 513.675 357.546 529.261Z" fill="#22252A"/>
<path d="M357.546 529.261C357.546 529.261 356.937 546.921 360.003 547.975C363.069 549.047 374.661 542.895 379.785 536.83C384.909 530.765 373.38 516.629 371.49 508.836C370.692 505.57 361.683 499.695 357.294 501.388C352.905 503.065 349.692 507.385 349.692 507.385C349.692 507.385 360.843 513.675 357.546 529.261Z" fill="url(#paint9_linear)"/>
<path d="M349.67 507.367C349.67 507.367 353.471 513.398 355.424 518.063C357.377 522.729 357.755 535.689 358.973 536.588C360.212 537.486 369.914 533.46 371.216 528.604C372.518 523.766 368.57 514.089 364.832 509.009C361.073 503.928 357.272 501.371 357.272 501.371C357.272 501.371 350.636 502.442 349.67 507.367Z" fill="#DE9673"/>
<path d="M371.468 508.836L381.905 521.364L379.931 522.487L371.846 512.793L371.468 508.836Z" fill="#22252A"/>
<path d="M371.468 508.836L381.905 521.364L379.931 522.487L371.846 512.793L371.468 508.836Z" fill="url(#paint10_linear)"/>
<path d="M333.878 370.198C333.878 370.198 338.981 377.283 333.878 382.45C328.775 387.617 294.44 401.804 294.692 409.994C294.944 418.185 301.223 431.024 303.491 434.273C305.759 437.521 314.096 451.034 318.422 458.931C322.748 466.828 347.801 504.637 352.694 513.156C357.587 521.675 354.584 479.062 354.584 479.062L329.531 418.634L388.058 371.719C388.058 371.736 380.96 358.776 333.878 370.198Z" fill="#DE9673"/>
<path d="M356.138 290.175C356.138 290.175 339.905 293.13 333.458 296.24C327.011 299.334 312.71 313.59 312.71 319.724C312.71 325.858 375.29 331.578 375.29 331.578L387.155 367.209C387.155 367.209 418.781 360.85 422.561 355.58C426.32 350.31 410.108 312.812 407.84 304.915C405.572 297.018 393.749 291.678 380.561 290.158C367.373 288.654 356.138 290.175 356.138 290.175Z" fill="#2F4563"/>
<path d="M394.506 371.373C394.506 371.373 393.372 377.473 396.396 380.048C399.42 382.64 413.28 397.691 405.93 412.483C399.189 426.065 386.085 425.805 386.085 425.805H365.841C365.841 425.805 371.721 450.257 369.831 466.379C367.92 482.501 358.995 519.29 358.806 521.157C358.617 523.023 350.238 528.829 347.802 525.891C347.802 525.891 347.571 503.738 346.248 495.358C344.925 486.994 339.318 453.523 337.617 448.563C335.916 443.604 325.941 428.57 325.941 427.032C325.941 425.477 316.197 401.216 337.47 395.03C358.764 388.809 366.282 371.494 394.506 371.373Z" fill="#EEA886"/>
<path d="M337.721 542.964C337.721 542.964 323.756 556.373 325.331 558.775C326.906 561.194 340.599 562.421 349.23 560.348C357.84 558.274 359.688 541.322 364.182 534.29C366.072 531.352 363.552 522.124 358.848 521.157C354.144 520.189 348.348 521.882 348.348 521.882C348.348 521.882 352.191 532.562 337.721 542.964Z" fill="#22252A"/>
<path d="M337.721 542.964C337.721 542.964 323.756 556.373 325.331 558.775C326.906 561.194 340.599 562.421 349.23 560.348C357.84 558.274 359.688 541.322 364.182 534.29C366.072 531.352 363.552 522.124 358.848 521.157C354.144 520.189 348.348 521.882 348.348 521.882C348.348 521.882 352.191 532.562 337.721 542.964Z" fill="url(#paint11_linear)"/>
<path d="M348.326 521.883C348.326 521.883 346.688 528.535 344.63 533.184C342.572 537.832 332.975 548.079 333.248 549.427C333.521 550.758 344.147 552.658 348.872 549.565C353.576 546.472 357.902 536.916 358.889 531.007C359.855 525.114 358.847 521.157 358.847 521.157C358.847 521.157 352.841 518.548 348.326 521.883Z" fill="#EEA886"/>
<path d="M364.139 534.29L362.69 549.444L360.296 549.289L361.43 537.573L364.139 534.29Z" fill="#22252A"/>
<path d="M364.139 534.29L362.69 549.444L360.296 549.289L361.43 537.573L364.139 534.29Z" fill="url(#paint12_linear)"/>
<path d="M405.93 412.483C399.567 426.255 386.085 425.806 386.085 425.806H365.841C365.841 425.806 357.399 414.781 336.693 412.897C332.115 412.483 326.928 412.5 321.09 413.208C321.027 413.208 320.943 413.226 320.88 413.226C293.391 416.578 298.704 424.872 298.788 425.097C296.499 420.501 294.105 413.208 294.672 409.269C297.318 391.366 328.755 387.617 333.858 382.45C338.961 377.283 333.858 370.198 333.858 370.198C380.94 358.776 388.038 371.754 388.038 371.754C390.096 371.512 395.388 369.006 397.635 369.006C397.635 369.006 399.987 373.24 401.646 377.059C403.137 380.428 412.86 397.553 405.93 412.483Z" fill="#2F4563"/>
<path d="M386.399 313.9L393.371 367.209H301.664L294.692 313.9H386.399Z" fill="#5EC8D9"/>
<path d="M400.659 362.423H385.35V367.227H400.659V362.423Z" fill="#DED1C5"/>
<path d="M491.043 367.209H238.455V374.467H491.043V367.209Z" fill="#BC8551"/>
<path d="M366.282 231.993C366.282 231.993 386.82 236.987 383.901 260.453C380.961 283.92 367.542 282.71 366.282 282.883C365.022 283.056 349.083 283.92 344.064 255.459C339.024 226.982 366.282 231.993 366.282 231.993Z" fill="#EEA886"/>
<path d="M376.068 278.563C376.068 278.563 374.976 286.339 376.803 291.16C378.63 295.998 352.863 296.119 352.884 292.145C352.905 287.635 355.509 283.868 353.052 276.126C350.595 268.402 376.068 278.563 376.068 278.563Z" fill="#EEA886"/>
<path d="M360.99 242.448C360.99 242.448 372.162 257.067 383.901 260.453C383.901 260.453 390.306 235.933 363.825 230.801C337.323 225.669 341.481 255.563 343.455 263.547C343.434 263.529 348.957 251.813 360.99 242.448Z" fill="#FCCCA2"/>
<path d="M356.097 279.565C356.097 279.565 364.224 286.529 374.619 280.291C374.619 280.291 373.758 284.749 366.282 285.319C358.827 285.89 356.097 279.565 356.097 279.565Z" fill="#A77860"/>
<path d="M346.017 240.253C346.017 240.253 351.897 230.887 361.809 230.473C371.742 230.058 377.643 237.143 377.643 237.143C377.643 237.143 373.779 229.159 361.83 229.159C349.881 229.159 346.017 240.253 346.017 240.253Z" fill="#23344A"/>
<path d="M379.427 290.054C379.427 290.054 379.07 306.297 363.404 306.781C347.759 307.265 351.014 291.212 351.014 291.212C351.014 291.212 362.48 287.376 379.427 290.054Z" fill="#EEA886"/>
<path d="M491.064 374.467H484.575V541.132H491.064V374.467Z" fill="#667580"/>
<path d="M244.943 374.467H238.455V541.132H244.943V374.467Z" fill="#667580"/>
<path d="M1004.47 227.172C1004.47 227.172 1024.57 232.028 1023.33 254.509C1022.11 276.991 1004.47 227.172 1004.47 227.172Z" fill="#EEA886"/>
<path d="M1002.62 227.172C1002.62 227.172 1004.18 228.9 1002.23 240.098C1000.29 251.278 1003.97 255.961 1004.41 260.609C1004.85 265.257 1011.49 295.325 1011.65 296.655C1011.82 297.986 1012.73 313.987 1015.31 318.238C1017.89 322.489 1036.92 346.543 1037.17 347.752C1037.42 348.962 1046.41 343.57 1046.41 343.57C1046.41 343.57 1029.34 314.333 1028.22 311.447C1026.86 307.87 1022.64 299.005 1022.39 294.357C1021.76 283.021 1022.99 256.669 1022.51 250.932C1021.63 240.184 1011.34 228.883 1002.62 227.172Z" fill="#EEA886"/>
<path d="M1028.24 323.162C1028.24 323.162 1031.23 328.571 1033.01 328.917C1034.78 329.245 1036.88 331.059 1038.41 331.612C1039.92 332.165 1044.69 332.459 1045.97 333.496C1046.49 333.911 1048.49 337.522 1049.66 338.282C1050.84 339.043 1053.44 340.339 1052.65 341.151C1051.85 341.963 1049.14 341.324 1049.14 341.324C1049.14 341.324 1050.17 342.067 1049.73 342.965C1048.89 344.711 1047.46 344.797 1047.46 344.797C1047.46 344.797 1047.92 346.11 1047.33 346.767C1046.07 348.201 1044.69 348.253 1044.69 348.253C1044.69 348.253 1044.56 349.272 1043.47 350.05C1042.06 351.07 1040.3 350.482 1040.3 350.482C1040.3 350.482 1038.89 352.089 1037.57 351.778C1036.27 351.467 1035.49 350.655 1034.56 350.188C1033.62 349.722 1027.11 343.536 1024.7 337.764C1022.28 331.975 1018.1 327.292 1018.1 327.292L1028.24 323.162Z" fill="#EEA987"/>
<path d="M1083.26 315.847L1047.6 279.663L974.216 328.633L1009.88 364.817L1083.26 315.847Z" fill="#214361"/>
<path d="M1048.76 340.581C1048.76 340.581 1043.07 335.38 1040.24 335.483C1037.4 335.587 1039.33 337.557 1039.33 337.557C1039.33 337.557 1037.46 335.587 1035.45 336.624C1033.43 337.678 1035.82 339.872 1035.82 339.872C1035.82 339.872 1033.93 338.68 1032.44 340.322C1030.95 341.963 1033.43 343.432 1033.43 343.432C1033.43 343.432 1029.67 342.983 1030.49 345.506C1031.86 349.757 1037.44 351.847 1037.44 351.847C1037.44 351.847 1039 352.21 1040.3 350.534C1040.3 350.534 1043.81 351.64 1044.77 348.288C1044.77 348.288 1048.87 347.51 1047.56 344.815C1047.59 344.815 1051.91 343.588 1048.76 340.581Z" fill="#DB9C7C"/>
<path d="M986.117 161.508C986.117 161.508 957.053 159.521 957.851 184.681C958.649 209.84 963.5 213.625 957.83 231.406C952.181 249.187 986.159 221.314 986.159 221.314L986.117 161.508Z" fill="#FCCCA2"/>
<path d="M954.45 316.959C954.45 316.959 943.74 328.174 939.981 335.604C936.201 343.035 929.901 359.295 930.741 371.91C931.581 384.507 936.621 408.163 935.151 413.52C933.681 418.877 932.211 429.919 930.636 433.72C929.061 437.522 922.761 448.564 922.131 459.968C921.501 471.373 930.951 521.433 930.531 526.099C930.111 530.765 941.241 528 941.241 528C941.241 528 945.021 482.761 947.121 474.985C949.221 467.209 951.741 440.805 953.631 438.904C955.521 437.003 960.687 417.321 959.889 414.211C959.091 411.101 980.49 364.479 981.75 355.165C983.01 345.851 1014.57 316.959 1014.57 316.959C1014.57 316.959 986.979 308.285 954.45 316.959Z" fill="#EEA987"/>
<path d="M1005.52 316.959C1005.52 316.959 1006.07 321.659 1006.7 323.387C1007.33 325.115 1021.82 369.144 1023.27 386.062C1024.74 402.979 1028.52 417.338 1029.15 420.95C1029.78 424.561 1028.52 436.657 1027.26 439.768C1026 442.878 1033.56 516.266 1034.19 517.994C1034.82 519.722 1029.15 520.241 1025.16 519.722C1021.17 519.204 1001.03 465.843 1002.29 456.875C1003.55 447.889 1004.81 428.743 1001.24 420.967C997.668 413.191 965.559 356.893 965.349 353.437C965.139 349.981 951.468 290.503 1005.52 316.959Z" fill="#EEA987"/>
<path d="M941.031 522.505C941.031 522.505 942.06 528.466 943.194 530.091C944.328 531.715 947.436 539.992 948.843 541.547C950.25 543.103 953.358 554.715 948.843 556.097C944.328 557.497 933.702 559.812 930.111 555.164C926.541 550.516 926.058 545.867 926.625 542.308C927.192 538.748 931.476 522.401 931.434 520.777C931.371 519.17 941.031 522.505 941.031 522.505Z" fill="#EEA987"/>
<path d="M947.038 538.316C947.038 538.316 947.521 547.336 939.247 547.336C930.973 547.336 927.298 539.128 927.298 539.128C927.298 539.128 924.484 543.154 927.298 551.76C930.112 560.348 941.893 558.568 944.518 558.257C947.143 557.946 959.617 555.233 947.038 538.316Z" fill="#C4C4C4"/>
<path d="M1033.28 514.383C1033.28 514.383 1039.14 523.006 1042.61 524.751C1046.93 526.928 1055.33 533.91 1058.27 534.221C1061.21 534.549 1071.76 536.087 1069.72 540.994C1068.04 545.003 1042.88 544.433 1040.03 542.429C1037.19 540.407 1028.71 533.184 1025.26 533.339C1021.84 533.495 1023.12 543.759 1023.12 543.759H1019.4C1019.4 543.759 1018.1 533.771 1017.95 532.061C1017.49 526.98 1021.9 523.23 1022.09 520.345C1022.28 517.442 1022.49 515.282 1022.49 515.282L1033.28 514.383Z" fill="#C4C4C4"/>
<path d="M1057.46 533.996C1057.46 533.996 1049.16 536.364 1042.78 533.34C1036.39 530.316 1024.13 525.736 1019.8 525.702C1019.8 525.702 1022.15 519.757 1022.22 519.084C1022.26 518.427 1022.53 515.282 1022.53 515.282L1033.24 513.865C1033.24 513.865 1040.19 522.263 1043.26 524.233C1046.3 526.22 1054.16 531.145 1057.46 533.996Z" fill="#EEA987"/>
<path d="M1014.72 316.181C1014.72 316.181 1017.7 326.411 1018.82 329.383C1019.91 332.355 1026.98 378.562 1028.73 407.471C1028.73 407.471 986.391 420.673 928.159 418.479C928.159 418.479 926.752 365.377 932.086 350.361C937.44 335.345 947.121 321.279 954.429 316.942C960.939 313.105 1014.72 316.181 1014.72 316.181Z" fill="#C4C4C4"/>
<path d="M1022.01 255.684C1021.52 261.767 1018.5 265.672 1017.87 267.867C1017.24 270.061 1017.87 275.124 1017.09 280.17C1016.3 285.216 1013.94 309.304 1014.74 316.164C1015.52 323.024 957.495 319.931 953.085 317.858C953.085 317.858 962.85 303.481 963.123 297.519C963.207 295.48 964.698 289.104 960.603 284.438C958.44 281.984 954.429 274.139 950.439 268.419C950.439 268.419 951.174 267.227 950.439 268.419C948.885 266.19 947.268 263.979 946.134 262.337C944.664 260.177 943.824 257.637 943.824 257.637C943.824 257.637 941.241 231.216 948.318 228.243C955.395 225.271 959.175 224.753 966.105 224.494C973.035 224.234 977.592 223.077 977.592 223.077L993.804 224.494C993.804 224.494 999.517 226.706 1003.61 226.965C1007.71 227.224 1012.7 234.533 1015.18 239.838C1017.2 244.193 1022.47 249.602 1022.01 255.684Z" fill="#F5F5F5"/>
<path d="M957.097 225.496C957.097 225.496 944.265 226.377 939.435 236.071C934.605 245.766 935.025 255.632 933.975 259.209C932.925 262.786 931.392 283.557 930.3 286.616C929.208 289.674 925.428 303.913 924.588 315.404C923.748 326.913 925.827 351.156 925.827 351.156L932.925 348.322C932.925 348.322 939.246 312.363 941.997 304.76C944.349 298.262 944.349 287.203 945.672 283.211C946.995 279.22 955.039 255.183 956.341 252.747C958.336 249.014 968.122 225.375 957.097 225.496Z" fill="#EEA886"/>
<path d="M983.262 164.048C990.465 163.081 1006.95 164.567 1011.61 180.119C1011.61 180.119 1011.61 184.439 1010.83 187.895C1010.04 191.351 1015.06 200.889 1014.17 201.459C1013.29 202.03 1009.45 203.032 1009.45 203.032C1009.45 203.032 1006.72 214.212 1002.1 214.54C997.5 214.886 979.671 213.555 969.612 200.924C959.574 188.309 954.177 167.971 983.262 164.048Z" fill="#EEA886"/>
<path d="M995.232 210.221C995.232 210.221 994.875 211.793 994.539 214.091C994.371 215.266 994.203 216.632 994.098 218.083C993.804 222.092 993.951 226.74 995.631 229.678C995.631 229.678 986.58 234.205 976.921 223.129C976.921 223.129 977.886 209.391 972.322 202.099C966.757 194.807 995.232 210.221 995.232 210.221Z" fill="#EEA886"/>
<path d="M1011.63 180.136C1011.63 180.136 1000.78 187.843 989.31 190.262C977.823 192.698 971.754 203.308 971.754 203.308C971.754 203.308 951.426 186.633 963.69 170.442C975.933 154.268 1011.61 161.491 1011.63 180.136Z" fill="#FCCCA2"/>
<path d="M994.539 214.091C994.371 215.266 994.203 216.631 994.098 218.083C983.976 214.039 978.39 208.493 978.39 208.493C984.354 212 994.539 214.091 994.539 214.091Z" fill="#A77860"/>
<path d="M987.189 190.815C987.189 190.815 975.45 216.804 976.857 223.059C976.857 223.059 970.641 222.178 959.574 224.96C959.553 224.977 964.908 178.598 987.189 190.815Z" fill="#FCCCA2"/>
<path d="M972.93 223.906C972.93 223.906 976.794 243.398 991.116 241.204C1005.44 238.992 994.581 224.719 994.581 224.719C994.581 224.719 988.218 220.329 972.93 223.906Z" fill="#EEA886"/>
<path d="M933.114 347.337C933.114 347.337 934.248 350.431 936.012 353.524C936.873 355.044 938.175 365.257 938.217 366.587C938.259 367.693 937.314 367.106 936.789 366.397C936.495 366 935.361 362.509 934.374 360.678C933.555 359.14 932.925 358.587 932.631 359.122C932.337 359.658 932.316 366.276 933.324 369.041C934.311 371.806 934.143 378.338 932.253 377.508C930.363 376.679 925.092 365.239 925.05 360.799C925.008 356.358 925.827 351.018 925.827 351.018L933.114 347.337Z" fill="#EEA886"/>
</g>
<defs>
<linearGradient id="paint0_linear" x1="883.713" y1="509.472" x2="883.713" y2="670.936" gradientUnits="userSpaceOnUse">
<stop stop-color="#1D6F7C"/>
<stop offset="1" stop-color="#092529"/>
</linearGradient>
<linearGradient id="paint1_linear" x1="503.42" y1="218.807" x2="503.42" y2="501.761" gradientUnits="userSpaceOnUse">
<stop stop-color="#5EC8D9"/>
<stop offset="0.1875" stop-color="#53ABB9"/>
<stop offset="0.4375" stop-color="#488D9A"/>
<stop offset="0.671875" stop-color="#396F7A"/>
<stop offset="0.979167" stop-color="#22252A"/>
</linearGradient>
<linearGradient id="paint2_linear" x1="592.337" y1="359.307" x2="592.337" y2="480.359" gradientUnits="userSpaceOnUse">
<stop stop-color="#1D6F7C"/>
<stop offset="1" stop-color="#092529"/>
</linearGradient>
<linearGradient id="paint3_linear" x1="587.747" y1="375.556" x2="587.747" y2="492.144" gradientUnits="userSpaceOnUse">
<stop stop-color="#1D6F7C"/>
<stop offset="1" stop-color="#092529"/>
</linearGradient>
<linearGradient id="paint4_linear" x1="563.201" y1="264.255" x2="563.201" y2="486.854" gradientUnits="userSpaceOnUse">
<stop stop-color="#5EC8D9"/>
<stop offset="0.1875" stop-color="#53ABB9"/>
<stop offset="0.4375" stop-color="#488D9A"/>
<stop offset="0.671875" stop-color="#396F7A"/>
<stop offset="0.979167" stop-color="#22252A"/>
</linearGradient>
<linearGradient id="paint5_linear" x1="1145.77" y1="515.004" x2="1145.77" y2="549.472" gradientUnits="userSpaceOnUse">
<stop stop-color="#1D6F7C"/>
<stop offset="1" stop-color="#092529"/>
</linearGradient>
<linearGradient id="paint6_linear" x1="1159.7" y1="525.667" x2="1159.7" y2="538.229" gradientUnits="userSpaceOnUse">
<stop stop-color="#1D6F7C"/>
<stop offset="1" stop-color="#092529"/>
</linearGradient>
<linearGradient id="paint7_linear" x1="1173.09" y1="515.004" x2="1173.09" y2="549.472" gradientUnits="userSpaceOnUse">
<stop stop-color="#1D6F7C"/>
<stop offset="1" stop-color="#092529"/>
</linearGradient>
<linearGradient id="paint8_linear" x1="1187.05" y1="525.667" x2="1187.05" y2="538.229" gradientUnits="userSpaceOnUse">
<stop stop-color="#1D6F7C"/>
<stop offset="1" stop-color="#092529"/>
</linearGradient>
<linearGradient id="paint9_linear" x1="365.389" y1="501.088" x2="365.389" y2="548.098" gradientUnits="userSpaceOnUse">
<stop stop-color="#1D6F7C"/>
<stop offset="1" stop-color="#092529"/>
</linearGradient>
<linearGradient id="paint10_linear" x1="376.687" y1="508.836" x2="376.687" y2="522.487" gradientUnits="userSpaceOnUse">
<stop stop-color="#1D6F7C"/>
<stop offset="1" stop-color="#092529"/>
</linearGradient>
<linearGradient id="paint11_linear" x1="345.01" y1="520.858" x2="345.01" y2="561.403" gradientUnits="userSpaceOnUse">
<stop stop-color="#1D6F7C"/>
<stop offset="1" stop-color="#092529"/>
</linearGradient>
<linearGradient id="paint12_linear" x1="362.218" y1="534.29" x2="362.218" y2="549.444" gradientUnits="userSpaceOnUse">
<stop stop-color="#1D6F7C"/>
<stop offset="1" stop-color="#092529"/>
</linearGradient>
</defs>
</svg>
