<svg width="250" height="180" viewBox="0 0 250 180" fill="none" xmlns="http://www.w3.org/2000/svg">
<g clip-path="url(#clip0)">
<g opacity="0.4">
<path d="M60.5141 19.8701L31.543 19.9875L31.6406 38.645L31.6635 42.5786L36.0672 38.6297L60.6117 38.5277L60.5141 19.8701Z" fill="#488D9A"/>
<path d="M48.2967 29.9972C48.3025 31.0839 47.3149 31.9665 46.092 31.9716C44.8691 31.9767 43.8759 31.0992 43.8701 30.0125C43.8644 28.9258 44.8519 28.0432 46.0748 28.0381C47.2977 28.033 48.291 28.9105 48.2967 29.9972Z" fill="white"/>
<path d="M55.5596 29.9768C55.5653 31.0635 54.5778 31.9461 53.3548 31.9512C52.1319 31.9563 51.1386 31.0788 51.1328 29.9921C51.1271 28.9054 52.1146 28.0228 53.3376 28.0177C54.5663 28.0126 55.5596 28.8901 55.5596 29.9768Z" fill="white"/>
<path d="M41.1942 30.0178C41.1999 31.1045 40.2124 31.9871 38.9895 31.9922C37.7666 31.9973 36.7733 31.1198 36.7676 30.0331C36.7619 28.9464 37.7494 28.0638 38.9723 28.0587C40.1952 28.0536 41.1884 28.9311 41.1942 30.0178Z" fill="white"/>
</g>
<path d="M167.236 16.2576L126.042 16.426L126.179 42.9557L126.208 48.5474L132.466 42.9302L167.374 42.7873L167.236 16.2576Z" fill="#5EC8D9"/>
<path d="M149.857 30.6603C149.863 32.2061 148.457 33.4612 146.723 33.4663C144.983 33.4714 143.571 32.2214 143.565 30.6807C143.559 29.1348 144.966 27.8798 146.7 27.8746C148.439 27.8695 149.852 29.1144 149.857 30.6603Z" fill="white"/>
<path d="M160.191 30.6296C160.197 32.1755 158.79 33.4306 157.056 33.4357C155.317 33.4408 153.904 32.1908 153.898 30.65C153.893 29.1042 155.294 27.8491 157.033 27.844C158.773 27.8389 160.185 29.0889 160.191 30.6296Z" fill="white"/>
<path d="M139.764 30.6856C139.77 32.2315 138.363 33.4866 136.629 33.4917C134.889 33.4968 133.477 32.2468 133.471 30.7061C133.465 29.1602 134.872 27.9051 136.606 27.9C138.346 27.8949 139.758 29.1449 139.764 30.6856Z" fill="white"/>
<path d="M233.783 35.8385L197.538 35.9865L197.658 59.3326L197.687 64.2508L203.193 59.3122L233.904 59.1846L233.783 35.8385Z" fill="#5EC8D9"/>
<path d="M218.494 48.5116C218.5 49.8687 217.265 50.9758 215.732 50.9809C214.205 50.986 212.959 49.8891 212.954 48.5269C212.948 47.1698 214.188 46.0627 215.715 46.0576C217.248 46.0576 218.488 47.1545 218.494 48.5116Z" fill="white"/>
<path d="M227.588 48.486C227.594 49.8431 226.36 50.9502 224.827 50.9553C223.3 50.9604 222.054 49.8635 222.048 48.5013C222.042 47.1442 223.277 46.0371 224.81 46.032C226.337 46.032 227.583 47.1289 227.588 48.486Z" fill="white"/>
<path d="M209.611 48.5372C209.617 49.8943 208.383 51.0014 206.85 51.0065C205.322 51.0116 204.077 49.9147 204.071 48.5525C204.065 47.1953 205.299 46.0882 206.832 46.0831C208.365 46.0831 209.605 47.18 209.611 48.5372Z" fill="white"/>
<path d="M35.8998 69.8165C36.784 67.689 35.5554 65.3269 33.1612 64.5412C30.767 63.7555 28.1088 64.8422 27.2246 66.9748C27.2246 66.9748 27.127 67.138 27.0351 67.5513C27.0064 67.689 26.9777 67.8217 26.9605 67.9594C26.7767 69.2196 26.7595 71.8573 28.0398 76.8571C32.6674 73.796 34.5851 71.7756 35.3659 70.7145C35.452 70.6022 35.5324 70.4849 35.607 70.3624C35.8482 69.9951 35.8998 69.8165 35.8998 69.8165ZM30.5661 70.7961C29.0733 70.3063 28.3097 68.837 28.8609 67.5105C29.412 66.184 31.0656 65.5054 32.5583 65.9952C34.0511 66.485 34.8147 67.9543 34.2635 69.2808C33.7124 70.6073 32.0588 71.2859 30.5661 70.7961Z" fill="#FAFAFA"/>
<g opacity="0.7">
<path d="M188.129 17.2626L182.904 15.2473C182.473 15.0841 182.278 14.6402 182.467 14.2576C182.657 13.8749 183.151 13.7015 183.581 13.8698L187.273 15.2932L189.937 10.0434C190.132 9.66587 190.632 9.49751 191.057 9.66587C191.482 9.83423 191.671 10.2832 191.482 10.6607L188.129 17.2626Z" fill="white"/>
<path d="M194.065 21.6909C189.248 24.6959 182.577 23.6602 179.195 19.3849C175.813 15.1044 176.979 9.17602 181.79 6.17102C186.607 3.16602 193.273 4.1966 196.66 8.47707C200.042 12.7524 198.882 18.6808 194.065 21.6909ZM182.669 7.27813C178.541 9.85457 177.542 14.936 180.441 18.6043C183.34 22.2725 189.059 23.1602 193.187 20.5838C197.315 18.0074 198.314 12.9259 195.415 9.25765C192.515 5.58941 186.797 4.70168 182.669 7.27813Z" fill="white"/>
</g>
<g opacity="0.5">
<path d="M26.3528 112.398L12.458 109.876L10.5153 118.329L24.4101 120.851L26.3528 112.398Z" fill="#488D9A"/>
<path d="M10.5166 118.324L18.5489 114.859L24.4108 120.844L10.5166 118.324Z" fill="#488D9A"/>
<path d="M26.3507 112.39L18.1922 116.395L12.4565 109.87L26.3507 112.39Z" fill="#53ABB9"/>
</g>
<path d="M166.386 55.2256C162.746 55.1899 161.494 58.1031 161.494 58.1031C161.494 58.1031 158.463 56.5266 155.65 58.5775C152.836 60.6285 154.283 62.6386 154.283 62.6386C156.27 66.9446 165.858 69.1231 165.858 69.1231C165.858 69.1231 171.8 62.0876 170.313 57.6286C170.313 57.6286 170.026 55.2562 166.386 55.2256Z" fill="#FAFAFA"/>
<path d="M83.9701 32.743C83.3041 32.9369 82.6037 32.9369 81.9721 32.7532C81.2602 32.544 80.7205 32.1104 80.4621 31.539C79.8536 30.4472 78.9292 29.4319 78.2345 28.7533C76.1791 28.2176 74.5658 26.8248 73.9112 25.0188C72.8204 22.0138 74.6806 18.7792 78.0623 17.8098C81.4439 16.8405 85.0839 18.4935 86.1748 21.4985C86.7719 23.1362 86.5135 24.8963 85.4744 26.3453C85.526 27.5799 85.7098 28.6615 86.0255 29.5594C86.548 30.7329 85.7327 32.1257 84.2055 32.6716C84.1251 32.6971 84.0448 32.7226 83.9701 32.743ZM78.223 18.2588C75.1169 19.1516 73.4117 22.1209 74.4107 24.8759C75.0251 26.5544 76.5351 27.8452 78.4469 28.3197L78.5216 28.3401L78.5732 28.3911C79.2909 29.0901 80.2899 30.1717 80.9387 31.3451L80.9444 31.3604C81.1454 31.8043 81.5702 32.1461 82.1386 32.3145C82.7242 32.4879 83.3845 32.4624 84.0046 32.2379C85.2677 31.789 85.9509 30.6614 85.5318 29.7278L85.526 29.7176V29.7074C85.1873 28.7533 84.9921 27.6003 84.9462 26.284L84.9404 26.2075L84.9863 26.1463C85.9796 24.8045 86.2322 23.1617 85.6753 21.6413C84.6706 18.8863 81.3291 17.366 78.223 18.2588Z" fill="white"/>
<path d="M82.0352 31.3399L78.5903 25.8452L80.4046 26.3503L80.8639 25.2177L81.949 25.7279L82.7758 24.3146L84.6705 30.3807L84.1595 30.5032L82.6265 25.5901L82.173 26.3656L81.1567 25.886L80.7319 26.9319L79.6927 26.6462L82.4945 31.1103L82.0352 31.3399Z" fill="white"/>
<path d="M86.0732 31.3842L81.8301 32.8925L82.5186 34.4116L86.7617 32.9033L86.0732 31.3842Z" fill="white"/>
<path d="M86.0574 29.5902L80.4497 31.5836L81.5565 34.0254L87.1642 32.032L86.0574 29.5902Z" fill="white"/>
<g opacity="0.7">
<path d="M231.218 106.795C231.201 139.11 230.185 145.437 221.056 152.676C217.479 155.513 210.905 161.4 191.924 164.334C186.229 165.217 179.414 165.829 171.232 166.012C167.891 166.089 164.831 165.982 162.023 165.706C159.675 165.482 157.505 165.14 155.512 164.696C134.654 160.054 133.098 144.171 142.221 130.815C144.638 127.279 147.4 124.024 150.293 120.994C154.76 116.31 159.549 112.152 163.889 108.27C167.885 104.693 171.502 101.351 174.126 98.0505C175.234 96.6577 176.164 95.2751 176.876 93.8874C177.043 93.5609 177.215 93.2344 177.387 92.9129C177.95 91.862 178.524 90.8518 179.109 89.8875C180.206 88.0764 181.32 86.4183 182.399 84.9336C183.255 83.75 184.093 82.6735 184.868 81.7246C187.532 78.4543 189.507 76.6176 189.507 76.6176C189.507 76.6176 189.754 76.5155 190.208 76.3472C190.449 76.2553 190.753 76.1482 191.109 76.0258C191.252 75.9748 191.402 75.9237 191.563 75.8727C191.723 75.8217 191.89 75.7656 192.062 75.7094C192.223 75.6584 192.389 75.6074 192.562 75.5564C192.762 75.4952 192.975 75.4339 193.193 75.3676C193.319 75.3319 193.451 75.2911 193.589 75.2554C193.67 75.235 193.75 75.2095 193.83 75.1891C193.859 75.1789 193.894 75.1738 193.922 75.1636C196.632 74.4238 200.341 73.6585 204.383 73.531C216.377 73.1534 231.235 78.4032 231.218 106.795Z" fill="#53ABB9"/>
</g>
<path d="M182.702 155.442C182.702 155.442 183.001 157.61 183.397 158.564C183.793 159.518 185.946 161.727 185.033 163.844C184.046 166.14 179.751 163.926 177.994 163.227C176.243 162.528 176.639 161.253 176.456 159.697C176.266 158.14 175.411 158.1 175.726 157.003C176.042 155.906 177.96 153.809 177.96 153.809L182.702 155.442Z" fill="#F5F5F5"/>
<path d="M178.787 152.676C178.787 152.676 177.685 154.044 177.719 154.084C177.748 154.12 182.433 156.656 182.76 155.834C183.018 155.181 183.127 154.237 183.127 154.237L178.787 152.676Z" fill="#EEA886"/>
<path d="M162.912 156.977C162.912 156.977 161.482 158.089 160.202 159.798C158.916 161.508 155.511 161.599 155.367 163.936C155.224 166.273 160.001 166.344 162.51 165.584C165.019 164.824 165.398 162.543 166.913 161.972C168.429 161.4 169.221 160.941 169.101 159.829C168.986 158.717 168.142 156.911 168.142 156.911C168.142 156.911 167.2 157.176 166.644 157.232C166.087 157.283 164.221 157.299 162.912 156.977Z" fill="#F5F5F5"/>
<path d="M180.102 93.7089C180.102 93.7089 179.143 98.7903 178.368 102.147C178.052 103.51 177.771 104.586 177.593 104.923C177.369 105.351 175.566 107.071 173.356 109.091C169.48 112.637 164.359 117.101 164.359 117.101L162.355 113.723C162.355 113.723 166.902 108.984 169.985 105.826C171.415 104.362 172.523 103.239 172.73 103.076C173.373 102.566 174.125 97.5149 175.176 93.3568C176.226 89.1988 178.333 86.8979 178.333 86.8979L180.102 93.7089Z" fill="#C4C4C4"/>
<path d="M173.361 109.091C169.486 112.637 164.365 117.101 164.365 117.101L162.361 113.723C162.361 113.723 166.908 108.984 169.991 105.826C170.939 106.239 172.672 107.219 173.361 109.091Z" fill="#EEA886"/>
<path d="M163.136 155.416L162.912 156.972C162.912 156.972 165.398 157.753 168.142 156.901L168.199 155.518L163.136 155.416Z" fill="#EEA886"/>
<path d="M198.439 116.412C198.582 116.866 172.097 116.412 172.097 116.412C172.097 116.412 179.423 111.672 179.9 110.407C180.376 109.142 178.034 101.545 177.729 99.0757C177.488 97.0962 176.874 88.2496 178.338 86.8976C179.871 85.4844 185.394 84.0048 185.394 84.0048L193.444 84.2701C193.444 84.2701 194.77 84.515 195.723 84.9078C196.67 85.3007 202.107 87.02 202.986 89.4281C203.87 91.8413 197.566 99.591 197.566 99.591C197.566 99.591 197.554 99.9379 197.537 100.509C197.514 101.27 197.474 102.428 197.445 103.683C197.405 105.31 197.365 107.096 197.365 108.407C197.365 111.483 198.301 115.963 198.439 116.412Z" fill="#C4C4C4"/>
<path d="M198.446 116.412C198.446 116.412 202.051 121.116 202.097 124.325C202.149 127.534 195.701 138.289 194.731 139.825C191.797 144.447 183.759 154.421 183.759 154.421C183.759 154.421 182.376 154.391 178.047 152.896C178.047 152.896 183.398 139.723 184.075 138.355C186.951 132.554 188.553 128.442 187.589 127.448C186.624 126.453 183.983 125.453 183.225 124.866C182.462 124.279 169.165 127.101 167.775 127.422C164.17 128.254 165.812 133.83 166.61 136.33C167.948 140.513 169.113 155.62 169.113 155.62C169.113 155.62 166.541 156.595 162.241 155.773C162.241 155.773 153.789 128.493 153.519 125.779C153.25 123.065 153.112 118.591 173.942 115.193L198.446 116.412Z" fill="#3C4748"/>
<path d="M187.606 68.4597C187.606 68.4597 180.618 67.0566 182.215 74.8727C183.811 82.6888 185.493 83.3011 189.707 81.6838C193.927 80.0665 193.548 75.0615 193.76 72.6024C193.967 70.1484 189.833 68.5464 187.606 68.4597Z" fill="#EEA886"/>
<path d="M185.757 86.0102C185.757 86.0102 188.852 88.9233 193.744 86.2755C193.744 86.2755 192.647 79.9542 193.227 76.8778C193.801 73.8014 186.842 81.6481 186.842 81.6481C186.934 81.6889 186.992 81.9848 187.009 82.4031C187.02 82.7552 187.003 83.199 186.934 83.6531C186.791 84.6735 186.435 85.7551 185.757 86.0102Z" fill="#EEA886"/>
<path d="M193.416 76.6176C193.416 76.6176 193.238 74.1534 192.222 74.0768C191.211 74.0003 191.056 74.9901 191.056 74.9901L190.034 75.1635C190.034 75.1635 190.356 73.0055 189.346 72.6279C188.335 72.2504 182.795 73.8166 181.985 73.184C181.17 72.5514 181.554 68.174 183.024 67.572C184.488 66.975 188.542 65.6282 191.51 67.4138C191.51 67.4138 193.824 67.1791 194.168 68.8372C194.513 70.5004 194.042 75.3829 193.416 76.6176Z" fill="#3A3F47"/>
<path d="M186.934 83.653C191.98 82.2704 192.359 79.5716 192.365 79.5308C190.706 82.0664 187.008 82.4031 187.008 82.4031C187.02 82.7551 186.997 83.199 186.934 83.653Z" fill="#A77860"/>
<path d="M195.809 84.9388C195.809 84.9388 192.112 91.4743 186.14 91.0559C180.169 90.6325 185.124 84.0613 185.394 84C185.693 83.9337 191.514 82.648 195.809 84.9388Z" fill="#EEA886"/>
<path d="M169.066 116.08C169.066 116.08 187.358 118.086 198.445 116.412L177.27 114.06C177.265 114.06 177.138 114.54 169.066 116.08Z" fill="#C4C4C4"/>
<path d="M182.748 113.32L181.387 113.933C181.387 113.933 181.697 115.856 182.444 116.438L183.971 116.091C183.971 116.096 183.655 113.984 182.748 113.32Z" fill="#EEA886"/>
<path d="M203.917 109.382C203.647 109.662 200.047 110.948 195.982 112.336C190.43 114.234 184.172 116.035 184.172 116.035L182.748 113.32C182.748 113.32 189.305 110.157 193.731 107.933C195.827 106.887 197.44 106.045 197.67 105.851C198.382 105.249 198.566 104.28 198.043 102.596C197.521 100.913 196.309 93.163 196.177 92.2549C196.04 91.3519 196.516 88.9387 199.06 88.8162C201.603 88.6938 202.901 89.3366 202.901 89.3366C202.901 89.3366 203.538 89.5713 204.014 95.0558C204.491 100.55 204.56 108.719 203.917 109.382Z" fill="#C4C4C4"/>
<path d="M197.538 100.515C197.515 101.275 197.475 102.433 197.446 103.688C194.966 98.28 196.395 93.9639 196.424 93.8925C196.154 95.3567 197.515 100.443 197.538 100.515Z" fill="#B0B0B0"/>
<path d="M178.368 102.142C178.052 103.505 177.771 104.581 177.593 104.918C176.743 101.27 177.507 96.6017 177.507 96.6017C177.621 98.8363 178.368 102.142 178.368 102.142Z" fill="#B0B0B0"/>
<path d="M195.982 112.341C190.43 114.239 183.971 116.096 183.971 116.096L182.748 113.32C182.748 113.32 189.305 110.157 193.731 107.933C193.737 107.938 195.345 108.632 195.982 112.341Z" fill="#EEA886"/>
<path d="M182.352 116.259L156.354 115.917L169.479 121.841L182.352 116.259Z" fill="#444C94"/>
<path d="M169.48 121.841L182.352 117.407V116.259L168.463 120.708L169.48 121.841Z" fill="#303669"/>
<path d="M181.68 113.979C181.68 113.979 180.055 113.754 178.936 113.52C178.069 113.341 175.904 113.586 175.359 114.081C174.808 114.576 173.057 118.03 172.729 118.239C172.396 118.448 172.901 118.938 173.481 118.693C173.481 118.693 174.015 120.203 175.33 119.637C176.645 119.07 177.541 117.836 178.23 117.622C178.918 117.402 182.937 116.305 182.937 116.305C182.937 116.305 182.714 113.611 181.68 113.979Z" fill="#EEA886"/>
<path d="M175.749 113.856C175.749 113.856 174.704 114.305 174.434 114.504C174.164 114.703 173.056 115.438 172.792 115.611C172.528 115.785 173.194 116.274 175.169 115.514C177.144 114.754 175.749 113.856 175.749 113.856Z" fill="#EEA886"/>
<path d="M169.48 121.84L161.746 103.076L136.817 103.438L144.189 120.728L169.48 121.84Z" fill="#2B555D"/>
<path d="M153.771 111.377C154.529 112.729 154.299 114.198 153.26 114.662C152.215 115.127 150.751 114.407 149.993 113.055C149.235 111.703 149.465 110.234 150.504 109.77C151.543 109.305 153.007 110.025 153.771 111.377Z" fill="#5EC8D9"/>
<path d="M191.079 73.9492C191.171 73.2605 192.704 73.0054 192.83 74.0411C192.951 75.0768 192.135 76.8879 191.55 76.7094C190.964 76.5308 190.953 74.8982 191.079 73.9492Z" fill="#EEA886"/>
<path d="M114.316 45.7157C114.316 45.7157 118.289 45.3483 119.725 48.7564C121.154 52.1695 122.503 53.2868 122.676 55.0776C123.359 62.3273 127.171 60.6896 126.098 64.8681C125.024 69.0465 124.283 69.6791 124.283 69.6791L115.178 68.0925L105.951 68.118C105.951 68.118 109.562 66.516 108.759 63.1028C107.955 59.6897 105.951 54.098 107.082 50.2869C108.208 46.4809 111.939 46.0065 114.316 45.7157Z" fill="#464240"/>
<path d="M111.802 157.732C111.802 157.732 108.948 161.217 109.35 161.778C109.758 162.339 112.875 162.421 114.77 161.778C116.665 161.135 116.711 156.982 117.572 155.197C117.934 154.452 117.164 152.243 116.085 152.085C115.006 151.926 113.737 152.426 113.737 152.426C113.737 152.426 114.839 154.972 111.802 157.732Z" fill="#22252A"/>
<path d="M111.802 157.732C111.802 157.732 108.948 161.217 109.35 161.778C109.758 162.339 112.875 162.421 114.77 161.778C116.665 161.135 116.711 156.982 117.572 155.197C117.934 154.452 117.164 152.243 116.085 152.085C115.006 151.926 113.737 152.426 113.737 152.426C113.737 152.426 114.839 154.972 111.802 157.732Z" fill="url(#paint0_linear)"/>
<path d="M113.731 152.431C113.731 152.431 113.507 154.074 113.146 155.242C112.784 156.406 110.843 159.054 110.935 159.375C111.027 159.696 113.461 159.987 114.455 159.161C115.448 158.334 116.217 155.936 116.303 154.487C116.395 153.038 116.08 152.089 116.08 152.089C116.08 152.089 114.679 151.549 113.731 152.431Z" fill="#EEA886"/>
<path d="M117.567 155.202V158.911H117.027V156.044L117.567 155.202Z" fill="#22252A"/>
<path d="M117.567 155.202V158.911H117.027V156.044L117.567 155.202Z" fill="url(#paint1_linear)"/>
<path d="M119.272 157.732C119.272 157.732 116.419 161.217 116.821 161.778C117.228 162.339 120.346 162.421 122.24 161.778C124.135 161.135 124.181 156.982 125.042 155.197C125.404 154.452 124.634 152.243 123.549 152.085C122.47 151.926 121.201 152.426 121.201 152.426C121.201 152.426 122.309 154.972 119.272 157.732Z" fill="#22252A"/>
<path d="M119.272 157.732C119.272 157.732 116.419 161.217 116.821 161.778C117.228 162.339 120.346 162.421 122.24 161.778C124.135 161.135 124.181 156.982 125.042 155.197C125.404 154.452 124.634 152.243 123.549 152.085C122.47 151.926 121.201 152.426 121.201 152.426C121.201 152.426 122.309 154.972 119.272 157.732Z" fill="url(#paint2_linear)"/>
<path d="M121.201 152.431C121.201 152.431 120.977 154.074 120.615 155.242C120.253 156.406 118.313 159.054 118.405 159.375C118.496 159.696 120.937 159.987 121.924 159.161C122.917 158.334 123.687 155.936 123.779 154.487C123.87 153.038 123.555 152.089 123.555 152.089C123.555 152.089 122.148 151.549 121.201 152.431Z" fill="#EEA886"/>
<path d="M125.042 155.202V158.911H124.502V156.044L125.042 155.202Z" fill="#22252A"/>
<path d="M125.042 155.202V158.911H124.502V156.044L125.042 155.202Z" fill="url(#paint3_linear)"/>
<path d="M106.55 94.6681C106.55 94.6681 104.391 105.244 103.805 107.892C103.219 110.54 101.589 123.351 101.411 125.529C101.233 127.708 106.739 138.187 107.083 138.912C112.842 151.013 113.502 153.753 113.502 153.753C113.502 153.753 115.391 154.804 116.264 153.549C116.528 153.166 112.721 139.289 112.096 135.437C111.51 131.856 109.994 126.33 110.402 125.07C110.81 123.815 114.547 106.499 115.248 105.77C115.948 105.045 116.999 106.183 117.406 107.795C117.814 109.402 118.693 123.305 119.215 125.07C119.743 126.835 119.336 132.8 119.623 135.81C119.915 138.82 121.133 152.865 121.133 152.865C121.133 152.865 123.487 153.238 123.716 152.906C123.952 152.569 125.984 137.305 126.047 133.728C126.105 130.147 126.168 125.213 126.283 123.662C127.362 108.826 129.406 106.887 125.835 96.2089C117.102 70.0873 106.55 94.6681 106.55 94.6681Z" fill="#EEA886"/>
<path d="M106.549 94.6681C106.549 94.6681 104.39 105.244 103.804 107.892C103.219 110.54 101.588 123.351 101.41 125.529C101.232 127.708 106.549 138.187 106.663 138.968C106.778 139.748 111.153 150.886 111.153 150.886C111.153 150.886 115.574 150.819 116.78 149.799C117.021 149.595 112.721 139.289 112.095 135.437C111.509 131.856 109.993 126.33 110.401 125.07C110.809 123.815 114.546 106.499 115.247 105.77C115.947 105.045 116.998 106.183 117.406 107.795C117.813 109.402 118.692 123.305 119.214 125.07C119.742 126.835 119.335 132.799 119.622 135.81C119.915 138.82 119.3 149.508 119.3 149.508C119.3 149.508 125.088 149.778 125.323 149.442C125.558 149.11 125.989 137.299 126.046 133.723C126.104 130.141 126.167 125.208 126.282 123.657C127.361 108.821 129.405 106.882 125.834 96.2038C117.101 70.0873 106.549 94.6681 106.549 94.6681Z" fill="#488D9A"/>
<path d="M126.707 98.2291C127.046 98.1066 124.342 90.1681 123.808 87.7907C123.325 85.6479 121.678 83.6888 123.285 80.0409C124.204 77.9543 124.146 75.485 124.146 75.485C124.146 75.485 126.61 80.3113 126.839 81.5562C127.075 82.801 118.336 80.5358 118.216 80.7093C117.986 81.0358 117.728 83.1378 117.728 83.8673C117.728 84.4694 130.41 87.1325 131.915 84.7704C132.339 84.102 129.584 71.2912 127.809 69.5821C124.893 66.7812 117.222 64.3935 117.222 64.3935C117.222 64.3935 115.121 63.3935 111.424 64.4292C107.726 65.47 102.553 68.6485 101.652 69.4801C100.756 70.3117 97.1734 82.8214 96.8633 84.4387C96.5705 85.9642 96.6853 89.1682 100.601 88.76L111.171 86.6121L110.516 83.75L102.593 84.3061C100.974 84.551 101.749 83.2908 101.956 82.5868C102.157 81.898 104.143 75.5309 104.143 75.5309C104.029 77.2961 105.527 83.0867 106.302 85.0918C107.083 87.0968 105.361 97.8311 105.24 99.0097C105.24 99.0046 111.602 103.647 126.707 98.2291Z" fill="#5EC8D9"/>
<path d="M118.944 64.9752C118.944 64.9752 116.338 69.7556 114.162 71.1586C114.162 71.1586 110.24 65.9394 110.441 64.7354C110.435 64.7354 114.782 63.0262 118.944 64.9752Z" fill="#EEA886"/>
<path d="M119.036 81.0972C119.036 81.0972 117.831 80.6635 117.509 80.2758C117.188 79.888 116.12 79.6533 115.327 79.8625C114.535 80.0717 114.971 83.0971 114.971 83.0971L119.151 83.5767L119.036 81.0972Z" fill="#EEA886"/>
<path d="M111.47 83.4081C111.47 83.4081 111.872 81.4541 111.774 81.0919C111.676 80.7297 112.486 80.3674 112.601 81.2603C112.716 82.1531 112.773 82.7194 112.773 82.7194L111.47 83.4081Z" fill="#EEA886"/>
<path d="M113.203 84.7652L116.246 84.653C116.636 84.6377 116.946 84.3571 116.952 84.0102L117.032 78.0869C117.038 77.7145 116.694 77.4186 116.274 77.4288L112.629 77.5359C112.21 77.5512 111.888 77.8675 111.922 78.24L112.439 84.1683C112.474 84.5102 112.812 84.7755 113.203 84.7652Z" fill="#2A2E51"/>
<path d="M111.4 83.5665C111.4 83.5665 111.343 83.0104 112.543 82.5054C114.139 81.8319 116.263 81.1431 116.625 81.3217C117.147 81.5768 116.878 81.9288 115.873 82.2247C114.868 82.5207 114.535 82.6125 114.535 82.6125C114.535 82.6125 116.504 82.4441 116.947 82.6533C117.389 82.8625 117.412 83.3472 117.09 83.4288C116.769 83.5053 116.005 83.5563 116.005 83.5563C116.005 83.5563 116.843 83.5869 116.924 83.8829C116.987 84.1022 117.015 84.4186 116.223 84.5512C116.223 84.5512 116.757 85.0818 115.953 85.4185C115.15 85.7552 113.691 86.0665 112.962 86.1736C111.441 86.393 108.007 86.2297 108.007 86.2297L109.42 84.1073C109.42 84.1073 110.206 84.1635 110.746 84.0002C111.475 83.7757 111.4 83.5665 111.4 83.5665Z" fill="#EEA886"/>
<path d="M110.504 83.7401L111.164 86.6022L104.43 87.9746L104.166 84.1839L110.504 83.7401Z" fill="#61C0CF"/>
<path d="M118.21 80.7043C118.21 80.7043 117.653 81.7604 117.722 83.8623C117.722 83.8623 121.896 85.2194 125.14 85.5307V81.8879L118.21 80.7043Z" fill="#61C0CF"/>
<path d="M111.165 86.6021L106.446 88.9337C106.48 88.449 106.503 87.9796 106.515 87.5511L111.165 86.6021Z" fill="#488D9A"/>
<path d="M123.572 86.9135C119.783 85.5768 118.267 84.3677 117.854 83.985C117.762 83.9034 117.728 83.8575 117.728 83.8575L123.107 85.2503C123.239 85.8319 123.411 86.3778 123.572 86.9135Z" fill="#488D9A"/>
<path d="M114.84 47.7104C114.84 47.7104 120.105 48.3838 119.335 55.2917C118.566 62.1996 113.915 61.6537 113.605 61.6435C113.295 61.6384 108.943 61.7864 108.564 53.3581C108.57 53.3632 108.392 47.1287 114.84 47.7104Z" fill="#EEA886"/>
<path d="M117.182 60.4245C117.182 60.4245 116.854 64.0162 117.635 65.0927C118.416 66.1691 116.969 67.6283 113.989 67.1283C111.015 66.6283 111.187 65.1284 111.187 65.1284C111.187 65.1284 112.02 62.9091 111.779 61.1336C111.532 59.3633 117.182 60.4245 117.182 60.4245Z" fill="#EEA886"/>
<path d="M114.237 50.2157C114.237 50.2157 116.7 52.5116 117.842 53.6799C118.985 54.8431 119.117 57.093 119.117 57.093C119.117 57.093 121.04 55.0013 120.236 52.5677C119.433 50.1341 117.526 45.3996 112.704 46.8536C107.881 48.3076 107.703 54.7105 108.271 57.8838C108.266 57.8838 110.436 50.8739 114.237 50.2157Z" fill="#464240"/>
<path d="M112.164 61.3325C112.164 61.3325 114.408 62.2763 116.59 60.8835C116.59 60.8835 115.982 61.9957 114.374 62.1539C112.766 62.312 112.164 61.3325 112.164 61.3325Z" fill="#A77860"/>
<path d="M111.4 62.5878C111.4 62.5878 104.154 68.3172 106.037 71.8885C107.639 74.9394 113.334 73.067 112.393 69.8732C111.451 66.6795 111.4 62.5878 111.4 62.5878Z" fill="#464240"/>
<path d="M113.37 78.6736C113.37 78.898 113.169 79.0766 112.916 79.0766C112.664 79.0766 112.463 78.898 112.463 78.6736C112.463 78.4491 112.664 78.2705 112.916 78.2705C113.169 78.2756 113.37 78.4542 113.37 78.6736Z" fill="#48484D"/>
<path d="M74.8564 67.0721C74.8564 67.0721 80.351 68.5057 80.0122 75.1433C79.6792 81.7808 74.8564 67.0721 74.8564 67.0721Z" fill="#EEA886"/>
<path d="M74.3504 67.0721C74.3504 67.0721 74.7752 67.5823 74.2413 70.8883C73.7131 74.1892 74.7178 75.5718 74.8384 76.9442C74.959 78.3166 76.7732 87.1939 76.8192 87.5867C76.8651 87.9796 77.112 92.7039 77.8182 93.959C78.5244 95.214 83.7261 102.316 83.795 102.673C83.8639 103.03 86.3212 101.438 86.3212 101.438C86.3212 101.438 81.6534 92.8059 81.3491 91.9539C80.9759 90.8978 79.8219 88.2806 79.753 86.9082C79.5808 83.5613 79.9195 75.781 79.7875 74.0872C79.5463 70.9138 76.733 67.5772 74.3504 67.0721Z" fill="#EEA886"/>
<path d="M81.3556 95.413C81.3556 95.413 82.1709 97.0099 82.6589 97.1119C83.1412 97.2089 83.7153 97.7446 84.1344 97.9078C84.5478 98.0711 85.8511 98.1578 86.2013 98.4639C86.3448 98.5864 86.8903 99.6527 87.2118 99.8772C87.5333 100.102 88.2452 100.484 88.0271 100.724C87.8089 100.964 87.0683 100.775 87.0683 100.775C87.0683 100.775 87.3496 100.994 87.229 101.26C86.9994 101.775 86.609 101.801 86.609 101.801C86.609 101.801 86.7353 102.188 86.5745 102.382C86.23 102.806 85.8511 102.821 85.8511 102.821C85.8511 102.821 85.8166 103.122 85.5181 103.352C85.1334 103.653 84.6511 103.479 84.6511 103.479C84.6511 103.479 84.2665 103.954 83.9048 103.862C83.5488 103.77 83.3364 103.53 83.0837 103.392C82.8254 103.255 81.0456 101.428 80.3853 99.7241C79.7251 98.015 78.5825 96.6324 78.5825 96.6324L81.3556 95.413Z" fill="#EEA987"/>
<path d="M96.3966 93.2529L86.6465 82.5697L66.5838 97.028L76.334 107.711L96.3966 93.2529Z" fill="#214361"/>
<path d="M86.964 100.556C86.964 100.556 85.4081 99.02 84.633 99.0506C83.8579 99.0812 84.3861 99.6628 84.3861 99.6628C84.3861 99.6628 83.8751 99.0812 83.3239 99.3873C82.7727 99.6986 83.4273 100.346 83.4273 100.346C83.4273 100.346 82.9105 99.9945 82.5029 100.479C82.0953 100.964 82.7727 101.397 82.7727 101.397C82.7727 101.397 81.745 101.265 81.9689 102.01C82.3421 103.265 83.8694 103.882 83.8694 103.882C83.8694 103.882 84.2942 103.989 84.6502 103.494C84.6502 103.494 85.6091 103.821 85.8732 102.831C85.8732 102.831 86.9928 102.602 86.6368 101.806C86.6425 101.806 87.8253 101.443 86.964 100.556Z" fill="#DB9C7C"/>
<path d="M69.8388 47.685C69.8388 47.685 61.893 47.0983 62.1111 54.5266C62.3293 61.9549 63.6555 63.0722 62.1054 68.3221C60.561 73.5719 69.8503 65.3426 69.8503 65.3426L69.8388 47.685Z" fill="#FCCCA2"/>
<path d="M61.1803 93.5816C61.1803 93.5816 58.2521 96.8927 57.2244 99.0865C56.1909 101.28 54.4685 106.081 54.6982 109.806C54.9278 113.525 56.3058 120.509 55.9039 122.091C55.502 123.672 55.1001 126.933 54.6695 128.055C54.2389 129.177 52.5164 132.437 52.3442 135.805C52.1719 139.172 54.7556 153.952 54.6408 155.33C54.5259 156.707 57.5689 155.891 57.5689 155.891C57.5689 155.891 58.6024 142.534 59.1765 140.238C59.7507 137.942 60.4396 130.147 60.9563 129.585C61.4731 129.024 62.8855 123.213 62.6673 122.295C62.4491 121.377 68.2996 107.612 68.6441 104.862C68.9886 102.112 77.618 93.5816 77.618 93.5816C77.618 93.5816 70.0737 91.0204 61.1803 93.5816Z" fill="#EEA987"/>
<path d="M75.1437 93.5814C75.1437 93.5814 75.293 94.9691 75.4653 95.4793C75.6375 95.9895 79.5991 108.989 79.9953 113.984C80.3972 118.979 81.4307 123.218 81.6029 124.284C81.7752 125.351 81.4307 128.922 81.0862 129.84C80.7417 130.759 82.8086 152.426 82.9809 152.936C83.1531 153.447 81.6029 153.6 80.5121 153.447C79.4212 153.294 73.9151 137.539 74.2595 134.891C74.604 132.238 74.9485 126.585 73.9725 124.29C72.9964 121.994 64.2177 105.372 64.1602 104.351C64.1028 103.331 60.3651 85.7705 75.1437 93.5814Z" fill="#EEA987"/>
<path d="M57.5113 154.268C57.5113 154.268 57.7926 156.028 58.1026 156.508C58.4127 156.987 59.2624 159.431 59.647 159.89C60.0317 160.35 60.8814 163.778 59.647 164.186C58.4127 164.599 55.5076 165.283 54.5258 163.911C53.5498 162.538 53.4178 161.166 53.5728 160.115C53.7278 159.064 54.899 154.237 54.8875 153.758C54.8703 153.283 57.5113 154.268 57.5113 154.268Z" fill="#EEA987"/>
<path d="M59.1539 158.936C59.1539 158.936 59.2859 161.6 57.0238 161.6C54.7617 161.6 53.757 159.176 53.757 159.176C53.757 159.176 52.9876 160.365 53.757 162.906C54.5263 165.441 57.7472 164.916 58.4649 164.824C59.1826 164.732 62.5929 163.931 59.1539 158.936Z" fill="#C4C4C4"/>
<path d="M82.7342 151.87C82.7342 151.87 84.3361 154.416 85.2834 154.931C86.4661 155.574 88.7627 157.635 89.5665 157.727C90.3703 157.824 93.2525 158.278 92.6956 159.727C92.2362 160.911 85.358 160.742 84.5772 160.151C83.8021 159.554 81.4826 157.421 80.541 157.467C79.6051 157.513 79.9554 160.543 79.9554 160.543H78.9391C78.9391 160.543 78.5831 157.595 78.543 157.089C78.4166 155.589 79.6223 154.482 79.674 153.63C79.7257 152.773 79.7831 152.135 79.7831 152.135L82.7342 151.87Z" fill="#C4C4C4"/>
<path d="M89.3418 157.661C89.3418 157.661 87.074 158.36 85.3285 157.467C83.5831 156.574 80.2301 155.222 79.0474 155.212C79.0474 155.212 79.6904 153.457 79.7076 153.258C79.7191 153.064 79.7938 152.136 79.7938 152.136L82.7219 151.717C82.7219 151.717 84.6224 154.197 85.4606 154.779C86.2931 155.365 88.4404 156.819 89.3418 157.661Z" fill="#EEA987"/>
<path d="M77.6581 93.3519C77.6581 93.3519 78.4733 96.3722 78.7776 97.2497C79.0762 98.1272 81.011 111.77 81.4876 120.305C81.4876 120.305 69.913 124.203 53.9922 123.555C53.9922 123.555 53.6075 107.877 55.0658 103.443C56.5299 99.0099 59.1766 94.8569 61.1746 93.5764C62.9544 92.4438 77.6581 93.3519 77.6581 93.3519Z" fill="#488D9A"/>
<path d="M79.6499 75.4903C79.5179 77.2861 78.6911 78.4391 78.5189 79.0871C78.3466 79.735 78.5189 81.2299 78.3064 82.7196C78.0883 84.2093 77.4452 91.3213 77.6634 93.3468C77.8758 95.3722 62.0123 94.459 60.8066 93.8468C60.8066 93.8468 63.4764 89.602 63.551 87.8419C63.574 87.2398 63.9816 85.3573 62.862 83.9798C62.2707 83.2553 61.1741 80.939 60.0832 79.2503C60.0832 79.2503 60.2842 78.8983 60.0832 79.2503C59.6583 78.5922 59.2163 77.9392 58.9062 77.4545C58.5043 76.8167 58.2747 76.0668 58.2747 76.0668C58.2747 76.0668 57.5685 68.266 59.5033 67.3885C61.4382 66.511 62.4716 66.3579 64.3663 66.2814C66.261 66.2049 67.5068 65.863 67.5068 65.863L71.9392 66.2814C71.9392 66.2814 73.5009 66.9344 74.6205 67.011C75.74 67.0875 77.1065 69.2456 77.784 70.8118C78.3352 72.0975 79.7763 73.6944 79.6499 75.4903Z" fill="#FAFAFA"/>
<path d="M61.9035 66.577C61.9035 66.577 58.3954 66.8372 57.0749 69.6994C55.7543 72.5615 55.8691 75.4747 55.5821 76.5308C55.295 77.5869 54.8758 83.7193 54.5773 84.6224C54.2787 85.5254 53.2453 89.7293 53.0156 93.1221C52.7859 96.5199 53.3543 103.678 53.3543 103.678L55.295 102.841C55.295 102.841 57.0232 92.2241 57.7753 89.9793C58.4184 88.061 58.4184 84.7958 58.7801 83.6173C59.1418 82.4388 61.3408 75.3421 61.6968 74.6227C62.2422 73.5207 64.9178 66.5413 61.9035 66.577Z" fill="#EEA886"/>
<path d="M69.0571 48.4348C71.0264 48.1491 75.5333 48.5878 76.8079 53.1795C76.8079 53.1795 76.8079 54.455 76.5954 55.4754C76.3773 56.4957 77.7494 59.312 77.5083 59.4803C77.2672 59.6487 76.2165 59.9446 76.2165 59.9446C76.2165 59.9446 75.4701 63.2455 74.2071 63.3424C72.9497 63.4445 68.0754 63.0516 65.3253 59.3222C62.5809 55.5978 61.1054 49.5929 69.0571 48.4348Z" fill="#EEA886"/>
<path d="M72.3305 62.067C72.3305 62.067 72.2329 62.5313 72.141 63.2098C72.0951 63.5568 72.0492 63.9598 72.0205 64.3884C71.9401 65.572 71.9803 66.9444 72.4396 67.8117C72.4396 67.8117 69.9651 69.1484 67.3241 65.8781C67.3241 65.8781 67.5882 61.8221 66.0667 59.6692C64.5453 57.5162 72.3305 62.067 72.3305 62.067Z" fill="#EEA886"/>
<path d="M76.8135 53.1845C76.8135 53.1845 73.8452 55.4599 70.7104 56.1742C67.5698 56.8935 65.9106 60.0261 65.9106 60.0261C65.9106 60.0261 60.3529 55.1028 63.7059 50.3223C67.0531 45.547 76.8077 47.6796 76.8135 53.1845Z" fill="#FCCCA2"/>
<path d="M72.141 63.21C72.0951 63.5569 72.0491 63.96 72.0204 64.3886C69.2532 63.1947 67.7261 61.557 67.7261 61.557C69.3566 62.5927 72.141 63.21 72.141 63.21Z" fill="#A77860"/>
<path d="M70.132 56.3377C70.132 56.3377 66.9225 64.0109 67.3072 65.8578C67.3072 65.8578 65.6078 65.5976 62.582 66.419C62.5763 66.4241 64.0404 52.7307 70.132 56.3377Z" fill="#FCCCA2"/>
<path d="M66.2329 66.1079C66.2329 66.1079 67.2893 71.8628 71.2048 71.2148C75.1204 70.5618 72.1521 66.3477 72.1521 66.3477C72.1521 66.3477 70.4125 65.0518 66.2329 66.1079Z" fill="#EEA886"/>
<path d="M55.3467 102.55C55.3467 102.55 55.6568 103.464 56.139 104.377C56.3744 104.826 56.7304 107.841 56.7419 108.234C56.7534 108.56 56.495 108.387 56.3515 108.178C56.2711 108.06 55.9611 107.03 55.6912 106.489C55.4673 106.035 55.295 105.872 55.2147 106.03C55.1343 106.188 55.1286 108.142 55.4041 108.958C55.674 109.775 55.628 111.703 55.1113 111.458C54.5946 111.213 53.1535 107.836 53.142 106.525C53.1305 105.213 53.3545 103.637 53.3545 103.637L55.3467 102.55Z" fill="#EEA886"/>
</g>
<defs>
<linearGradient id="paint0_linear" x1="113.487" y1="152.054" x2="113.487" y2="162.23" gradientUnits="userSpaceOnUse">
<stop stop-color="#1D6F7C"/>
<stop offset="1" stop-color="#092529"/>
</linearGradient>
<linearGradient id="paint1_linear" x1="117.297" y1="155.202" x2="117.297" y2="158.911" gradientUnits="userSpaceOnUse">
<stop stop-color="#1D6F7C"/>
<stop offset="1" stop-color="#092529"/>
</linearGradient>
<linearGradient id="paint2_linear" x1="120.957" y1="152.054" x2="120.957" y2="162.23" gradientUnits="userSpaceOnUse">
<stop stop-color="#1D6F7C"/>
<stop offset="1" stop-color="#092529"/>
</linearGradient>
<linearGradient id="paint3_linear" x1="124.772" y1="155.202" x2="124.772" y2="158.911" gradientUnits="userSpaceOnUse">
<stop stop-color="#1D6F7C"/>
<stop offset="1" stop-color="#092529"/>
</linearGradient>
<clipPath id="clip0">
<rect width="250" height="180" fill="white"/>
</clipPath>
</defs>
</svg>
