<svg width="706" height="706" viewBox="0 0 706 706" fill="none" xmlns="http://www.w3.org/2000/svg">
    <!-- <g clip-path="url(#clip0)"> -->
        <g opacity="0.41">
            <g opacity="0.41">
                <g opacity="0.41">
                    <path opacity="0.41" d="M705.604 431.436C706.239 419.382 705.959 407.262 704.733 395.273C698.976 338.928 672.876 285.788 634.479 248.301C620.779 234.922 605.19 222.95 596.274 205.285C581.26 175.551 582.397 141.384 563.767 112.025C545.107 82.634 517.93 59.7196 487.268 47.9435C395.844 12.8441 267.869 69.991 279.383 192.021C279.428 192.463 279.472 193.1 279.516 193.902C281.052 219.253 263.086 240.565 240.234 241.17C155.881 243.394 83.2794 315.441 67.7494 406.706C57.7552 465.407 74.112 529.734 112.863 571.245C141.783 602.239 180.608 619.265 219.433 630.959C297.29 654.414 379.222 659.337 459.5 650.357C534.641 641.967 613.9 618.022 662.498 553.973C688.421 519.839 703.272 476.022 705.604 431.436Z" fill="#E1E2FE"/>
                </g>
            </g>
        </g>
        <g opacity="0.31">
            <path opacity="0.31" d="M326.75 37.603C336.775 33.0459 341.567 20.3478 337.454 9.24087C333.341 -1.86604 321.88 -7.17576 311.855 -2.61871C301.83 1.93834 297.037 14.6365 301.151 25.7434C305.264 36.8503 316.725 42.16 326.75 37.603Z" fill="#E1E2FE"/>
        </g>
        <g opacity="0.31">
            <path opacity="0.31" d="M692.096 283.106C697.689 283.106 702.223 278.083 702.223 271.886C702.223 265.689 697.689 260.666 692.096 260.666C686.503 260.666 681.969 265.689 681.969 271.886C681.969 278.083 686.503 283.106 692.096 283.106Z" fill="#E1E2FE"/>
        </g>
        <g opacity="0.31">
            <path opacity="0.31" d="M237.168 76.1537C242.143 69.946 241.633 60.4458 236.03 54.9346C230.427 49.4233 221.852 49.9879 216.878 56.1957C211.904 62.4034 212.413 71.9035 218.016 77.4148C223.619 82.9261 232.194 82.3614 237.168 76.1537Z" fill="#E1E2FE"/>
        </g>
        <g opacity="0.31">
            <path opacity="0.31" d="M70.5677 645.582C87.632 645.582 101.465 630.255 101.465 611.349C101.465 592.443 87.632 577.117 70.5677 577.117C53.5033 577.117 39.6699 592.443 39.6699 611.349C39.6699 630.255 53.5033 645.582 70.5677 645.582Z" fill="#E1E2FE"/>
        </g>
        <path opacity="0.47" d="M702.137 98.6462C710.95 79.6408 704.174 56.3176 687.02 46.5696C669.866 36.8052 636.902 37.5249 628.088 56.5302C619.275 75.5355 645.685 91.8422 656.447 109.572C671.475 134.285 693.324 117.652 702.137 98.6462Z" fill="#ECF1F7"/>
        <path opacity="0.47" d="M622.713 664.342C635.128 673.223 651.677 669.265 659.692 655.526C667.708 641.788 669.701 613.885 657.301 605.003C644.886 596.122 631.673 617.189 618.653 624.941C600.51 635.752 610.312 655.461 622.713 664.342Z" fill="#E1E2FE"/>
        <path opacity="0.47" d="M116.125 -7.0116C102.47 -21.0612 81.1232 -20.1779 68.4571 -5.06527C55.7761 10.0638 47.7601 44.2145 61.4154 58.264C75.0706 72.3136 95.6642 49.3665 113.364 42.906C138.018 33.9104 129.765 7.03796 116.125 -7.0116Z" fill="#E1E2FE"/>
        <path opacity="0.47" d="M668.609 518.906C680.655 490.235 685.453 458.423 679.238 424.828C672.374 387.733 651.529 359.242 658.763 319.677C663.162 295.569 664.269 273.243 666.498 249.397C671.089 200.428 642.391 157.281 606.784 133.975C577.865 115.051 543.97 107.953 510.725 108.46C480.802 108.918 450.937 115.035 421.944 123.262C393.999 131.194 366.688 141.645 337.399 138.342C313.041 135.594 291.105 123.932 268.415 115.231C214.251 94.4592 148.662 91.5315 99.134 123.147C67.3505 143.445 45.1035 176.385 35.2422 211.828C27.3591 240.14 26.3552 266.619 32.2602 295.52C37.7223 322.278 46.2107 348.496 45.9745 376.252C45.7235 404.58 32.5702 429.866 37.7518 458.995C41.4129 479.603 52.5733 497.693 65.4757 513.084C100.965 555.445 150.507 581.025 201.497 593.194C269.374 609.402 338.58 593.93 405.868 610.057C449.992 620.639 493.689 641.051 539.63 633.069C568.328 628.081 595.048 612.559 617.103 591.607C638.774 571.097 657.035 546.449 668.609 518.906Z" fill="#E1E2FE"/>
        <path opacity="0.81" d="M606.681 473.781C608.556 450.409 601.44 426.317 607.39 403.174C614.505 375.451 635.128 354.695 643.528 327.479C655.943 287.277 655.353 242.217 640.266 203.029C633.003 184.138 622.388 166.604 607.892 154.469C585.541 135.758 556.267 131.652 528.721 134.024C487.74 137.557 444.486 157.216 403.284 151.852C380.55 148.891 373.597 121.626 361.861 103.635C348.575 83.2885 330.491 67.3089 310.488 56.6777C273.656 37.0836 229.442 35.2354 191.798 52.9977C151.6 71.9703 116.569 118.273 118.872 170.661C119.934 194.9 128.689 218.959 124.644 242.773C119.551 272.655 99.2375 299.887 84.5046 324.225C68.2364 351.113 58.3899 383.171 56.4708 415.882C56.456 416.258 56.4265 416.618 56.4117 416.994C53.3854 473.421 85.5232 524.893 133.988 542.557L237.119 580.142C341.769 618.268 446.317 617.008 542.538 561.055C563.353 548.952 597.263 512.871 604.245 487.994C605.544 483.284 606.297 478.541 606.681 473.781Z" fill="#E1E2FE"/>
        <path opacity="0.58" d="M689.071 577.624C692.74 577.624 695.714 574.328 695.714 570.263C695.714 566.199 692.74 562.903 689.071 562.903C685.402 562.903 682.428 566.199 682.428 570.263C682.428 574.328 685.402 577.624 689.071 577.624Z" fill="#5EC8D9"/>
        <path opacity="0.58" d="M382.188 3.99554C385.857 3.99554 388.831 0.70032 388.831 -3.36454C388.831 -7.42939 385.857 -10.7246 382.188 -10.7246C378.519 -10.7246 375.545 -7.42939 375.545 -3.36454C375.545 0.70032 378.519 3.99554 382.188 3.99554Z" fill="#2C2F34"/>
        <path opacity="0.58" d="M142.21 645.5C145.878 645.5 148.853 642.205 148.853 638.14C148.853 634.075 145.878 630.78 142.21 630.78C138.541 630.78 135.566 634.075 135.566 638.14C135.566 642.205 138.541 645.5 142.21 645.5Z" fill="#5EC8D9"/>
        <path opacity="0.58" d="M561.507 674.809C564.36 674.809 566.674 672.246 566.674 669.085C566.674 665.923 564.36 663.36 561.507 663.36C558.653 663.36 556.34 665.923 556.34 669.085C556.34 672.246 558.653 674.809 561.507 674.809Z" fill="#FCBC19"/>
        <path opacity="0.7" d="M666.157 706C669.826 706 672.8 702.705 672.8 698.64C672.8 694.575 669.826 691.28 666.157 691.28C662.488 691.28 659.514 694.575 659.514 698.64C659.514 702.705 662.488 706 666.157 706Z" fill="#2B555D"/>
        <path opacity="0.58" d="M111.476 83.6479C112.699 83.6479 113.69 82.5495 113.69 81.1946C113.69 79.8396 112.699 78.7412 111.476 78.7412C110.253 78.7412 109.262 79.8396 109.262 81.1946C109.262 82.5495 110.253 83.6479 111.476 83.6479Z" fill="#22252A"/>
        <path opacity="0.58" d="M584.567 48.8103C583.652 53.5862 579.415 56.6283 575.104 55.6143C570.794 54.6002 568.048 49.9061 568.963 45.1303C569.878 40.3544 574.115 37.3122 578.426 38.3263C582.751 39.3403 585.497 44.0344 584.567 48.8103Z" fill="#FCBC19"/>
        <path opacity="0.58" d="M158.243 4.7156C157.888 6.58016 156.22 7.77413 154.523 7.38159C152.84 6.98905 151.762 5.14085 152.116 3.25995C152.471 1.3954 154.139 0.201426 155.836 0.593963C157.534 1.00286 158.612 2.85105 158.243 4.7156Z" fill="#5EC8D9"/>
        <path opacity="0.58" d="M94.3354 696.3C94.0254 697.887 92.623 698.901 91.1763 698.574C89.7296 698.246 88.8291 696.676 89.1243 695.074C89.4343 693.487 90.8368 692.473 92.2835 692.8C93.7302 693.144 94.6454 694.714 94.3354 696.3Z" fill="#FCBC19"/>
        <g opacity="0.73">
            <g opacity="0.73">
                <path opacity="0.73" d="M180.609 281.059C179.917 281.059 179.211 280.96 178.519 280.776L166.658 277.529C162.479 276.385 160.022 272.064 161.165 267.885L165.133 253.398C157.875 249.656 151.465 244.686 146.029 238.586L132.982 246.027C131.16 247.072 129.042 247.326 127.023 246.775C125.004 246.225 123.31 244.912 122.279 243.09L116.193 232.401C114.047 228.645 115.36 223.845 119.116 221.698L132.163 214.257C129.678 206.477 128.661 198.429 129.141 190.281L114.654 186.314C110.475 185.17 108.018 180.849 109.161 176.67L112.409 164.809C113.553 160.629 117.873 158.172 122.053 159.316L136.54 163.284C140.282 156.026 145.252 149.616 151.352 144.18L143.911 131.133C142.866 129.311 142.612 127.193 143.162 125.174C143.713 123.155 145.026 121.46 146.848 120.43L157.537 114.344C161.292 112.198 166.093 113.511 168.239 117.267L175.681 130.314C183.461 127.829 191.509 126.812 199.656 127.292L203.624 112.805C204.768 108.625 209.089 106.169 213.268 107.312L225.129 110.56C229.308 111.704 231.765 116.024 230.622 120.204L226.654 134.691C233.912 138.433 240.322 143.403 245.758 149.503L258.805 142.062C260.627 141.017 262.745 140.763 264.764 141.313C266.783 141.864 268.477 143.177 269.508 144.999L275.594 155.673C276.639 157.495 276.893 159.613 276.342 161.632C275.792 163.651 274.478 165.345 272.657 166.376L259.61 173.817C262.095 181.598 263.112 189.646 262.632 197.793L277.119 201.761C279.138 202.312 280.832 203.625 281.863 205.446C282.908 207.268 283.162 209.386 282.611 211.405L279.364 223.266C278.22 227.445 273.899 229.902 269.72 228.758L255.233 224.791C251.491 232.048 246.521 238.459 240.421 243.895L247.862 256.942C248.907 258.763 249.161 260.881 248.611 262.9C248.06 264.92 246.747 266.614 244.925 267.645L234.25 273.73C232.429 274.775 230.311 275.03 228.292 274.479C226.273 273.928 224.578 272.615 223.548 270.794L216.106 257.747C208.326 260.232 200.278 261.248 192.131 260.768L188.163 275.255C187.612 277.275 186.299 278.969 184.477 280C183.277 280.706 181.95 281.059 180.609 281.059ZM146.961 233.178L148.104 234.519C153.766 241.226 160.643 246.55 168.55 250.376L170.132 251.139L165.246 269C164.992 269.932 165.119 270.907 165.599 271.74C166.079 272.573 166.856 273.18 167.788 273.434L179.648 276.682C180.58 276.936 181.555 276.809 182.388 276.329C183.221 275.848 183.828 275.072 184.082 274.14L188.968 256.278L190.719 256.419C199.473 257.154 208.1 256.066 216.389 253.186L218.055 252.607L227.233 268.69C227.713 269.523 228.49 270.13 229.421 270.384C230.353 270.638 231.328 270.511 232.161 270.031L242.835 263.931C243.669 263.451 244.276 262.675 244.53 261.743C244.784 260.811 244.657 259.836 244.177 259.003L234.999 242.921L236.34 241.777C243.033 236.115 248.37 229.238 252.197 221.331L252.959 219.75L270.821 224.635C272.742 225.158 274.733 224.028 275.255 222.108L278.503 210.247C278.757 209.315 278.63 208.341 278.15 207.508C277.669 206.675 276.893 206.067 275.961 205.813L258.099 200.928L258.24 199.177C258.975 190.437 257.887 181.795 255.007 173.507L254.428 171.841L270.511 162.663C271.344 162.183 271.951 161.406 272.205 160.474C272.459 159.542 272.332 158.568 271.852 157.735L265.752 147.06C265.272 146.227 264.496 145.62 263.564 145.366C262.632 145.111 261.657 145.239 260.824 145.719L244.742 154.897L243.598 153.555C237.936 146.848 231.059 141.525 223.152 137.698L221.571 136.936L226.456 119.074C226.71 118.142 226.583 117.168 226.103 116.335C225.623 115.502 224.847 114.895 223.915 114.641L212.054 111.393C210.134 110.87 208.143 112 207.62 113.92L202.735 131.782L200.984 131.641C192.229 130.907 183.602 131.994 175.314 134.874L173.647 135.453L164.469 119.371C163.989 118.538 163.213 117.93 162.281 117.676C161.349 117.422 160.375 117.549 159.542 118.029L148.867 124.115C148.034 124.595 147.427 125.372 147.172 126.304C146.918 127.236 147.045 128.21 147.525 129.043L156.703 145.126L155.362 146.269C148.655 151.931 143.332 158.808 139.505 166.715L138.743 168.297L120.881 163.411C119.949 163.157 118.975 163.284 118.142 163.764C117.309 164.244 116.701 165.021 116.447 165.953L113.2 177.813C112.946 178.745 113.073 179.72 113.553 180.553C114.033 181.386 114.809 181.993 115.741 182.247L133.603 187.133L133.462 188.883C132.728 197.624 133.815 206.265 136.695 214.554L137.274 216.22L121.192 225.398C120.359 225.878 119.751 226.654 119.497 227.586C119.243 228.518 119.37 229.493 119.85 230.326L125.936 241.014C126.416 241.848 127.193 242.455 128.125 242.709C129.056 242.963 130.031 242.836 130.864 242.356L146.961 233.178ZM195.929 229.436C192.794 229.436 189.645 229.012 186.539 228.165C177.417 225.666 169.821 219.778 165.147 211.574C160.459 203.371 159.259 193.825 161.758 184.718C164.258 175.597 170.146 168 178.349 163.326C186.553 158.638 196.098 157.438 205.206 159.937C214.313 162.437 221.924 168.325 226.597 176.528C231.285 184.732 232.485 194.277 229.986 203.385C227.487 212.506 221.599 220.103 213.395 224.776C207.987 227.869 202 229.436 195.929 229.436ZM195.83 162.889C190.493 162.889 185.212 164.272 180.453 166.997C173.224 171.12 168.042 177.813 165.839 185.834C163.65 193.854 164.709 202.255 168.833 209.485C172.956 216.714 179.648 221.896 187.669 224.099C195.689 226.287 204.09 225.228 211.32 221.105C218.549 216.982 223.731 210.289 225.934 202.269C228.122 194.249 227.063 185.848 222.954 178.618C218.831 171.389 212.139 166.207 204.118 164.004C201.365 163.256 198.583 162.889 195.83 162.889Z" fill="white"/>
            </g>
        </g>
        <g opacity="0.69">
            <path opacity="0.69" d="M523.965 242.85L444.074 244.305C441.772 244.347 439.866 242.893 439.824 241.057L438.864 188.008C438.835 186.172 440.685 184.648 442.987 184.605L522.878 183.151C525.193 183.108 527.085 184.563 527.128 186.398L528.088 239.447C528.13 241.269 526.281 242.808 523.965 242.85ZM443.015 185.579C441.25 185.608 439.838 186.681 439.866 187.98L440.826 241.029C440.855 242.314 442.309 243.344 444.06 243.316L523.951 241.862C525.716 241.834 527.128 240.76 527.099 239.461L526.139 186.413C526.111 185.128 524.657 184.097 522.906 184.125L443.015 185.579Z" fill="white"/>
            <path opacity="0.69" d="M526.226 193.869L439.49 195.448L439.508 196.436L526.244 194.858L526.226 193.869Z" fill="white"/>
            <path opacity="0.69" d="M445.754 192.795C444.723 192.809 443.876 191.99 443.848 190.959C443.834 189.929 444.653 189.081 445.683 189.053C446.714 189.039 447.561 189.858 447.59 190.889C447.604 191.92 446.785 192.781 445.754 192.795ZM445.698 190.056C445.217 190.07 444.822 190.465 444.836 190.945C444.85 191.425 445.246 191.821 445.726 191.807C446.206 191.792 446.601 191.397 446.587 190.917C446.587 190.423 446.192 190.042 445.698 190.056Z" fill="white"/>
            <path opacity="0.69" d="M450.908 192.696C449.878 192.71 449.03 191.891 449.002 190.86C448.988 189.829 449.807 188.982 450.838 188.954C451.869 188.94 452.716 189.759 452.744 190.789C452.758 191.834 451.925 192.681 450.908 192.696ZM450.852 189.956C450.372 189.97 449.976 190.366 449.991 190.846C450.005 191.326 450.4 191.721 450.88 191.707C451.36 191.693 451.756 191.298 451.741 190.818C451.741 190.338 451.332 189.942 450.852 189.956Z" fill="white"/>
            <path opacity="0.69" d="M455.949 192.611C454.919 192.625 454.071 191.806 454.043 190.776C454.029 189.745 454.848 188.898 455.879 188.87C456.91 188.855 457.757 189.674 457.785 190.705C457.799 191.736 456.98 192.583 455.949 192.611ZM455.907 189.872C455.427 189.886 455.032 190.282 455.046 190.762C455.06 191.242 455.455 191.637 455.935 191.623C456.415 191.609 456.811 191.213 456.797 190.733C456.782 190.239 456.387 189.858 455.907 189.872Z" fill="white"/>
        </g>
        <g opacity="0.69">
            <path opacity="0.69" d="M255.84 559.887L175.949 561.341C173.647 561.384 171.741 559.929 171.699 558.094L170.739 505.045C170.71 503.209 172.56 501.684 174.862 501.642L254.753 500.187C257.068 500.145 258.96 501.599 259.003 503.435L259.963 556.484C260.005 558.319 258.156 559.844 255.84 559.887ZM174.89 502.63C173.125 502.658 171.713 503.732 171.741 505.031L172.701 558.079C172.73 559.364 174.184 560.395 175.935 560.367L255.826 558.913C257.591 558.884 259.003 557.811 258.975 556.512L258.014 503.463C257.986 502.178 256.532 501.148 254.781 501.176L174.89 502.63Z" fill="white"/>
            <path opacity="0.69" d="M258.138 510.907L171.402 512.486L171.42 513.474L258.156 511.895L258.138 510.907Z" fill="white"/>
            <path opacity="0.69" d="M177.629 509.845C176.598 509.86 175.751 509.041 175.723 508.01C175.709 506.979 176.528 506.132 177.558 506.104C178.589 506.09 179.436 506.909 179.465 507.939C179.493 508.97 178.66 509.817 177.629 509.845ZM177.587 507.092C177.107 507.106 176.711 507.502 176.725 507.982C176.739 508.462 177.135 508.857 177.615 508.843C178.095 508.829 178.49 508.433 178.476 507.953C178.462 507.473 178.067 507.092 177.587 507.092Z" fill="white"/>
            <path opacity="0.69" d="M182.783 509.747C181.753 509.761 180.905 508.942 180.877 507.911C180.863 506.88 181.682 506.033 182.713 506.005C183.743 505.991 184.591 506.81 184.619 507.84C184.633 508.871 183.814 509.732 182.783 509.747ZM182.727 507.007C182.247 507.021 181.851 507.417 181.866 507.897C181.88 508.377 182.275 508.772 182.755 508.758C183.235 508.744 183.63 508.349 183.616 507.869C183.616 507.389 183.221 506.993 182.727 507.007Z" fill="white"/>
            <path opacity="0.69" d="M187.84 509.662C186.809 509.676 185.962 508.857 185.934 507.826C185.92 506.796 186.739 505.948 187.769 505.92C188.8 505.906 189.647 506.725 189.676 507.756C189.69 508.787 188.857 509.634 187.84 509.662ZM187.784 506.909C187.303 506.923 186.908 507.318 186.922 507.798C186.936 508.278 187.332 508.674 187.812 508.659C188.292 508.645 188.687 508.25 188.673 507.77C188.673 507.29 188.264 506.909 187.784 506.909Z" fill="white"/>
        </g>
        <g opacity="0.55">
            <g opacity="0.55">
                <path opacity="0.55" d="M587.79 409.822L579.53 403.199C582.27 398.074 583.837 392.539 584.26 386.961L594.794 385.804C596.785 385.592 598.211 383.799 597.999 381.808L597.152 374.084C596.94 372.093 595.147 370.667 593.156 370.879L582.623 372.037C580.999 366.685 578.274 361.616 574.475 357.211L581.098 348.95C582.354 347.383 582.1 345.11 580.533 343.853L574.461 338.996C572.894 337.739 570.621 337.993 569.364 339.561L562.742 347.821C557.616 345.082 552.081 343.514 546.504 343.091L545.346 332.557C545.134 330.566 543.341 329.14 541.35 329.352L533.626 330.199C531.635 330.425 530.209 332.204 530.421 334.195L531.579 344.729C526.227 346.352 521.158 349.078 516.753 352.876L508.492 346.254C506.925 344.997 504.652 345.251 503.395 346.818L498.538 352.89C497.281 354.457 497.535 356.731 499.103 357.987L507.363 364.61C504.624 369.735 503.056 375.27 502.633 380.848L492.099 382.005C490.108 382.217 488.682 384.01 488.894 386.001L489.741 393.725C489.967 395.716 491.746 397.142 493.737 396.93L504.271 395.772C505.894 401.124 508.62 406.193 512.418 410.598L505.796 418.859C504.539 420.426 504.793 422.699 506.36 423.956L512.432 428.813C513.999 430.07 516.273 429.816 517.529 428.248L524.152 419.988C529.277 422.727 534.812 424.295 540.39 424.718L541.547 435.238C541.773 437.229 543.552 438.655 545.543 438.443L553.267 437.596C555.258 437.37 556.684 435.591 556.472 433.6L555.314 423.066C560.666 421.443 565.735 418.717 570.14 414.919L578.401 421.541C579.968 422.798 582.241 422.544 583.498 420.977L588.355 414.905C589.598 413.352 589.358 411.064 587.79 409.822ZM530.294 400.305C521.229 393.047 519.774 379.817 527.046 370.752C534.304 361.687 547.534 360.232 556.599 367.504C565.664 374.762 567.119 387.992 559.861 397.057C552.589 406.108 539.359 407.563 530.294 400.305Z" fill="white"/>
                <path opacity="0.55" d="M545.131 439.161C544.156 439.161 543.21 438.836 542.434 438.215C541.53 437.494 540.965 436.464 540.838 435.306L539.737 425.365C534.329 424.885 529.147 423.389 524.318 420.875L518.063 428.684C517.342 429.587 516.312 430.152 515.154 430.279C514.01 430.406 512.881 430.081 511.977 429.361L505.919 424.504C505.016 423.784 504.451 422.753 504.324 421.595C504.197 420.452 504.522 419.322 505.242 418.418L511.497 410.61C508.009 406.445 505.411 401.714 503.773 396.546L493.819 397.648C492.675 397.775 491.545 397.45 490.642 396.716C489.738 395.996 489.173 394.965 489.046 393.807L488.199 386.083C488.072 384.94 488.396 383.81 489.131 382.906C489.851 382.003 490.882 381.438 492.039 381.311L501.98 380.21C502.46 374.802 503.957 369.62 506.47 364.791L498.662 358.535C497.758 357.815 497.193 356.784 497.066 355.641C496.939 354.497 497.264 353.367 497.998 352.464L502.855 346.392C503.575 345.489 504.606 344.924 505.764 344.797C506.908 344.67 508.037 344.994 508.941 345.729L516.749 351.984C520.915 348.496 525.645 345.898 530.813 344.246L529.712 334.305C529.443 331.933 531.166 329.787 533.538 329.533L541.262 328.686C543.634 328.432 545.78 330.14 546.034 332.512L547.136 342.453C552.544 342.933 557.726 344.43 562.555 346.943L568.81 339.134C570.307 337.271 573.032 336.974 574.896 338.471L580.953 343.328C581.857 344.048 582.422 345.079 582.549 346.237C582.676 347.381 582.351 348.51 581.617 349.414L575.362 357.222C578.849 361.388 581.447 366.118 583.099 371.286L593.054 370.184C594.198 370.057 595.327 370.382 596.231 371.116C597.135 371.836 597.699 372.867 597.826 374.025L598.674 381.749C598.801 382.892 598.476 384.022 597.742 384.926C597.022 385.829 595.991 386.394 594.833 386.521L584.893 387.623C584.412 393.031 582.916 398.213 580.402 403.042L588.211 409.297C589.114 410.017 589.679 411.048 589.806 412.205C589.933 413.349 589.609 414.479 588.874 415.382L584.017 421.44C582.52 423.304 579.795 423.6 577.931 422.118L570.123 415.863C565.958 419.35 561.242 421.948 556.06 423.6L557.161 433.541C557.288 434.685 556.963 435.814 556.229 436.718C555.509 437.621 554.478 438.186 553.32 438.313L545.597 439.161C545.455 439.146 545.3 439.161 545.131 439.161ZM523.965 419.068L524.487 419.35C529.457 422.019 534.823 423.572 540.443 423.996L541.022 424.038L542.25 435.15C542.335 435.927 542.716 436.619 543.323 437.099C543.93 437.593 544.693 437.819 545.47 437.72L553.193 436.873C553.97 436.788 554.662 436.407 555.142 435.8C555.636 435.193 555.848 434.43 555.763 433.654L554.535 422.541L555.099 422.372C560.493 420.734 565.393 418.051 569.657 414.366L570.095 413.985L578.821 420.974C580.078 421.977 581.913 421.779 582.916 420.522L587.773 414.465C588.267 413.858 588.479 413.095 588.394 412.318C588.31 411.542 587.928 410.85 587.321 410.37L578.595 403.38L578.877 402.858C581.546 397.888 583.099 392.522 583.523 386.902L583.565 386.324L594.678 385.095C595.454 385.01 596.146 384.629 596.626 384.022C597.12 383.415 597.332 382.652 597.248 381.876L596.4 374.152C596.316 373.376 595.934 372.684 595.327 372.204C594.72 371.723 593.958 371.483 593.181 371.582L582.069 372.811L581.899 372.246C580.275 366.852 577.578 361.952 573.893 357.688L573.512 357.25L580.501 348.524C580.981 347.917 581.207 347.155 581.122 346.378C581.038 345.601 580.657 344.91 580.049 344.429L573.992 339.572C572.735 338.57 570.9 338.767 569.897 340.024L562.908 348.75L562.385 348.468C557.415 345.799 552.049 344.246 546.43 343.822L545.851 343.78L544.622 332.668C544.453 331.072 542.998 329.914 541.403 330.084L533.679 330.931C532.903 331.015 532.211 331.397 531.731 332.004C531.237 332.611 531.025 333.374 531.109 334.15L532.338 345.263L531.773 345.432C526.379 347.056 521.48 349.753 517.215 353.438L516.778 353.819L508.052 346.83C507.444 346.336 506.682 346.124 505.905 346.209C505.129 346.293 504.437 346.675 503.957 347.282L499.099 353.353C498.619 353.96 498.393 354.723 498.478 355.5C498.563 356.276 498.944 356.968 499.551 357.448L508.277 364.438L507.995 364.96C505.326 369.93 503.773 375.296 503.35 380.916L503.307 381.494L492.195 382.723C491.418 382.808 490.726 383.189 490.246 383.796C489.752 384.403 489.54 385.166 489.625 385.942L490.472 393.666C490.557 394.443 490.938 395.134 491.545 395.614C492.152 396.095 492.915 396.32 493.691 396.236L504.804 395.007L504.973 395.572C506.597 400.966 509.294 405.866 512.979 410.13L513.361 410.568L506.371 419.294C505.877 419.901 505.665 420.663 505.75 421.44C505.835 422.217 506.216 422.908 506.823 423.389L512.881 428.246C513.488 428.726 514.25 428.952 515.027 428.867C515.803 428.782 516.495 428.401 516.975 427.794L523.965 419.068ZM543.422 405.611C538.65 405.611 533.849 404.058 529.853 400.853C525.32 397.224 522.482 392.042 521.847 386.281C521.211 380.506 522.863 374.844 526.492 370.311C530.121 365.779 535.303 362.941 541.064 362.305C546.839 361.67 552.501 363.322 557.034 366.951C566.381 374.449 567.892 388.145 560.394 397.492C556.116 402.83 549.79 405.611 543.422 405.611ZM543.479 363.576C542.73 363.576 541.968 363.619 541.219 363.703C535.826 364.296 530.982 366.951 527.594 371.187C520.59 379.927 522.002 392.734 530.742 399.752C539.483 406.755 552.289 405.343 559.307 396.603C566.311 387.863 564.899 375.056 556.158 368.038C552.515 365.129 548.082 363.576 543.479 363.576Z" fill="white"/>
            </g>
        </g>
        <g opacity="0.38">
            <path opacity="0.38" d="M640.468 472.583H560.521C559.137 472.583 558.021 471.242 558.021 469.604V440.178C558.021 438.526 559.151 437.198 560.521 437.198H640.468C641.852 437.198 642.967 438.54 642.967 440.178V469.604C642.982 471.242 641.852 472.583 640.468 472.583ZM560.521 438.61C559.928 438.61 559.433 439.33 559.433 440.178V469.604C559.433 470.451 559.928 471.171 560.521 471.171H640.468C641.061 471.171 641.555 470.451 641.555 469.604V440.178C641.555 439.33 641.061 438.61 640.468 438.61H560.521Z" fill="white"/>
            <g opacity="0.38">
                <path opacity="0.38" d="M628.593 448.564H574.471V449.976H628.593V448.564Z" fill="white"/>
                <path opacity="0.38" d="M628.593 450.682H574.471C573.694 450.682 573.059 450.047 573.059 449.27C573.059 448.494 573.694 447.858 574.471 447.858H628.593C629.369 447.858 630.005 448.494 630.005 449.27C630.005 450.061 629.383 450.682 628.593 450.682ZM628.593 449.27V449.976V449.27Z" fill="white"/>
            </g>
            <g opacity="0.38">
                <path opacity="0.38" d="M598.658 454.99H574.471V456.401H598.658V454.99Z" fill="white"/>
                <path opacity="0.38" d="M598.658 457.107H574.471C573.694 457.107 573.059 456.472 573.059 455.695C573.059 454.919 573.694 454.283 574.471 454.283H598.658C599.435 454.283 600.07 454.919 600.07 455.695C600.07 456.472 599.435 457.107 598.658 457.107ZM598.658 455.695V456.401V455.695Z" fill="white"/>
            </g>
            <g opacity="0.38">
                <path opacity="0.38" d="M628.607 454.99H604.42V456.401H628.607V454.99Z" fill="white"/>
                <path opacity="0.38" d="M628.594 457.107H604.406C603.63 457.107 602.994 456.472 602.994 455.695C602.994 454.919 603.63 454.283 604.406 454.283H628.594C629.37 454.283 630.006 454.919 630.006 455.695C630.006 456.472 629.384 457.107 628.594 457.107ZM628.594 455.695V456.401V455.695Z" fill="white"/>
            </g>
            <g opacity="0.38">
                <path opacity="0.38" d="M628.593 461.711H574.471V463.123H628.593V461.711Z" fill="white"/>
                <path opacity="0.38" d="M628.593 463.829H574.471C573.694 463.829 573.059 463.193 573.059 462.417C573.059 461.64 573.694 461.005 574.471 461.005H628.593C629.369 461.005 630.005 461.64 630.005 462.417C630.005 463.193 629.383 463.829 628.593 463.829ZM628.593 462.417V463.123V462.417Z" fill="white"/>
            </g>
        </g>
        <g opacity="0.55">
            <path opacity="0.55" d="M417.867 603.362C416.752 603.362 415.693 602.981 414.803 602.275C413.773 601.456 413.137 600.284 412.996 598.985L412.008 589.962C407.094 589.454 402.378 588.084 397.958 585.881L392.282 592.97C390.588 595.088 387.481 595.426 385.377 593.732L379.517 589.03C378.501 588.211 377.851 587.039 377.71 585.74C377.569 584.441 377.936 583.156 378.755 582.125L384.431 575.037C381.311 571.211 378.953 566.904 377.385 562.216L368.363 563.205C365.666 563.487 363.237 561.553 362.941 558.856L362.122 551.386C361.825 548.689 363.774 546.261 366.471 545.964L375.493 544.976C376.002 540.062 377.371 535.346 379.574 530.926L372.486 525.25C370.368 523.556 370.029 520.463 371.723 518.345L376.425 512.486C377.244 511.455 378.416 510.82 379.715 510.678C381.014 510.537 382.299 510.904 383.33 511.723L390.418 517.399C394.245 514.279 398.551 511.921 403.239 510.354L402.251 501.331C402.109 500.032 402.477 498.747 403.296 497.716C404.115 496.685 405.287 496.05 406.586 495.909L414.055 495.09C415.354 494.949 416.639 495.316 417.67 496.135C418.7 496.954 419.336 498.126 419.477 499.425L420.465 508.447C425.379 508.956 430.095 510.325 434.515 512.528L440.191 505.44C441.886 503.322 444.978 502.983 447.096 504.677L452.956 509.379C453.972 510.198 454.622 511.37 454.763 512.669C454.904 513.968 454.537 515.253 453.718 516.284L448.042 523.372C451.162 527.199 453.52 531.505 455.088 536.193L464.11 535.205C466.793 534.908 469.236 536.857 469.533 539.554L470.351 547.023C470.648 549.72 468.699 552.149 466.003 552.445L456.98 553.434C456.472 558.347 455.102 563.063 452.899 567.469L459.987 573.145C461.018 573.964 461.654 575.136 461.795 576.435C461.936 577.734 461.569 579.019 460.75 580.05L456.048 585.91C455.229 586.94 454.057 587.576 452.758 587.717C451.459 587.872 450.174 587.491 449.143 586.672L442.055 580.996C438.228 584.116 433.922 586.474 429.234 588.042L430.222 597.064C430.519 599.761 428.57 602.19 425.873 602.486L418.404 603.305C418.235 603.348 418.051 603.362 417.867 603.362ZM397.21 582.281L398.241 582.831C402.957 585.359 408.04 586.842 413.377 587.237L414.549 587.322L415.792 598.66C415.848 599.211 416.131 599.719 416.554 600.058C416.992 600.411 417.543 600.566 418.093 600.51L425.563 599.691C426.114 599.634 426.622 599.352 426.961 598.914C427.314 598.476 427.469 597.94 427.413 597.375L426.17 586.037L427.3 585.698C432.411 584.159 437.071 581.603 441.109 578.101L441.999 577.339L450.908 584.469C451.346 584.822 451.883 584.978 452.447 584.921C452.998 584.865 453.506 584.582 453.845 584.145L458.547 578.285C458.9 577.847 459.055 577.296 458.999 576.746C458.943 576.195 458.66 575.687 458.237 575.348L449.327 568.203L449.877 567.172C452.405 562.456 453.888 557.373 454.283 552.036L454.368 550.864L465.706 549.621C466.85 549.494 467.683 548.463 467.556 547.32L466.737 539.85C466.61 538.706 465.565 537.888 464.435 538L453.097 539.243L452.758 538.113C451.219 533.002 448.663 528.357 445.161 524.304L444.399 523.415L451.544 514.505C451.897 514.067 452.052 513.531 451.995 512.966C451.939 512.415 451.657 511.907 451.233 511.568L445.373 506.866C444.484 506.146 443.156 506.287 442.436 507.191L435.306 516.1L434.275 515.55C429.559 513.022 424.476 511.54 419.138 511.144L417.966 511.06L416.724 499.721C416.667 499.171 416.385 498.662 415.961 498.323C415.523 497.97 414.973 497.815 414.422 497.872L406.953 498.69C406.402 498.747 405.894 499.029 405.555 499.453C405.202 499.891 405.046 500.427 405.103 500.992L406.345 512.33L405.216 512.669C400.104 514.208 395.445 516.764 391.407 520.266L390.517 521.028L381.607 513.898C381.17 513.545 380.633 513.389 380.068 513.446C379.517 513.502 379.009 513.785 378.67 514.208L373.968 520.068C373.615 520.506 373.46 521.057 373.516 521.607C373.573 522.158 373.855 522.666 374.279 523.005L383.189 530.15L382.638 531.181C380.111 535.897 378.628 540.98 378.233 546.317L378.148 547.489L366.809 548.732C365.666 548.859 364.833 549.89 364.96 551.033L365.779 558.503C365.906 559.646 366.937 560.465 368.08 560.352L379.419 559.11L379.758 560.239C381.297 565.351 383.852 570.01 387.354 574.049L388.117 574.938L380.972 583.848C380.619 584.286 380.464 584.822 380.52 585.387C380.576 585.938 380.859 586.446 381.282 586.785L387.142 591.487C388.032 592.207 389.359 592.066 390.079 591.162L397.21 582.281ZM416.215 570.928C411.443 570.928 406.642 569.375 402.646 566.156C398.114 562.527 395.275 557.345 394.64 551.57C394.005 545.795 395.657 540.133 399.285 535.6C402.914 531.068 408.096 528.229 413.871 527.594C419.647 526.959 425.323 528.611 429.841 532.24C434.374 535.868 437.212 541.05 437.847 546.825C438.483 552.601 436.831 558.263 433.202 562.795C428.909 568.147 422.583 570.928 416.215 570.928ZM416.272 530.291C415.566 530.291 414.874 530.333 414.168 530.404C409.141 530.955 404.637 533.426 401.488 537.379C398.325 541.319 396.899 546.261 397.45 551.273C398.001 556.3 400.472 560.804 404.425 563.953C412.558 570.476 424.49 569.163 431.013 561.03C434.176 557.091 435.602 552.149 435.051 547.136C434.501 542.109 432.03 537.605 428.076 534.456C424.673 531.731 420.55 530.291 416.272 530.291Z" fill="white"/>
        </g>
        <g opacity="0.61">
            <g opacity="0.61">
                <path opacity="0.74" d="M234.829 263.494L237.442 478.486C237.47 481.168 235.324 483.357 232.655 483.399L103.485 484.967C100.802 484.995 98.6138 482.849 98.5715 480.18L95.9593 265.189C95.931 262.506 98.0773 260.317 100.746 260.275L229.916 258.708C232.598 258.68 234.787 260.826 234.829 263.494Z" fill="#488D9A"/>
                <g opacity="0.61">
                    <path opacity="0.61" d="M235.294 263.409L235.45 276.188L96.5794 277.882L96.4241 264.863C96.3959 262.293 98.4433 260.204 101.013 260.161L230.352 258.594C233.049 258.566 235.252 260.726 235.294 263.409Z" fill="#3E479B"/>
                </g>
            </g>
            <path opacity="0.61" d="M105.984 271.514C104.403 271.528 103.118 270.257 103.104 268.676C103.09 267.094 104.36 265.809 105.942 265.795C107.523 265.781 108.808 267.052 108.822 268.633C108.836 270.215 107.566 271.499 105.984 271.514ZM105.956 266.939C105.01 266.953 104.247 267.715 104.247 268.661C104.247 269.607 105.024 270.37 105.97 270.37C106.916 270.356 107.678 269.593 107.678 268.647C107.678 267.701 106.902 266.939 105.956 266.939Z" fill="white"/>
            <path opacity="0.61" d="M115.545 271.443C113.963 271.457 112.678 270.186 112.664 268.605C112.65 267.023 113.921 265.739 115.502 265.724C117.084 265.71 118.369 266.981 118.383 268.563C118.383 270.144 117.112 271.429 115.545 271.443ZM115.502 266.868C114.556 266.882 113.794 267.645 113.794 268.591C113.808 269.537 114.57 270.299 115.516 270.299C116.462 270.285 117.225 269.523 117.225 268.577C117.225 267.631 116.448 266.868 115.502 266.868Z" fill="white"/>
            <path opacity="0.61" d="M124.82 271.373C123.239 271.387 121.954 270.116 121.94 268.535C121.925 266.953 123.196 265.668 124.778 265.654C126.359 265.64 127.644 266.911 127.658 268.492C127.672 270.074 126.401 271.359 124.82 271.373ZM124.792 266.798C123.846 266.812 123.083 267.574 123.083 268.521C123.083 269.467 123.86 270.229 124.806 270.229C125.752 270.215 126.514 269.452 126.514 268.506C126.514 267.56 125.738 266.798 124.792 266.798Z" fill="white"/>
            <path opacity="0.61" d="M172.646 297.721L108.47 298.201C107.835 298.201 107.327 297.693 107.312 297.072C107.312 296.436 107.821 295.928 108.442 295.914L172.618 295.434C173.253 295.434 173.761 295.942 173.775 296.563C173.789 297.199 173.281 297.707 172.646 297.721Z" fill="white"/>
            <path opacity="0.61" d="M194.037 297.551L180.722 297.65C180.087 297.65 179.579 297.142 179.564 296.52C179.564 295.885 180.073 295.377 180.694 295.363L194.009 295.264C194.645 295.264 195.153 295.772 195.167 296.393C195.181 297.029 194.673 297.551 194.037 297.551Z" fill="#3E479B"/>
            <path opacity="0.61" d="M173.056 350.995L108.88 351.475C108.245 351.475 107.737 350.967 107.723 350.345C107.723 349.71 108.231 349.202 108.852 349.188L173.028 348.708C173.663 348.708 174.171 349.216 174.186 349.837C174.2 350.472 173.691 350.981 173.056 350.995Z" fill="white"/>
            <path opacity="0.61" d="M194.448 350.826L181.132 350.925C180.497 350.925 179.989 350.416 179.975 349.795C179.975 349.16 180.483 348.651 181.104 348.637L194.419 348.538C195.055 348.538 195.563 349.047 195.577 349.668C195.591 350.303 195.083 350.826 194.448 350.826Z" fill="#599AF2"/>
            <path opacity="0.61" d="M172.843 323.137L108.668 323.617C108.032 323.617 107.524 323.108 107.51 322.487C107.51 321.852 108.018 321.343 108.639 321.329L172.815 320.849C173.45 320.849 173.958 321.357 173.973 321.979C173.987 322.628 173.478 323.137 172.843 323.137Z" fill="#599AF2"/>
            <path opacity="0.61" d="M194.233 322.981L180.918 323.08C180.282 323.08 179.774 322.572 179.76 321.951C179.76 321.315 180.268 320.807 180.889 320.793L194.205 320.694C194.84 320.694 195.348 321.202 195.362 321.823C195.377 322.459 194.868 322.981 194.233 322.981Z" fill="white"/>
            <path opacity="0.61" d="M216.162 322.812L202.847 322.911C202.212 322.911 201.704 322.403 201.689 321.782C201.689 321.146 202.198 320.638 202.819 320.624L216.134 320.525C216.77 320.525 217.278 321.033 217.292 321.654C217.306 322.29 216.798 322.812 216.162 322.812Z" fill="#3E479B"/>
            <path opacity="0.61" d="M151.352 310.386L108.568 310.711C107.933 310.711 107.424 310.203 107.41 309.581C107.41 308.946 107.918 308.438 108.54 308.424L151.323 308.099C151.959 308.099 152.467 308.607 152.481 309.228C152.495 309.864 151.987 310.386 151.352 310.386Z" fill="#3E479B"/>
            <path d="M177.996 310.188L159.23 310.33C158.595 310.33 158.086 309.821 158.072 309.2C158.072 308.565 158.581 308.056 159.202 308.042L177.967 307.901C178.603 307.901 179.111 308.409 179.125 309.031C179.125 309.666 178.631 310.188 177.996 310.188Z" fill="#2B555D"/>
            <path opacity="0.61" d="M178.193 336.988L135.41 337.313C134.774 337.313 134.266 336.805 134.252 336.183C134.252 335.548 134.76 335.04 135.382 335.025L178.165 334.701C178.8 334.701 179.309 335.209 179.323 335.83C179.337 336.466 178.829 336.974 178.193 336.988Z" fill="#3E479B"/>
            <path d="M127.546 337.37L108.781 337.511C108.145 337.511 107.637 337.003 107.623 336.381C107.623 335.746 108.131 335.238 108.753 335.223L127.518 335.082C128.153 335.082 128.662 335.591 128.676 336.212C128.69 336.847 128.182 337.356 127.546 337.37Z" fill="#2B555D"/>
            <path d="M173.195 368.956L109.019 369.436C108.384 369.436 107.875 368.927 107.861 368.306C107.861 367.671 108.37 367.162 108.991 367.148L173.166 366.668C173.802 366.668 174.31 367.177 174.324 367.798C174.324 368.433 173.816 368.941 173.195 368.956Z" fill="#2B555D"/>
            <path opacity="0.61" d="M194.588 368.786L181.273 368.885C180.638 368.885 180.129 368.377 180.115 367.756C180.115 367.12 180.624 366.612 181.245 366.598L194.56 366.499C195.195 366.499 195.704 367.007 195.718 367.629C195.718 368.264 195.21 368.786 194.588 368.786Z" fill="#3E479B"/>
            <path opacity="0.61" d="M173.591 422.23L109.416 422.71C108.78 422.71 108.272 422.202 108.258 421.581C108.258 420.945 108.766 420.437 109.387 420.423L173.563 419.943C174.198 419.943 174.707 420.451 174.721 421.072C174.735 421.708 174.226 422.216 173.591 422.23Z" fill="white"/>
            <path opacity="0.61" d="M194.983 422.061L181.668 422.16C181.032 422.16 180.524 421.652 180.51 421.031C180.51 420.395 181.018 419.887 181.639 419.873L194.955 419.774C195.59 419.774 196.098 420.282 196.112 420.903C196.126 421.553 195.618 422.061 194.983 422.061Z" fill="#599AF2"/>
            <path opacity="0.61" d="M173.38 394.386L109.205 394.866C108.569 394.866 108.061 394.358 108.047 393.736C108.047 393.101 108.555 392.593 109.176 392.578L173.352 392.098C173.987 392.098 174.496 392.607 174.51 393.228C174.524 393.863 174.016 394.372 173.38 394.386Z" fill="#599AF2"/>
            <path opacity="0.61" d="M194.77 394.217L181.455 394.315C180.819 394.315 180.311 393.807 180.297 393.186C180.297 392.55 180.805 392.042 181.426 392.028L194.742 391.929C195.377 391.929 195.885 392.438 195.9 393.059C195.914 393.694 195.405 394.217 194.77 394.217Z" fill="white"/>
            <path opacity="0.61" d="M216.7 394.047L203.385 394.146C202.749 394.146 202.241 393.637 202.227 393.016C202.213 392.395 202.735 391.872 203.356 391.858L216.672 391.76C217.307 391.76 217.815 392.268 217.829 392.889C217.844 393.539 217.335 394.047 216.7 394.047Z" fill="#3E479B"/>
            <path opacity="0.61" d="M151.889 381.622L109.105 381.946C108.47 381.946 107.961 381.438 107.947 380.817C107.947 380.181 108.456 379.673 109.077 379.659L151.86 379.334C152.496 379.334 153.004 379.843 153.018 380.464C153.032 381.099 152.524 381.622 151.889 381.622Z" fill="#3E479B"/>
            <path d="M178.533 381.424L159.767 381.565C159.132 381.565 158.623 381.057 158.609 380.436C158.609 379.8 159.118 379.292 159.739 379.278L178.504 379.137C179.14 379.137 179.648 379.645 179.662 380.266C179.676 380.902 179.168 381.424 178.533 381.424Z" fill="#2B555D"/>
            <path opacity="0.61" d="M178.73 408.223L135.947 408.548C135.312 408.548 134.803 408.04 134.789 407.419C134.789 406.783 135.297 406.275 135.919 406.261L178.702 405.936C179.338 405.936 179.846 406.444 179.86 407.066C179.874 407.701 179.366 408.209 178.73 408.223Z" fill="#3E479B"/>
            <path d="M128.082 408.605L109.316 408.746C108.681 408.746 108.172 408.238 108.158 407.617C108.158 406.981 108.667 406.473 109.288 406.459L128.053 406.318C128.689 406.318 129.197 406.826 129.211 407.447C129.225 408.083 128.717 408.591 128.082 408.605Z" fill="#2B555D"/>
            <path d="M173.718 438.709L109.543 439.189C108.907 439.189 108.399 438.681 108.385 438.059C108.385 437.424 108.893 436.916 109.514 436.902L173.69 436.421C174.325 436.421 174.833 436.93 174.848 437.551C174.862 438.186 174.353 438.695 173.718 438.709Z" fill="#2B555D"/>
            <path opacity="0.61" d="M195.112 438.539L181.797 438.638C181.161 438.638 180.653 438.129 180.639 437.508C180.639 436.873 181.147 436.364 181.768 436.35L195.083 436.251C195.719 436.251 196.227 436.76 196.241 437.381C196.255 438.016 195.747 438.539 195.112 438.539Z" fill="#3E479B"/>
            <path opacity="0.61" d="M195.364 472.174L182.048 472.272C181.413 472.272 180.905 471.764 180.891 471.143C180.891 470.508 181.399 469.999 182.02 469.985L195.335 469.886C195.971 469.886 196.479 470.395 196.493 471.016C196.507 471.665 195.999 472.174 195.364 472.174Z" fill="white"/>
            <path opacity="0.61" d="M217.291 472.018L203.976 472.116C203.341 472.116 202.832 471.608 202.818 470.987C202.818 470.351 203.327 469.843 203.948 469.829L217.263 469.73C217.899 469.73 218.407 470.239 218.421 470.86C218.435 471.495 217.927 472.004 217.291 472.018Z" fill="#3E479B"/>
            <path opacity="0.61" d="M152.426 451.374L109.642 451.699C109.007 451.699 108.498 451.191 108.484 450.569C108.484 449.934 108.993 449.426 109.614 449.411L152.398 449.087C153.033 449.087 153.541 449.595 153.555 450.216C153.57 450.852 153.061 451.374 152.426 451.374Z" fill="#3E479B"/>
            <path d="M179.056 451.177L160.291 451.318C159.655 451.318 159.147 450.81 159.133 450.188C159.133 449.553 159.641 449.045 160.262 449.031L179.028 448.889C179.663 448.889 180.172 449.398 180.186 450.019C180.2 450.654 179.692 451.163 179.056 451.177Z" fill="#2B555D"/>
        </g>
        <path d="M216.572 153.88L216.586 182.304V188.912L216.615 267.814L216.685 422.217L216.713 501.119V507.727L216.728 526.93C216.728 535.6 222.206 542.971 229.873 545.851C232.09 546.684 234.462 547.15 236.962 547.15H251.378L410.129 547.08C414.379 547.08 418.305 545.767 421.552 543.536C426.861 539.893 430.349 533.779 430.349 526.846L430.18 153.796C430.18 147.583 427.37 142.019 422.95 138.32C419.434 135.369 414.902 133.576 409.946 133.576L236.792 133.632C225.623 133.646 216.558 142.697 216.572 153.88Z" fill="#22252A"/>
        <path d="M218.055 160.94L218.069 188.446V194.828L218.097 271.175L218.168 420.564L218.196 496.911V503.294L218.21 521.875C218.21 530.263 223.604 537.393 231.172 540.175C233.347 540.98 235.705 541.432 238.162 541.432H252.38L408.929 541.361C413.108 541.361 416.991 540.09 420.197 537.93C425.435 534.4 428.866 528.484 428.866 521.791L428.711 160.869C428.711 154.854 425.929 149.475 421.58 145.888C418.107 143.036 413.645 141.299 408.759 141.299L237.992 141.37C226.979 141.37 218.041 150.138 218.055 160.94Z" fill="#333E4A"/>
        <path d="M419.038 190.41L419.165 490.22C419.165 492.903 416.991 495.063 414.322 495.077L232.725 495.162C230.042 495.162 227.881 492.988 227.867 490.319L227.74 190.509C227.74 187.826 229.915 185.652 232.583 185.652L414.181 185.567C416.864 185.553 419.038 187.727 419.038 190.41Z" fill="white"/>
        <path d="M419.038 190.282L419.052 209.725L227.754 209.81L227.74 190.141C227.74 187.571 229.816 185.495 232.386 185.495L414.152 185.41C416.849 185.396 419.038 187.585 419.038 190.282Z" fill="#488D9A"/>
        <path d="M395.429 194.843C395.033 194.843 394.723 194.532 394.723 194.137C394.723 193.741 395.033 193.431 395.429 193.431H409.775C410.17 193.431 410.481 193.741 410.481 194.137C410.481 194.532 410.17 194.843 409.775 194.843H395.429Z" fill="white"/>
        <path d="M395.429 198.514C395.033 198.514 394.723 198.203 394.723 197.808C394.723 197.412 395.033 197.102 395.429 197.102H409.775C410.17 197.102 410.481 197.412 410.481 197.808C410.481 198.203 410.17 198.514 409.775 198.514H395.429Z" fill="white"/>
        <path d="M395.429 202.185C395.033 202.185 394.723 201.875 394.723 201.479C394.723 201.084 395.033 200.773 395.429 200.773H409.775C410.17 200.773 410.481 201.084 410.481 201.479C410.481 201.875 410.17 202.185 409.775 202.185H395.429Z" fill="white"/>
        <path d="M244.854 204.515C244.67 204.515 244.487 204.444 244.36 204.303L239.149 199.093C238.698 198.641 238.698 197.906 239.149 197.469L244.162 192.456C244.444 192.174 244.882 192.174 245.165 192.456C245.447 192.724 245.447 193.176 245.165 193.459L240.336 198.288L245.362 203.314C245.645 203.583 245.645 204.035 245.362 204.317C245.221 204.444 245.037 204.515 244.854 204.515Z" fill="white"/>
        <path d="M323.559 167.619C320.707 167.619 318.377 165.303 318.377 162.437C318.377 159.584 320.693 157.255 323.559 157.255C326.411 157.255 328.741 159.57 328.741 162.437C328.741 165.289 326.425 167.619 323.559 167.619ZM323.559 159.457C321.907 159.457 320.58 160.799 320.58 162.451C320.58 164.089 321.921 165.43 323.559 165.43C324.35 165.43 325.098 165.119 325.663 164.555C326.228 163.99 326.538 163.242 326.538 162.437C326.538 161.646 326.228 160.898 325.663 160.333C325.112 159.768 324.364 159.457 323.559 159.457Z" fill="white"/>
        <path d="M318.631 532.353C316.795 532.353 315.312 530.856 315.312 529.035V519.221C315.312 517.386 316.795 515.903 318.631 515.903H328.444C330.28 515.903 331.762 517.4 331.762 519.221V529.035C331.762 530.87 330.28 532.353 328.444 532.353H318.631ZM328.444 517.301H318.631C317.572 517.301 316.724 518.162 316.724 519.207V529.02C316.724 530.079 317.586 530.927 318.631 530.927H328.444C329.503 530.927 330.35 530.065 330.35 529.02V519.207C330.35 518.162 329.503 517.301 328.444 517.301Z" fill="white"/>
        <path d="M259.511 518.911C259.115 518.911 258.805 518.6 258.805 518.205C258.805 517.809 259.115 517.499 259.511 517.499H268.957C269.352 517.499 269.663 517.809 269.663 518.205C269.663 518.6 269.352 518.911 268.957 518.911H259.511Z" fill="white"/>
        <path d="M259.524 524.008C259.129 524.008 258.818 523.697 258.818 523.302C258.818 522.906 259.129 522.596 259.524 522.596H268.971C269.366 522.596 269.677 522.906 269.677 523.302C269.677 523.697 269.366 524.008 268.971 524.008H259.524Z" fill="white"/>
        <path d="M259.524 529.176C259.129 529.176 258.818 528.865 258.818 528.47C258.818 528.075 259.129 527.764 259.524 527.764H268.971C269.366 527.764 269.677 528.075 269.677 528.47C269.677 528.865 269.366 529.176 268.971 529.176H259.524Z" fill="white"/>
        <path d="M389.964 532.324C389.781 532.324 389.597 532.254 389.47 532.112L382.043 524.685L389.272 517.442C389.555 517.159 389.992 517.159 390.275 517.442C390.557 517.724 390.557 518.162 390.275 518.444L384.034 524.685L390.458 531.11C390.741 531.392 390.741 531.83 390.458 532.112C390.331 532.254 390.148 532.324 389.964 532.324Z" fill="white"/>
        <path opacity="0.36" d="M419.066 210.063H228.064V272.615H419.066V210.063Z" fill="#599AF2"/>
        <path opacity="0.43" d="M314.265 238.205L245.684 238.233C244.583 238.233 243.693 237.344 243.693 236.242V224.72C243.693 223.619 244.583 222.729 245.684 222.729L314.265 222.701C315.366 222.701 316.256 223.591 316.256 224.692V236.214C316.256 237.301 315.366 238.205 314.265 238.205Z" fill="white"/>
        <path opacity="0.43" d="M351.953 254.612L245.7 254.655C244.599 254.655 243.709 253.765 243.709 252.664V248.894C243.709 247.792 244.599 246.903 245.7 246.903L351.953 246.86C353.054 246.86 353.944 247.75 353.944 248.851V252.621C353.944 253.723 353.054 254.612 351.953 254.612Z" fill="white"/>
        <path opacity="0.43" d="M395.542 253.341C391.631 253.341 387.945 251.816 385.178 249.049C382.41 246.281 380.885 242.596 380.871 238.685C380.871 234.774 382.396 231.088 385.164 228.307C387.931 225.539 391.616 224.014 395.528 224C399.439 224 403.124 225.525 405.892 228.292C408.659 231.06 410.184 234.745 410.198 238.657C410.198 242.568 408.673 246.253 405.906 249.035C403.153 251.816 399.467 253.341 395.542 253.341ZM395.542 226.824C392.365 226.824 389.4 228.052 387.169 230.298C384.938 232.543 383.695 235.508 383.709 238.671C383.709 241.834 384.938 244.813 387.183 247.044C389.428 249.275 392.393 250.503 395.556 250.503C398.719 250.503 401.698 249.275 403.929 247.03C406.16 244.785 407.403 241.819 407.389 238.657C407.389 235.494 406.16 232.514 403.915 230.283C401.67 228.052 398.705 226.824 395.542 226.824Z" fill="white"/>
        <path d="M283.007 339.77L251.406 339.784C247.848 339.784 244.967 336.904 244.967 333.36L244.953 301.759C244.953 298.201 247.834 295.321 251.378 295.321L282.978 295.306C286.537 295.306 289.417 298.187 289.417 301.731L289.431 333.332C289.445 336.89 286.565 339.77 283.007 339.77Z" fill="#488D9A"/>
        <g opacity="0.36">
            <path opacity="0.36" d="M276.795 317.757C276.795 323.052 272.502 327.359 267.207 327.359C261.912 327.359 257.605 323.066 257.605 317.772C257.605 312.477 261.898 308.17 267.193 308.17C272.502 308.17 276.795 312.462 276.795 317.757Z" fill="white"/>
        </g>
        <g opacity="0.26">
            <path opacity="0.26" d="M323.784 310.189L298.778 310.203C297.888 310.203 297.168 309.483 297.168 308.594V303.835C297.168 302.946 297.888 302.226 298.778 302.226L323.784 302.211C324.674 302.211 325.394 302.932 325.394 303.821V308.58C325.394 309.469 324.674 310.189 323.784 310.189Z" fill="#3E479B"/>
            <path opacity="0.26" d="M297.183 322.459C296.407 322.459 295.771 321.824 295.771 321.047C295.771 320.271 296.407 319.635 297.183 319.635L345.333 319.607C346.109 319.607 346.745 320.242 346.745 321.019C346.745 321.795 346.109 322.431 345.333 322.431L297.183 322.459Z" fill="#3E479B"/>
            <path opacity="0.26" d="M297.183 332.541C296.407 332.541 295.771 331.906 295.771 331.129C295.771 330.353 296.407 329.717 297.183 329.717L375.705 329.689C376.481 329.689 377.117 330.324 377.117 331.101C377.117 331.878 376.481 332.513 375.705 332.513L297.183 332.541Z" fill="#3E479B"/>
            <path opacity="0.26" d="M356.062 322.431C355.286 322.431 354.65 321.796 354.65 321.019C354.65 320.243 355.286 319.607 356.062 319.607L404.212 319.593C404.988 319.593 405.624 320.229 405.624 321.005C405.624 321.782 404.988 322.417 404.212 322.417L356.062 322.431Z" fill="#3E479B"/>
        </g>
        <path d="M283.063 469.109L251.463 469.123C247.904 469.123 245.024 466.243 245.024 462.699L245.01 431.098C245.01 427.54 247.89 424.659 251.434 424.659L283.035 424.645C286.593 424.645 289.474 427.526 289.474 431.07L289.488 462.67C289.502 466.229 286.621 469.109 283.063 469.109Z" fill="#488D9A"/>
        <g opacity="0.57">
            <path opacity="0.57" d="M276.849 447.11C276.849 452.405 272.557 456.712 267.262 456.712C261.967 456.712 257.66 452.419 257.66 447.124C257.66 441.829 261.953 437.522 267.248 437.522C272.557 437.508 276.849 441.801 276.849 447.11Z" fill="white"/>
        </g>
        <g opacity="0.26">
            <path opacity="0.26" d="M323.841 439.542L298.834 439.556C297.945 439.556 297.225 438.836 297.225 437.946V433.188C297.225 432.298 297.945 431.578 298.834 431.578L323.841 431.564C324.73 431.564 325.451 432.284 325.451 433.174V437.932C325.451 438.822 324.73 439.542 323.841 439.542Z" fill="#3E479B"/>
            <path opacity="0.26" d="M297.24 451.812C296.464 451.812 295.828 451.177 295.828 450.4C295.828 449.624 296.464 448.988 297.24 448.988L345.389 448.974C346.166 448.974 346.801 449.61 346.801 450.386C346.801 451.163 346.166 451.798 345.389 451.798L297.24 451.812Z" fill="#3E479B"/>
            <path opacity="0.26" d="M297.24 461.894C296.464 461.894 295.828 461.259 295.828 460.482C295.828 459.705 296.464 459.07 297.24 459.07L375.761 459.042C376.538 459.042 377.173 459.677 377.173 460.454C377.173 461.23 376.538 461.866 375.761 461.866L297.24 461.894Z" fill="#3E479B"/>
            <path opacity="0.26" d="M356.121 451.784C355.344 451.784 354.709 451.148 354.709 450.372C354.709 449.595 355.344 448.96 356.121 448.96L404.27 448.946C405.047 448.946 405.682 449.581 405.682 450.358C405.682 451.134 405.047 451.77 404.27 451.77L356.121 451.784Z" fill="#3E479B"/>
        </g>
        <path d="M283.036 404.299L251.435 404.313C247.877 404.313 244.997 401.432 244.997 397.888L244.982 366.288C244.982 362.729 247.863 359.849 251.407 359.849L283.008 359.835C286.566 359.835 289.446 362.715 289.446 366.259L289.46 397.86C289.475 401.404 286.594 404.285 283.036 404.299Z" fill="#488D9A"/>
        <path opacity="0.43" d="M267.236 391.887C272.539 391.887 276.838 387.588 276.838 382.285C276.838 376.983 272.539 372.684 267.236 372.684C261.934 372.684 257.635 376.983 257.635 382.285C257.635 387.588 261.934 391.887 267.236 391.887Z" fill="white"/>
        <g opacity="0.26">
            <path opacity="0.26" d="M323.813 374.717L298.807 374.731C297.917 374.731 297.197 374.011 297.197 373.121V368.363C297.197 367.473 297.917 366.753 298.807 366.753L323.813 366.739C324.703 366.739 325.423 367.459 325.423 368.349V373.107C325.423 373.997 324.703 374.717 323.813 374.717Z" fill="#3E479B"/>
            <path opacity="0.26" d="M297.213 386.987C296.436 386.987 295.801 386.352 295.801 385.575C295.801 384.799 296.436 384.163 297.213 384.163L319.48 384.149C320.257 384.149 320.892 384.785 320.892 385.561C320.892 386.338 320.257 386.973 319.48 386.973L297.213 386.987Z" fill="#3E479B"/>
            <path opacity="0.26" d="M297.213 397.069C296.436 397.069 295.801 396.434 295.801 395.657C295.801 394.881 296.436 394.245 297.213 394.245L342.919 394.231C343.696 394.231 344.331 394.867 344.331 395.643C344.331 396.42 343.696 397.055 342.919 397.055L297.213 397.069Z" fill="#3E479B"/>
            <path opacity="0.26" d="M328.799 386.973C328.022 386.973 327.387 386.337 327.387 385.561C327.387 384.784 328.022 384.149 328.799 384.149L373.277 384.135C374.053 384.135 374.689 384.77 374.689 385.547C374.689 386.323 374.053 386.959 373.277 386.959L328.799 386.973Z" fill="#3E479B"/>
            <path opacity="0.26" d="M381.551 386.945C380.774 386.945 380.139 386.309 380.139 385.533C380.139 384.756 380.774 384.121 381.551 384.121L403.818 384.106C404.595 384.106 405.23 384.742 405.23 385.518C405.23 386.295 404.595 386.931 403.818 386.931L381.551 386.945Z" fill="#3E479B"/>
        </g>
        <path opacity="0.39" d="M564.108 404.976L565.958 557.091C565.986 559.774 563.84 561.962 561.171 562.005L470.859 563.106C468.177 563.134 465.988 560.988 465.946 558.319L464.096 406.204C464.068 403.522 466.214 401.333 468.883 401.291L559.194 400.189C561.877 400.147 564.08 402.293 564.108 404.976Z" fill="white"/>
        <path opacity="0.5" d="M564.108 404.976L565.958 557.091C565.986 559.774 563.84 561.962 561.171 562.005L470.859 563.106C468.177 563.134 465.988 560.988 465.946 558.319L464.096 406.204C464.068 403.522 466.214 401.333 468.883 401.291L559.194 400.189C561.877 400.147 564.08 402.293 564.108 404.976Z" fill="#2B555D"/>
        <path d="M564.449 404.919L564.548 412.756L464.55 413.97L464.451 405.894C464.423 403.324 466.471 401.234 469.04 401.192L559.521 400.09C562.204 400.062 564.421 402.222 564.449 404.919Z" fill="#488D9A"/>
        <path d="M471.312 409.381C470.183 409.395 469.251 408.477 469.236 407.333C469.222 406.204 470.14 405.272 471.284 405.258C472.413 405.244 473.345 406.161 473.359 407.305C473.374 408.449 472.456 409.381 471.312 409.381ZM471.298 406.091C470.62 406.091 470.07 406.656 470.07 407.333C470.07 408.011 470.634 408.562 471.312 408.562C471.99 408.562 472.541 407.997 472.541 407.319C472.526 406.641 471.976 406.091 471.298 406.091Z" fill="white"/>
        <path d="M478.189 409.339C477.059 409.353 476.128 408.435 476.113 407.291C476.099 406.147 477.017 405.23 478.161 405.215C479.29 405.201 480.222 406.119 480.236 407.263C480.251 408.393 479.333 409.324 478.189 409.339ZM478.175 406.034C477.497 406.034 476.947 406.599 476.947 407.277C476.947 407.955 477.511 408.505 478.189 408.505C478.867 408.505 479.417 407.941 479.417 407.263C479.403 406.585 478.853 406.034 478.175 406.034Z" fill="white"/>
        <path d="M484.881 409.282C483.751 409.296 482.819 408.378 482.805 407.235C482.791 406.105 483.709 405.173 484.852 405.159C485.982 405.145 486.914 406.063 486.928 407.206C486.928 408.35 486.01 409.282 484.881 409.282ZM484.852 405.992C484.175 405.992 483.624 406.557 483.624 407.235C483.624 407.912 484.189 408.463 484.866 408.463C485.544 408.463 486.095 407.898 486.095 407.221C486.095 406.529 485.544 405.978 484.852 405.992Z" fill="white"/>
        <path d="M519.319 428.26L473.105 428.613C472.653 428.613 472.271 428.245 472.271 427.794C472.271 427.342 472.639 426.96 473.09 426.96L519.305 426.607C519.757 426.607 520.138 426.975 520.138 427.426C520.138 427.878 519.785 428.245 519.319 428.26Z" fill="white"/>
        <path d="M534.723 428.133L525.136 428.203C524.684 428.203 524.303 427.836 524.303 427.384C524.303 426.932 524.67 426.551 525.122 426.551L534.709 426.48C535.161 426.48 535.542 426.848 535.542 427.299C535.542 427.765 535.189 428.133 534.723 428.133Z" fill="white"/>
        <path d="M519.616 466.624L473.401 466.977C472.95 466.977 472.568 466.61 472.568 466.158C472.568 465.706 472.936 465.325 473.387 465.325L519.602 464.972C520.054 464.972 520.435 465.339 520.435 465.791C520.435 466.243 520.068 466.624 519.616 466.624Z" fill="white"/>
        <path d="M535.02 466.511L525.433 466.581C524.981 466.581 524.6 466.214 524.6 465.762C524.6 465.31 524.967 464.929 525.419 464.929L535.006 464.859C535.458 464.859 535.839 465.226 535.839 465.678C535.839 466.129 535.472 466.497 535.02 466.511Z" fill="white"/>
        <path d="M519.46 446.559L473.245 446.912C472.793 446.912 472.412 446.545 472.412 446.093C472.412 445.641 472.779 445.26 473.231 445.26L519.446 444.907C519.897 444.907 520.279 445.274 520.279 445.726C520.279 446.192 519.912 446.559 519.46 446.559Z" fill="white"/>
        <path d="M534.866 446.446L525.278 446.517C524.827 446.517 524.445 446.15 524.445 445.698C524.445 445.246 524.812 444.865 525.264 444.865L534.852 444.794C535.304 444.794 535.685 445.162 535.685 445.613C535.685 446.079 535.318 446.446 534.866 446.446Z" fill="white"/>
        <path d="M550.667 446.333L541.079 446.404C540.627 446.404 540.246 446.037 540.246 445.585C540.246 445.133 540.613 444.752 541.065 444.752L550.652 444.681C551.104 444.681 551.486 445.049 551.486 445.5C551.486 445.952 551.118 446.319 550.667 446.333Z" fill="white"/>
        <path d="M503.987 437.381L473.177 437.621C472.725 437.621 472.344 437.254 472.344 436.802C472.344 436.35 472.711 435.969 473.163 435.969L503.973 435.729C504.424 435.729 504.806 436.096 504.806 436.548C504.806 437 504.438 437.381 503.987 437.381Z" fill="white"/>
        <path d="M523.174 437.24L509.661 437.339C509.209 437.339 508.828 436.972 508.828 436.52C508.828 436.068 509.195 435.687 509.647 435.687L523.16 435.588C523.612 435.588 523.993 435.955 523.993 436.407C523.993 436.859 523.626 437.226 523.174 437.24Z" fill="white"/>
        <path d="M523.315 456.528L492.505 456.768C492.053 456.768 491.672 456.401 491.672 455.949C491.672 455.497 492.039 455.116 492.491 455.116L523.301 454.876C523.753 454.876 524.134 455.243 524.134 455.695C524.134 456.161 523.767 456.528 523.315 456.528Z" fill="white"/>
        <path d="M486.844 456.81L473.331 456.909C472.879 456.909 472.498 456.542 472.498 456.09C472.498 455.638 472.865 455.257 473.317 455.257L486.83 455.158C487.282 455.158 487.663 455.525 487.663 455.977C487.663 456.429 487.296 456.81 486.844 456.81Z" fill="white"/>
        <path d="M519.714 479.558L473.499 479.911C473.047 479.911 472.666 479.543 472.666 479.092C472.666 478.64 473.033 478.259 473.485 478.259L519.7 477.906C520.152 477.906 520.533 478.273 520.533 478.724C520.533 479.176 520.166 479.558 519.714 479.558Z" fill="white"/>
        <path d="M535.12 479.445L525.532 479.515C525.08 479.515 524.699 479.148 524.699 478.696C524.699 478.244 525.066 477.863 525.518 477.863L535.106 477.792C535.557 477.792 535.939 478.16 535.939 478.611C535.939 479.063 535.572 479.43 535.12 479.445Z" fill="white"/>
        <path d="M519.997 517.922L473.782 518.275C473.33 518.275 472.949 517.907 472.949 517.456C472.949 517.004 473.316 516.623 473.768 516.623L519.983 516.27C520.435 516.27 520.816 516.637 520.816 517.088C520.83 517.54 520.463 517.922 519.997 517.922Z" fill="white"/>
        <path d="M535.403 517.809L525.816 517.88C525.364 517.88 524.982 517.513 524.982 517.061C524.982 516.609 525.35 516.228 525.801 516.228L535.389 516.157C535.841 516.157 536.222 516.524 536.222 516.976C536.236 517.428 535.869 517.795 535.403 517.809Z" fill="white"/>
        <path d="M519.856 497.871L473.642 498.224C473.19 498.224 472.809 497.857 472.809 497.405C472.809 496.954 473.176 496.572 473.628 496.572L519.842 496.219C520.294 496.219 520.675 496.586 520.675 497.038C520.675 497.49 520.308 497.857 519.856 497.871Z" fill="white"/>
        <path d="M535.26 497.744L525.673 497.814C525.221 497.814 524.84 497.447 524.84 496.996C524.84 496.544 525.207 496.162 525.659 496.162L535.246 496.092C535.698 496.092 536.079 496.459 536.079 496.911C536.079 497.377 535.712 497.744 535.26 497.744Z" fill="white"/>
        <path d="M551.048 497.631L541.46 497.702C541.008 497.702 540.627 497.335 540.627 496.883C540.627 496.431 540.994 496.05 541.446 496.05L551.033 495.979C551.485 495.979 551.866 496.346 551.866 496.798C551.866 497.25 551.499 497.631 551.048 497.631Z" fill="white"/>
        <path d="M504.379 488.68L473.569 488.92C473.118 488.92 472.736 488.553 472.736 488.101C472.736 487.649 473.103 487.268 473.555 487.268L504.365 487.028C504.817 487.028 505.198 487.395 505.198 487.847C505.198 488.312 504.831 488.68 504.379 488.68Z" fill="white"/>
        <path d="M523.555 488.538L510.042 488.637C509.59 488.637 509.209 488.27 509.209 487.818C509.209 487.366 509.576 486.985 510.028 486.985L523.541 486.886C523.993 486.886 524.374 487.253 524.374 487.705C524.374 488.157 524.007 488.538 523.555 488.538Z" fill="white"/>
        <path d="M523.709 507.826L492.899 508.066C492.448 508.066 492.066 507.699 492.066 507.247C492.066 506.795 492.434 506.414 492.885 506.414L523.695 506.174C524.147 506.174 524.528 506.541 524.528 506.993C524.528 507.459 524.161 507.826 523.709 507.826Z" fill="white"/>
        <path d="M487.225 508.109L473.712 508.208C473.26 508.208 472.879 507.84 472.879 507.389C472.879 506.937 473.246 506.555 473.698 506.555L487.211 506.457C487.662 506.457 488.044 506.824 488.044 507.276C488.044 507.727 487.677 508.109 487.225 508.109Z" fill="white"/>
        <path d="M520.097 529.782L473.882 530.135C473.43 530.135 473.049 529.768 473.049 529.316C473.049 528.865 473.416 528.483 473.868 528.483L520.082 528.13C520.534 528.13 520.916 528.497 520.916 528.949C520.916 529.415 520.548 529.782 520.097 529.782Z" fill="white"/>
        <path d="M535.501 529.67L525.913 529.74C525.461 529.74 525.08 529.373 525.08 528.921C525.08 528.47 525.447 528.088 525.899 528.088L535.487 528.018C535.938 528.018 536.32 528.385 536.32 528.837C536.32 529.289 535.952 529.67 535.501 529.67Z" fill="white"/>
        <path d="M535.684 553.9L526.097 553.97C525.645 553.97 525.264 553.603 525.264 553.151C525.264 552.699 525.631 552.318 526.083 552.318L535.67 552.248C536.122 552.248 536.503 552.615 536.503 553.066C536.503 553.518 536.136 553.885 535.684 553.9Z" fill="white"/>
        <path d="M551.471 553.772L541.884 553.843C541.432 553.843 541.051 553.476 541.051 553.024C541.051 552.572 541.418 552.191 541.87 552.191L551.457 552.12C551.909 552.12 552.29 552.488 552.29 552.939C552.29 553.405 551.923 553.772 551.471 553.772Z" fill="white"/>
        <path d="M504.76 538.918L473.95 539.158C473.498 539.158 473.117 538.791 473.117 538.339C473.117 537.888 473.484 537.506 473.936 537.506L504.746 537.266C505.198 537.266 505.579 537.633 505.579 538.085C505.579 538.537 505.212 538.904 504.76 538.918Z" fill="white"/>
        <path d="M523.938 538.763L510.425 538.862C509.973 538.862 509.592 538.495 509.592 538.043C509.592 537.591 509.959 537.21 510.411 537.21L523.923 537.111C524.375 537.111 524.757 537.478 524.757 537.93C524.757 538.396 524.389 538.763 523.938 538.763Z" fill="white"/>
        <path opacity="0.22" d="M592.265 172.999L594.129 354.921C594.157 357.604 592.011 359.792 589.328 359.821L480.59 360.936C477.907 360.964 475.719 358.818 475.69 356.135L473.826 174.213C473.798 171.53 475.944 169.342 478.627 169.314L587.365 168.198C590.048 168.17 592.237 170.316 592.265 172.999Z" fill="#53ABB9"/>
        <path d="M585.782 164.569L587.646 346.491C587.675 349.174 585.528 351.363 582.846 351.391L474.107 352.507C471.425 352.535 469.236 350.389 469.208 347.706L467.344 165.784C467.316 163.101 469.462 160.912 472.145 160.884L580.883 159.769C583.566 159.74 585.754 161.901 585.782 164.569Z" fill="white"/>
        <path d="M586.179 164.498L586.278 174.679L467.84 175.893L467.727 165.473C467.699 162.903 469.76 160.813 472.316 160.785L581.223 159.669C583.948 159.641 586.151 161.815 586.179 164.498Z" fill="#488D9A"/>
        <path d="M571.565 165.882C571.184 165.882 570.859 165.571 570.859 165.176C570.859 164.781 571.17 164.47 571.565 164.47L580.447 164.385C580.786 164.329 581.153 164.696 581.153 165.091C581.153 165.487 580.842 165.797 580.447 165.797L571.565 165.882C571.579 165.882 571.565 165.882 571.565 165.882Z" fill="white"/>
        <path d="M571.593 168.155C571.211 168.155 570.887 167.844 570.887 167.449C570.887 167.054 571.197 166.743 571.593 166.743L580.474 166.658C580.799 166.672 581.18 166.969 581.18 167.364C581.18 167.76 580.87 168.07 580.474 168.07L571.593 168.155Z" fill="white"/>
        <path d="M571.622 170.429C571.241 170.429 570.916 170.118 570.916 169.723C570.916 169.327 571.227 169.017 571.622 169.017L580.503 168.932C580.885 168.932 581.209 169.243 581.209 169.638C581.209 170.033 580.899 170.344 580.503 170.344L571.622 170.429Z" fill="white"/>
        <path d="M478.402 172.787C478.219 172.787 478.049 172.716 477.908 172.589L474.647 169.398C474.265 169.017 474.251 168.395 474.632 168.014L477.711 164.88C477.993 164.597 478.431 164.597 478.713 164.865C478.995 165.134 478.995 165.586 478.727 165.868L475.96 168.692L478.911 171.587C479.193 171.855 479.193 172.307 478.925 172.589C478.769 172.716 478.586 172.787 478.402 172.787Z" fill="white"/>
        <path opacity="0.36" d="M582.592 351.715L473.487 352.337C470.86 352.351 468.714 350.233 468.7 347.592L468.488 309.779L587.125 309.115L587.336 346.929C587.35 349.555 585.218 351.701 582.592 351.715Z" fill="#599AF2"/>
        <path d="M551.019 201.704L503.364 201.972C502.488 201.972 501.782 201.281 501.782 200.405L501.754 195.181C501.754 194.305 502.446 193.599 503.321 193.599L550.976 193.331C551.852 193.331 552.558 194.023 552.558 194.898L552.586 200.123C552.6 200.984 551.894 201.69 551.019 201.704Z" fill="#488D9A"/>
        <path opacity="0.32" d="M566.226 235.804L488.552 236.242C484.866 236.256 481.859 233.291 481.831 229.591L481.816 227.954C481.802 224.268 484.768 221.261 488.467 221.232L566.141 220.795C569.826 220.781 572.834 223.746 572.862 227.445L572.876 229.083C572.89 232.783 569.911 235.79 566.226 235.804Z" fill="#599AF2"/>
        <path opacity="0.43" d="M494.299 228.773C494.313 231.328 492.252 233.404 489.71 233.418C487.154 233.432 485.079 231.371 485.065 228.829C485.05 226.273 487.112 224.198 489.654 224.184C492.195 224.155 494.285 226.217 494.299 228.773Z" fill="white"/>
        <path d="M491.334 227.46C491.334 228.377 490.6 229.126 489.682 229.126C488.764 229.126 488.016 228.392 488.016 227.474C488.016 226.556 488.75 225.808 489.668 225.808C490.585 225.808 491.334 226.542 491.334 227.46Z" fill="white"/>
        <path d="M492.166 231.766L487.238 231.794V231.187C487.224 229.761 488.382 228.589 489.822 228.575C491.121 228.561 492.166 229.606 492.18 230.905L492.166 231.766Z" fill="white"/>
        <path opacity="0.32" d="M566.353 260.246L488.679 260.683C484.993 260.697 481.986 257.732 481.958 254.033L481.943 252.395C481.929 248.71 484.894 245.702 488.594 245.674L566.268 245.236C569.953 245.222 572.961 248.187 572.989 251.887L573.003 253.525C573.018 257.224 570.052 260.232 566.353 260.246Z" fill="#599AF2"/>
        <path opacity="0.43" d="M494.426 253.214C494.44 255.77 492.379 257.845 489.837 257.859C487.281 257.873 485.206 255.812 485.191 253.27C485.177 250.715 487.239 248.639 489.78 248.625C492.336 248.611 494.412 250.658 494.426 253.214Z" fill="white"/>
        <path d="M491.375 256.136L488.269 256.15C488.015 256.15 487.817 255.952 487.803 255.698L487.789 252.945C487.789 252.691 487.987 252.493 488.241 252.479L491.347 252.465C491.601 252.465 491.799 252.662 491.813 252.916L491.827 255.67C491.841 255.924 491.63 256.136 491.375 256.136Z" fill="white"/>
        <path d="M488.199 252.818V251.674C488.199 251.378 488.312 251.095 488.524 250.869C488.736 250.658 489.018 250.531 489.315 250.531H490.359C490.628 250.531 490.882 250.629 491.08 250.827C491.277 251.025 491.376 251.279 491.376 251.547L491.39 252.804H491.037L491.023 251.547C491.023 251.364 490.952 251.208 490.825 251.081C490.698 250.954 490.529 250.884 490.359 250.884H489.315C489.103 250.884 488.905 250.968 488.764 251.109C488.623 251.251 488.538 251.448 488.538 251.66V252.804L488.199 252.818Z" fill="white"/>
        <path d="M545.921 287.554L512.414 287.737C508.362 287.766 505.058 284.49 505.029 280.437C505.001 276.385 508.277 273.081 512.329 273.053L545.836 272.869C549.889 272.841 553.193 276.117 553.221 280.169C553.249 284.222 549.973 287.526 545.921 287.554Z" fill="#2B555D"/>
        <path d="M495.457 325.382C494.68 325.382 494.045 324.76 494.045 323.984C494.045 323.207 494.666 322.572 495.443 322.558L560.282 322.19C560.282 322.19 560.282 322.19 560.296 322.19C561.073 322.19 561.708 322.812 561.708 323.588C561.708 324.365 561.087 325 560.31 325.014L495.457 325.382C495.471 325.382 495.471 325.382 495.457 325.382Z" fill="white"/>
        <path d="M508.66 335.125C507.883 335.125 507.248 334.503 507.248 333.727C507.248 332.95 507.869 332.315 508.646 332.301L547.194 332.089C547.194 332.089 547.194 332.089 547.208 332.089C547.984 332.089 548.62 332.71 548.62 333.487C548.62 334.263 547.998 334.899 547.222 334.913L508.66 335.125C508.674 335.125 508.66 335.125 508.66 335.125Z" fill="white"/>
        <path opacity="0.22" d="M509.449 296.506L511.312 478.428C511.341 481.111 509.194 483.299 506.512 483.328L397.773 484.443C395.091 484.471 392.902 482.325 392.874 479.642L391.01 297.72C390.982 295.037 393.128 292.849 395.811 292.821L504.549 291.705C507.232 291.677 509.42 293.823 509.449 296.506Z" fill="#3E479B"/>
        <path d="M502.982 288.077L504.846 469.999C504.874 472.682 502.728 474.871 500.045 474.899L391.307 476.014C388.624 476.043 386.435 473.896 386.407 471.214L384.543 289.292C384.515 286.609 386.661 284.42 389.344 284.392L498.082 283.276C500.751 283.248 502.953 285.409 502.982 288.077Z" fill="white"/>
        <path opacity="0.42" d="M502.982 288.077L504.846 469.999C504.874 472.682 502.728 474.871 500.045 474.899L391.307 476.014C388.624 476.043 386.435 473.896 386.407 471.214L384.543 289.292C384.515 286.609 386.661 284.42 389.344 284.392L498.082 283.276C500.751 283.248 502.953 285.409 502.982 288.077Z" fill="#599AF2"/>
        <path d="M503.377 288.006L503.476 298.186L385.037 299.4L384.924 288.98C384.896 286.41 386.957 284.32 389.513 284.292L498.421 283.177C501.132 283.148 503.349 285.323 503.377 288.006Z" fill="#488D9A"/>
        <path d="M488.763 289.389C488.381 289.389 488.057 289.079 488.057 288.683C488.057 288.288 488.367 287.977 488.763 287.977L497.644 287.893C497.969 287.893 498.35 288.203 498.35 288.599C498.35 288.994 498.039 289.305 497.644 289.305L488.763 289.389Z" fill="white"/>
        <path d="M488.776 291.662C488.395 291.662 488.07 291.352 488.07 290.956C488.07 290.561 488.381 290.25 488.776 290.25L497.658 290.166C498.039 290.166 498.364 290.476 498.364 290.872C498.364 291.267 498.053 291.578 497.658 291.578L488.776 291.662C488.79 291.662 488.776 291.662 488.776 291.662Z" fill="white"/>
        <path d="M488.806 293.936C488.424 293.936 488.1 293.625 488.1 293.23C488.1 292.835 488.41 292.524 488.806 292.524L497.687 292.439C498.068 292.439 498.393 292.75 498.393 293.145C498.393 293.541 498.082 293.851 497.687 293.851L488.806 293.936Z" fill="white"/>
        <path d="M395.6 296.294C395.416 296.294 395.247 296.224 395.106 296.096L391.844 292.905C391.463 292.524 391.449 291.903 391.83 291.522L394.908 288.387C395.19 288.105 395.628 288.105 395.91 288.373C396.193 288.641 396.193 289.093 395.924 289.375L393.157 292.199L396.108 295.094C396.39 295.362 396.39 295.814 396.122 296.096C395.953 296.224 395.769 296.294 395.6 296.294Z" fill="white"/>
        <g opacity="0.36">
            <path opacity="0.36" d="M499.78 475.223L390.674 475.844C388.048 475.858 385.902 473.74 385.888 471.1L385.676 433.286L504.312 432.623L504.524 470.436C504.538 473.062 502.42 475.208 499.78 475.223Z" fill="white"/>
            <path opacity="0.36" d="M390.645 476.55C389.191 476.55 387.835 475.985 386.804 474.968C385.759 473.938 385.195 472.568 385.181 471.114L384.969 432.594L505.017 431.917L505.229 470.436C505.243 473.458 502.8 475.914 499.792 475.943L390.687 476.564C390.673 476.55 390.659 476.55 390.645 476.55ZM386.381 433.992L386.593 471.099C386.593 472.187 387.03 473.203 387.793 473.966C388.555 474.728 389.572 475.138 390.645 475.138C390.645 475.138 390.659 475.138 390.673 475.138L499.778 474.516C502.009 474.502 503.831 472.667 503.817 470.436L503.605 433.329L386.381 433.992Z" fill="white"/>
        </g>
        <path d="M490.796 327.471L405.271 327.358C403.746 327.358 402.518 326.115 402.518 324.605L402.532 316.076C402.532 314.551 403.774 313.323 405.285 313.323L490.81 313.436C492.335 313.436 493.563 314.678 493.563 316.189L493.549 324.718C493.563 326.243 492.321 327.471 490.796 327.471Z" fill="white"/>
        <path d="M491.218 338.343L404.845 338.23C403.56 338.23 402.516 337.186 402.516 335.901C402.516 334.616 403.56 333.571 404.845 333.571L491.218 333.684C492.502 333.684 493.547 334.729 493.547 336.014C493.547 337.313 492.502 338.343 491.218 338.343Z" fill="white"/>
        <path d="M491.206 349.075L404.834 348.962C403.549 348.962 402.504 347.917 402.504 346.632C402.504 345.347 403.549 344.302 404.834 344.302L491.206 344.415C492.491 344.415 493.536 345.46 493.536 346.745C493.536 348.044 492.491 349.075 491.206 349.075Z" fill="white"/>
        <path d="M414.194 364.804C414.194 368.038 411.567 370.65 408.334 370.65C405.1 370.65 402.488 368.023 402.488 364.79C402.488 361.557 405.115 358.944 408.348 358.944C411.582 358.944 414.194 361.571 414.194 364.804Z" fill="#305E67"/>
        <path d="M414.153 391.35C414.153 394.583 411.526 397.195 408.293 397.195C405.059 397.195 402.447 394.569 402.447 391.335C402.447 388.102 405.074 385.49 408.307 385.49C411.541 385.49 414.167 388.116 414.153 391.35Z" fill="#305E67"/>
        <path d="M414.124 417.119C414.124 420.353 411.497 422.965 408.264 422.965C405.03 422.965 402.418 420.339 402.418 417.105C402.418 413.872 405.044 411.245 408.278 411.259C411.511 411.259 414.124 413.886 414.124 417.119Z" fill="#305E67"/>
        <path d="M473.539 362.729L417.511 362.658C417.115 362.658 416.805 362.348 416.805 361.952C416.805 361.557 417.115 361.246 417.511 361.246L473.539 361.317C473.934 361.317 474.245 361.628 474.245 362.023C474.245 362.404 473.934 362.729 473.539 362.729Z" fill="white"/>
        <path d="M445.525 368.645L417.511 368.617C417.115 368.617 416.805 368.306 416.805 367.911C416.805 367.515 417.115 367.205 417.511 367.205L445.525 367.233C445.92 367.233 446.231 367.543 446.231 367.939C446.231 368.334 445.906 368.645 445.525 368.645Z" fill="white"/>
        <path d="M473.512 390.15L417.483 390.079C417.088 390.079 416.777 389.769 416.777 389.373C416.777 388.978 417.088 388.667 417.483 388.667L473.512 388.738C473.907 388.738 474.218 389.048 474.218 389.444C474.218 389.825 473.893 390.15 473.512 390.15Z" fill="white"/>
        <path d="M445.484 396.066L417.47 396.038C417.074 396.038 416.764 395.727 416.764 395.332C416.764 394.936 417.074 394.625 417.47 394.625L445.484 394.654C445.879 394.654 446.19 394.964 446.19 395.36C446.19 395.755 445.879 396.066 445.484 396.066Z" fill="white"/>
        <path d="M473.47 415.184L417.442 415.114C417.047 415.114 416.736 414.803 416.736 414.408C416.736 414.013 417.047 413.702 417.442 413.702L473.47 413.773C473.866 413.773 474.176 414.083 474.176 414.478C474.176 414.86 473.866 415.184 473.47 415.184Z" fill="white"/>
        <path d="M445.456 421.101L417.442 421.072C417.047 421.072 416.736 420.762 416.736 420.366C416.736 419.971 417.047 419.66 417.442 419.66L445.456 419.689C445.852 419.689 446.162 419.999 446.162 420.395C446.162 420.79 445.838 421.101 445.456 421.101Z" fill="white"/>
        <path d="M412.656 448.889C411.88 448.889 411.244 448.268 411.244 447.491C411.244 446.714 411.865 446.079 412.642 446.065L477.481 445.698C477.481 445.698 477.481 445.698 477.495 445.698C478.272 445.698 478.907 446.319 478.907 447.096C478.907 447.872 478.286 448.508 477.509 448.522L412.656 448.889Z" fill="white"/>
        <path d="M425.846 458.632C425.069 458.632 424.434 458.011 424.434 457.234C424.434 456.458 425.055 455.822 425.831 455.808L464.379 455.596C464.379 455.596 464.379 455.596 464.393 455.596C465.17 455.596 465.805 456.217 465.805 456.994C465.805 457.771 465.184 458.406 464.407 458.42L425.846 458.632C425.86 458.632 425.86 458.632 425.846 458.632Z" fill="white"/>
        <path d="M252.847 257.732H151.621C150.364 257.732 149.348 256.716 149.348 255.459V226.033C149.348 224.776 150.364 223.76 151.621 223.76H252.847C254.104 223.76 255.121 224.776 255.121 226.033V255.459C255.121 256.716 254.104 257.732 252.847 257.732Z" fill="#5EC8D9"/>
        <path d="M167.125 251.04C161.095 251.04 156.182 246.126 156.182 240.097C156.182 234.068 161.095 229.154 167.125 229.154C173.154 229.154 178.068 234.068 178.068 240.097C178.068 246.126 173.168 251.04 167.125 251.04Z" fill="#53ABB9"/>
        <path d="M166.164 244.206L162.07 238.544C161.717 238.064 161.83 237.386 162.31 237.033C162.55 236.863 162.832 236.793 163.114 236.835C163.397 236.878 163.651 237.033 163.82 237.273L166.419 240.873L179.423 227.869C179.621 227.671 179.889 227.558 180.186 227.558C180.468 227.558 180.75 227.671 180.948 227.869C181.372 228.293 181.372 228.97 180.948 229.394L166.164 244.206Z" fill="white"/>
        <path opacity="0.38" d="M241.453 235.847H187.331C186.936 235.847 186.625 235.536 186.625 235.141C186.625 234.745 186.936 234.435 187.331 234.435H241.453C241.848 234.435 242.159 234.745 242.159 235.141C242.159 235.522 241.834 235.847 241.453 235.847Z" fill="white"/>
        <path opacity="0.38" d="M211.505 242.257H187.317C186.922 242.257 186.611 241.946 186.611 241.551C186.611 241.155 186.922 240.845 187.317 240.845H211.505C211.9 240.845 212.211 241.155 212.211 241.551C212.211 241.946 211.9 242.257 211.505 242.257Z" fill="white"/>
        <path opacity="0.38" d="M241.452 242.257H217.265C216.869 242.257 216.559 241.946 216.559 241.551C216.559 241.155 216.869 240.845 217.265 240.845H241.452C241.848 240.845 242.158 241.155 242.158 241.551C242.158 241.946 241.833 242.257 241.452 242.257Z" fill="white"/>
        <path opacity="0.38" d="M241.453 248.978H187.331C186.936 248.978 186.625 248.667 186.625 248.272C186.625 247.876 186.936 247.566 187.331 247.566H241.453C241.848 247.566 242.159 247.876 242.159 248.272C242.159 248.667 241.834 248.978 241.453 248.978Z" fill="white"/>
        <path d="M639.99 413.829H538.764C537.507 413.829 536.49 412.813 536.49 411.556V382.13C536.49 380.873 537.507 379.856 538.764 379.856H639.99C641.247 379.856 642.263 380.873 642.263 382.13V411.556C642.277 412.813 641.261 413.829 639.99 413.829Z" fill="#5EC8D9"/>
        <path d="M554.281 407.136C548.252 407.136 543.338 402.223 543.338 396.193C543.338 390.164 548.252 385.25 554.281 385.25C560.31 385.25 565.224 390.164 565.224 396.193C565.224 402.237 560.31 407.136 554.281 407.136Z" fill="#488D9A"/>
        <path d="M553.322 400.316L549.227 394.654C549.058 394.414 548.987 394.132 549.03 393.849C549.072 393.567 549.227 393.313 549.467 393.143C549.693 392.974 549.976 392.903 550.272 392.946C550.555 392.988 550.809 393.143 550.978 393.383L553.576 396.984L566.581 383.979C567.004 383.556 567.682 383.556 568.106 383.979C568.529 384.403 568.529 385.081 568.106 385.504L553.322 400.316Z" fill="white"/>
        <path opacity="0.38" d="M628.596 391.943H574.474C574.078 391.943 573.768 391.633 573.768 391.237C573.768 390.842 574.078 390.531 574.474 390.531H628.596C628.991 390.531 629.302 390.842 629.302 391.237C629.302 391.633 628.991 391.943 628.596 391.943Z" fill="white"/>
        <path opacity="0.38" d="M598.661 398.368H574.474C574.078 398.368 573.768 398.057 573.768 397.662C573.768 397.267 574.078 396.956 574.474 396.956H598.661C599.057 396.956 599.367 397.267 599.367 397.662C599.367 398.043 599.057 398.368 598.661 398.368Z" fill="white"/>
        <path opacity="0.38" d="M628.595 398.368H604.407C604.012 398.368 603.701 398.057 603.701 397.662C603.701 397.267 604.012 396.956 604.407 396.956H628.595C628.99 396.956 629.301 397.267 629.301 397.662C629.301 398.043 628.99 398.368 628.595 398.368Z" fill="white"/>
        <path opacity="0.38" d="M628.596 405.089H574.474C574.078 405.089 573.768 404.778 573.768 404.383C573.768 403.987 574.078 403.677 574.474 403.677H628.596C628.991 403.677 629.302 403.987 629.302 404.383C629.302 404.764 628.991 405.089 628.596 405.089Z" fill="white"/>
    <!-- </g> -->
    <!-- <defs>
        <clipPath id="clip0">
            <rect width="706" height="706" fill="white"/>
        </clipPath>
    </defs> -->
</svg>
