<svg width="787" height="524" viewBox="0 0 787 524" fill="none" xmlns="http://www.w3.org/2000/svg">
<path d="M787 0H0V524H787V0Z" fill="white"/>
<path d="M639.649 114.947L383.298 371.288L370.683 383.903L343.753 410.832L281.299 473.279L88.4712 280.46L135.379 233.568L192.792 290.975L247.969 346.149L281.299 379.481L314.633 346.149L517.742 143.039L592.741 68.0439L639.649 114.947Z" fill="url(#paint0_linear)"/>
<path d="M383.299 326.041V371.288L370.683 383.903L343.753 410.832V326.041H383.299Z" fill="#396C77"/>
<path d="M534.26 160.383V220.334L370.685 383.901H210.158C200.563 383.901 192.789 376.117 192.789 366.533V160.383C192.789 150.786 200.56 143.015 210.158 143.015H516.889C517.177 143.015 517.452 143.026 517.74 143.036C526.939 143.482 534.26 151.077 534.26 160.383Z" fill="#53ABB9"/>
<path d="M520.892 117.381V233.699L408.436 346.149H206.157V117.381H520.892Z" fill="white"/>
<path d="M206.16 145.009L520.89 145.009V117.378L206.16 117.378V145.009Z" fill="#5EC8D9"/>
<path d="M260.441 136.413H223.059C220.987 136.413 219.305 134.733 219.305 132.658V129.724C219.305 127.652 220.984 125.969 223.059 125.969H260.441C262.513 125.969 264.195 127.649 264.195 129.724V132.658C264.193 134.733 262.513 136.413 260.441 136.413Z" fill="#F5F7FF"/>
<path d="M534.515 362.23C534.52 362.228 534.525 362.228 534.53 362.23C534.462 362.259 534.454 362.262 534.515 362.23Z" fill="#323657"/>
<path d="M566.768 290.673L598.186 273.104L587.389 272.391L566.768 290.673Z" fill="#53ABB9"/>
<path d="M566.768 290.673L576.436 275.124L584.548 274.909L566.768 290.673Z" fill="#5EC8D9"/>
<path d="M590.96 277.144L591.591 281.102L566.768 290.673L590.96 277.144Z" fill="#488D9A"/>
<path d="M154.805 265.765C154.703 264.531 154.606 263.284 154.52 262.06L155.376 262C155.463 263.221 155.56 264.465 155.662 265.697L154.805 265.765ZM599.651 261.853L599.161 261.146C599.176 261.135 600.68 260.087 602.698 258.211L603.285 258.84C601.218 260.763 599.714 261.809 599.651 261.853ZM154.226 257.417C154.14 255.869 154.064 254.307 154.003 252.772L154.863 252.738C154.923 254.268 154.999 255.827 155.086 257.37L154.226 257.417ZM606.552 255.473L605.905 254.907C606.935 253.728 607.883 252.508 608.727 251.281L609.437 251.769C608.572 253.024 607.603 254.271 606.552 255.473ZM153.854 248.124C153.817 246.576 153.794 245.009 153.781 243.474L154.64 243.469C154.651 244.999 154.674 246.56 154.711 248.103L153.854 248.124ZM611.834 247.726L611.067 247.341C611.769 245.944 612.345 244.519 612.788 243.107L613.608 243.364C613.152 244.818 612.555 246.285 611.834 247.726ZM154.648 238.834L153.789 238.826C153.804 237.275 153.833 235.711 153.875 234.175L154.734 234.199C154.693 235.729 154.664 237.288 154.648 238.834ZM614.593 238.753L613.739 238.653C613.841 237.775 613.894 236.884 613.894 236.007C613.894 235.375 613.867 234.736 613.815 234.105L614.672 234.034C614.727 234.689 614.756 235.352 614.756 236.007C614.751 236.919 614.698 237.841 614.593 238.753ZM612.992 229.627C612.592 228.207 612.044 226.771 611.373 225.359L612.149 224.99C612.843 226.444 613.404 227.927 613.82 229.394L612.992 229.627ZM154.907 229.567L154.048 229.527C154.119 227.979 154.205 226.418 154.305 224.885L155.164 224.94C155.065 226.465 154.978 228.024 154.907 229.567ZM609.107 221.382C608.294 220.156 607.37 218.922 606.35 217.709L607.008 217.156C608.046 218.393 608.991 219.655 609.822 220.908L609.107 221.382ZM155.507 220.318L154.651 220.245C154.782 218.699 154.928 217.143 155.088 215.615L155.942 215.704C155.783 217.227 155.636 218.78 155.507 220.318ZM603.232 214.324C603.109 214.201 602.984 214.077 602.858 213.954C601.899 213.019 600.872 212.131 599.8 211.311L600.324 210.627C601.422 211.468 602.478 212.38 603.46 213.339C603.589 213.464 603.715 213.587 603.84 213.711L603.232 214.324ZM156.469 211.104L155.615 210.996C155.806 209.458 156.018 207.907 156.241 206.388L157.093 206.513C156.87 208.028 156.66 209.571 156.469 211.104ZM596.001 208.777C594.725 208.036 593.349 207.339 591.913 206.705L592.262 205.919C593.727 206.566 595.131 207.276 596.433 208.033L596.001 208.777ZM587.627 205.044C586.238 204.572 584.792 204.134 583.212 203.713L583.435 202.882C585.036 203.312 586.498 203.752 587.905 204.231L587.627 205.044ZM578.719 202.623C577.351 202.321 575.865 202.02 574.178 201.698L574.34 200.854C576.035 201.179 577.529 201.483 578.905 201.784L578.719 202.623ZM157.816 201.939L156.967 201.795C157.226 200.267 157.501 198.727 157.792 197.218L158.636 197.38C158.348 198.881 158.073 200.417 157.816 201.939ZM569.614 200.857L568.227 200.608C567.169 200.419 566.108 200.228 565.039 200.034L565.193 199.188C566.26 199.382 567.324 199.573 568.379 199.762L569.766 200.011L569.614 200.857ZM560.467 199.17C558.824 198.845 557.336 198.528 555.91 198.203L556.102 197.364C557.516 197.687 558.999 198.001 560.634 198.326L560.467 199.17ZM551.388 197.081C549.842 196.665 548.338 196.219 546.918 195.756L547.183 194.938C548.59 195.397 550.081 195.837 551.611 196.251L551.388 197.081ZM542.527 194.186C541.059 193.61 539.618 192.986 538.245 192.334L538.615 191.558C539.969 192.203 541.392 192.819 542.841 193.387L542.527 194.186ZM159.561 192.842L158.72 192.661C159.047 191.145 159.393 189.62 159.752 188.126L160.588 188.328C160.232 189.814 159.886 191.333 159.561 192.842ZM534.108 190.178C532.756 189.405 531.425 188.574 530.152 187.707L530.637 186.997C531.892 187.851 533.202 188.671 534.535 189.431L534.108 190.178ZM526.405 184.927C525.208 183.96 524.026 182.931 522.894 181.859L523.484 181.236C524.6 182.289 525.763 183.308 526.942 184.259L526.405 184.927ZM161.725 183.837L160.894 183.617C161.293 182.121 161.712 180.612 162.144 179.137L162.97 179.378C162.54 180.848 162.121 182.347 161.725 183.837ZM519.632 178.532C518.605 177.403 517.594 176.205 516.624 174.974L517.3 174.442C518.256 175.658 519.257 176.839 520.269 177.953L519.632 178.532ZM164.324 174.95L163.504 174.688C163.976 173.213 164.471 171.728 164.979 170.276L165.791 170.559C165.288 172.005 164.793 173.483 164.324 174.95ZM513.865 171.222C513.003 169.97 512.154 168.652 511.342 167.308L512.078 166.862C512.883 168.193 513.721 169.495 514.572 170.735L513.865 171.222ZM167.371 166.207L166.567 165.903C167.115 164.457 167.688 163 168.27 161.575L169.067 161.9C168.488 163.32 167.916 164.769 167.371 166.207ZM509.044 163.26C508.329 161.921 507.626 160.522 506.953 159.102L507.731 158.732C508.4 160.139 509.096 161.528 509.804 162.854L509.044 163.26ZM170.877 157.64L170.091 157.291C170.715 155.874 171.367 154.451 172.027 153.06L172.806 153.43C172.148 154.816 171.498 156.23 170.877 157.64ZM505.051 154.858C504.461 153.461 503.88 152.01 503.322 150.54L504.126 150.236C504.679 151.695 505.255 153.139 505.842 154.525L505.051 154.858ZM174.847 149.28L174.082 148.889C174.784 147.511 175.512 146.128 176.251 144.773L177.006 145.184C176.272 146.531 175.544 147.909 174.847 149.28ZM501.752 146.162C501.265 144.726 500.785 143.238 500.327 141.737L501.15 141.485C501.605 142.978 502.082 144.459 502.567 145.887L501.752 146.162ZM179.28 141.155L178.538 140.723C179.319 139.386 180.126 138.045 180.941 136.738L181.672 137.193C180.86 138.49 180.055 139.824 179.28 141.155ZM499.03 137.269C498.626 135.805 498.231 134.291 497.853 132.768L498.689 132.561C499.067 134.078 499.46 135.585 499.86 137.042L499.03 137.269ZM184.174 133.298L183.459 132.821C184.313 131.534 185.199 130.243 186.09 128.982L186.792 129.478C185.906 130.735 185.026 132.019 184.174 133.298ZM496.732 128.278C496.323 126.816 495.849 125.343 495.322 123.902L496.129 123.606C496.664 125.068 497.143 126.562 497.557 128.044L496.732 128.278ZM189.519 125.741L188.833 125.225C189.763 123.991 190.722 122.752 191.686 121.547L192.357 122.084C191.398 123.284 190.444 124.513 189.519 125.741ZM493.583 119.642C492.956 118.261 492.267 116.873 491.531 115.516L492.288 115.107C493.032 116.482 493.732 117.887 494.366 119.288L493.583 119.642ZM195.299 118.513L194.644 117.957C195.643 116.781 196.675 115.602 197.707 114.455L198.347 115.031C197.319 116.171 196.295 117.342 195.299 118.513ZM201.496 111.635L200.875 111.041C201.941 109.925 203.039 108.808 204.137 107.721L204.742 108.334C203.647 109.414 202.554 110.525 201.496 111.635ZM489.197 111.541C488.387 110.263 487.514 108.976 486.605 107.726L487.302 107.221C488.222 108.486 489.105 109.786 489.925 111.083L489.197 111.541ZM208.08 105.127L207.493 104.499C208.62 103.448 209.781 102.395 210.941 101.373L211.51 102.017C210.355 103.037 209.202 104.082 208.08 105.127ZM483.786 104.074C482.824 102.903 481.805 101.729 480.757 100.589L481.391 100.008C482.45 101.161 483.479 102.347 484.449 103.529L483.786 104.074ZM215.029 99.0096L214.479 98.3494C215.663 97.3643 216.881 96.3791 218.1 95.4255L218.632 96.1014C217.418 97.0525 216.208 98.0297 215.029 99.0096ZM477.545 97.2647C476.465 96.2036 475.328 95.1399 474.173 94.105L474.747 93.4631C475.915 94.5058 477.06 95.58 478.15 96.6516L477.545 97.2647ZM222.3 93.3033L221.789 92.6116C223.023 91.6972 224.288 90.7828 225.554 89.8973L226.047 90.602C224.786 91.4824 223.526 92.3915 222.3 93.3033ZM470.657 91.1051C469.48 90.1435 468.254 89.1872 467.012 88.2571L467.528 87.5681C468.778 88.506 470.015 89.4702 471.201 90.4396L470.657 91.1051ZM229.867 88.003L229.392 87.2851C230.676 86.4362 231.992 85.5926 233.302 84.7752L233.758 85.5061C232.453 86.3183 231.143 87.1594 229.867 88.003ZM463.255 85.5559C462.005 84.6939 460.708 83.832 459.398 82.9988L459.859 82.2731C461.177 83.1141 462.484 83.9787 463.742 84.8485L463.255 85.5559ZM237.711 83.1088L237.276 82.3674C238.6 81.5892 239.959 80.8137 241.314 80.0618L241.731 80.8137C240.381 81.5604 239.029 82.3333 237.711 83.1088ZM455.452 80.5779C454.142 79.805 452.787 79.0347 451.427 78.2907L451.841 77.5361C453.212 78.2854 454.574 79.0609 455.892 79.8391L455.452 80.5779ZM245.808 78.6208L245.409 77.8584C246.774 77.1457 248.171 76.4383 249.56 75.7571L249.939 76.53C248.556 77.206 247.167 77.9108 245.808 78.6208ZM447.332 76.1292C445.975 75.4401 444.576 74.7537 443.171 74.0908L443.538 73.3127C444.95 73.9781 446.357 74.6672 447.72 75.3615L447.332 76.1292ZM254.121 74.5362L253.76 73.7554C255.156 73.1109 256.587 72.4716 258.009 71.8559L258.35 72.6446C256.935 73.2576 255.513 73.8943 254.121 74.5362ZM438.956 72.1703C437.559 71.5573 436.123 70.952 434.687 70.3652L435.012 69.5687C436.453 70.1556 437.897 70.766 439.301 71.3817L438.956 72.1703ZM262.626 70.8525L262.304 70.056C263.732 69.477 265.189 68.9058 266.638 68.3556L266.942 69.16C265.498 69.7075 264.046 70.2787 262.626 70.8525ZM430.375 68.6753C428.944 68.1329 427.479 67.6011 426.02 67.0902L426.306 66.278C427.77 66.7915 429.243 67.326 430.681 67.8709L430.375 68.6753ZM271.294 67.567L271.008 66.7548C272.462 66.2413 273.945 65.7356 275.415 65.2535L275.685 66.071C274.218 66.5531 272.742 67.0561 271.294 67.567ZM421.629 65.6099C420.172 65.1383 418.684 64.6745 417.203 64.2317L417.45 63.4091C418.935 63.8545 420.431 64.3182 421.893 64.7924L421.629 65.6099ZM280.102 64.6719L279.851 63.8492C281.326 63.3986 282.827 62.9584 284.318 62.5392L284.551 63.3671C283.068 63.7837 281.57 64.2239 280.102 64.6719ZM412.746 62.9506C411.269 62.5445 409.759 62.1462 408.263 61.7689L408.473 60.9358C409.974 61.3157 411.489 61.7139 412.974 62.1226L412.746 62.9506ZM289.027 62.1567L288.812 61.3235C290.3 60.9384 291.82 60.5611 293.329 60.2022L293.528 61.038C292.021 61.3969 290.507 61.7716 289.027 62.1567ZM403.757 60.6843C402.261 60.341 400.736 60.0057 399.229 59.6913L399.405 58.8503C400.919 59.1673 402.449 59.5 403.951 59.8459L403.757 60.6843ZM298.045 60.0162L297.864 59.1751C299.371 58.8503 300.904 58.5359 302.421 58.2398L302.586 59.0834C301.074 59.3795 299.546 59.6939 298.045 60.0162ZM394.681 58.7926C393.174 58.5097 391.636 58.2372 390.116 57.983L390.258 57.1342C391.785 57.3909 393.326 57.6634 394.84 57.9464L394.681 58.7926ZM307.142 58.245L306.995 57.3988C308.51 57.1342 310.053 56.88 311.583 56.6442L311.714 57.4931C310.189 57.7289 308.651 57.9804 307.142 58.245ZM385.536 57.2625C384.017 57.0398 382.471 56.825 380.943 56.6311L381.053 55.7796C382.589 55.9761 384.14 56.1883 385.662 56.4137L385.536 57.2625ZM316.297 56.8302L316.182 55.9787C317.709 55.7718 319.26 55.5805 320.793 55.4023L320.893 56.2565C319.365 56.432 317.819 56.6259 316.297 56.8302ZM376.337 56.0862C374.807 55.9211 373.253 55.7665 371.723 55.6303L371.799 54.7735C373.337 54.9098 374.893 55.0644 376.429 55.232L376.337 56.0862ZM325.496 55.7718L325.415 54.915C326.95 54.7683 328.507 54.6321 330.042 54.5142L330.108 55.3709C328.575 55.4888 327.024 55.625 325.496 55.7718ZM367.101 55.2582C365.571 55.1508 364.012 55.0539 362.474 54.9727L362.519 54.1133C364.064 54.1945 365.626 54.2915 367.161 54.3989L367.101 55.2582ZM334.722 55.0591L334.672 54.1998C336.207 54.1107 337.766 54.0347 339.307 53.9718L339.341 54.8312C337.806 54.8914 336.252 54.97 334.722 55.0591ZM357.842 54.7735C356.306 54.7211 354.75 54.6845 353.214 54.6609L353.228 53.8015C354.768 53.8251 356.332 53.8644 357.873 53.9142L357.842 54.7735ZM343.96 54.6897L343.942 53.8303C345.477 53.7963 347.036 53.7779 348.577 53.7727L348.579 54.6321C347.044 54.6373 345.488 54.6556 343.96 54.6897Z" fill="#5EC8D9"/>
<path d="M663.635 141.197C652.877 136.106 640.437 138.813 632.697 147.034C630.823 149.026 629.225 151.339 627.991 153.943C624.257 161.837 624.718 170.635 628.476 177.819C631.08 182.797 635.267 187 640.738 189.588C641.283 189.845 641.831 190.084 642.383 190.304C644.886 191.291 647.461 191.876 650.029 192.08C660.805 192.95 671.485 187.191 676.385 176.842C682.707 163.478 677 147.519 663.635 141.197ZM670.33 173.976C666.659 181.736 658.652 186.054 650.571 185.402C648.645 185.247 646.714 184.81 644.838 184.068C644.424 183.906 644.013 183.728 643.604 183.534C639.504 181.592 636.365 178.443 634.41 174.709C631.591 169.323 631.245 162.726 634.046 156.81C634.971 154.855 636.168 153.121 637.573 151.63C643.376 145.465 652.704 143.437 660.769 147.252C670.791 151.991 675.069 163.957 670.33 173.976Z" fill="#E6E7E7"/>
<path d="M634.409 174.709L628.475 177.819C624.718 170.635 624.254 161.837 627.99 153.943C629.224 151.336 630.822 149.023 632.696 147.034L637.572 151.63C636.168 153.123 634.967 154.858 634.045 156.81C631.244 162.726 631.59 169.323 634.409 174.709Z" fill="#2B555D"/>
<path d="M644.838 184.068L642.385 190.304C641.832 190.086 641.282 189.848 640.74 189.588C635.269 187 631.082 182.797 628.478 177.819L634.412 174.709C636.364 178.44 639.503 181.592 643.606 183.534C644.012 183.725 644.424 183.903 644.838 184.068Z" fill="#488D9A"/>
<path d="M650.03 192.08C647.46 191.873 644.887 191.289 642.385 190.304L644.837 184.068C646.713 184.81 648.644 185.247 650.57 185.402L650.03 192.08Z" fill="#488D9A"/>
<path d="M643.962 209.723H593.976V208.728H642.969V187.553H643.962V209.723Z" fill="#4DAFFF"/>
<path d="M620.287 198.389H593.976V204.349H620.287V198.389Z" fill="#488D9A"/>
<path d="M83.2102 111.421H77.9883V146.049H83.2102V111.421Z" fill="#E0E0E0"/>
<path d="M96.177 118.458H90.9551V146.049H96.177V118.458Z" fill="#E0E0E0"/>
<path d="M109.144 113.281H103.922V146.052H109.144V113.281Z" fill="#E0E0E0"/>
<path d="M122.111 123.501H116.889V146.049H122.111V123.501Z" fill="#E0E0E0"/>
<path d="M135.078 114.342H129.856V146.049H135.078V114.342Z" fill="#E0E0E0"/>
<path d="M148.043 109.563H142.821V146.049H148.043V109.563Z" fill="#E0E0E0"/>
<path d="M161.01 107.572H155.788V146.049H161.01V107.572Z" fill="#E0E0E0"/>
<path d="M83.2102 124.324H77.9883V146.049H83.2102V124.324Z" fill="#53ABB9"/>
<path d="M96.177 128.739H90.9551V146.049H96.177V128.739Z" fill="#53ABB9"/>
<path d="M109.144 125.49H103.922V146.049H109.144V125.49Z" fill="#53ABB9"/>
<path d="M122.111 131.904H116.889V146.049H122.111V131.904Z" fill="#53ABB9"/>
<path d="M135.078 126.158H129.856V146.052H135.078V126.158Z" fill="#53ABB9"/>
<path d="M148.043 123.158H142.821V146.049H148.043V123.158Z" fill="#53ABB9"/>
<path d="M161.01 121.908H155.788V146.049H161.01V121.908Z" fill="#53ABB9"/>
<path d="M195.566 57.3962H165.385V61.7559H195.566V57.3962Z" fill="#488D9A"/>
<path d="M208.198 65.4553H165.385V69.815H208.198V65.4553Z" fill="#488D9A"/>
<path d="M707.82 114.444C704.783 105.95 696.664 100.734 688.109 100.991C686.036 101.053 683.94 101.436 681.883 102.172C675.65 104.402 671.183 109.364 669.346 115.23C668.073 119.294 668.065 123.792 669.611 128.11C669.763 128.54 669.93 128.962 670.111 129.376C670.923 131.246 671.99 132.939 673.255 134.427C678.564 140.668 687.375 143.306 695.547 140.385C706.101 136.609 711.596 124.995 707.82 114.444ZM693.839 135.601C687.711 137.791 681.105 135.816 677.125 131.136C676.177 130.02 675.378 128.752 674.767 127.348C674.634 127.039 674.508 126.722 674.392 126.399C673.234 123.161 673.242 119.789 674.196 116.745C675.571 112.348 678.923 108.625 683.594 106.954C685.138 106.401 686.71 106.115 688.261 106.068C694.675 105.874 700.761 109.786 703.041 116.155C705.871 124.065 701.749 132.771 693.839 135.601Z" fill="#E6E7E7"/>
<path d="M674.193 116.742L669.346 115.227C671.183 109.364 675.65 104.399 681.884 102.169C683.94 101.433 686.039 101.051 688.109 100.988L688.261 106.065C686.707 106.113 685.135 106.401 683.595 106.951C678.92 108.622 675.572 112.345 674.193 116.742Z" fill="#2B555D"/>
<path d="M674.767 127.348L670.111 129.376C669.933 128.964 669.765 128.54 669.611 128.11C668.065 123.79 668.073 119.294 669.346 115.23L674.193 116.745C673.24 119.792 673.232 123.164 674.39 126.399C674.508 126.722 674.634 127.039 674.767 127.348Z" fill="#488D9A"/>
<path d="M673.255 134.424C671.99 132.936 670.924 131.244 670.111 129.373L674.767 127.345C675.375 128.747 676.177 130.018 677.125 131.134L673.255 134.424Z" fill="#53ABB9"/>
<path d="M423.255 182.333H264.625V187.859H423.255V182.333Z" fill="#E8E8E8"/>
<path d="M423.255 200.336H264.625V205.861H423.255V200.336Z" fill="#E8E8E8"/>
<path d="M423.255 217.704H264.625V223.229H423.255V217.704Z" fill="#E8E8E8"/>
<path d="M423.255 235.708H264.625V241.234H423.255V235.708Z" fill="#E8E8E8"/>
<path d="M423.255 255.932H264.625V261.457H423.255V255.932Z" fill="#E8E8E8"/>
<path d="M423.255 273.937H264.625V279.462H423.255V273.937Z" fill="#E8E8E8"/>
<path d="M423.255 291.305H264.625V296.83H423.255V291.305Z" fill="#E8E8E8"/>
<path d="M423.255 309.309H264.625V314.835H423.255V309.309Z" fill="#E8E8E8"/>
<path d="M232.717 200.105H246.289C248.757 200.105 250.759 198.103 250.759 195.635V182.064C250.759 179.596 248.757 177.594 246.289 177.594H232.717C230.249 177.594 228.247 179.596 228.247 182.064V195.635C228.247 198.103 230.249 200.105 232.717 200.105Z" fill="#5EC8D9"/>
<path d="M232.717 270.662H246.289C248.757 270.662 250.759 268.66 250.759 266.195V252.623C250.759 250.155 248.757 248.153 246.289 248.153H232.717C230.249 248.153 228.247 250.155 228.247 252.623V266.195C228.247 268.663 230.249 270.662 232.717 270.662Z" fill="#5EC8D9"/>
<path d="M238.736 264.848L232.489 259.422C231.976 258.977 231.923 258.201 232.369 257.688C232.814 257.177 233.59 257.122 234.103 257.567L238.521 261.405L244.799 254.379C245.252 253.873 246.027 253.828 246.533 254.282C247.039 254.735 247.083 255.51 246.63 256.016L238.736 264.848Z" fill="white"/>
<path d="M232.717 235.244H246.289C248.757 235.244 250.759 233.243 250.759 230.775V217.203C250.759 214.735 248.757 212.733 246.289 212.733H232.717C230.249 212.733 228.247 214.735 228.247 217.203V230.775C228.247 233.245 230.249 235.244 232.717 235.244Z" fill="#5EC8D9"/>
<path d="M238.736 229.431L232.489 224.005C231.976 223.559 231.923 222.784 232.369 222.27C232.814 221.757 233.59 221.704 234.103 222.15L238.521 225.988L244.799 218.961C245.252 218.455 246.027 218.411 246.533 218.864C247.039 219.317 247.083 220.093 246.63 220.599L238.736 229.431Z" fill="white"/>
<path d="M232.717 306.079H246.289C248.757 306.079 250.759 304.077 250.759 301.609V288.037C250.759 285.569 248.757 283.568 246.289 283.568H232.717C230.249 283.568 228.247 285.569 228.247 288.037V301.609C228.247 304.08 230.249 306.079 232.717 306.079Z" fill="#5EC8D9"/>
<path d="M238.736 300.265L232.489 294.839C231.976 294.393 231.923 293.618 232.369 293.104C232.814 292.591 233.59 292.538 234.103 292.984L238.521 296.822L244.799 289.795C245.252 289.29 246.027 289.245 246.533 289.698C247.039 290.152 247.083 290.927 246.63 291.433L238.736 300.265Z" fill="white"/>
<path d="M236.875 190.568C236.875 190.277 236.894 189.997 236.933 189.73C236.972 189.463 237.043 189.206 237.153 188.96C237.26 188.713 237.415 188.48 237.619 188.265C237.821 188.05 238.088 187.854 238.418 187.676C238.584 187.587 238.801 187.469 239.076 187.325C239.349 187.178 239.616 187.01 239.875 186.819C240.135 186.628 240.36 186.41 240.551 186.161C240.743 185.912 240.837 185.637 240.837 185.333C240.837 184.914 240.685 184.587 240.381 184.354C240.077 184.118 239.726 184.002 239.333 184.002C239.079 184.002 238.853 184.05 238.657 184.144C238.46 184.238 238.282 184.354 238.122 184.487C237.963 184.621 237.826 184.77 237.714 184.935C237.598 185.1 237.496 185.247 237.41 185.373L235.447 184.002C235.777 183.227 236.301 182.624 237.019 182.192C237.737 181.76 238.547 181.545 239.448 181.545C239.93 181.545 240.412 181.616 240.894 181.755C241.377 181.893 241.809 182.116 242.189 182.42C242.569 182.724 242.881 183.117 243.122 183.602C243.363 184.084 243.483 184.668 243.483 185.354C243.483 186.078 243.334 186.685 243.035 187.173C242.736 187.663 242.296 188.09 241.712 188.459C241.445 188.637 241.175 188.794 240.902 188.936C240.63 189.075 240.378 189.222 240.15 189.373C239.922 189.525 239.736 189.698 239.598 189.887C239.459 190.078 239.388 190.306 239.388 190.573H236.875V190.568ZM236.933 195.232V192.376H239.427V195.232H236.933Z" fill="white"/>
<path d="M300.532 173.069C300.532 173.069 298.454 174.89 296.588 177.688C294.723 180.486 289.771 180.636 289.558 184.456C289.346 188.276 296.292 188.394 299.939 187.149C303.587 185.905 304.137 182.174 306.343 181.241C308.549 180.308 309.692 179.554 309.524 177.733C309.354 175.912 308.135 172.957 308.135 172.957C308.135 172.957 306.765 173.394 305.96 173.483C305.148 173.572 302.439 173.604 300.532 173.069Z" fill="#5EC8D9"/>
<path d="M325.525 69.5793C325.525 69.5793 324.129 77.8899 323.002 83.3788C322.543 85.6058 322.132 87.3664 321.878 87.9219C321.556 88.6214 318.933 91.4379 315.723 94.7417C310.09 100.54 302.646 107.842 302.646 107.842L299.738 102.319C299.738 102.319 306.348 94.5688 310.829 89.3969C312.904 87.0049 314.521 85.163 314.817 84.8984C315.755 84.06 316.842 75.8018 318.37 68.9976C319.897 62.1935 322.963 58.4312 322.963 58.4312L325.525 69.5793Z" fill="#53ABB9"/>
<path d="M315.721 94.7418C310.087 100.54 302.644 107.842 302.644 107.842L299.735 102.319C299.735 102.319 306.346 94.5688 310.826 89.397C312.202 90.0729 314.722 91.6816 315.721 94.7418Z" fill="#EEA886"/>
<path d="M351.847 170.795C351.847 170.795 353.759 172.909 354.891 174.193C356.023 175.474 360.357 177.767 360.38 181.576C360.407 185.706 357.184 185.344 354.318 185.195C351.451 185.043 349.122 183.065 347.914 180.725C346.706 178.388 343.496 177.772 343.268 175.886C343.043 173.999 344.757 170.606 344.757 170.606L351.847 170.795Z" fill="#5EC8D9"/>
<path d="M345.126 167.088L344.757 170.604C344.757 170.604 350.739 173.211 351.847 170.795L351.59 167.664L345.126 167.088Z" fill="#5F8CC9"/>
<path d="M300.856 170.525L300.529 173.069C300.529 173.069 304.145 174.348 308.127 172.956L308.208 170.693L300.856 170.525Z" fill="#5F8CC9"/>
<path d="M352.185 106.72C352.392 107.459 313.886 106.72 313.886 106.72C313.886 106.72 324.537 98.9678 325.229 96.898C325.918 94.8256 322.517 82.4016 322.074 78.3563C321.718 75.1206 320.83 60.6451 322.962 58.4338C325.192 56.123 333.22 53.6995 333.22 53.6995L344.924 54.1344C344.924 54.1344 346.855 54.5379 348.236 55.1798C349.617 55.8217 357.514 58.6329 358.795 62.5786C360.077 66.5244 350.917 79.2078 350.917 79.2078C350.917 79.2078 350.898 79.7789 350.872 80.7117C350.835 81.9562 350.786 83.8504 350.736 85.9045C350.676 88.5638 350.62 91.493 350.62 93.6309C350.618 98.6587 351.978 105.982 352.185 106.72Z" fill="#53ABB9"/>
<path d="M352.185 106.72C352.185 106.72 357.422 114.413 357.496 119.663C357.569 124.914 355.557 139.476 355.407 142.36C355.261 145.245 352.546 169.283 352.546 169.283C352.546 169.283 350.45 171.23 344.162 168.791C344.162 168.791 342.773 145.994 342.627 143.552C342.48 141.11 342.48 129.871 341.073 128.244C339.668 126.617 331.161 121.513 330.053 120.551C328.944 119.59 309.615 124.204 307.59 124.728C302.347 126.087 304.737 135.213 305.898 139.303C307.839 146.146 309.534 170.861 309.534 170.861C309.534 170.861 305.798 172.451 299.544 171.107C299.544 171.107 287.258 126.48 286.862 122.045C286.467 117.606 286.273 110.289 316.551 104.727L352.185 106.72Z" fill="#2B555D"/>
<path d="M336.43 28.275C336.43 28.275 326.272 25.9825 328.591 38.7681C330.912 51.5537 333.354 52.5571 339.483 49.9109C345.611 47.2647 345.064 39.0746 345.373 35.0581C345.682 31.0417 339.671 28.4138 336.43 28.275Z" fill="#EEA886"/>
<path d="M333.742 56.9822C333.742 56.9822 338.24 61.7532 345.351 57.4171C345.351 57.4171 343.761 47.0812 344.599 42.0456C345.438 37.0099 335.322 49.8479 335.322 49.8479C335.455 49.9187 335.542 50.3981 335.563 51.0819C335.581 51.661 335.55 52.3867 335.455 53.1308C335.246 54.8023 334.727 56.5708 333.742 56.9822Z" fill="#EEA886"/>
<path d="M341.877 37.0729C342.011 35.9463 344.241 35.5324 344.421 37.2223C344.6 38.9122 343.407 41.8806 342.561 41.5898C341.715 41.2964 341.694 38.6266 341.877 37.0729Z" fill="#EEA886"/>
<path d="M344.877 41.6186C344.877 41.6186 344.615 37.5917 343.143 37.4659C341.67 37.3401 341.445 38.9619 341.445 38.9619L339.959 39.2423C339.959 39.2423 340.428 35.7105 338.958 35.0948C337.488 34.4791 329.439 37.0388 328.26 36.0013C327.081 34.9638 327.637 27.8034 329.769 26.8235C331.902 25.8436 337.792 23.648 342.108 26.5693C342.108 26.5693 345.472 26.1868 345.97 28.9011C346.473 31.6154 345.791 39.6012 344.877 41.6186Z" fill="#3A3F47"/>
<path d="M335.456 53.1308C342.792 50.8697 343.345 46.4524 343.353 46.3843C340.937 50.5344 335.563 51.0846 335.563 51.0846C335.579 51.661 335.55 52.3867 335.456 53.1308Z" fill="#A77860"/>
<path d="M348.354 55.2374C348.354 55.2374 342.983 65.9323 334.303 65.2406C325.625 64.5515 332.822 53.8017 333.218 53.7021C333.653 53.5921 342.119 51.483 348.354 55.2374Z" fill="#EEA886"/>
<path d="M309.482 106.178C309.482 106.178 336.074 109.456 352.185 106.72L321.401 102.874C321.401 102.874 321.22 103.66 309.482 106.178Z" fill="#488D9A"/>
<path d="M329.371 101.664L327.391 102.667C327.391 102.667 327.841 105.814 328.926 106.768L331.148 106.202C331.151 106.199 330.687 102.748 329.371 101.664Z" fill="#EEA886"/>
<path d="M360.142 95.2211C359.747 95.6796 354.52 97.7834 348.614 100.058C340.546 103.165 331.444 106.105 331.444 106.105L329.372 101.664C329.372 101.664 338.904 96.4839 345.341 92.8526C348.383 91.1365 350.736 89.7662 351.069 89.4492C352.104 88.4641 352.374 86.8816 351.611 84.1227C350.849 81.3639 349.096 68.6883 348.899 67.2106C348.703 65.7303 349.392 61.7872 353.092 61.5881C356.791 61.3916 358.672 62.4344 358.672 62.4344C358.672 62.4344 359.6 62.8195 360.292 71.7956C360.983 80.7718 361.08 94.1338 360.142 95.2211Z" fill="#53ABB9"/>
<path d="M350.87 80.7116C350.833 81.9587 350.783 83.8504 350.733 85.9045C347.123 77.0567 349.208 69.9958 349.245 69.8779C348.855 72.2778 350.841 80.5937 350.87 80.7116Z" fill="#488D9A"/>
<path d="M323.002 83.3787C322.543 85.6057 322.132 87.3664 321.878 87.9218C320.644 81.9561 321.755 74.3162 321.755 74.3162C321.922 77.9658 323.002 83.3787 323.002 83.3787Z" fill="#488D9A"/>
<path d="M348.614 100.055C340.546 103.162 331.151 106.199 331.151 106.199L329.372 101.664C329.372 101.664 338.904 96.4841 345.341 92.8528C345.344 92.8528 347.686 93.9951 348.614 100.055Z" fill="#EEA886"/>
<path d="M328.798 106.464L291.002 105.906L310.085 115.594L328.798 106.464Z" fill="#838585"/>
<path d="M310.085 115.594L328.798 108.347V106.464L308.607 113.747L310.085 115.594Z" fill="#E6E7E7"/>
<path d="M327.82 102.735C327.82 102.735 325.459 102.369 323.827 101.989C322.564 101.695 319.425 102.099 318.623 102.911C317.824 103.72 315.28 109.367 314.801 109.712C314.318 110.058 315.047 110.855 315.893 110.454C315.893 110.454 316.669 112.924 318.584 112C320.499 111.075 321.799 109.055 322.8 108.698C323.803 108.342 329.641 106.547 329.641 106.547C329.641 106.547 329.324 102.133 327.82 102.735Z" fill="#EEA886"/>
<path d="M319.2 102.539C319.2 102.539 317.683 103.272 317.287 103.597C316.892 103.925 315.285 105.125 314.898 105.408C314.51 105.691 315.485 106.495 318.354 105.251C321.223 104.009 319.2 102.539 319.2 102.539Z" fill="#EEA886"/>
<path d="M310.085 115.594L298.842 84.9011L262.6 85.4932L273.314 113.779L310.085 115.594Z" fill="#E6E7E7"/>
<path d="M287.245 98.4804C288.351 100.692 288.018 103.099 286.498 103.859C284.981 104.619 282.854 103.443 281.748 101.231C280.642 99.0201 280.975 96.6123 282.495 95.8525C284.015 95.0927 286.14 96.2691 287.245 98.4804Z" fill="#5EC8D9"/>
<path d="M449.124 236.295H434.412C433.915 236.295 433.514 235.892 433.514 235.397V232.218C433.514 231.721 433.917 231.32 434.412 231.32H449.124C449.622 231.32 450.023 231.723 450.023 232.218V235.397C450.023 235.892 449.62 236.295 449.124 236.295Z" fill="#E0E0E0"/>
<path d="M449.124 248.227H434.412C433.915 248.227 433.514 247.823 433.514 247.328V244.15C433.514 243.652 433.917 243.251 434.412 243.251H449.124C449.622 243.251 450.023 243.655 450.023 244.15V247.328C450.023 247.823 449.62 248.227 449.124 248.227Z" fill="#E0E0E0"/>
<path d="M449.124 260.158H434.412C433.915 260.158 433.514 259.755 433.514 259.26V256.082C433.514 255.584 433.917 255.183 434.412 255.183H449.124C449.622 255.183 450.023 255.586 450.023 256.082V259.26C450.023 259.755 449.62 260.158 449.124 260.158Z" fill="#E0E0E0"/>
<path d="M449.124 272.09H434.412C433.915 272.09 433.514 271.686 433.514 271.191V268.013C433.514 267.515 433.917 267.114 434.412 267.114H449.124C449.622 267.114 450.023 267.518 450.023 268.013V271.191C450.023 271.686 449.62 272.09 449.124 272.09Z" fill="#E0E0E0"/>
<path d="M449.124 284.021H434.412C433.915 284.021 433.514 283.618 433.514 283.122V279.944C433.514 279.447 433.917 279.046 434.412 279.046H449.124C449.622 279.046 450.023 279.449 450.023 279.944V283.122C450.023 283.618 449.62 284.021 449.124 284.021Z" fill="#E0E0E0"/>
<path d="M449.124 295.95H434.412C433.915 295.95 433.514 295.547 433.514 295.051V291.873C433.514 291.375 433.917 290.975 434.412 290.975H449.124C449.622 290.975 450.023 291.378 450.023 291.873V295.051C450.023 295.549 449.62 295.95 449.124 295.95Z" fill="#E0E0E0"/>
<path d="M460.639 236.295H457.739C457.241 236.295 456.84 235.892 456.84 235.397V232.218C456.84 231.721 457.244 231.32 457.739 231.32H460.639C461.137 231.32 461.538 231.723 461.538 232.218V235.397C461.538 235.892 461.135 236.295 460.639 236.295Z" fill="#E0E0E0"/>
<path d="M460.639 248.227H457.739C457.241 248.227 456.84 247.823 456.84 247.328V244.15C456.84 243.652 457.244 243.251 457.739 243.251H460.639C461.137 243.251 461.538 243.655 461.538 244.15V247.328C461.538 247.823 461.135 248.227 460.639 248.227Z" fill="#E0E0E0"/>
<path d="M460.639 260.158H457.739C457.241 260.158 456.84 259.755 456.84 259.26V256.082C456.84 255.584 457.244 255.183 457.739 255.183H460.639C461.137 255.183 461.538 255.586 461.538 256.082V259.26C461.538 259.755 461.135 260.158 460.639 260.158Z" fill="#E0E0E0"/>
<path d="M460.639 272.09H457.739C457.241 272.09 456.84 271.686 456.84 271.191V268.013C456.84 267.515 457.244 267.114 457.739 267.114H460.639C461.137 267.114 461.538 267.518 461.538 268.013V271.191C461.538 271.686 461.135 272.09 460.639 272.09Z" fill="#E0E0E0"/>
<path d="M460.639 284.021H457.739C457.241 284.021 456.84 283.618 456.84 283.122V279.944C456.84 279.447 457.244 279.046 457.739 279.046H460.639C461.137 279.046 461.538 279.449 461.538 279.944V283.122C461.538 283.618 461.135 284.021 460.639 284.021Z" fill="#E0E0E0"/>
<path d="M460.639 295.95H457.739C457.241 295.95 456.84 295.547 456.84 295.051V291.873C456.84 291.375 457.244 290.975 457.739 290.975H460.639C461.137 290.975 461.538 291.378 461.538 291.873V295.051C461.538 295.549 461.135 295.95 460.639 295.95Z" fill="#E0E0E0"/>
<path d="M458.266 296.822C458.266 296.822 451.21 280.838 459.395 282.161C459.395 282.161 462.183 284.464 465.042 289.156C467.208 292.712 471.712 302.12 471.545 305.303C471.377 308.484 469.113 310.858 466.671 315.969C466.671 315.969 461.591 325.454 461.376 326.596L456.005 323.808C456.005 323.808 460.556 314.741 463.763 306.768L458.266 296.822Z" fill="#5EC8D9"/>
<path d="M482.719 337.068L388.678 320.96L391.128 306.577L485.169 322.684L482.719 337.068Z" fill="#4F4F4F"/>
<path d="M390.831 308.298L386.311 307.529L384.452 318.446L388.972 319.216L390.831 308.298Z" fill="#2D3038"/>
<path d="M417.421 432.25H416.09C416.09 432.25 416.532 427.222 415.301 427.173C414.069 427.123 411.012 431.265 409.188 431.904C407.364 432.546 397.998 433.086 397.948 431.362C397.898 429.638 401.545 428.946 402.68 428.454C403.814 427.961 409.335 422.588 410.32 421.946C411.308 421.304 412.99 416.85 412.99 416.85L418.22 416.617C418.22 416.617 418.516 420.782 418.833 422.986C418.951 423.801 419.037 424.545 419.048 425.05C419.095 426.926 417.421 432.25 417.421 432.25Z" fill="#EEA886"/>
<path d="M451.105 431.257H449.996V426.578C449.072 426.657 445.967 429.596 445.005 430.445C444.046 431.294 442.726 431.257 438.677 431.514C434.629 431.771 434.247 429.347 434.889 428.522C435.531 427.697 437.601 427.335 438.677 426.822C439.754 426.305 444.007 421.511 445.141 420.376C446.273 419.242 446.965 415.993 446.965 415.993L451.697 416.404C451.697 416.404 451.665 419.378 452.205 421.87C452.208 421.875 452.208 421.883 452.21 421.888C452.255 422.1 452.307 422.31 452.362 422.512C453.065 425.106 451.105 431.257 451.105 431.257Z" fill="#EEA886"/>
<path d="M433.605 325.171C433.605 325.171 431.815 329.399 431.658 330.468C431.501 331.537 427.314 341.658 426.104 348.481C425.378 352.565 423.376 365.354 423.214 366.978C422.936 369.761 421.626 375.902 421.424 378.744C421.311 380.332 413.485 404.719 411.593 417.45C411.593 417.45 416.095 418.115 419.475 417.222C419.475 417.222 426.345 404.064 430.159 385.399C432.457 374.157 434.488 368.165 436.267 363.535C438.046 358.906 448.128 345.793 449.179 344.32C450.232 342.848 456.824 334.708 450.581 325.886C444.337 317.07 433.605 325.171 433.605 325.171Z" fill="#2B555D"/>
<path d="M456.141 362.632C455.57 366.428 456.17 371.416 457.362 385.3C458.557 399.18 455.274 415.99 455.274 415.99C451.152 417.4 446.407 415.99 446.407 415.99C446.517 415.013 446.407 382.153 446.407 379.224C446.407 376.295 445.566 372.973 445.349 369.611C445.199 367.321 444.135 363.098 442.935 358.785C442.576 357.494 442.204 356.197 441.843 354.939C441.843 354.937 441.843 354.937 441.843 354.937C441.638 354.232 441.442 353.54 441.248 352.869C439.558 347.014 437.289 324.398 437.289 324.398C437.289 324.398 449.876 314.258 456.005 323.803C462.133 333.345 458.986 340.288 458.771 341.48C458.557 342.678 456.712 358.838 456.141 362.632Z" fill="#2B555D"/>
<path d="M450.922 342.238C450.825 342.455 444.552 356.375 442.938 358.788C442.579 357.496 442.207 356.2 441.846 354.942C441.846 354.939 441.846 354.939 441.846 354.939C441.846 354.939 450.712 342.541 450.922 342.238Z" fill="#191B2B"/>
<path d="M451.105 431.257H449.996V426.578C449.072 426.657 445.967 429.596 445.005 430.445C444.046 431.294 442.726 431.257 438.677 431.514C434.629 431.771 434.247 429.347 434.889 428.522C435.531 427.697 437.601 427.335 438.677 426.822C443.009 427.052 448.296 420.963 450.832 420.976C452.182 420.982 452.169 421.731 452.208 421.87C452.21 421.875 452.21 421.883 452.213 421.888C452.258 422.1 452.31 422.31 452.365 422.512C453.065 425.105 451.105 431.257 451.105 431.257Z" fill="#838585"/>
<path d="M417.421 432.25H416.09C416.09 432.25 416.532 427.222 415.301 427.173C414.069 427.123 411.012 431.265 409.188 431.904C407.364 432.546 397.998 433.086 397.948 431.362C397.898 429.638 401.545 428.946 402.68 428.454C406.542 428.446 412.825 424.194 414.774 423.332C416.721 422.47 418.83 422.988 418.83 422.988C418.948 423.803 419.035 424.547 419.045 425.053C419.095 426.926 417.421 432.25 417.421 432.25Z" fill="#838585"/>
<path d="M444.72 272.082C444.72 272.082 446.729 277.395 445.165 281.503C445.165 281.503 452.53 281.024 452.808 280.164C453.088 279.305 452.512 271.343 453.526 268.99C454.537 266.637 444.72 272.082 444.72 272.082Z" fill="#EEA886"/>
<path d="M444.007 279.706C444.007 279.706 439.655 281.254 437.687 281.684C435.719 282.114 431.606 284.063 431.941 291.399C432.277 298.735 433.503 305.099 433.951 308.251C434.396 311.403 434.119 319.428 433.393 323.326C433.393 323.326 443.826 325.962 456.101 323.326C456.101 323.326 453.927 316.677 453.982 314.958C454.037 313.239 461.234 299.081 461.57 296.846C461.905 294.611 463.354 284.752 460.063 282.575C456.772 280.398 454.092 280.683 452.698 279.709C451.304 278.734 446.043 279.006 444.007 279.706Z" fill="#5EC8D9"/>
<path d="M460.799 334.854C442.974 339.583 428.789 334.873 428.789 334.873C430.083 332.213 431.035 329.562 431.724 326.994C431.724 326.994 431.724 326.994 431.724 326.992C432.211 325.179 432.567 323.407 432.821 321.704C434.27 311.995 432.381 304.559 432.381 304.559C434.438 287.626 460.06 282.572 462.112 287.941C464.163 293.309 458.135 316.375 457.831 318.353C457.527 320.329 460.799 334.854 460.799 334.854Z" fill="#5EC8D9"/>
<path d="M451.136 250.763C448.175 249.746 440.174 248.667 438.122 260.949C436.073 273.232 440.538 273.444 445.126 273.093C449.713 272.742 456.887 264.452 457.438 261.932C457.988 259.414 459.586 253.66 451.136 250.763Z" fill="#EEA886"/>
<path d="M439.773 255.481C439.773 255.481 442.218 260.711 445.425 262.534C445.425 262.534 447.434 268.091 451.784 270.339C451.784 270.339 463.328 262.692 456.628 253.605C449.931 244.517 440.53 251.753 439.773 255.481Z" fill="#0F324F"/>
<path d="M445.142 260.722C445.401 260.082 447.13 259.042 447.908 260.798C448.684 262.55 445.899 265.639 445.134 265.472C444.371 265.304 444.156 263.145 445.142 260.722Z" fill="#EEA886"/>
<path d="M456.237 255.007C456.489 254.614 464.135 251.075 465.725 258.468C467.315 265.862 459.568 274.461 458.21 278.157C456.853 281.854 458.824 290.519 458.824 290.519C458.824 290.519 454.162 286.112 452.753 281.501C451.204 276.439 450.683 263.669 456.237 255.007Z" fill="#0F324F"/>
<path d="M456.623 254.756C456.623 254.756 454.283 256.608 453.982 259.527C453.982 259.527 453.541 257.247 454.487 255.856C455.431 254.465 456.623 254.756 456.623 254.756Z" fill="#53ABB9"/>
<path d="M431.724 326.992C432.211 325.179 432.845 321.207 433.099 319.504C433.099 319.504 434.171 318.702 434.394 318.01C434.776 316.81 437.742 302.138 437.742 302.138C437.742 302.138 440.863 315.925 431.724 326.992Z" fill="#53ABB9"/>
<path d="M418.898 323.426C418.898 323.426 415.712 324.904 414.968 325.134C414.224 325.365 412.791 324.099 407.514 323.706C407.05 323.672 406.235 324.089 406.427 324.702C406.618 325.315 408.916 326.979 409.898 327.233C410.881 327.487 415.521 329.329 417.78 328.425C420.041 327.521 421.579 324.644 421.579 324.644L418.898 323.426Z" fill="#EEA886"/>
<path d="M436.459 282.085C436.459 282.085 430.354 284.503 429.992 292.987C429.631 301.47 429.3 305.898 428.968 307.208C428.635 308.518 428.004 313.779 426.468 316.947C424.977 320.02 415.16 324.875 415.16 324.875L418.144 328.674C418.144 328.674 433.563 320.512 434.391 318.01C435.219 315.508 438.628 298.101 438.901 295.167C439.121 292.801 442.241 282.261 436.459 282.085Z" fill="#5EC8D9"/>
<path d="M378.857 303.996C378.85 304.224 378.834 304.449 378.818 304.677H387.554C387.569 304.449 387.577 304.224 387.585 303.996H378.857ZM281.425 301.583C281.425 301.85 281.425 302.107 281.433 302.374C281.449 303.477 281.496 304.575 281.59 305.665C281.818 308.767 282.319 311.798 283.071 314.738C285.46 324.139 290.365 332.538 297.023 339.164C297.282 339.432 297.539 339.681 297.798 339.932C298.841 340.936 299.929 341.9 301.058 342.806C310.194 350.242 321.843 354.691 334.535 354.691C334.748 354.691 334.96 354.691 335.169 354.683C344.798 354.573 353.817 351.895 361.565 347.302C365.083 345.219 368.332 342.743 371.272 339.929C377.39 334.061 382.114 326.746 384.881 318.527C385.295 317.282 385.672 316.019 386.002 314.736C386.582 312.448 387.022 310.098 387.294 307.709V307.701C387.349 307.193 387.404 306.682 387.444 306.165C387.491 305.673 387.53 305.178 387.554 304.677C387.569 304.449 387.577 304.224 387.585 303.996C387.609 303.496 387.624 303.001 387.632 302.5C387.64 302.194 387.64 301.89 387.64 301.583C387.64 275.001 368.11 252.979 342.608 249.094C342.115 249.015 341.62 248.945 341.12 248.882C340.572 248.819 340.022 248.756 339.474 248.709C338.982 248.662 338.479 248.622 337.986 248.591C336.841 248.512 335.691 248.481 334.538 248.481C333.558 248.481 332.586 248.505 331.624 248.56C329.971 248.646 328.341 248.819 326.727 249.052C311.331 251.316 298.084 260.192 289.967 272.703C288.345 275.194 286.928 277.833 285.735 280.6C285.657 280.772 285.586 280.953 285.515 281.124C285.437 281.289 285.374 281.462 285.311 281.624C284.905 282.604 284.535 283.599 284.197 284.6C283.32 287.202 282.638 289.895 282.177 292.662C282.044 293.39 281.941 294.127 281.839 294.871C281.831 294.996 281.816 295.122 281.8 295.256C281.792 295.264 281.792 295.272 281.792 295.287C281.784 295.35 281.776 295.413 281.776 295.476C281.761 295.547 281.753 295.617 281.745 295.696V295.751C281.737 295.782 281.729 295.822 281.729 295.861C281.721 295.916 281.714 295.971 281.714 296.026C281.698 296.16 281.682 296.293 281.674 296.427C281.596 297.242 281.533 298.064 281.493 298.887C281.486 298.997 281.478 299.115 281.478 299.225C281.47 299.406 281.462 299.587 281.454 299.765C281.436 300.367 281.425 300.973 281.425 301.583ZM293.329 318.105L293.124 317.589C292.975 317.204 292.833 316.821 292.694 316.428L292.372 315.487C292.294 315.252 292.215 315.018 292.144 314.783C292.136 314.767 292.136 314.751 292.129 314.736C292.113 314.688 292.097 314.649 292.089 314.602C291.963 314.209 291.853 313.811 291.743 313.412L291.618 312.951C291.5 312.529 291.398 312.097 291.295 311.667C291.287 311.628 291.272 311.581 291.264 311.534C291.177 311.136 291.091 310.735 291.012 310.334C290.973 310.169 290.942 310.004 290.91 309.841C290.816 309.341 290.729 308.83 290.651 308.322C290.509 307.428 290.407 306.527 290.321 305.618C290.289 305.311 290.266 305 290.242 304.685C290.242 304.685 290.25 304.685 290.242 304.677C290.242 304.575 290.234 304.481 290.226 304.379C290.203 303.954 290.179 303.532 290.163 303.111V302.985C290.156 302.891 290.156 302.788 290.156 302.686C290.148 302.317 290.14 301.95 290.14 301.58C290.14 301.235 290.14 300.891 290.156 300.553C290.179 299.175 290.273 297.818 290.439 296.479C290.446 296.338 290.462 296.196 290.486 296.055C290.486 296.047 290.486 296.039 290.494 296.031C290.486 296.023 290.494 296.023 290.494 296.023C290.486 296.016 290.486 296.008 290.494 296C290.494 295.968 290.494 295.937 290.501 295.913C290.501 295.906 290.501 295.898 290.501 295.898C290.501 295.882 290.501 295.874 290.509 295.866C291.356 289.246 293.667 283.089 297.099 277.715C301.11 271.44 306.657 266.239 313.207 262.65C314.939 261.694 316.742 260.855 318.597 260.143C319.184 259.915 319.787 259.697 320.392 259.501C323.753 258.364 327.301 257.627 330.977 257.347C332.154 257.245 333.335 257.198 334.535 257.198C334.897 257.198 335.248 257.198 335.61 257.213C336.024 257.221 336.432 257.237 336.846 257.253C337.145 257.268 337.441 257.292 337.74 257.316C337.826 257.316 337.905 257.323 337.983 257.331C338.476 257.363 338.979 257.41 339.472 257.465C339.597 257.481 339.723 257.496 339.849 257.512C340.045 257.536 340.25 257.559 340.444 257.591C340.672 257.614 340.892 257.646 341.117 257.685C341.618 257.756 342.113 257.842 342.605 257.929C342.652 257.937 342.7 257.944 342.739 257.952C343.121 258.023 343.507 258.102 343.889 258.188C343.913 258.196 343.936 258.196 343.96 258.204C344.117 258.235 344.282 258.275 344.437 258.314C344.798 258.392 345.149 258.479 345.503 258.573C345.66 258.605 345.818 258.644 345.964 258.691C346.37 258.801 346.779 258.911 347.188 259.037C347.578 259.147 347.963 259.273 348.346 259.398C348.527 259.454 348.708 259.516 348.878 259.579C349.646 259.839 350.405 260.119 351.15 260.426C351.354 260.504 351.558 260.591 351.76 260.677C352.074 260.811 352.378 260.944 352.693 261.083C352.944 261.193 353.193 261.303 353.437 261.429C353.806 261.594 354.165 261.775 354.527 261.953C354.933 262.157 355.334 262.367 355.727 262.587C356.18 262.831 356.62 263.08 357.058 263.339C357.967 263.871 358.845 264.437 359.707 265.031C360.076 265.283 360.435 265.54 360.797 265.815C361.25 266.137 361.69 266.472 362.12 266.818C362.505 267.125 362.888 267.437 363.265 267.759C363.658 268.089 364.033 268.417 364.41 268.762C373.326 276.879 378.92 288.583 378.92 301.588C378.92 301.895 378.92 302.199 378.912 302.505C378.905 303.006 378.889 303.501 378.857 304.001C378.85 304.229 378.834 304.455 378.818 304.683C378.779 305.183 378.74 305.678 378.684 306.171C378.543 307.58 378.331 308.966 378.058 310.339C377.76 311.835 377.385 313.308 376.937 314.741C376.583 315.886 376.185 317.012 375.737 318.11C372.76 325.546 367.824 331.986 361.565 336.796C360.076 337.941 358.517 338.989 356.895 339.937C350.502 343.673 343.09 345.861 335.169 345.969C334.957 345.976 334.745 345.976 334.535 345.976C326.379 345.976 318.733 343.776 312.167 339.937C305.054 335.785 299.2 329.706 295.322 322.412C295.126 322.035 294.929 321.66 294.743 321.283L294.398 320.562C294.256 320.279 294.13 319.999 293.999 319.708L293.874 319.425C293.763 319.174 293.653 318.925 293.551 318.666L293.329 318.105Z" fill="#11272B"/>
<path opacity="0.1" d="M365.807 332.859C383.08 315.587 383.08 287.584 365.807 270.312C348.534 253.04 320.529 253.04 303.256 270.312C285.983 287.584 285.983 315.587 303.256 332.859C320.529 350.131 348.534 350.131 365.807 332.859Z" fill="#B8B8B8"/>
<path opacity="0.3" d="M364.408 268.754C364.408 268.754 306.804 261.615 295.325 322.407C292.021 316.197 290.148 309.11 290.148 301.586C290.148 277.073 310.022 257.2 334.536 257.2C346.041 257.2 356.521 261.576 364.408 268.754Z" fill="#869AC2"/>
<path d="M172.219 351.402L191.466 361.982L210.792 331.566L187.415 323.447L172.219 351.402Z" fill="#292C47"/>
<path d="M173.437 350.49L191.437 360.383L209.514 331.938L187.651 324.345L173.437 350.49Z" fill="#E6E7E7"/>
<path d="M166.848 345.169C166.848 345.169 170.199 343.568 171.669 342.73C173.139 341.892 176.922 340.744 177.226 340.469C177.533 340.196 188.438 339.523 189.1 338.952C189.763 338.381 190.405 340.291 187.578 340.909C184.751 341.527 180.818 343.042 180.601 344.147C180.383 345.253 183.504 345.512 183.821 346.424C184.138 347.333 183.732 347.129 183.286 347.325C182.838 347.519 179.576 345.714 178.143 346.225C176.707 346.739 174.514 346.029 173.416 346.403C172.316 346.781 166.971 348.578 166.971 348.578L166.848 345.169Z" fill="#EEA886"/>
<path d="M192.404 358.167C192.404 358.167 195.218 355.633 196.581 354.575C197.943 353.517 200.498 350.399 200.875 350.218C201.253 350.037 206.134 340.021 206.928 339.62C207.724 339.219 206.176 337.87 204.491 340.293C202.806 342.717 199.848 345.835 198.724 345.607C197.6 345.379 198.567 342.34 197.833 341.687C197.1 341.035 197.134 341.496 196.775 341.842C196.416 342.188 196.848 345.966 195.808 347.116C194.765 348.269 194.582 350.611 193.798 351.502C193.015 352.393 189.239 356.729 189.239 356.729L192.404 358.167Z" fill="#EEA886"/>
<path d="M131.793 493.545C131.793 493.545 131.185 497.771 131.109 498.405C131.033 499.039 124.336 498.03 124.336 498.03L123.793 493C123.793 493.003 130.957 492.95 131.793 493.545Z" fill="#424773"/>
<path d="M131.18 497.868C131.18 497.868 133.302 500.415 135.354 501.523C137.405 502.634 140.631 503.071 141.844 504.222C142.719 505.052 145.035 508.621 136.512 508.55C127.988 508.479 123.88 509.055 122.968 507.685C122.054 506.318 124.289 497.583 124.289 497.583C124.289 497.583 126.306 498.308 131.18 497.868Z" fill="#292C47"/>
<path d="M179.773 493.545C179.773 493.545 179.165 497.771 179.089 498.405C179.013 499.039 172.316 498.03 172.316 498.03L171.773 493C171.773 493.003 178.934 492.95 179.773 493.545Z" fill="#424773"/>
<path d="M179.159 497.868C179.159 497.868 181.282 500.415 183.333 501.523C185.385 502.634 192.936 503.543 194.149 504.693C195.024 505.524 196.481 508.862 184.491 508.547C175.971 508.324 171.86 509.053 170.948 507.683C170.033 506.315 172.268 497.58 172.268 497.58C172.268 497.58 174.168 498.358 179.159 497.868Z" fill="#292C47"/>
<path d="M137.337 384.972C137.337 384.972 131.046 394.967 131.515 404.004C131.984 413.04 129.233 422.905 128.29 432.344C127.236 442.866 122.924 467.78 122.766 473.408C122.609 479.035 123.435 497.011 123.435 497.011L132.065 497.208C132.065 497.208 139.315 453.655 141.194 449.212C143.073 444.768 152.382 413.087 152.696 409.532C153.011 405.977 137.337 384.972 137.337 384.972Z" fill="#292C47"/>
<path d="M170.46 386.327C170.46 386.327 175.203 411.094 175.829 416.622C176.455 422.153 176.872 443.385 177.186 446.841C177.498 450.297 179.272 492.073 180.941 497.208H169.905C169.905 497.208 161.434 466.839 161.434 452.471C161.434 438.103 154.889 421.236 150.665 411.754C146.442 402.275 136.771 402.049 134.174 384.461C134.172 384.461 166.944 380.749 170.46 386.327Z" fill="#292C47"/>
<path d="M147.838 300.931C147.838 300.931 156.283 297.776 160.177 304.206C164.07 310.635 163.695 323.504 159.438 325.087C155.18 326.669 148.787 325.841 146.607 321.82C144.427 317.798 142.459 311.982 142.554 308.096C142.65 304.208 145.619 302.052 147.838 300.931Z" fill="#EEA886"/>
<path d="M158.521 325.38C158.521 325.38 158.17 327.66 158.752 328.784C159.333 329.908 147.81 329.936 147.81 329.936C147.81 329.936 146.875 323.827 145.101 318.665C143.329 313.501 158.521 325.38 158.521 325.38Z" fill="#EEA886"/>
<path d="M145.1 318.665C145.1 318.665 145.894 319.978 149.141 319.467C152.387 318.959 156.346 314.638 157.703 314.164C159.058 313.69 159.071 312.893 159.071 312.893L159.92 314.133L161.358 314.224C161.358 314.224 160.045 310.36 162.026 308.785C164.007 307.21 159.97 296.282 149.56 299.919C149.56 299.919 141.563 302.122 141.854 306.671C142.147 311.219 143.311 316.399 145.1 318.665Z" fill="#3A3F47"/>
<path d="M159.435 328.647C159.435 328.647 159.398 326.502 158.426 326.295C157.454 326.088 147.689 325.15 146.494 325.619V328.118C146.494 328.121 148.795 329.536 159.435 328.647Z" fill="#E2D2CA"/>
<path d="M158.856 311.24C158.675 310.478 156.734 308.298 155.992 310.632C155.251 312.967 157.114 316.106 158.154 315.836C159.197 315.568 159.32 313.174 158.856 311.24Z" fill="#EEA886"/>
<path d="M198.19 354.004C198.184 354.001 198.179 354.001 198.174 354.004C198.24 354.03 198.25 354.033 198.19 354.004Z" fill="#323657"/>
<path d="M130.239 408.785C130.239 408.785 135.419 410.31 144.249 411.285C153.081 412.257 175.148 410.934 175.287 409.891C175.426 408.848 170.539 371.039 170.817 369.092C171.095 367.146 171.244 360.208 171.244 360.208C171.354 362.11 173.29 369.873 175.627 374.107C176.471 375.637 179.306 380.429 180.671 379.339C187.282 374.06 197.519 354.171 198.168 354.004C197.623 353.765 193.316 351.785 192.713 351.583C192.184 351.407 187.415 356.456 184.525 359.584C183.236 360.981 182.322 361.995 182.322 361.995C181.489 360.116 178.447 348.289 177.504 344.197C175.373 334.967 175.701 334.582 175.701 334.582C169.24 332.627 159.432 328.65 159.432 328.65L146.492 328.123C146.492 328.123 134.615 330.738 129.938 332.85C129.495 333.049 129.492 343.445 128.274 346.17L132.152 354.349C132.152 354.349 134.392 370.554 134.856 377.762C135.073 381.068 130.239 408.785 130.239 408.785Z" fill="#323657"/>
<path d="M127.739 359.663C128.077 360.753 129.613 361.675 130.609 362.078C131.248 362.335 131.961 362.419 132.681 362.285L133.187 362.191L142.056 360.546C142.056 360.546 143.997 338.2 129.94 332.844C129.568 332.968 124.635 349.657 127.739 359.663Z" fill="#323657"/>
<path d="M130.608 362.076C131.248 362.335 131.96 362.419 132.681 362.285L133.187 362.191L132.311 350.773L130.608 362.076Z" fill="#252840"/>
<path d="M182.324 361.992L183.409 366.582C183.409 366.582 184.585 361.976 184.528 359.584C183.239 360.978 182.324 361.992 182.324 361.992Z" fill="#252840"/>
<path d="M145.433 301.69C145.433 301.69 134.363 300.414 145.244 318.901L145.433 301.69Z" fill="#3A3F47"/>
<path d="M201.897 329.934L203.021 328.003L194.16 324.945L193.036 326.868L201.897 329.934Z" fill="#292C47"/>
<path d="M314.067 347.435C314.067 347.435 315.822 345.808 315.474 344.59C315.178 343.552 315.623 342.392 315.736 341.912C315.885 341.273 315.946 339.203 316.422 339.316C317.229 339.51 317.041 342.816 317.14 343.521C317.24 344.226 319.373 341.868 320.101 341.742C320.829 341.616 324.534 345.371 322.884 346.82C321.233 348.268 318.956 348.858 318.715 349.17C318.474 349.481 317.345 350.341 317.345 350.341L314.067 347.435Z" fill="#EEA987"/>
<path d="M319.635 341.991C319.635 341.991 324.985 337.891 325.569 337.917C326.154 337.943 326.361 338.244 325.876 338.648C325.391 339.051 320.822 342.759 320.822 342.759C320.822 342.759 327.969 338.97 328.452 338.886C328.734 338.836 328.949 339.379 328.711 339.617C328.473 339.858 321.82 344.04 321.82 344.04C321.82 344.04 328.499 340.513 328.926 340.566C329.298 340.61 329.565 341.226 329.088 341.522C328.611 341.818 322.596 345.439 322.596 345.439C322.596 345.439 327.618 343.178 327.954 343.435C328.158 343.589 328.446 343.932 327.134 344.475C325.818 345.017 322.96 346.749 322.96 346.749L319.635 341.991Z" fill="#EEA987"/>
<path d="M276.908 297.983C276.908 297.983 289.705 296.919 289.354 310.378C289.003 323.837 286.87 325.862 289.362 335.376C291.853 344.886 276.887 329.976 276.887 329.976L276.908 297.983Z" fill="#102D33"/>
<path d="M237.929 499.432C237.929 499.432 233.178 506.108 233.828 507.164C234.481 508.222 239.477 508.372 242.519 507.164C245.561 505.953 245.632 498.133 247.007 494.771C247.584 493.364 246.35 489.211 244.618 488.91C242.886 488.609 240.999 489.494 240.999 489.494C240.999 489.494 242.799 494.229 237.929 499.432Z" fill="#4F4F4F"/>
<path d="M240.97 489.439C240.97 489.439 239.972 492.282 239.605 494.996C239.301 497.247 236.22 502.026 236.364 502.631C236.508 503.236 240.42 503.784 242.013 502.225C243.606 500.666 244.631 496.134 244.982 493.424C245.309 490.899 245.721 489.652 245.721 489.652C245.721 489.652 242.49 487.778 240.97 489.439Z" fill="#EEA886"/>
<path d="M279.288 499.542C279.288 499.542 274.708 506.105 275.36 507.164C276.012 508.222 281.009 508.372 284.051 507.164C287.093 505.953 287.164 498.133 288.542 494.771C289.118 493.364 287.884 489.211 286.152 488.91C284.42 488.609 282.387 489.557 282.387 489.557C282.387 489.557 284.156 494.339 279.288 499.542Z" fill="#4F4F4F"/>
<path d="M282.382 489.557C282.382 489.557 282.02 492.657 281.441 494.847C280.862 497.038 277.749 502.026 277.894 502.631C278.038 503.236 281.949 503.784 283.543 502.225C285.136 500.666 286.367 496.155 286.511 493.425C286.655 490.695 286.15 488.913 286.15 488.913C286.15 488.913 283.904 487.896 282.382 489.557Z" fill="#EEA886"/>
<path d="M259.495 380.895C259.495 380.895 255.418 400.687 254.483 405.67C253.547 410.653 250.925 434.786 250.644 438.892C250.364 442.995 246.389 458.458 246.578 459.922C246.764 461.387 240.125 490.438 240.125 490.438C240.125 490.438 244.83 490.946 246.706 490.16C247.988 489.623 258.29 463.423 258.29 456.095C258.29 445.966 263.947 432.74 264.767 430.434C272.839 407.74 274.32 402.356 275.444 400.988C275.444 400.988 275.614 402.841 275.997 405.914C276.437 409.451 278.365 434.708 279.206 438.03C280.05 441.352 279.395 452.589 279.864 458.256C280.333 463.923 281.2 489.772 281.2 489.772C281.2 489.772 285.427 489.955 287.289 488.845C287.913 488.473 290.069 461.067 290.164 454.326C290.258 447.585 290.358 438.286 290.538 435.37C292.273 407.433 296.536 403.443 289.821 383.67C277.241 346.652 259.495 380.895 259.495 380.895Z" fill="#1F3A3E"/>
<path d="M247.136 494.184V501.172H246.269V495.772L247.136 494.184Z" fill="#4F4F4F"/>
<path d="M288.665 494.184V501.172H287.795V495.772L288.665 494.184Z" fill="#4F4F4F"/>
<path d="M271.584 333.798C271.584 333.798 272.708 331.155 273.546 328.186C273.586 328.045 273.622 327.903 273.659 327.762C273.759 327.374 273.85 326.984 273.934 326.596C273.981 326.376 274.023 326.156 274.065 325.936C274.361 324.301 274.445 322.737 274.068 321.621C272.829 317.955 281.847 320.494 281.847 320.494C281.847 320.494 280.099 330.188 281.847 333.458C283.589 336.73 271.584 333.798 271.584 333.798Z" fill="#EEA886"/>
<path d="M286.883 333.639C287.889 332.381 280.823 331.943 280.823 331.943L272.58 331.233C272.58 331.233 266.913 332.177 262.516 333.699C258.12 335.221 252.358 343.55 252.358 343.55C252.358 343.55 260.305 362.207 261.83 367.562C263.349 372.918 260.103 386.542 260.103 386.542C269.63 391.726 288.445 387.094 288.445 387.094C288.445 387.094 280.946 341.071 286.883 333.639Z" fill="#F5F5F5"/>
<path d="M290.242 356.129C290.242 356.129 289.873 356.909 288.856 359.991C287.821 351.342 288.361 346.841 288.361 346.841C288.476 351.46 290.242 356.129 290.242 356.129Z" fill="#CFBEB8"/>
<path d="M281.281 331.655L271.582 339.562L272.58 331.233C272.582 331.233 278.237 330.01 281.281 331.655Z" fill="#EEA886"/>
<path d="M287.683 364.968C286.349 370.499 293.096 387.815 293.096 387.815L281.706 391.672C280.296 392.148 278.795 391.26 278.536 389.798C277.252 382.596 273.922 363.284 273.544 354.722C273.075 344.084 280.821 331.535 280.821 331.535C294.587 333.895 290.814 354.722 290.814 354.722C290.814 354.722 290.313 356.034 289.645 358.083C289.645 358.083 289.645 358.083 289.645 358.086C289.477 358.599 289.299 359.163 289.113 359.763C288.644 361.3 288.139 363.087 287.683 364.968Z" fill="#2B555D"/>
<path d="M271.607 331.687L271.778 331.231C271.778 331.231 264.727 332.303 261.145 334.092C257.564 335.881 250.704 345.127 250.704 345.127L259.675 356.972C259.686 366.074 256.51 387.43 256.51 387.43L262.746 389.979C263.718 390.377 264.785 389.673 264.8 388.625C264.9 382.124 265.204 362.873 265.356 355.361C265.542 346.259 272.037 331.538 272.037 331.538C271.888 331.585 271.746 331.634 271.607 331.687Z" fill="#2B555D"/>
<path d="M258.824 374.364C258.824 374.364 265.589 374.626 266.64 374.364C267.693 374.102 274.712 371.057 275.132 368.05C275.553 365.045 258.821 370.746 258.821 370.746V374.364H258.824Z" fill="#EEA886"/>
<path d="M279.814 364.968L252.36 361.756L264.761 371.846L279.814 364.968Z" fill="#838585"/>
<path d="M264.762 371.846L279.814 366.716V364.969L264.256 369.96L264.762 371.846Z" fill="#C4C4C4"/>
<path d="M273.088 329.696L267.874 337.969L265.351 339.56L271.231 331.32L273.088 329.696Z" fill="white"/>
<path d="M267.874 337.969L271.582 339.56L272.582 331.233L273.088 329.696L267.874 337.969Z" fill="#F5F5F5"/>
<path d="M259.652 370.494C259.652 370.494 259.369 373.989 259.652 374.723C259.652 374.723 242.724 373.03 241.144 370.664C239.566 368.296 239.621 365.422 239.621 365.422L259.652 370.494Z" fill="#2B555D"/>
<path d="M264.761 371.846L256.757 342.085L226.319 338.871L234.661 366.265L264.761 371.846Z" fill="#E6E7E7"/>
<path d="M304.215 354.832C305.743 353.571 306.639 353.11 308.478 351.525C311.342 349.06 315.002 345.939 315.002 345.939L318.482 351.046C318.482 351.046 310.068 358.442 305.599 362.83C305.599 362.83 299.939 368.906 298.674 368.369C297.408 367.832 292.899 361.293 289.296 355.005C285.693 348.719 284.079 344.703 283.899 341.967C283.718 339.232 292.781 337.912 292.781 337.912L299.876 353.409C299.876 353.409 301.139 355.625 301.781 356.296C301.784 356.299 303.379 355.392 304.215 354.832Z" fill="#2B555D"/>
<path d="M278.161 299.348C274.988 298.829 267.733 299.623 265.676 307.952C265.676 307.952 265.671 310.26 266.019 312.113C266.368 313.965 264.159 319.061 264.549 319.37C264.937 319.679 266.63 320.208 266.63 320.208C266.63 320.208 267.83 326.187 269.86 326.371C271.891 326.551 279.736 325.847 284.166 319.084C288.594 312.322 290.968 301.444 278.161 299.348Z" fill="#EEA886"/>
<path d="M265.676 307.952C265.676 307.952 270.45 312.073 275.506 313.373C280.563 314.672 283.241 320.352 283.241 320.352C283.241 320.352 292.186 311.429 286.789 302.77C281.386 294.111 265.684 297.972 265.676 307.952Z" fill="#102D33"/>
<path d="M276.434 313.669C276.434 313.669 281.727 327.56 281.108 330.906C281.108 330.906 283.723 330.453 288.599 331.944C288.599 331.944 286.244 307.132 276.434 313.669Z" fill="#102D33"/>
<path d="M274.385 338.218L271.582 339.56L281.108 330.117L274.385 338.218Z" fill="#F5F5F5"/>
<path d="M281.108 330.117L274.385 338.218L278.064 341.499L282.036 331.802L281.108 330.117Z" fill="white"/>
<path d="M279.264 323.824C279.219 323.895 277.762 326.161 273.657 327.762C273.756 327.374 273.848 326.984 273.932 326.596C273.979 326.376 274.021 326.156 274.063 325.936C274.06 325.939 277.459 325.108 279.264 323.824Z" fill="#A77860"/>
<path d="M246.501 354.528C247.348 356.121 247.335 357.785 246.47 358.243C245.605 358.702 244.219 357.782 243.373 356.189C242.527 354.596 242.54 352.932 243.404 352.474C244.269 352.015 245.655 352.935 246.501 354.528Z" fill="#5EC8D9"/>
<path d="M282.036 331.802C282.036 331.802 290.9 330.599 293.486 339.882C293.483 339.879 282.209 338.669 282.036 331.802Z" fill="#2B555D"/>
<path d="M559.405 237H440.315C434.831 237 430.388 232.556 430.388 227.073V85.5561C430.388 80.0724 434.831 75.6289 440.315 75.6289H559.405C564.889 75.6289 569.333 80.0724 569.333 85.5561V227.07C569.333 232.554 564.889 237 559.405 237Z" fill="#F5F5F5"/>
<path d="M514.738 142.562C509.422 127.699 495.216 118.568 480.242 119.019C476.618 119.129 472.947 119.797 469.347 121.086C458.442 124.987 450.621 133.672 447.409 143.935C445.182 151.048 445.169 158.916 447.873 166.475C448.14 167.227 448.433 167.965 448.748 168.689C450.17 171.964 452.036 174.924 454.253 177.526C463.543 188.449 478.963 193.065 493.266 187.951C511.728 181.348 521.341 161.028 514.738 142.562ZM490.269 179.585C479.545 183.421 467.987 179.96 461.02 171.77C459.359 169.818 457.96 167.599 456.894 165.141C456.658 164.599 456.44 164.046 456.236 163.48C454.208 157.813 454.221 151.913 455.89 146.581C458.298 138.886 464.162 132.373 472.339 129.449C475.038 128.482 477.789 127.982 480.509 127.898C491.733 127.56 502.387 134.403 506.372 145.549C511.322 159.398 504.114 174.633 490.269 179.585Z" fill="#5EC8D9"/>
<path d="M455.889 146.584L447.405 143.935C450.618 133.672 458.439 124.987 469.344 121.086C472.944 119.797 476.614 119.129 480.238 119.019L480.503 127.903C477.786 127.987 475.035 128.487 472.333 129.454C464.161 132.375 458.3 138.889 455.889 146.584Z" fill="#2B555D"/>
<path d="M456.893 165.141L448.744 168.689C448.43 167.965 448.139 167.227 447.869 166.475C445.165 158.916 445.181 151.048 447.405 143.935L455.889 146.584C454.22 151.915 454.21 157.816 456.235 163.483C456.44 164.046 456.657 164.599 456.893 165.141Z" fill="#488D9A"/>
<path d="M454.249 177.526C452.032 174.922 450.167 171.961 448.744 168.689L456.893 165.141C457.956 167.596 459.358 169.818 461.019 171.77L454.249 177.526Z" fill="#53ABB9"/>
<path d="M545.524 164.25C539.621 161.457 532.796 162.943 528.548 167.455C527.521 168.547 526.644 169.815 525.965 171.246C523.916 175.577 524.17 180.405 526.232 184.346C527.66 187.078 529.958 189.384 532.961 190.804C533.259 190.946 533.561 191.077 533.865 191.197C535.238 191.739 536.65 192.059 538.059 192.172C543.973 192.649 549.832 189.489 552.52 183.811C555.989 176.475 552.858 167.719 545.524 164.25ZM549.198 182.237C547.183 186.494 542.789 188.863 538.355 188.506C537.3 188.42 536.238 188.181 535.211 187.775C534.983 187.686 534.758 187.587 534.533 187.482C532.282 186.418 530.561 184.689 529.489 182.64C527.943 179.685 527.752 176.064 529.29 172.818C529.798 171.746 530.456 170.795 531.226 169.975C534.41 166.593 539.529 165.479 543.955 167.572C549.449 170.174 551.797 176.74 549.198 182.237Z" fill="#5EC8D9"/>
<path d="M529.489 182.64L526.232 184.346C524.17 180.405 523.916 175.577 525.965 171.246C526.641 169.815 527.519 168.547 528.548 167.455L531.224 169.975C530.453 170.795 529.796 171.746 529.287 172.818C527.752 176.064 527.943 179.685 529.489 182.64Z" fill="#2B555D"/>
<path d="M535.209 187.775L533.862 191.197C533.558 191.077 533.257 190.946 532.958 190.804C529.955 189.384 527.657 187.078 526.229 184.346L529.486 182.64C530.558 184.689 532.279 186.416 534.53 187.482C534.755 187.587 534.983 187.684 535.209 187.775Z" fill="#488D9A"/>
<path d="M534.729 201.85H507.302V201.305H534.184V190.943H534.729V201.85Z" fill="#E2F3FE"/>
<path d="M471.954 195.633H447.408V198.903H471.954V195.633Z" fill="#5EC8D9"/>
<path d="M521.739 195.633H507.302V198.903H521.739V195.633Z" fill="#5EC8D9"/>
<path d="M453.594 89.481H441.846V91.9909H453.594V89.481Z" fill="#5EC8D9"/>
<path d="M509.044 98.9338H490.818V101.444H509.044V98.9338Z" fill="#5EC8D9"/>
<path d="M478.381 98.9338H467.253V101.444H478.381V98.9338Z" fill="#5EC8D9"/>
<path d="M463.889 98.9338H441.846V101.444H463.889V98.9338Z" fill="#5EC8D9"/>
<path d="M474.576 89.481H457.171V91.9909H474.576V89.481Z" fill="#5EC8D9"/>
<path d="M486.645 98.9338H481.863V101.444H486.645V98.9338Z" fill="#5EC8D9"/>
<path d="M509.047 89.6196H496.043V92.1296H509.047V89.6196Z" fill="#5EC8D9"/>
<path d="M524.772 98.9338H513.684V101.444H524.772V98.9338Z" fill="#5EC8D9"/>
<path d="M492.642 89.6196H478.857V92.1296H492.642V89.6196Z" fill="#5EC8D9"/>
<path d="M510.789 252.154H488.932C485.272 252.154 482.306 249.188 482.306 245.528V223.672C482.306 220.012 485.272 217.046 488.932 217.046H510.789C514.449 217.046 517.415 220.012 517.415 223.672V245.528C517.415 249.188 514.449 252.154 510.789 252.154Z" fill="white"/>
<path d="M501.522 227.615H498.199V241.585H501.522V227.615Z" fill="#C5CCD1"/>
<path d="M506.845 236.262V232.94H492.875V236.262H506.845Z" fill="#C5CCD1"/>
<path d="M623.038 84.6468L593.373 54.9858L579.292 69.0656L578.511 68.2849L593.373 53.4216L623.818 83.866L623.038 84.6468Z" fill="#488D9A"/>
<defs>
<linearGradient id="paint0_linear" x1="364.06" y1="68.0439" x2="364" y2="504" gradientUnits="userSpaceOnUse">
<stop stop-color="#5EC8D9"/>
<stop offset="0.1875" stop-color="#53ABB9"/>
<stop offset="0.503806" stop-color="#488D9A"/>
<stop offset="0.74064" stop-color="#396F7A"/>
<stop offset="0.979167" stop-color="#22252A"/>
</linearGradient>
</defs>
</svg>
