<svg width="698" height="550" viewBox="0 0 698 550" fill="none" xmlns="http://www.w3.org/2000/svg">
<path d="M698 0H0V550H698V0Z" fill="white"/>
<path d="M199.637 237.355C206.551 252.453 210.434 266.739 205.344 273.111C205.042 273.487 204.715 273.831 204.361 274.147C200.439 277.604 192.729 277.681 179.709 272.536C145.061 258.838 143.418 235.202 136.408 212.119C129.5 189.324 105.368 193.177 104.752 193.278C160.98 173.676 187.909 211.761 199.637 237.355Z" fill="#22252A"/>
<path d="M199.637 237.355C206.551 252.453 210.434 266.739 205.344 273.111C205.042 273.487 204.715 273.831 204.361 274.147C200.439 277.604 192.729 277.681 179.709 272.536C145.061 258.838 143.418 235.202 136.408 212.119C129.5 189.324 105.368 193.177 104.752 193.278C160.98 173.676 187.909 211.761 199.637 237.355Z" fill="url(#paint0_linear)"/>
<path d="M205.342 273.111C205.039 273.488 204.712 273.831 204.358 274.148C197.848 270.223 185.386 261.905 179.511 252.566C176.739 248.157 174.411 243.202 171.941 237.96C167.281 228.044 162.45 217.789 154.022 209.924L154.962 208.909C163.582 216.961 168.462 227.334 173.186 237.372C175.634 242.578 177.945 247.495 180.679 251.829C186.409 260.937 198.999 269.288 205.342 273.111Z" fill="white"/>
<path d="M193.616 243.524C193.21 244.527 192.946 245.097 192.915 245.16C192.808 244.604 192.707 244.054 192.599 243.524C187.978 219.821 181.798 217.346 163.263 196.614C144.311 175.409 155.209 155.656 155.209 155.656C218.707 174.015 197.93 232.928 193.616 243.524Z" fill="#22252A"/>
<path d="M193.616 243.524C193.21 244.527 192.946 245.097 192.915 245.16C192.808 244.604 192.707 244.054 192.599 243.524C187.978 219.821 181.798 217.346 163.263 196.614C144.311 175.409 155.209 155.656 155.209 155.656C218.707 174.015 197.93 232.928 193.616 243.524Z" fill="url(#paint1_linear)"/>
<path d="M193.616 243.523C193.209 244.527 192.946 245.096 192.915 245.16C192.808 244.604 192.707 244.054 192.599 243.523C194.655 223.033 182.306 198.99 178.423 194.678C174.408 190.209 171.932 184.066 170.998 181.75C170.842 181.365 170.693 181 170.646 180.914L171.542 180.408C171.622 180.549 171.724 180.802 171.952 181.365C172.864 183.634 175.296 189.654 179.19 193.982C184.108 199.455 195.504 223.613 193.616 243.523Z" fill="white"/>
<path d="M553.727 146.096L545.901 133.273C545.261 132.223 545.591 130.848 546.64 130.207C547.69 129.566 549.064 129.896 549.704 130.947L555.239 140.014L569.951 131.299C571.011 130.672 572.377 131.021 573.004 132.083C573.63 133.144 573.281 134.511 572.221 135.138L553.727 146.096Z" fill="#C4C4C4"/>
<path d="M558.981 165.861C543.464 165.861 530.837 153.227 530.837 137.695C530.837 122.163 543.461 109.53 558.981 109.53C574.499 109.53 587.122 122.163 587.122 137.695C587.122 153.227 574.501 165.861 558.981 165.861ZM558.981 113.556C545.679 113.556 534.858 124.385 534.858 137.695C534.858 151.005 545.679 161.835 558.981 161.835C572.281 161.835 583.102 151.005 583.102 137.695C583.102 124.385 572.284 113.556 558.981 113.556Z" fill="#C4C4C4"/>
<path d="M466.572 104.673L461.736 96.7505C461.34 96.1015 461.544 95.2518 462.195 94.8558C462.843 94.4598 463.693 94.6633 464.088 95.315L467.509 100.92L476.599 95.535C477.253 95.1473 478.1 95.3645 478.487 96.019C478.875 96.6735 478.657 97.5205 478.004 97.9083L466.572 104.673Z" fill="#C4C4C4"/>
<path d="M469.821 116.886C460.23 116.886 452.429 109.079 452.429 99.4812C452.429 89.8837 460.23 82.0765 469.821 82.0765C479.411 82.0765 487.212 89.8837 487.212 99.4812C487.212 109.079 479.411 116.886 469.821 116.886ZM469.821 84.5625C461.602 84.5625 454.913 91.256 454.913 99.4812C454.913 107.706 461.602 114.4 469.821 114.4C478.04 114.4 484.728 107.706 484.728 99.4812C484.728 91.256 478.04 84.5625 469.821 84.5625Z" fill="#C4C4C4"/>
<path d="M377.143 75.4243L369.723 63.2693C369.116 62.2738 369.429 60.9703 370.424 60.3625C371.419 59.7548 372.721 60.0683 373.328 61.0638L378.574 69.6603L392.52 61.3993C393.525 60.8053 394.82 61.138 395.413 62.1418C396.007 63.1483 395.674 64.4435 394.671 65.0375L377.143 75.4243Z" fill="#C4C4C4"/>
<path d="M382.122 94.1627C367.412 94.1627 355.442 82.1865 355.442 67.463C355.442 52.7422 367.409 40.7632 382.122 40.7632C396.831 40.7632 408.801 52.7395 408.801 67.463C408.801 82.1865 396.831 94.1627 382.122 94.1627ZM382.122 44.5775C369.512 44.5775 359.254 54.8432 359.254 67.463C359.254 80.0827 369.512 90.3485 382.122 90.3485C394.732 90.3485 404.99 80.0827 404.99 67.463C404.99 54.846 394.732 44.5775 382.122 44.5775Z" fill="#C4C4C4"/>
<path d="M298.677 104.561L293.775 96.5278C293.373 95.8678 293.579 95.0097 294.239 94.6055C294.896 94.204 295.756 94.4102 296.16 95.0702L299.625 100.749L308.841 95.2903C309.506 94.897 310.361 95.117 310.754 95.7798C311.147 96.4453 310.927 97.3005 310.262 97.6938L298.677 104.561Z" fill="#C4C4C4"/>
<path d="M301.969 116.944C292.247 116.944 284.341 109.029 284.341 99.3025C284.341 89.5758 292.249 81.6613 301.969 81.6613C311.688 81.6613 319.596 89.5758 319.596 99.3025C319.596 109.029 311.688 116.944 301.969 116.944ZM301.969 84.1775C293.637 84.1775 286.858 90.9618 286.858 99.2997C286.858 107.638 293.637 114.422 301.969 114.422C310.3 114.422 317.079 107.638 317.079 99.2997C317.076 90.9618 310.3 84.1775 301.969 84.1775Z" fill="#C4C4C4"/>
<path d="M229.809 65.9808L223.673 55.9268C223.17 55.1018 223.428 54.0265 224.253 53.5233C225.077 53.02 226.151 53.2813 226.654 54.1035L230.993 61.215L242.529 54.3813C243.359 53.889 244.43 54.164 244.922 54.9945C245.414 55.825 245.139 56.8975 244.309 57.3898L229.809 65.9808Z" fill="#C4C4C4"/>
<path d="M233.931 81.4798C221.763 81.4798 211.862 71.5715 211.862 59.3945C211.862 47.2175 221.763 37.3093 233.931 37.3093C246.098 37.3093 255.999 47.2175 255.999 59.3945C255.999 71.5715 246.098 81.4798 233.931 81.4798ZM233.931 40.4635C223.5 40.4635 215.014 48.9555 215.014 59.3945C215.014 69.8335 223.5 78.3255 233.931 78.3255C244.362 78.3255 252.847 69.8335 252.847 59.3945C252.844 48.9555 244.359 40.4635 233.931 40.4635Z" fill="#C4C4C4"/>
<path d="M151.642 115.965L144.838 104.819C144.281 103.906 144.569 102.713 145.481 102.154C146.394 101.596 147.586 101.885 148.144 102.798L152.956 110.679L165.744 103.103C166.665 102.559 167.855 102.861 168.399 103.785C168.943 104.706 168.638 105.897 167.717 106.442L151.642 115.965Z" fill="#C4C4C4"/>
<path d="M156.209 133.147C142.72 133.147 131.742 122.163 131.742 108.664C131.742 95.1638 142.717 84.1803 156.209 84.1803C169.699 84.1803 180.674 95.1638 180.674 108.664C180.677 122.163 169.702 133.147 156.209 133.147ZM156.209 87.6756C144.646 87.6756 135.238 97.0888 135.238 108.664C135.238 120.236 144.644 129.652 156.209 129.652C167.773 129.652 177.181 120.236 177.181 108.664C177.181 97.0916 167.773 87.6756 156.209 87.6756Z" fill="#C4C4C4"/>
<path d="M524.883 70.1305L521.014 63.7917C520.695 63.272 520.86 62.5927 521.379 62.2765C521.898 61.9602 522.577 62.1225 522.893 62.6422L525.63 67.1247L532.901 62.8182C533.426 62.5075 534.102 62.6807 534.409 63.206C534.72 63.7312 534.547 64.4077 534.022 64.7157L524.883 70.1305Z" fill="#C4C4C4"/>
<path d="M527.479 79.9012C519.807 79.9012 513.567 73.656 513.567 65.978C513.567 58.3 519.807 52.0547 527.479 52.0547C535.151 52.0547 541.392 58.3 541.392 65.978C541.392 73.656 535.151 79.9012 527.479 79.9012ZM527.479 54.0458C520.904 54.0458 515.556 59.4 515.556 65.9807C515.556 72.5615 520.906 77.913 527.479 77.913C534.055 77.913 539.405 72.5587 539.405 65.9807C539.405 59.4 534.055 54.0458 527.479 54.0458Z" fill="#C4C4C4"/>
<path d="M330.202 456.429H368.573V339.796H330.202V456.429Z" fill="#838585"/>
<path d="M200.577 395.978H498.201C507.508 395.978 515.054 388.427 515.054 379.112V178.929C515.054 169.615 507.508 162.063 498.201 162.063H200.577C191.27 162.063 183.724 169.615 183.724 178.929V379.112C183.724 388.429 191.27 395.978 200.577 395.978Z" fill="#838585"/>
<path d="M196.701 359.322L502.077 359.322V137.168L196.701 137.168V359.322Z" fill="white"/>
<path d="M196.699 164.002H502.075V137.17H196.699V164.002Z" fill="#5EC8D9"/>
<path d="M464.913 376.095C464.913 382.002 470.538 386.79 477.479 386.79C484.42 386.79 490.045 382.002 490.045 376.095C490.045 370.189 484.418 365.401 477.479 365.401C470.541 365.401 464.913 370.189 464.913 376.095Z" fill="#838585"/>
<path d="M435.7 452.029H263.078V460.831H435.7V452.029Z" fill="#838585"/>
<path d="M249.368 155.656H213.096C211.085 155.656 209.455 154.025 209.455 152.012V149.16C209.455 147.147 211.085 145.516 213.096 145.516H249.368C251.38 145.516 253.009 147.147 253.009 149.16V152.009C253.009 154.022 251.38 155.656 249.368 155.656Z" fill="#F5F7FF"/>
<path d="M378.956 257.491H219.073V262.991H378.956V257.491Z" fill="#E6E6E6"/>
<path d="M337.658 267.396H219.073V272.896H337.658V267.396Z" fill="#E6E6E6"/>
<path d="M294.263 288.923H219.073V294.423H294.263V288.923Z" fill="#E6E6E6"/>
<path d="M354.159 298.829H219.073V304.329H354.159V298.829Z" fill="#E6E6E6"/>
<path d="M345.621 322.495H219.073V327.995H345.621V322.495Z" fill="#E6E6E6"/>
<path d="M373.603 332.401H219.073V337.901H373.603V332.401Z" fill="#E6E6E6"/>
<path d="M215.289 257.491H211.271V272.896H215.289V257.491Z" fill="#78C2FF"/>
<path d="M215.289 288.923H211.271V304.329H215.289V288.923Z" fill="#78C2FF"/>
<path d="M215.289 322.495H211.271V337.901H215.289V322.495Z" fill="#78C2FF"/>
<path d="M432.056 344.839H419.251C416.707 344.839 414.643 342.774 414.643 340.227V327.412C414.643 324.866 416.707 322.8 419.251 322.8H432.056C434.601 322.8 436.665 324.866 436.665 327.412V340.227C436.665 342.774 434.601 344.839 432.056 344.839Z" fill="#5EC8D9"/>
<path d="M424.956 338.674L419.389 333.817C418.933 333.418 418.886 332.725 419.282 332.269C419.68 331.812 420.373 331.766 420.829 332.162L424.766 335.596L430.38 329.329C430.784 328.878 431.477 328.84 431.927 329.244C432.378 329.648 432.417 330.341 432.013 330.792L424.956 338.674Z" fill="#F3F3F3"/>
<path d="M431.655 311.275H419.649C416.882 311.275 414.632 309.023 414.632 306.254V294.239C414.632 291.47 416.882 289.215 419.649 289.215H431.655C434.422 289.215 436.673 291.467 436.673 294.239V306.254C436.675 309.023 434.425 311.275 431.655 311.275ZM419.649 290.615C417.652 290.615 416.03 292.24 416.03 294.239V306.254C416.03 308.253 417.655 309.878 419.649 309.878H431.655C433.653 309.878 435.274 308.253 435.274 306.254V294.239C435.274 292.24 433.65 290.615 431.655 290.615H419.649Z" fill="#78C2FF"/>
<path d="M464.814 344.85H452.808C450.041 344.85 447.788 342.598 447.788 339.828V327.814C447.788 325.044 450.039 322.792 452.808 322.792H464.814C467.581 322.792 469.832 325.044 469.832 327.814V339.828C469.832 342.598 467.581 344.85 464.814 344.85ZM452.806 324.189C450.808 324.189 449.184 325.814 449.184 327.814V339.828C449.184 341.828 450.808 343.453 452.806 343.453H464.811C466.809 343.453 468.43 341.828 468.43 339.828V327.814C468.43 325.814 466.806 324.189 464.811 324.189H452.806Z" fill="#78C2FF"/>
<path d="M465.212 311.264H452.407C449.863 311.264 447.799 309.199 447.799 306.653V293.838C447.799 291.291 449.863 289.226 452.407 289.226H465.212C467.757 289.226 469.82 291.291 469.82 293.838V306.653C469.82 309.199 467.757 311.264 465.212 311.264Z" fill="#5EC8D9"/>
<path d="M458.112 305.099L452.545 300.242C452.088 299.844 452.042 299.151 452.437 298.694C452.836 298.238 453.528 298.191 453.984 298.587L457.922 302.022L463.536 295.754C463.94 295.303 464.633 295.265 465.083 295.669C465.534 296.073 465.572 296.766 465.168 297.217L458.112 305.099Z" fill="#F3F3F3"/>
<path d="M464.814 277.701H452.808C450.041 277.701 447.788 275.448 447.788 272.679V260.664C447.788 257.895 450.039 255.64 452.808 255.64H464.814C467.581 255.64 469.832 257.892 469.832 260.664V272.679C469.832 275.448 467.581 277.701 464.814 277.701ZM452.806 257.04C450.808 257.04 449.184 258.665 449.184 260.664V272.679C449.184 274.678 450.808 276.304 452.806 276.304H464.811C466.809 276.304 468.43 274.678 468.43 272.679V260.664C468.43 258.665 466.806 257.04 464.811 257.04H452.806Z" fill="#78C2FF"/>
<path d="M432.056 277.69H419.251C416.707 277.69 414.643 275.624 414.643 273.078V260.263C414.643 257.716 416.707 255.651 419.251 255.651H432.056C434.601 255.651 436.665 257.716 436.665 260.263V273.078C436.665 275.624 434.601 277.69 432.056 277.69Z" fill="#5EC8D9"/>
<path d="M424.956 271.524L419.389 266.668C418.933 266.269 418.886 265.576 419.282 265.119C419.68 264.663 420.373 264.616 420.829 265.012L424.766 268.447L430.38 262.18C430.784 261.729 431.477 261.69 431.927 262.094C432.378 262.499 432.417 263.192 432.013 263.645L424.956 271.524Z" fill="#F3F3F3"/>
<path d="M161.285 285.887C156.086 283.399 150.911 299.962 150.911 299.962C142.074 311.647 129.728 296.101 130.934 313.569C133.047 344.135 95.7804 323.18 112.971 355.091C130.165 387.002 97.7892 373.134 108.476 398.866C119.159 424.597 105.313 455.285 121.388 442.673C121.388 442.673 135.542 411.606 150.142 401.995C164.741 392.384 141.395 380.98 145.962 367.925C152.596 348.964 168.58 349.709 157.056 329.332C145.534 308.954 178.956 294.344 161.285 285.887Z" fill="url(#paint2_linear)"/>
<path d="M116.299 430.98C123.268 426.077 131.423 391.897 131.91 371.539C132.16 361.111 135.24 356.766 137.958 352.932C140.555 349.269 142.8 346.104 141.492 338.839C138.994 324.954 145.561 318.959 145.627 318.901L144.866 318.035C144.575 318.291 137.735 324.473 140.357 339.045C141.577 345.835 139.565 348.673 137.018 352.267C134.344 356.037 131.017 360.731 130.758 371.511C130.236 393.36 121.899 425.631 115.637 430.037L116.299 430.98Z" fill="white"/>
<path d="M101.691 421.011C101.034 419.518 100.353 417.975 99.5835 416.347C95.6018 407.938 92.0763 406.552 86.2343 404.258C84.8054 403.697 83.1896 403.062 81.4117 402.262C73.0417 398.497 74.6629 392.95 76.0918 388.058C76.2924 387.373 76.4903 386.691 76.6634 386.015C77.3998 383.136 75.9846 381.692 73.844 379.506C72.253 377.88 70.2718 375.859 68.7467 372.666C67.076 369.171 67.9278 367.298 68.9363 366.341C71.0604 364.328 75.9544 364.7 80.5764 367.224C82.0135 368.008 83.1951 369.248 84.4454 370.56C87.3911 373.648 91.0596 377.49 100.334 377.534C105.623 377.559 108.52 378.29 110.02 379.976C111.724 381.89 111.402 384.755 110.957 388.724C110.803 390.096 110.63 391.65 110.523 393.33C109.891 403.354 115.804 410.586 115.865 410.655C119.399 414.865 123.751 423.599 121.872 428.975C121.083 431.228 119.324 432.647 116.637 433.191C115.565 433.408 114.59 433.51 113.691 433.51C107.206 433.516 104.832 428.131 101.691 421.011ZM80.0268 368.239C75.8995 365.984 71.4726 365.53 69.7304 367.18C68.406 368.437 69.0325 370.587 69.7882 372.169C71.2308 375.188 73.0581 377.053 74.6684 378.7C76.9079 380.988 78.6776 382.795 77.779 386.301C77.6032 386.988 77.3998 387.684 77.1965 388.38C75.7731 393.253 74.4293 397.856 81.8816 401.209C83.632 401.995 85.2368 402.625 86.652 403.183C92.5489 405.499 96.4454 407.03 100.622 415.852C101.4 417.494 102.084 419.045 102.744 420.544C106.349 428.72 108.525 433.656 116.406 432.061C118.665 431.604 120.138 430.438 120.781 428.596C122.435 423.858 118.475 415.564 114.977 411.397C114.722 411.089 108.709 403.755 109.369 393.258C109.476 391.551 109.652 389.98 109.808 388.594C110.221 384.923 110.517 382.272 109.154 380.743C107.91 379.343 105.186 378.711 100.325 378.686C90.5622 378.639 86.7069 374.6 83.61 371.355C82.3762 370.059 81.3046 368.937 80.0268 368.239Z" fill="url(#paint3_linear)"/>
<path d="M116.513 440.173L117.665 440.113C117.607 439.032 116.156 413.523 105.923 406.06C94.6951 397.87 91.1559 389.067 89.4714 383.16C87.4847 376.2 77.3752 374.338 76.9438 374.261L76.7432 375.397C76.8421 375.414 86.5751 377.209 88.3612 383.477C90.0952 389.549 93.7279 398.591 105.244 406.992C115.038 414.136 116.5 439.915 116.513 440.173Z" fill="url(#paint4_linear)"/>
<path d="M93.1149 311.627C100.389 309.13 98.8773 323.161 101.952 333.542C105.024 343.923 136.144 338.071 123.081 364.064C110.017 390.057 139.601 372.757 130.764 395.442C121.927 418.127 129.994 442.384 120.391 436.216C110.787 430.045 114.994 401.481 105.005 398.087C95.0165 394.694 93.387 390.734 103.277 381.508C113.166 372.281 77.3613 363.121 86.1985 344.487C95.0357 325.853 84.7119 314.509 93.1149 311.627Z" fill="url(#paint5_linear)"/>
<path d="M115.936 435.127C116.851 431.244 124.664 397.07 117.373 392.939C110.949 389.298 111.108 375.139 112.108 361.765C112.996 349.929 97.8057 344.396 97.1572 344.165L96.7725 345.252C96.9236 345.304 111.781 350.721 110.96 361.677C109.929 375.411 109.819 389.983 116.805 393.94C122.339 397.078 117.244 424.542 114.812 434.86L115.936 435.127Z" fill="white"/>
<path d="M143.38 422.958L132.995 462.388H109.787L99.4023 422.958H143.38Z" fill="#B6B6B6"/>
<path d="M143.38 422.958C143.38 422.958 120.517 427.254 120.517 462.388H109.787L99.4023 422.958H143.38Z" fill="#C4C4C4"/>
<path d="M325.257 396.792C325.257 396.792 326.056 398.101 326.155 399.171C326.235 400.018 326.947 401.283 327.254 401.981C327.562 402.68 328.554 405.842 328.59 406.667C328.603 407.003 327.853 409.126 327.96 409.802C328.068 410.479 328.455 411.826 327.845 411.914C327.235 412.005 326.545 410.902 326.545 410.902C326.545 410.902 326.603 411.527 326.086 411.766C325.086 412.231 324.556 411.821 324.556 411.821C324.556 411.821 324.188 412.508 323.723 412.599C322.701 412.803 322.201 412.393 322.201 412.393C322.201 412.393 321.75 412.778 321.044 412.764C320.14 412.748 319.761 411.964 319.761 411.964C319.761 411.964 318.615 412.195 318.285 411.661C317.953 411.128 318.01 410.556 317.873 410.072C317.736 409.588 317.84 405.215 319.324 402.064C320.808 398.915 318.945 395.843 318.945 395.843L325.257 396.792Z" fill="#EEA886"/>
<path d="M326.708 410.493C326.708 410.493 326.809 406.568 325.779 405.732C324.748 404.896 324.63 406.313 324.63 406.313C324.63 406.313 324.77 404.913 323.644 404.723C322.517 404.533 322.468 406.197 322.468 406.197C322.468 406.197 322.283 405.119 321.099 405.339C319.915 405.562 320.198 406.94 320.198 406.94C320.198 406.94 319.066 405.589 318.332 406.887C317.093 409.076 318.288 411.664 318.288 411.664C318.288 411.664 318.637 412.258 319.764 411.967C319.764 411.967 320.517 413.487 322.204 412.393C322.204 412.393 323.932 413.344 324.561 411.821C324.559 411.821 326.46 412.726 326.708 410.493Z" fill="#DB9C7C"/>
<path d="M338.559 340.263C338.559 340.263 331.846 362.651 329.579 370.912C328.867 373.502 327.147 398.236 326.842 399.231C326.537 400.227 318.024 401.591 318.024 401.591C318.024 401.591 319.054 370.648 319.151 368.959C319.247 367.271 328.546 332.717 331.25 331.485C333.275 330.561 334.344 331.325 336.896 333.223C340.48 335.885 338.559 340.263 338.559 340.263Z" fill="#323657"/>
<path d="M419.365 298.844L404.002 308.906L404.748 310.047L420.111 299.985L419.365 298.844Z" fill="#4DA8F2"/>
<path d="M421.768 304.623C421.768 304.623 421.622 305.492 421.372 305.841C421.372 305.841 420.869 306.441 420.537 306.889C420.432 307.032 420.345 307.159 420.295 307.247C420.092 307.612 419.759 308.478 419.026 309.221C418.295 309.963 415.445 312.326 415.445 312.326L413.002 310.252L410.466 309.114C410.466 309.114 411.886 302.937 412.488 302.167C412.549 302.093 412.609 302.019 412.672 301.958C413.244 301.356 413.925 301.147 414.261 300.864C414.384 300.762 415.69 299.821 416.154 299.942C416.8 300.11 417.179 300.49 417.325 300.922C417.325 300.922 418.575 301.306 419.061 302.038C419.061 302.038 420.226 302.354 420.57 303.441C420.573 303.441 421.718 303.897 421.768 304.623Z" fill="#EFAA88"/>
<path d="M333.113 493.13C333.113 493.13 332.5 497.382 332.426 498.02C332.349 498.658 325.619 497.643 325.619 497.643L325.075 492.583C325.072 492.583 332.272 492.53 333.113 493.13Z" fill="#424773"/>
<path d="M332.495 497.478C332.495 497.478 334.627 500.038 336.688 501.155C338.752 502.271 341.991 502.714 343.211 503.869C344.091 504.702 346.418 508.294 337.853 508.222C329.288 508.151 325.158 508.728 324.24 507.353C323.322 505.975 325.567 497.192 325.567 497.192C325.567 497.192 327.598 497.923 332.495 497.478Z" fill="#292C47"/>
<path d="M381.333 493.13C381.333 493.13 380.72 497.382 380.646 498.02C380.569 498.658 373.839 497.643 373.839 497.643L373.295 492.583C373.295 492.583 380.492 492.53 381.333 493.13Z" fill="#424773"/>
<path d="M380.717 497.478C380.717 497.478 382.85 500.038 384.913 501.155C386.974 502.271 394.564 503.187 395.784 504.345C396.663 505.178 398.128 508.536 386.076 508.222C377.513 507.999 373.38 508.728 372.463 507.353C371.545 505.975 373.79 497.192 373.79 497.192C373.79 497.192 375.702 497.97 380.717 497.478Z" fill="#292C47"/>
<path d="M338.685 383.919C338.685 383.919 332.363 393.973 332.832 403.062C333.305 412.151 330.541 422.073 329.59 431.569C328.532 442.153 324.196 467.211 324.039 472.874C323.883 478.536 324.712 496.614 324.712 496.614L333.388 496.812C333.388 496.812 340.675 453.005 342.56 448.533C344.448 444.065 353.804 412.198 354.12 408.62C354.436 405.048 338.685 383.919 338.685 383.919Z" fill="#292C47"/>
<path d="M371.973 385.28C371.973 385.28 376.738 410.19 377.368 415.753C377.997 421.316 378.417 442.673 378.731 446.152C379.044 449.63 381.668 491.543 382.506 496.815H371.416C371.416 496.815 362.903 466.268 362.903 451.814C362.903 437.36 356.324 420.392 352.079 410.858C347.833 401.321 338.114 401.096 335.503 383.405C335.503 383.402 368.44 379.668 371.973 385.28Z" fill="#292C47"/>
<path d="M349.238 299.384C349.238 299.384 357.726 296.211 361.639 302.679C365.552 309.144 365.175 322.091 360.897 323.683C356.618 325.275 350.191 324.442 348.001 320.397C345.811 316.352 343.832 310.502 343.929 306.592C344.025 302.679 347.009 300.512 349.238 299.384Z" fill="#EEA886"/>
<path d="M359.976 323.975C359.976 323.975 359.622 326.268 360.207 327.399C360.792 328.529 349.21 328.556 349.21 328.556C349.21 328.556 348.27 322.41 346.487 317.218C344.706 312.029 359.976 323.975 359.976 323.975Z" fill="#EEA886"/>
<path d="M346.487 317.221C346.487 317.221 347.286 318.541 350.548 318.029C353.81 317.518 357.792 313.173 359.152 312.697C360.515 312.221 360.526 311.418 360.526 311.418L361.378 312.664L362.826 312.755C362.826 312.755 361.507 308.869 363.496 307.285C365.486 305.701 361.43 294.707 350.966 298.367C350.966 298.367 342.928 300.583 343.222 305.157C343.519 309.733 344.69 314.944 346.487 317.221Z" fill="#D88A51"/>
<path d="M360.894 327.264C360.894 327.264 360.858 325.105 359.88 324.899C358.902 324.692 349.089 323.746 347.888 324.219V326.733C347.888 326.733 350.199 328.158 360.894 327.264Z" fill="#E2D2CA"/>
<path d="M360.314 309.755C360.13 308.987 358.182 306.796 357.434 309.144C356.687 311.493 358.561 314.649 359.608 314.377C360.652 314.105 360.778 311.699 360.314 309.755Z" fill="#EEA886"/>
<path d="M377.126 330.531C370.396 329.643 360.894 327.261 360.894 327.261L347.888 326.73C347.888 326.73 335.951 329.359 331.25 331.485C330.805 331.686 330.802 342.141 329.579 344.883L333.476 353.111C333.476 353.111 335.726 369.41 336.193 376.662C336.408 379.99 331.549 407.869 331.549 407.869C331.549 407.869 336.754 409.404 345.632 410.383C354.511 411.362 376.689 410.028 376.826 408.98C376.966 407.93 372.531 369.911 372.334 367.942C372.031 364.92 373.375 348.862 373.375 348.862C375.425 347.27 393.418 338.913 398.329 334.557C399.642 333.391 405.187 327.987 406.765 326.123C412.346 319.517 416.924 313.849 417.479 312.628C418.111 311.933 411.271 308.242 410.664 308.041C410.131 307.863 402.731 317.694 399.826 320.843C398.532 322.245 393.149 326.164 393.149 326.164C393.149 326.164 381.336 330.773 377.126 330.531Z" fill="#323657"/>
<path d="M346.819 300.146C346.819 300.146 335.995 300.993 346.487 317.221L346.819 300.146Z" fill="#D88A51"/>
<path d="M420.13 299.978L421.018 298.625L419.383 298.837L420.13 299.978Z" fill="#DFE1E8"/>
<path d="M203.446 377.889C203.446 377.889 208.711 378.208 210.186 379.027C211.662 379.849 221.618 376.709 221.802 375.983C221.986 375.26 221.802 374.902 221.802 374.902H202.259L203.446 377.889Z" fill="#DE9673"/>
<path d="M179.808 354.654C179.808 354.654 178.129 367.862 179.808 369.595C186.225 376.208 210.005 375.683 210.005 375.683L209.997 378.373C209.997 378.373 173.851 382.885 170.49 375.867C166.453 367.436 168.02 353.689 168.02 353.689L179.808 354.654Z" fill="#DE9673"/>
<path d="M167.88 493.848L170.026 491.398L166.149 487.341L162.876 489.635L167.88 493.848Z" fill="#2F4563"/>
<path d="M162.876 489.635C162.876 489.635 167.3 492.971 168.531 493.105C169.762 493.24 170.342 493.787 170.196 495.666C170.051 497.541 171.993 505.445 173.348 505.571C174.703 505.698 179.314 505.722 180.152 508.767C180.99 511.808 165.519 511.17 164.56 508.676C163.601 506.182 156.943 494.084 157.732 493.111C158.52 492.132 160.606 489.946 162.876 489.635Z" fill="#2E2E2E"/>
<path d="M191.264 395.095C191.264 395.095 220.167 445.484 208.436 455.909C203.836 459.998 199.406 463.694 193.04 469.167C189.654 472.073 185.568 475.442 180.726 480.488L180.526 480.7C177.072 484.303 174.219 487.35 173.343 488.29C173.312 488.32 173.285 488.351 173.26 488.378L173.161 488.483L169.944 491.554L165.223 487.402C165.223 487.402 170.573 479.993 173.59 474.304C177.824 466.318 184.939 456.929 188.231 454.311C193.869 449.826 195.419 448.943 195.419 444.653C195.419 440.052 168.927 414.351 168.927 414.351C168.927 414.351 165.083 398.266 174.263 394.056C183.208 389.953 191.264 395.095 191.264 395.095Z" fill="#3E7C88"/>
<path d="M169.221 501.652C169.221 501.652 169.039 499.331 169.429 497.849C169.82 496.364 163.445 497.216 163.445 497.216C163.445 497.216 162.623 503.415 162.862 504.834C163.101 506.25 169.221 501.652 169.221 501.652Z" fill="#3E7C88"/>
<path d="M170.414 497.855L161.815 499.406C161.815 499.406 161.197 488.428 161.307 480.018C161.428 470.979 160.972 463.87 163.731 456.673C166.311 449.944 165.726 447.378 165.951 442.783C166.179 438.188 163.747 414.527 163.747 414.527C163.747 414.527 160.81 403.934 167.608 396.459C174.23 389.177 191.366 396.429 191.366 396.429C191.366 396.429 187.797 428.753 179.226 448.748C176.8 454.407 178.11 457.845 175.019 466.587C175.019 466.587 170.32 485.656 170.414 497.855Z" fill="#488D9A"/>
<path d="M177.896 332.519C177.445 333.278 177.116 334.252 176.877 335.286C176.649 336.259 176.5 337.287 176.404 338.236C176.195 340.299 176.231 341.996 176.231 341.996C176.231 341.996 164.764 339.499 166.646 336.82C168.526 334.142 167.421 326.032 167.421 326.032C167.421 326.032 179.38 330.014 177.896 332.519Z" fill="#EEA987"/>
<path d="M184.348 310.412C184.348 310.412 187.283 312.964 185.972 320.315C185.972 320.315 186.621 326.169 187.516 327.19C188.412 328.21 185.112 328.587 184.766 329.324C184.42 330.058 183.763 333.501 181.46 335.574C179.16 337.648 167.767 331.394 167.215 327.863C166.66 324.33 158.768 309.191 171.26 308.498C183.752 307.802 184.348 310.412 184.348 310.412Z" fill="#EEA886"/>
<path d="M192.207 364.645C191.973 365.382 192.85 376.692 192.77 377.666C192.333 383.015 193.713 391.144 194.257 394.053C194.386 394.741 194.457 395.093 194.457 395.093C182.075 401.154 164.852 400.623 164.852 400.623C164.912 400.153 167.317 394.331 167.38 393.885C168.399 386.609 169.905 383.29 169.496 378.367C169.268 375.603 168.564 372.713 167.108 369.133C162.903 358.793 163.132 351.909 163.816 346.228C164.5 340.546 166.201 337.307 166.201 337.307L176.662 338.432C178.882 340.893 180.858 342.205 187.17 347.812C193.889 353.782 195.065 355.592 192.207 364.645Z" fill="#3E4D51"/>
<path d="M162.48 503.223C162.48 503.223 168.531 501.501 168.71 501.331C168.888 501.163 168.929 500.794 169.765 501.13C170.6 501.465 170.944 502.73 171.765 503.132C172.584 503.533 177.577 504.993 180.314 506.341C181.303 506.828 185.485 508.426 186.09 509.757C186.692 511.09 186.505 513.092 179.316 512.619C172.128 512.143 164.266 513.158 162.692 512.372C161.114 511.585 162.068 505.304 162.48 503.223Z" fill="#2E2E2E"/>
<path d="M186.285 317.672C186.285 317.672 187.69 302.409 172.903 305.135C158.117 307.86 165.739 324.541 167.732 329.978C167.732 329.978 167.49 321.533 174.61 321.258C181.727 320.983 183.197 319.333 186.285 317.672Z" fill="#464240"/>
<path d="M173.45 319.113C172.56 317.562 169.507 318.389 169.856 320.749C170.205 323.108 172.65 325.465 173.461 324.324C174.274 323.183 174.758 321.39 173.45 319.113Z" fill="#EEA987"/>
<path d="M173.788 349.099C173.788 349.099 172.571 362.175 174.25 363.905C180.666 370.519 205.982 370.645 205.982 370.645L207.191 374.446C207.191 374.446 169.559 377.009 166.201 369.993C162.164 361.562 163.731 347.815 163.731 347.815L173.788 349.099Z" fill="#EEA987"/>
<path d="M168.215 308.888C168.215 308.888 162.521 303.421 158.471 309.614C154.423 315.807 163.28 324.445 166.871 319.319C170.463 314.19 168.215 308.888 168.215 308.888Z" fill="#464240"/>
<path d="M176.876 335.283C176.648 336.256 176.5 337.285 176.404 338.233C172.592 336.495 169.746 331.185 169.746 331.185C172.507 333.569 176.876 335.283 176.876 335.283Z" fill="#A77860"/>
<path d="M231.312 374.448H195.422V376.453H231.312V374.448Z" fill="#22252A"/>
<path d="M245.698 343.485L229.53 375.552L231.318 376.455L247.487 344.388L245.698 343.485Z" fill="#22252A"/>
<path d="M200.695 370.645C200.695 370.645 205.96 370.241 207.436 369.196C208.912 368.151 218.867 372.149 219.051 373.071C219.235 373.992 219.051 374.448 219.051 374.448H199.508L200.695 370.645Z" fill="#EEA987"/>
<path d="M166.207 337.31L166.943 335.308L176.989 337.31V339.092L166.207 337.31Z" fill="#22252A"/>
<path d="M173.771 349.272C173.771 349.272 174.848 341.693 169.578 341.028C164.305 340.362 163.728 347.842 163.728 347.842L173.771 349.272Z" fill="#EEA987"/>
<path d="M517.232 492.145C517.232 492.145 517.845 496.435 517.919 497.079C517.996 497.722 524.726 496.699 524.726 496.699L525.27 491.593C525.27 491.593 518.073 491.54 517.232 492.145Z" fill="#5C544D"/>
<path d="M517.848 496.534C517.848 496.534 515.716 499.119 513.655 500.247C511.594 501.374 508.352 501.82 507.134 502.986C506.255 503.827 503.927 507.452 512.493 507.38C521.058 507.306 525.185 507.892 526.103 506.503C527.021 505.114 524.776 496.246 524.776 496.246C524.776 496.246 522.745 496.98 517.848 496.534Z" fill="#4F4F4F"/>
<path d="M469.018 492.145C469.018 492.145 469.631 496.435 469.705 497.079C469.782 497.722 476.512 496.699 476.512 496.699L477.056 491.593C477.056 491.593 469.859 491.54 469.018 492.145Z" fill="#5C544D"/>
<path d="M469.634 496.534C469.634 496.534 467.502 499.119 465.441 500.247C463.38 501.374 455.79 502.299 454.57 503.467C453.691 504.309 452.226 507.7 464.276 507.381C472.838 507.155 476.968 507.892 477.886 506.503C478.804 505.114 476.559 496.246 476.559 496.246C476.559 496.246 474.649 497.029 469.634 496.534Z" fill="#4F4F4F"/>
<path d="M514.842 381.384C514.842 381.384 518.423 392.029 517.953 401.206C517.48 410.38 519.805 420.42 520.756 430.004C521.814 440.687 526.147 465.982 526.306 471.696C526.463 477.411 525.633 495.663 525.633 495.663L516.958 495.863C516.958 495.863 509.673 451.643 507.786 447.131C505.898 442.618 496.541 410.451 496.228 406.84C495.915 403.23 514.842 381.384 514.842 381.384Z" fill="#22252A"/>
<path d="M478.375 383.279C478.375 383.279 473.61 408.425 472.981 414.04C472.351 419.656 471.934 441.216 471.618 444.725C471.302 448.234 469.521 490.65 467.845 495.864H478.935C478.935 495.864 487.448 465.028 487.448 450.439C487.448 435.85 494.024 418.723 498.269 409.098C502.515 399.473 512.231 399.245 514.842 381.387C514.842 381.384 481.908 377.614 478.375 383.279Z" fill="#22252A"/>
<path d="M500.913 297.341C500.913 297.341 492.172 294.074 488.141 300.732C484.109 307.39 484.5 320.722 488.904 322.363C493.312 324.002 499.929 323.144 502.185 318.978C504.441 314.812 506.477 308.787 506.378 304.761C506.282 300.734 503.207 298.501 500.913 297.341Z" fill="#EEA886"/>
<path d="M490.372 321.953C490.372 321.953 490.726 324.247 490.141 325.377C489.556 326.507 501.135 326.535 501.135 326.535C501.135 326.535 502.075 320.391 503.859 315.199C505.642 310.007 490.372 321.953 490.372 321.953Z" fill="#EEA886"/>
<path d="M503.859 315.2C503.859 315.2 503.059 316.52 499.798 316.008C496.536 315.497 492.557 311.151 491.194 310.676C489.831 310.2 489.82 309.397 489.82 309.397L488.968 310.643L487.523 310.733C487.523 310.733 488.842 306.848 486.852 305.264C484.863 303.68 488.919 292.688 499.38 296.348C499.38 296.348 507.415 298.565 507.123 303.138C506.827 307.714 505.656 312.923 503.859 315.2Z" fill="#FCCCA2"/>
<path d="M489.454 325.24C489.454 325.24 489.49 323.081 490.468 322.875C491.446 322.669 501.259 321.723 502.457 322.196V324.709C502.46 324.709 500.146 326.134 489.454 325.24Z" fill="#E2D2CA"/>
<path d="M490.034 307.733C490.218 306.966 492.167 304.774 492.911 307.123C493.659 309.469 491.785 312.626 490.738 312.356C489.691 312.087 489.573 309.68 490.034 307.733Z" fill="#EEA886"/>
<path d="M489.454 325.24C489.454 325.24 484.074 327.176 477.845 329.824C477.845 329.824 470.678 332.502 469.9 340.422C469.488 344.627 465.015 366.943 464.177 368.83C463.338 370.719 453.419 401.052 453.07 401.681C452.721 402.311 461.165 405.82 461.725 405.54C462.286 405.259 471.332 377.875 472.239 375.845C472.239 375.845 477.446 359.425 477.586 356.975C477.586 356.975 477.735 363.951 478.015 365.909C478.295 367.867 473.385 405.892 473.525 406.939C473.665 407.987 495.84 409.321 504.716 408.342C513.592 407.363 520.753 405.32 520.753 405.32C520.753 405.32 513.768 375.312 513.985 371.984C514.452 364.735 516.873 351.081 516.873 351.081L524.108 364.735L514.845 388.583L516.966 395.832C516.966 395.832 534.179 369.801 534.737 367.425C535.295 365.046 533.893 362.018 532.984 360.06C532.074 358.102 526.108 343.197 524.71 341.099C523.311 339.001 520.951 330.6 515.241 328.259C510.468 326.304 502.457 324.703 502.457 324.703L489.454 325.24Z" fill="#3E4D51"/>
<path d="M484.885 387.143L444.333 376.736L437.079 405.049L477.63 415.455L484.885 387.143Z" fill="#5EC8D9"/>
<path d="M449.538 407.875C449.538 407.875 448.379 409.747 447.955 410.284C447.532 410.817 448.997 411.153 449.623 410.614C450.25 410.072 449.538 407.875 449.538 407.875Z" fill="#C98462"/>
<path d="M457.982 414.277C457.982 414.277 458.667 413.562 458.815 413.105C458.815 413.105 459.018 412.25 459.2 411.65C459.257 411.461 459.312 411.296 459.359 411.194C459.554 410.768 460.107 409.888 460.285 408.73C460.464 407.572 460.969 402.38 460.969 402.38L457.829 401.588L455.306 401.055C455.306 401.055 449.854 406.497 449.563 407.556C449.535 407.66 449.511 407.762 449.497 407.861C449.338 408.782 449.604 409.533 449.577 410.025C449.568 410.207 449.593 412.011 450.014 412.349C450.596 412.819 451.19 412.907 451.679 412.75C451.679 412.75 452.86 413.619 453.847 413.567C453.847 413.567 454.91 414.403 456.119 413.991C456.117 413.991 457.293 414.717 457.982 414.277Z" fill="#DE9D7D"/>
<path d="M470.244 381.442C470.244 381.442 463.047 403.255 461.725 405.543C461.725 405.543 456.446 404.432 453.069 401.684L460.972 378.144L470.244 381.442Z" fill="#3E4D51"/>
<path d="M624.057 407.481C624.057 407.481 623.766 402.457 622.436 401.679C621.106 400.898 621.875 402.454 621.875 402.454C621.875 402.454 622.623 406.101 622.787 407.578C622.796 407.649 624.057 407.481 624.057 407.481Z" fill="#838585"/>
<path d="M588.686 301.846C588.686 301.846 601.167 300.806 600.826 313.946C600.486 327.085 598.403 329.062 600.835 338.346C603.264 347.63 588.667 333.075 588.667 333.075L588.686 301.846Z" fill="#434343"/>
<path d="M578.19 337.348C578.19 337.348 560.51 348.386 559.015 347.212C556.924 345.57 551.244 331.565 551.244 331.565L546.795 333.685C546.795 333.685 552.101 357.901 559.251 356.119C566.401 354.337 582.814 344.179 582.814 344.179L578.19 337.348Z" fill="#EEA987"/>
<path d="M602.286 383.037C602.286 383.037 606.88 388.9 608.504 392.777C610.125 396.655 612.829 405.155 612.469 411.738C612.109 418.322 609.947 430.678 610.576 433.474C611.208 436.271 611.837 442.041 612.513 444.026C613.189 446.009 615.893 451.781 616.162 457.735C616.432 463.686 612.379 489.841 612.557 492.275C612.736 494.709 607.96 493.268 607.96 493.268C607.96 493.268 606.339 469.64 605.437 465.581C604.536 461.522 603.456 447.725 602.643 446.732C601.832 445.739 599.615 435.46 599.958 433.835C600.302 432.212 591.11 407.861 590.569 402.991C590.027 398.12 576.475 383.037 576.475 383.037C576.475 383.037 588.318 378.505 602.286 383.037Z" fill="#EEA987"/>
<path d="M580.352 383.037C580.352 383.037 580.118 385.495 579.846 386.397C579.577 387.299 573.358 410.297 572.726 419.136C572.097 427.974 570.473 435.471 570.204 437.36C569.934 439.249 570.473 445.561 571.014 447.186C571.556 448.808 568.31 487.138 568.041 488.04C567.772 488.942 570.204 489.211 571.916 488.942C573.628 488.672 582.278 460.804 581.739 456.115C581.198 451.426 580.657 441.427 582.19 437.363C583.723 433.298 597.509 403.898 597.6 402.094C597.691 400.285 603.566 369.215 580.352 383.037Z" fill="#EEA987"/>
<path d="M608.048 490.391C608.048 490.391 607.603 493.504 607.119 494.354C606.636 495.204 605.3 499.529 604.696 500.338C604.088 501.146 602.756 507.213 604.696 507.939C606.636 508.668 611.2 509.88 612.736 507.455C614.272 505.029 614.473 502.604 614.231 500.742C613.989 498.883 612.145 490.347 612.17 489.5C612.195 488.653 608.048 490.391 608.048 490.391Z" fill="#EEA987"/>
<path d="M605.467 498.658C605.467 498.658 605.259 503.371 608.814 503.371C612.37 503.371 613.945 499.084 613.945 499.084C613.945 499.084 615.156 501.188 613.945 505.678C612.733 510.166 607.682 509.237 606.55 509.075C605.423 508.91 600.06 507.491 605.467 498.658Z" fill="#4F4F4F"/>
<path d="M568.426 486.159C568.426 486.159 565.912 490.658 564.42 491.568C562.559 492.704 558.949 496.348 557.687 496.518C556.426 496.686 551.895 497.492 552.769 500.052C553.486 502.15 564.299 501.85 565.516 500.797C566.736 499.744 570.383 495.971 571.853 496.053C573.323 496.139 572.779 501.498 572.779 501.498H574.375C574.375 501.498 574.933 496.282 575.002 495.385C575.203 492.731 573.309 490.779 573.227 489.264C573.142 487.748 573.056 486.618 573.056 486.618L568.426 486.159Z" fill="#4F4F4F"/>
<path d="M558.05 496.394C558.05 496.394 561.614 497.626 564.357 496.051C567.099 494.472 572.364 492.077 574.224 492.06C574.224 492.06 573.21 488.953 573.188 488.606C573.166 488.26 573.056 486.624 573.056 486.624L568.454 485.887C568.454 485.887 565.47 490.273 564.153 491.304C562.837 492.333 559.468 494.909 558.05 496.394Z" fill="#EEA987"/>
<path d="M576.401 382.63C576.401 382.63 575.117 387.973 574.642 389.529C574.169 391.086 571.133 415.22 570.383 430.315C570.383 430.315 588.563 437.214 613.571 436.065C613.571 436.065 614.179 408.334 611.881 400.485C609.584 392.64 605.424 385.297 602.283 383.034C599.491 381.024 576.401 382.63 576.401 382.63Z" fill="#838585"/>
<path d="M617.904 396.173C617.904 396.173 617.533 398.426 616.852 400.598C616.17 402.771 615.541 403.461 615.816 404.707C616.022 405.647 617.085 406.351 617.352 406.049C617.619 405.746 617.751 402.097 619.262 402.113C620.773 402.13 618.811 406.634 619.71 406.304C620.611 405.974 624.073 404.074 623.856 402.234C623.639 400.395 622.254 399.064 622.342 396.314C622.422 393.819 621.647 392.777 621.647 392.777L617.904 396.173Z" fill="#EEA987"/>
<path d="M545.594 332.607C545.594 332.607 547.704 335.352 549.004 335.64C550.304 335.932 551.719 332.83 551.719 332.83L550.949 330.041L545.594 332.607Z" fill="#EEA886"/>
<path d="M550.804 331.689C550.804 331.689 551.815 328.523 551.952 328.034C552.093 327.544 551.598 326.114 550.699 324.748C549.828 323.422 548.732 321.962 548.347 321.58C548.147 321.382 548.037 321.156 547.38 321.453C546.721 321.75 546.328 322.363 546.328 322.363C546.328 322.363 545.344 322.347 544.915 323.142C544.915 323.142 543.989 323.169 543.651 324.148C543.651 324.148 542.747 324.2 542.563 324.932C542.563 324.932 543 326.285 543.016 326.829C543.033 327.377 544.132 330.124 545.591 332.599C545.594 332.607 547.762 334.477 550.804 331.689Z" fill="#EEA886"/>
<path d="M548.485 327.58C548.485 327.58 547.397 328.845 547.27 329.354C547.144 329.863 543.967 327.968 543.967 327.968C543.967 327.968 546.913 326.296 548.485 327.58Z" fill="#CF8C6C"/>
<path d="M548.515 321.904C548.515 321.904 550.273 325.633 549.683 325.955C549.095 326.277 548.682 326.037 548.682 326.037L548.589 327.907C548.589 327.907 547.831 329.109 546.742 327.932C546.742 327.932 546.149 329.128 545.234 327.866C545.234 327.866 544.492 328.482 543.964 327.971C543.437 327.459 542.563 324.943 542.563 324.943C542.563 324.943 542.618 324.327 543.651 324.159C543.651 324.159 543.92 323.202 544.915 323.153C544.915 323.153 545.478 322.171 546.556 322.127C546.556 322.127 547.171 321.247 548.347 321.591C548.35 321.585 548.452 321.742 548.515 321.904Z" fill="#DB9C7C"/>
<path d="M551.917 327.91C551.917 327.91 549.784 326.035 548.171 325.523C547.806 325.408 547.432 325.361 547.188 325.658C546.943 325.955 547.059 326.684 547.941 327.544C548.823 328.405 549.57 329.92 549.57 329.92C549.57 329.92 550.735 330.536 551.917 327.91Z" fill="#EEA886"/>
<path d="M546.559 322.121C546.559 322.121 548.735 325.996 548.71 326.45C548.685 326.904 550.136 326.131 550.131 325.74C550.125 325.35 548.554 321.901 548.35 321.582C548.147 321.266 546.949 321.032 546.559 322.121Z" fill="#EEA886"/>
<path d="M548.795 322.33C548.795 322.33 545.327 315.854 544.816 316.091C544.074 316.434 544.272 318.227 547.198 323.062C550.042 327.762 548.795 322.33 548.795 322.33Z" fill="#EEA886"/>
<path d="M577.242 350.771L570.103 341.292C570.103 341.292 582.864 331.4 586.804 337.689C586.802 337.689 587.082 348.054 577.242 350.771Z" fill="#F5F5F5"/>
<path d="M572.952 350.435C573.155 353.614 574.777 356.252 575.049 357.401C575.318 358.551 575.049 361.188 575.387 363.828C575.725 366.468 576.739 379.046 576.401 382.632C576.063 386.218 600.989 384.599 602.879 383.515C602.879 383.515 598.681 376.002 598.568 372.892C598.529 371.822 597.892 368.495 599.651 366.061C600.579 364.777 602.297 360.685 604.017 357.693C604.017 357.693 603.698 357.071 604.017 357.693C604.682 356.532 605.38 355.374 605.866 354.514C606.501 353.389 606.856 352.058 606.856 352.058C606.856 352.058 607.966 338.258 604.924 336.702C601.882 335.145 600.261 334.876 597.287 334.741C594.314 334.606 592.352 333.996 592.352 333.996L585.392 334.741C585.392 334.741 580.932 336.298 579.173 336.432C577.417 336.567 575.186 340.357 575.389 342.79C575.59 345.227 572.751 347.256 572.952 350.435Z" fill="#F5F5F5"/>
<path d="M619.114 401.959C619.114 401.959 617.1 402.474 617.221 409.288L619.501 408.909C619.501 408.909 619.46 405.141 620.142 403.09C620.139 403.087 620.021 401.756 619.114 401.959Z" fill="#838585"/>
<path d="M610.755 410.825L628.506 405.785L628.454 427.666L610.788 438.262L610.755 410.825Z" fill="#4F4F4F"/>
<path d="M610.788 438.262L613.011 438.672L630.196 427.977L629.982 405.886L628.506 405.785L610.788 438.262Z" fill="#4F4F4F"/>
<path d="M601.961 335.44C601.961 335.44 607.49 335.42 609.991 340.291C612.491 345.161 612.76 350.301 613.37 352.127C613.978 353.953 615.569 364.697 616.176 366.253C616.783 367.81 620.399 378.37 621.276 384.324C622.155 390.275 622.34 396.314 622.34 396.314L617.904 396.173C617.904 396.173 613.502 379.979 611.986 376.123C610.689 372.829 610.191 367.073 609.449 365.043C608.704 363.014 604.11 348.741 603.165 347.727C602.219 346.712 597.246 336.336 601.961 335.44Z" fill="#EEA886"/>
<path d="M603.772 355.174L615.039 351.623C615.039 351.623 611.585 334.994 601.964 335.44C594.243 335.794 603.772 355.174 603.772 355.174Z" fill="#F5F5F5"/>
<path d="M589.909 303.177C586.815 302.671 579.736 303.446 577.731 311.575C577.731 311.575 577.725 313.827 578.066 315.637C578.406 317.446 576.252 322.418 576.631 322.721C577.011 323.021 578.659 323.54 578.659 323.54C578.659 323.54 579.83 329.376 581.811 329.555C583.792 329.733 591.442 329.043 595.765 322.443C600.087 315.843 602.398 305.223 589.909 303.177Z" fill="#EEA886"/>
<path d="M584.771 327.291C584.771 327.291 584.925 328.108 585.065 329.31C585.139 329.923 585.208 330.638 585.252 331.397C585.375 333.493 585.312 335.915 584.598 337.455C584.598 337.455 588.475 339.859 592.63 334.078C592.63 334.078 592.226 326.865 594.611 323.051C596.996 319.237 584.771 327.291 584.771 327.291Z" fill="#EEA886"/>
<path d="M577.73 311.575C577.73 311.575 582.385 315.598 587.318 316.869C592.25 318.139 594.861 323.683 594.861 323.683C594.861 323.683 603.585 314.974 598.32 306.521C593.055 298.061 577.739 301.832 577.73 311.575Z" fill="#434343"/>
<path d="M585.067 329.31C585.142 329.923 585.21 330.638 585.254 331.397C589.604 329.285 592 326.389 592 326.389C589.445 328.221 585.067 329.31 585.067 329.31Z" fill="#A77860"/>
<path d="M588.225 317.155C588.225 317.155 593.27 330.729 592.665 333.998C592.665 333.998 595.333 333.539 600.09 334.994C600.09 334.994 597.793 310.775 588.225 317.155Z" fill="#434343"/>
<path d="M594.35 334.436C594.35 334.436 592.687 344.616 586.538 343.467C580.388 342.317 585.051 334.857 585.051 334.857C585.051 334.857 587.455 332.701 594.35 334.436Z" fill="#EEA886"/>
<path d="M474.333 207.864C474.333 215.82 471.475 223.105 466.729 228.753C460.788 235.818 451.883 240.333 441.888 240.333C431.589 240.333 422.216 235.499 416.212 227.716C411.967 222.227 409.441 215.341 409.441 207.864C409.441 189.931 423.969 175.392 441.888 175.392C459.807 175.392 474.333 189.929 474.333 207.864Z" fill="#EEF0F7"/>
<path d="M465.094 225.272C464.976 225.153 464.707 225.054 464.55 224.953C464.539 224.944 464.531 224.939 464.52 224.933L464.517 224.936C463.094 224.147 458.92 222.073 450.687 219.708C450.684 219.708 450.681 219.706 450.681 219.706C449.189 219.249 448.06 218.952 447.67 218.853L446.972 217.742C446.859 216.623 446.881 214.951 446.917 213.834C448.076 212.487 449.121 210.383 449.711 207.102C449.898 207.243 450.044 206.935 450.044 206.935C449.939 206.75 451.61 202.669 451.308 201.751C451.138 201.228 450.791 201.294 450.519 201.446C450.561 201.206 450.602 200.962 450.643 200.698C450.643 200.698 451.305 194.444 448.14 190.957C447.813 190.644 446.648 190.564 446.648 190.564C441.567 189.007 438.519 189.703 436.609 190.52C433.782 192.838 433.565 196.787 433.694 198.96C433.752 199.474 433.809 199.991 433.867 200.497C433.867 200.508 433.87 200.513 433.87 200.513C433.895 200.714 433.917 200.909 433.941 201.105C433.678 200.94 433.331 200.857 433.139 201.374C432.801 202.282 434.035 206.354 434.191 206.607C434.191 206.607 434.458 207.025 434.667 206.836C434.669 206.836 434.669 206.827 434.669 206.827C435.252 210.405 436.304 212.616 437.409 213.975C437.329 215.427 437.121 217.134 436.972 218.226L435.716 219.538C435.65 219.56 435.585 219.582 435.516 219.604C435.516 219.598 435.516 219.596 435.516 219.596C421.315 223.388 417.3 226.028 417.3 226.028C416.943 226.248 416.577 226.836 416.212 227.711C422.139 235.397 431.468 240.328 441.888 240.328C451.901 240.328 460.802 235.799 466.729 228.748C466.116 227.257 465.677 225.855 465.094 225.272Z" fill="#5EC8D9"/>
<path d="M213.953 182.276H213.374V237.146H213.953V182.276Z" fill="#E0E0E0"/>
<path d="M255.265 182.276H254.686V237.146H255.265V182.276Z" fill="#E0E0E0"/>
<path d="M296.577 182.276H295.997V237.146H296.577V182.276Z" fill="#E0E0E0"/>
<path d="M337.891 182.276H337.312V237.146H337.891V182.276Z" fill="#E0E0E0"/>
<path d="M379.203 182.276H378.624V237.146H379.203V182.276Z" fill="#E0E0E0"/>
<path d="M220.235 240.397H213.662V242.303H220.235V240.397Z" fill="#B8B8B8"/>
<path d="M223.557 175.513H213.662V176.943H223.557V175.513Z" fill="#D9D9D9"/>
<path d="M227.698 178.159H213.662V179.589H227.698V178.159Z" fill="#D9D9D9"/>
<path d="M266.149 175.513H254.531V176.943H266.149V175.513Z" fill="#D9D9D9"/>
<path d="M261.959 178.159H254.531V179.589H261.959V178.159Z" fill="#D9D9D9"/>
<path d="M303.779 175.513H296.58V176.943H303.779V175.513Z" fill="#D9D9D9"/>
<path d="M304.972 178.159H296.58V179.589H304.972V178.159Z" fill="#D9D9D9"/>
<path d="M348.378 175.513H337.892V176.943H348.378V175.513Z" fill="#D9D9D9"/>
<path d="M346.284 178.159H337.892V179.589H346.284V178.159Z" fill="#D9D9D9"/>
<path d="M385.177 175.513H378.915V176.943H385.177V175.513Z" fill="#D9D9D9"/>
<path d="M383.927 178.159H378.915V179.589H383.927V178.159Z" fill="#D9D9D9"/>
<path d="M261.55 240.397H254.977V242.303H261.55V240.397Z" fill="#B8B8B8"/>
<path d="M303.153 240.397H296.58V242.303H303.153V240.397Z" fill="#B8B8B8"/>
<path d="M344.465 240.397H337.892V242.303H344.465V240.397Z" fill="#B8B8B8"/>
<path d="M385.776 240.397H379.203V242.303H385.776V240.397Z" fill="#B8B8B8"/>
<path d="M364.598 220.841C351.713 220.841 340.51 215.828 328.834 210.6C314.419 204.149 299.511 197.475 279.65 199.303C266.965 200.469 259.005 205.12 251.981 209.22C245.623 212.935 239.61 216.199 231.465 216.48C218.306 216.931 213.739 211.879 213.665 211.571V208.329C213.681 208.384 216.555 214.054 231.452 213.988C238.789 213.955 244.205 210.793 250.473 207.13C257.76 202.876 266.017 198.052 279.367 196.823C300.025 194.923 315.298 201.759 330.065 208.37C345.519 215.286 360.267 221.774 378.914 216.147V218.812C373.597 220.415 369.346 220.841 364.598 220.841Z" fill="url(#paint6_linear)"/>
<path d="M287.251 220.22C277.74 220.22 270.194 214.461 262.811 208.827C257.211 204.553 251.402 200.183 244.694 198.027C224.228 191.449 213.756 203.461 213.662 203.566V199.911C213.772 199.787 215.641 197.604 221.043 195.519C225.962 193.622 234.216 192.107 245.604 195.673C252.817 197.931 258.807 202.504 264.6 206.924C276.353 215.891 286.5 223.638 304.128 211.505C317.477 202.317 330.063 193.559 342.445 190.36C354.555 187.231 367.181 189.522 379 200.161L378.912 203.481C353.807 180.782 332.429 195.165 305.807 213.488C298.759 218.342 292.683 220.22 287.251 220.22Z" fill="url(#paint7_linear)"/>
<defs>
<linearGradient id="paint0_linear" x1="156.211" y1="187.87" x2="156.211" y2="276.593" gradientUnits="userSpaceOnUse">
<stop stop-color="#1D6F7C"/>
<stop offset="1" stop-color="#092529"/>
</linearGradient>
<linearGradient id="paint1_linear" x1="176.198" y1="155.656" x2="176.198" y2="245.16" gradientUnits="userSpaceOnUse">
<stop stop-color="#1D6F7C"/>
<stop offset="1" stop-color="#092529"/>
</linearGradient>
<linearGradient id="paint2_linear" x1="136.406" y1="285.633" x2="136.407" y2="445.599" gradientUnits="userSpaceOnUse">
<stop stop-color="#5EC8D9"/>
<stop offset="0.1875" stop-color="#53ABB9"/>
<stop offset="0.4375" stop-color="#488D9A"/>
<stop offset="0.671875" stop-color="#396F7A"/>
<stop offset="0.979167" stop-color="#22252A"/>
</linearGradient>
<linearGradient id="paint3_linear" x1="95.0628" y1="365.049" x2="95.0628" y2="433.51" gradientUnits="userSpaceOnUse">
<stop stop-color="#5EC8D9"/>
<stop offset="0.1875" stop-color="#53ABB9"/>
<stop offset="0.4375" stop-color="#488D9A"/>
<stop offset="0.671875" stop-color="#396F7A"/>
<stop offset="0.979167" stop-color="#22252A"/>
</linearGradient>
<linearGradient id="paint4_linear" x1="97.204" y1="374.261" x2="97.204" y2="440.173" gradientUnits="userSpaceOnUse">
<stop stop-color="#5EC8D9"/>
<stop offset="0.1875" stop-color="#53ABB9"/>
<stop offset="0.4375" stop-color="#488D9A"/>
<stop offset="0.671875" stop-color="#396F7A"/>
<stop offset="0.979167" stop-color="#22252A"/>
</linearGradient>
<linearGradient id="paint5_linear" x1="108.612" y1="311.335" x2="108.612" y2="437.19" gradientUnits="userSpaceOnUse">
<stop stop-color="#5EC8D9"/>
<stop offset="0.1875" stop-color="#53ABB9"/>
<stop offset="0.4375" stop-color="#488D9A"/>
<stop offset="0.671875" stop-color="#396F7A"/>
<stop offset="0.979167" stop-color="#22252A"/>
</linearGradient>
<linearGradient id="paint6_linear" x1="296.29" y1="196.5" x2="296.29" y2="220.841" gradientUnits="userSpaceOnUse">
<stop stop-color="#5EC8D9"/>
<stop offset="0.1875" stop-color="#53ABB9"/>
<stop offset="0.4375" stop-color="#488D9A"/>
<stop offset="0.671875" stop-color="#396F7A"/>
<stop offset="0.979167" stop-color="#22252A"/>
</linearGradient>
<linearGradient id="paint7_linear" x1="296.331" y1="189.069" x2="296.331" y2="220.22" gradientUnits="userSpaceOnUse">
<stop stop-color="#5EC8D9"/>
<stop offset="0.1875" stop-color="#53ABB9"/>
<stop offset="0.4375" stop-color="#488D9A"/>
<stop offset="0.671875" stop-color="#396F7A"/>
<stop offset="0.979167" stop-color="#22252A"/>
</linearGradient>
</defs>
</svg>
