<svg width="18" height="30" viewBox="0 0 18 30" fill="none" xmlns="http://www.w3.org/2000/svg">
<path d="M16.4987 0.00624194L12.6084 0C8.23783 0 5.41336 2.89782 5.41336 7.38296V10.787H1.50185C1.16385 10.787 0.890137 11.061 0.890137 11.399V16.3311C0.890137 16.6691 1.16416 16.9428 1.50185 16.9428H5.41336V29.388C5.41336 29.726 5.68707 29.9997 6.02507 29.9997H11.1285C11.4665 29.9997 11.7402 29.7257 11.7402 29.388V16.9428H16.3137C16.6517 16.9428 16.9254 16.6691 16.9254 16.3311L16.9272 11.399C16.9272 11.2367 16.8626 11.0813 16.7481 10.9665C16.6336 10.8516 16.4775 10.787 16.3152 10.787H11.7402V7.90136C11.7402 6.5144 12.0707 5.81031 13.8774 5.81031L16.4981 5.80937C16.8358 5.80937 17.1095 5.53535 17.1095 5.19766V0.617952C17.1095 0.280575 16.8361 0.00686613 16.4987 0.00624194Z" fill="white"/>
</svg>
