<svg width="18" height="18" viewBox="0 0 18 18" fill="none" xmlns="http://www.w3.org/2000/svg">
<path d="M15 12C13.9612 12 13.0463 12.5303 12.507 13.3342L5.8185 9.99C5.92875 9.67876 6.00001 9.34875 6.00001 9C6.00001 8.65125 5.92875 8.32124 5.8185 8.01L12.507 4.66576C13.0463 5.46975 13.9612 6.00001 15 6.00001C16.6545 6.00001 18 4.65451 18 3.00002C18 1.3455 16.6545 0 15 0C13.3455 0 12 1.3455 12 2.99999C12 3.34874 12.0713 3.67875 12.1815 3.98999L5.49302 7.33423C4.95376 6.53024 4.03878 5.99998 3.00002 5.99998C1.3455 6.00001 0 7.34551 0 9C0 10.6545 1.3455 12 2.99999 12C4.03875 12 4.95373 11.4697 5.49299 10.6657L12.1815 14.01C12.0712 14.3212 12 14.6512 12 15C12 16.6545 13.3455 18 15 18C16.6545 18 18 16.6545 18 15C18 13.3455 16.6545 12 15 12Z" fill="#C4C4C4"/>
</svg>
