<svg width="18" height="18" viewBox="0 0 18 18" fill="none" xmlns="http://www.w3.org/2000/svg">
<path d="M16.7364 5.66162H16.2434V11.0804C16.2434 11.9241 15.7522 12.687 14.7674 12.687H5.11896V12.9446C5.11896 13.6906 5.96735 14.4435 6.83857 14.4435H14.2153L17.0374 16.1028L16.6281 14.4435H16.7364C17.6071 14.4435 17.9999 13.6923 17.9999 12.9446V6.94796C17.9999 6.20204 17.6071 5.66162 16.7364 5.66162Z" fill="#C4C4C4"/>
<path d="M13.3271 1.89697H2.12068C1.1347 1.89697 0 2.77288 0 3.61717V10.409C0 11.1865 0.961389 11.748 1.88355 11.8347L1.28341 14.1128L5.12897 11.8505H13.3271C14.3131 11.8505 15.223 11.2527 15.223 10.409V4.91405V3.61717C15.223 2.77288 14.3125 1.89697 13.3271 1.89697ZM3.83034 7.63018C3.27118 7.63018 2.81801 7.177 2.81801 6.61785C2.81801 6.0587 3.27118 5.60552 3.83034 5.60552C4.3889 5.60552 4.84266 6.0587 4.84266 6.61785C4.84266 7.177 4.3889 7.63018 3.83034 7.63018ZM7.61149 7.63018C7.05234 7.63018 6.59916 7.177 6.59916 6.61785C6.59916 6.0587 7.05234 5.60552 7.61149 5.60552C8.17064 5.60552 8.62382 6.0587 8.62382 6.61785C8.62382 7.177 8.17064 7.63018 7.61149 7.63018ZM11.3932 7.63018C10.8341 7.63018 10.3803 7.177 10.3803 6.61785C10.3803 6.0587 10.8341 5.60552 11.3932 5.60552C11.9512 5.60552 12.4056 6.0587 12.4056 6.61785C12.4056 7.177 11.9512 7.63018 11.3932 7.63018Z" fill="#C4C4C4"/>
</svg>
