<svg width="18" height="18" viewBox="0 0 18 18" fill="none" xmlns="http://www.w3.org/2000/svg">
<g clip-path="url(#clip0)">
<path d="M17.9714 5.10703C17.9527 5.06052 17.9249 5.01929 17.8897 4.9848L15.6405 2.73566C15.4943 2.58942 15.2565 2.58942 15.1103 2.73566C14.964 2.8819 14.964 3.11965 15.1103 3.26589L16.7189 4.8753H16.4992C13.5691 4.8753 11.548 5.68149 9.94604 7.4904C9.8088 7.64564 9.82303 7.88261 9.97828 8.01986C10.0495 8.08285 10.1388 8.11361 10.2273 8.11361C10.3308 8.11361 10.4335 8.07087 10.5085 7.98762C11.482 6.88817 13.0434 5.62524 16.4992 5.62524H16.7189L15.1095 7.23465C14.9633 7.38089 14.9633 7.61864 15.1095 7.76488C15.1831 7.83839 15.279 7.87439 15.375 7.87439C15.471 7.87439 15.567 7.83765 15.6405 7.76488L17.8897 5.51574C17.9241 5.48125 17.9519 5.43924 17.9714 5.39351C18.0096 5.30204 18.0096 5.19854 17.9714 5.10703Z" fill="#C4C4C4"/>
<path d="M8.58931 10.043C8.41533 9.93274 8.18208 9.98375 8.07184 10.1585L7.9631 10.3302C7.9631 10.3302 7.9631 10.3302 7.9631 10.3309C6.46619 12.6798 4.86203 14.6245 0.374992 14.6245C0.168003 14.6245 0 14.7925 0 14.9995C0 15.2065 0.168003 15.3745 0.374992 15.3745C5.23625 15.3745 7.03763 13.1793 8.59532 10.7337L8.70405 10.5612C8.81577 10.3857 8.76403 10.154 8.58931 10.043Z" fill="#C4C4C4"/>
<path d="M17.9705 12.6067C17.9518 12.5602 17.924 12.519 17.8888 12.4845L15.6397 10.2353C15.4934 10.0891 15.2557 10.0891 15.1094 10.2353C14.9632 10.3816 14.9632 10.6193 15.1094 10.7656L16.7188 12.375H16.4991C11.8096 12.375 10.3891 10.1161 8.88475 7.72372C7.30835 5.21735 5.67796 2.62549 0.374992 2.62549C0.168003 2.62549 0 2.79349 0 3.00048C0 3.20747 0.168003 3.37547 0.374992 3.37547C5.26398 3.37547 6.71442 5.6816 8.24958 8.12346C9.79598 10.5826 11.3949 13.1249 16.4992 13.1249H16.7189L15.1095 14.7344C14.9633 14.8806 14.9633 15.1183 15.1095 15.2646C15.183 15.3381 15.279 15.3741 15.375 15.3741C15.471 15.3741 15.567 15.3374 15.6405 15.2646L17.8896 13.0154C17.9241 12.981 17.9519 12.9389 17.9713 12.8932C18.0081 12.8017 18.0081 12.6982 17.9705 12.6067Z" fill="#C4C4C4"/>
</g>
<defs>
<clipPath id="clip0">
<rect width="18" height="18" fill="white"/>
</clipPath>
</defs>
</svg>
