<svg width="10" height="18" viewBox="0 0 10 18" fill="none" xmlns="http://www.w3.org/2000/svg">
<path d="M7.50362 8.17664C6.79728 7.7863 6.04632 7.48889 5.3028 7.18033C4.87156 7.00188 4.45891 6.7937 4.09459 6.50373C3.37709 5.93122 3.51464 5.00182 4.35482 4.63378C4.59274 4.52968 4.84182 4.49622 5.09462 4.48135C6.06863 4.42931 6.99431 4.60775 7.87538 5.03156C8.31405 5.24346 8.45904 5.17655 8.60775 4.71928C8.76388 4.23599 8.894 3.74527 9.03899 3.25827C9.13564 2.93112 9.01668 2.7155 8.70812 2.57795C8.14305 2.32887 7.5631 2.15042 6.95342 2.05377C6.15785 1.93108 6.15785 1.92737 6.15413 1.12808C6.15041 0.00165229 6.15042 0.00165226 5.02027 0.00165226C4.85669 0.00165226 4.69312 -0.00206533 4.52954 0.00165226C4.00165 0.0165226 3.91242 0.109462 3.89755 0.641079C3.89012 0.879005 3.89755 1.11693 3.89384 1.35857C3.89012 2.06492 3.8864 2.05377 3.2098 2.29913C1.57406 2.89394 0.56287 4.00922 0.45506 5.79367C0.358402 7.37364 1.18371 8.44059 2.48115 9.21757C3.28043 9.69714 4.16522 9.97968 5.01283 10.3552C5.3437 10.5001 5.65969 10.6674 5.93479 10.8979C6.74895 11.5708 6.60024 12.6898 5.63367 13.1136C5.11692 13.3404 4.57044 13.3961 4.00908 13.3255C3.14288 13.2177 2.31386 12.9909 1.53316 12.5857C1.0759 12.3478 0.942065 12.411 0.785926 12.9054C0.652092 13.3329 0.533129 13.7642 0.414166 14.1954C0.25431 14.7754 0.313791 14.9129 0.867712 15.1843C1.57406 15.5263 2.32873 15.7011 3.09827 15.8237C3.70052 15.9204 3.71911 15.9464 3.72654 16.571C3.73026 16.8535 3.73026 17.1398 3.73398 17.4223C3.7377 17.7792 3.90871 17.9874 4.27675 17.9948C4.69312 18.0022 5.11321 18.0022 5.52958 17.9911C5.87159 17.9837 6.04632 17.7978 6.04632 17.452C6.04632 17.0654 6.06491 16.6751 6.05004 16.2884C6.03145 15.8944 6.20246 15.6936 6.58166 15.5895C7.45529 15.3516 8.19881 14.8832 8.77132 14.1843C10.3624 12.2511 9.75648 9.42204 7.50362 8.17664Z" fill="#C4C4C4"/>
</svg>
