<svg width="18" height="18" viewBox="0 0 18 18" fill="none" xmlns="http://www.w3.org/2000/svg">
<path d="M10.8622 4.02571C11.6945 4.54753 12.2781 5.43057 12.3844 6.45558C12.7238 6.61418 13.1005 6.70538 13.4999 6.70538C14.958 6.70538 16.1398 5.52357 16.1398 4.06569C16.1398 2.60759 14.958 1.42578 13.4999 1.42578C12.0557 1.42623 10.8842 2.58692 10.8622 4.02571ZM9.13276 9.43087C10.5909 9.43087 11.7727 8.24884 11.7727 6.79096C11.7727 5.33308 10.5906 4.15128 9.13276 4.15128C7.67488 4.15128 6.4924 5.33331 6.4924 6.79119C6.4924 8.24907 7.67488 9.43087 9.13276 9.43087ZM10.2526 9.61081H8.0125C6.14871 9.61081 4.63242 11.1273 4.63242 12.9911V15.7305L4.63939 15.7734L4.82808 15.8325C6.60674 16.3883 8.152 16.5736 9.42389 16.5736C11.9081 16.5736 13.348 15.8653 13.4368 15.8202L13.6131 15.731H13.632V12.9911C13.6326 11.1273 12.1164 9.61081 10.2526 9.61081ZM14.6201 6.88553H12.3974C12.3733 7.77486 11.9937 8.57569 11.3933 9.15165C13.0499 9.64428 14.2621 11.1806 14.2621 12.9952V13.8393C16.4568 13.7589 17.7215 13.1369 17.8048 13.0951L17.9811 13.0057H18V10.2654C18 8.40182 16.4837 6.88553 14.6201 6.88553ZM4.50056 6.70583C5.017 6.70583 5.49749 6.5551 5.90453 6.29834C6.03392 5.45438 6.48634 4.71691 7.13261 4.21462C7.13531 4.1652 7.14002 4.11623 7.14002 4.06637C7.14002 2.60826 5.95799 1.42646 4.50056 1.42646C3.04223 1.42646 1.86065 2.60826 1.86065 4.06637C1.86065 5.5238 3.04223 6.70583 4.50056 6.70583ZM6.87136 9.15165C6.27383 8.57861 5.89555 7.78205 5.86791 6.89811C5.78547 6.89205 5.70393 6.88553 5.61992 6.88553H3.38008C1.51629 6.88553 0 8.40182 0 10.2654V13.0053L0.00696368 13.0475L0.195657 13.107C1.62254 13.5525 2.89599 13.7578 4.0021 13.8225V12.9952C4.00255 11.1806 5.21423 9.64473 6.87136 9.15165Z" fill="#C4C4C4"/>
</svg>
