<svg width="262" height="262" viewBox="0 0 262 262" fill="none" xmlns="http://www.w3.org/2000/svg">
<g opacity="0.41">
<g opacity="0.41">
<g opacity="0.41">
<path opacity="0.41" d="M250.918 155.471C251.143 151.609 251.043 147.726 250.608 143.885C248.565 125.833 239.301 108.809 225.671 96.7985C220.809 92.5122 215.275 88.6765 212.11 83.0173C206.781 73.491 207.185 62.5446 200.572 53.1388C193.948 43.7226 184.301 36.3813 173.418 32.6085C140.967 21.3635 95.5411 39.672 99.6283 78.7677C99.644 78.9092 99.6597 79.1135 99.6755 79.3703C100.22 87.4923 93.8433 94.32 85.7318 94.5139C55.7905 95.2265 30.0201 118.309 24.5077 147.548C20.9602 166.354 26.7661 186.963 40.5211 200.262C50.7863 210.192 64.5675 215.647 78.3487 219.394C105.984 226.908 135.066 228.485 163.562 225.608C190.233 222.92 218.367 215.249 235.617 194.729C244.818 183.793 250.09 169.755 250.918 155.471Z" fill="#E1E2FE"/>
</g>
</g>
</g>
<g opacity="0.31">
<path opacity="0.31" d="M116.442 29.2956C120 27.8356 121.701 23.7674 120.241 20.209C118.781 16.6506 114.713 14.9495 111.154 16.4095C107.596 17.8694 105.895 21.9376 107.355 25.496C108.815 29.0544 112.883 30.7555 116.442 29.2956Z" fill="#E1E2FE"/>
</g>
<g opacity="0.31">
<path opacity="0.31" d="M246.123 107.949C248.108 107.949 249.718 106.34 249.718 104.355C249.718 102.369 248.108 100.76 246.123 100.76C244.138 100.76 242.528 102.369 242.528 104.355C242.528 106.34 244.138 107.949 246.123 107.949Z" fill="#E1E2FE"/>
</g>
<g opacity="0.31">
<path opacity="0.31" d="M84.6443 41.6465C86.41 39.6577 86.2291 36.6141 84.2403 34.8484C82.2515 33.0827 79.2078 33.2636 77.4422 35.2524C75.6765 37.2413 75.8574 40.2849 77.8462 42.0506C79.835 43.8162 82.8786 43.6354 84.6443 41.6465Z" fill="#E1E2FE"/>
</g>
<g opacity="0.31">
<path opacity="0.31" d="M25.5083 224.078C31.5654 224.078 36.4757 219.168 36.4757 213.111C36.4757 207.054 31.5654 202.144 25.5083 202.144C19.4513 202.144 14.541 207.054 14.541 213.111C14.541 219.168 19.4513 224.078 25.5083 224.078Z" fill="#E1E2FE"/>
</g>
<path opacity="0.47" d="M249.687 48.8525C252.815 42.7636 250.41 35.2913 244.321 32.1683C238.232 29.04 226.531 29.2706 223.403 35.3595C220.274 41.4483 229.649 46.6726 233.469 52.3528C238.803 60.2704 246.558 54.9413 249.687 48.8525Z" fill="#ECF1F7"/>
<path opacity="0.47" d="M221.495 230.089C225.902 232.934 231.776 231.666 234.621 227.264C237.467 222.863 238.174 213.923 233.772 211.078C229.366 208.232 224.676 214.982 220.054 217.465C213.614 220.929 217.093 227.243 221.495 230.089Z" fill="#E1E2FE"/>
<path opacity="0.47" d="M41.6796 15.0021C36.8326 10.5009 29.2555 10.7839 24.7596 15.6256C20.2585 20.4726 17.4131 31.4137 22.2601 35.9149C27.1071 40.4161 34.4169 33.0643 40.6997 30.9945C49.4505 28.1125 46.5213 19.5032 41.6796 15.0021Z" fill="#E1E2FE"/>
<path opacity="0.47" d="M237.786 183.494C242.062 174.308 243.765 164.117 241.559 153.354C239.122 141.469 231.724 132.341 234.291 119.666C235.853 111.942 236.246 104.789 237.037 97.1494C238.667 81.4608 228.48 67.6377 215.841 60.1707C205.576 54.108 193.545 51.8338 181.744 51.9963C171.123 52.143 160.522 54.1028 150.231 56.7385C140.312 59.2799 130.618 62.6282 120.222 61.5698C111.576 60.6894 103.789 56.9533 95.7351 54.1656C76.5095 47.5108 53.2282 46.5729 35.648 56.7018C24.3663 63.2046 16.4696 73.758 12.9693 85.1131C10.1711 94.1835 9.81481 102.667 11.9108 111.926C13.8496 120.499 16.8626 128.899 16.7788 137.791C16.6897 146.866 12.0209 154.968 13.8601 164.3C15.1596 170.902 19.1211 176.698 23.7008 181.629C36.2978 195.2 53.8832 203.396 71.9822 207.294C96.0757 212.487 120.641 207.53 144.525 212.697C160.187 216.087 175.697 222.626 192.004 220.069C202.191 218.471 211.675 213.498 219.504 206.786C227.196 200.215 233.678 192.318 237.786 183.494Z" fill="#E1E2FE"/>
<path opacity="0.81" d="M215.804 169.037C216.47 161.549 213.944 153.831 216.056 146.416C218.582 137.534 225.902 130.885 228.883 122.165C233.29 109.285 233.081 94.8491 227.725 82.2941C225.147 76.2419 221.38 70.6246 216.234 66.7365C208.301 60.7419 197.91 59.4267 188.132 60.1865C173.586 61.3183 158.233 67.6168 143.608 65.8981C135.538 64.9497 133.07 56.2146 128.904 50.4506C124.188 43.932 117.769 38.8125 110.669 35.4065C97.5953 29.129 81.9015 28.5369 68.5395 34.2275C54.271 40.3059 41.8365 55.1404 42.6539 71.9241C43.0312 79.6898 46.1385 87.3978 44.7027 95.0273C42.8949 104.601 35.6847 113.325 30.4552 121.122C24.6807 129.737 21.1856 140.007 20.5044 150.487C20.4992 150.608 20.4887 150.723 20.4835 150.844C19.4093 168.922 30.8167 185.412 48.0197 191.071L84.6263 203.113C121.773 215.327 158.882 214.924 193.037 196.998C200.425 193.12 212.461 181.561 214.94 173.591C215.401 172.081 215.668 170.562 215.804 169.037Z" fill="#E1E2FE"/>
<path opacity="0.58" d="M245.049 202.306C246.351 202.306 247.407 201.25 247.407 199.948C247.407 198.646 246.351 197.59 245.049 197.59C243.747 197.59 242.691 198.646 242.691 199.948C242.691 201.25 243.747 202.306 245.049 202.306Z" fill="#5EC8D9"/>
<path opacity="0.58" d="M136.12 18.5285C137.422 18.5285 138.478 17.4728 138.478 16.1705C138.478 14.8682 137.422 13.8125 136.12 13.8125C134.817 13.8125 133.762 14.8682 133.762 16.1705C133.762 17.4728 134.817 18.5285 136.12 18.5285Z" fill="#2C2F34"/>
<path opacity="0.58" d="M50.9381 224.052C52.2404 224.052 53.2961 222.996 53.2961 221.694C53.2961 220.392 52.2404 219.336 50.9381 219.336C49.6358 219.336 48.5801 220.392 48.5801 221.694C48.5801 222.996 49.6358 224.052 50.9381 224.052Z" fill="#5EC8D9"/>
<path opacity="0.58" d="M199.77 233.442C200.783 233.442 201.604 232.621 201.604 231.608C201.604 230.595 200.783 229.774 199.77 229.774C198.757 229.774 197.936 230.595 197.936 231.608C197.936 232.621 198.757 233.442 199.77 233.442Z" fill="#FCBC19"/>
<path opacity="0.7" d="M236.916 243.435C238.218 243.435 239.274 242.379 239.274 241.077C239.274 239.774 238.218 238.719 236.916 238.719C235.614 238.719 234.558 239.774 234.558 241.077C234.558 242.379 235.614 243.435 236.916 243.435Z" fill="#2B555D"/>
<path opacity="0.58" d="M40.0287 44.0473C40.4628 44.0473 40.8147 43.6954 40.8147 43.2613C40.8147 42.8272 40.4628 42.4753 40.0287 42.4753C39.5946 42.4753 39.2427 42.8272 39.2427 43.2613C39.2427 43.6954 39.5946 44.0473 40.0287 44.0473Z" fill="#22252A"/>
<path opacity="0.58" d="M207.955 32.8861C207.63 34.4162 206.126 35.3909 204.596 35.066C203.066 34.7411 202.091 33.2372 202.416 31.7071C202.741 30.1771 204.245 29.2024 205.775 29.5273C207.31 29.8522 208.285 31.3561 207.955 32.8861Z" fill="#FCBC19"/>
<path opacity="0.58" d="M56.6292 18.7592C56.5034 19.3566 55.9113 19.7391 55.3087 19.6133C54.7114 19.4876 54.3288 18.8954 54.4546 18.2928C54.5803 17.6955 55.1725 17.313 55.7751 17.4387C56.3777 17.5697 56.7602 18.1618 56.6292 18.7592Z" fill="#5EC8D9"/>
<path opacity="0.58" d="M233.615 15.2064C233.505 15.7147 233.007 16.0396 232.494 15.9348C231.98 15.83 231.661 15.327 231.765 14.8134C231.876 14.3052 232.373 13.9803 232.887 14.0851C233.4 14.1951 233.725 14.6982 233.615 15.2064Z" fill="#5EC8D9"/>
<path opacity="0.58" d="M33.9448 240.327C33.8347 240.836 33.3369 241.16 32.8234 241.056C32.3099 240.951 31.9903 240.448 32.0951 239.934C32.2051 239.426 32.7029 239.101 33.2164 239.206C33.7299 239.316 34.0548 239.819 33.9448 240.327Z" fill="#FCBC19"/>
<g opacity="0.73">
<g opacity="0.73">
<path opacity="0.73" d="M67.0248 104.302C66.768 104.302 66.506 104.266 66.2492 104.197L61.8476 102.992C60.2966 102.568 59.3848 100.964 59.8093 99.4133L61.2817 94.0371C58.5883 92.6485 56.2094 90.804 54.192 88.5403L49.3502 91.3018C48.6743 91.6896 47.8883 91.7839 47.1389 91.5795C46.3896 91.3752 45.7608 90.8879 45.3783 90.2119L43.1199 86.2452C42.3234 84.8514 42.8107 83.0698 44.2045 82.2733L49.0463 79.5118C48.1241 76.6246 47.7468 73.6378 47.9249 70.6143L42.5487 69.1419C40.9977 68.7174 40.0859 67.114 40.5103 65.5629L41.7155 61.1613C42.14 59.6103 43.7434 58.6985 45.2945 59.123L50.6707 60.5954C52.0593 57.9021 53.9038 55.5231 56.1675 53.5057L53.406 48.6639C53.0182 47.988 52.9239 47.202 53.1283 46.4527C53.3326 45.7033 53.8199 45.0745 54.4959 44.692L58.4626 42.4336C59.8564 41.6371 61.638 42.1244 62.4345 43.5183L65.196 48.36C68.0832 47.4378 71.07 47.0605 74.0935 47.2387L75.566 41.8624C75.9904 40.3114 77.5938 39.3996 79.1449 39.8241L83.5465 41.0293C85.0975 41.4537 86.0093 43.0571 85.5848 44.6082L84.1124 49.9844C86.8058 51.373 89.1847 53.2175 91.2021 55.4812L96.0439 52.7197C96.7198 52.3319 97.5058 52.2376 98.2551 52.442C99.0045 52.6463 99.6333 53.1337 100.016 53.8096L102.274 57.7711C102.662 58.447 102.756 59.233 102.552 59.9823C102.348 60.7317 101.86 61.3605 101.184 61.743L96.3425 64.5045C97.2648 67.3917 97.6421 70.3785 97.4639 73.402L102.84 74.8744C103.589 75.0788 104.218 75.5661 104.601 76.2421C104.989 76.918 105.083 77.704 104.879 78.4533L103.673 82.8549C103.249 84.406 101.645 85.3177 100.094 84.8933L94.7181 83.4209C93.3295 86.1142 91.4851 88.4932 89.2214 90.5106L91.9829 95.3523C92.3706 96.0283 92.465 96.8143 92.2606 97.5636C92.0562 98.3129 91.5689 98.9417 90.893 99.3243L86.9315 101.583C86.2555 101.97 85.4695 102.065 84.7202 101.86C83.9709 101.656 83.3421 101.169 82.9596 100.493L80.1981 95.651C77.3109 96.5733 74.3241 96.9505 71.3006 96.7724L69.8281 102.149C69.6238 102.898 69.1365 103.527 68.4605 103.909C68.0151 104.171 67.5226 104.302 67.0248 104.302ZM54.5378 86.5334L54.9623 87.0312C57.0635 89.5202 59.6154 91.4957 62.5498 92.9157L63.1367 93.1987L61.3236 99.8273C61.2293 100.173 61.2765 100.535 61.4546 100.844C61.6328 101.153 61.921 101.378 62.2668 101.473L66.6684 102.678C67.0143 102.772 67.3758 102.725 67.685 102.547C67.9941 102.369 68.2195 102.08 68.3138 101.735L70.1268 95.1061L70.7766 95.1585C74.0254 95.4309 77.227 95.0275 80.3029 93.9585L80.9212 93.7437L84.3272 99.712C84.5054 100.021 84.7936 100.247 85.1394 100.341C85.4853 100.435 85.8468 100.388 86.156 100.21L90.1174 97.9461C90.4266 97.768 90.6519 97.4798 90.7462 97.1339C90.8405 96.7881 90.7934 96.4265 90.6152 96.1174L87.2092 90.149L87.707 89.7246C90.1908 87.6233 92.1715 85.0715 93.5915 82.1371L93.8745 81.5502L100.503 83.3632C101.216 83.5571 101.955 83.1379 102.148 82.4253L103.354 78.0237C103.448 77.6778 103.401 77.3163 103.223 77.0071C103.045 76.6979 102.756 76.4726 102.41 76.3783L95.7819 74.5653L95.8343 73.9155C96.1067 70.6719 95.7033 67.4651 94.6343 64.3892L94.4195 63.7709L100.388 60.3649C100.697 60.1867 100.922 59.8985 101.017 59.5527C101.111 59.2068 101.064 58.8453 100.886 58.5361L98.622 54.5747C98.4438 54.2655 98.1556 54.0402 97.8097 53.9459C97.4639 53.8515 97.1023 53.8987 96.7932 54.0769L90.8248 57.4829L90.4004 56.9851C88.2992 54.4961 85.7473 52.5206 82.8129 51.1005L82.226 50.8176L84.039 44.189C84.1334 43.8431 84.0862 43.4816 83.908 43.1724C83.7299 42.8633 83.4417 42.6379 83.0958 42.5436L78.6942 41.3384C77.9816 41.1445 77.2427 41.5637 77.0489 42.2764L75.2358 48.905L74.5861 48.8526C71.3373 48.5801 68.1356 48.9836 65.0598 50.0525L64.4414 50.2674L61.0354 44.299C60.8573 43.9899 60.5691 43.7645 60.2232 43.6702C59.8774 43.5759 59.5158 43.6231 59.2067 43.8012L55.2452 46.0597C54.9361 46.2378 54.7108 46.526 54.6164 46.8719C54.5221 47.2177 54.5693 47.5793 54.7474 47.8884L58.1534 53.8568L57.6556 54.2812C55.1666 56.3825 53.1912 58.9343 51.7711 61.8687L51.4881 62.4556L44.8595 60.6426C44.5137 60.5483 44.1521 60.5954 43.843 60.7736C43.5338 60.9517 43.3085 61.2399 43.2142 61.5858L42.009 65.9874C41.9147 66.3332 41.9618 66.6948 42.14 67.0039C42.3181 67.3131 42.6063 67.5384 42.9522 67.6327L49.5808 69.4458L49.5284 70.0955C49.2559 73.3391 49.6594 76.546 50.7283 79.6219L50.9432 80.2402L44.9748 83.6462C44.6657 83.8243 44.4403 84.1125 44.346 84.4584C44.2517 84.8042 44.2989 85.1658 44.477 85.4749L46.7355 89.4416C46.9136 89.7508 47.2018 89.9761 47.5477 90.0704C47.8935 90.1647 48.2551 90.1176 48.5642 89.9394L54.5378 86.5334ZM72.7101 85.1448C71.5469 85.1448 70.3783 84.9876 69.2255 84.6732C65.8405 83.7457 63.0214 81.5607 61.2869 78.5162C59.5473 75.4718 59.1019 71.9296 60.0293 68.5497C60.9568 65.1647 63.1419 62.3456 66.1863 60.6111C69.2308 58.8715 72.773 58.4261 76.1528 59.3535C79.5326 60.281 82.357 62.4661 84.0914 65.5105C85.8311 68.555 86.2765 72.0972 85.349 75.477C84.4216 78.8621 82.2365 81.6812 79.192 83.4156C77.1851 84.5632 74.9633 85.1448 72.7101 85.1448ZM72.6735 60.4487C70.6928 60.4487 68.733 60.9622 66.9671 61.9735C64.2842 63.5036 62.3611 65.9874 61.5437 68.9637C60.7315 71.94 61.1245 75.0578 62.6546 77.7407C64.1847 80.4236 66.6684 82.3467 69.6448 83.1641C72.6211 83.9763 75.7389 83.5833 78.4218 82.0532C81.1046 80.5231 83.0277 78.0394 83.8451 75.0631C84.6573 72.0867 84.2643 68.9689 82.7395 66.2861C81.2094 63.6032 78.7257 61.6801 75.7493 60.8627C74.7275 60.5849 73.6953 60.4487 72.6735 60.4487Z" fill="white"/>
</g>
</g>
<g opacity="0.69">
<path opacity="0.69" d="M194.446 90.1228L164.798 90.6626C163.944 90.6783 163.236 90.1386 163.221 89.4574L162.864 69.7707C162.854 69.0895 163.54 68.5235 164.394 68.5078L194.042 67.9681C194.902 67.9524 195.604 68.4921 195.62 69.1733L195.976 88.86C195.992 89.536 195.305 90.1071 194.446 90.1228ZM164.405 68.8694C163.75 68.8799 163.226 69.2781 163.236 69.7602L163.593 89.4469C163.603 89.9237 164.143 90.3062 164.793 90.2958L194.441 89.756C195.096 89.7455 195.62 89.3473 195.609 88.8652L195.253 69.1785C195.242 68.7017 194.703 68.3192 194.053 68.3297L164.405 68.8694Z" fill="white"/>
<path opacity="0.69" d="M195.285 71.9458L163.097 72.5317L163.103 72.8985L195.291 72.3125L195.285 71.9458Z" fill="white"/>
<path opacity="0.69" d="M165.421 71.5471C165.039 71.5524 164.724 71.2484 164.714 70.8659C164.709 70.4834 165.013 70.169 165.395 70.1585C165.778 70.1533 166.092 70.4572 166.103 70.8397C166.108 71.2222 165.804 71.5419 165.421 71.5471ZM165.4 70.5306C165.222 70.5358 165.075 70.6825 165.081 70.8607C165.086 71.0388 165.233 71.1856 165.411 71.1803C165.589 71.1751 165.736 71.0284 165.73 70.8502C165.73 70.6668 165.584 70.5253 165.4 70.5306Z" fill="white"/>
<path opacity="0.69" d="M167.334 71.5102C166.952 71.5155 166.637 71.2116 166.627 70.829C166.622 70.4465 166.926 70.1321 167.308 70.1216C167.691 70.1164 168.005 70.4203 168.016 70.8028C168.021 71.1906 167.712 71.505 167.334 71.5102ZM167.313 70.4937C167.135 70.4989 166.989 70.6456 166.994 70.8238C166.999 71.002 167.146 71.1487 167.324 71.1434C167.502 71.1382 167.649 70.9915 167.644 70.8133C167.644 70.6352 167.492 70.4884 167.313 70.4937Z" fill="white"/>
<path opacity="0.69" d="M169.205 71.479C168.823 71.4842 168.508 71.1803 168.498 70.7978C168.492 70.4153 168.796 70.1009 169.179 70.0904C169.561 70.0852 169.876 70.3891 169.886 70.7716C169.891 71.1541 169.588 71.4685 169.205 71.479ZM169.189 70.4624C169.011 70.4677 168.864 70.6144 168.87 70.7926C168.875 70.9707 169.022 71.1174 169.2 71.1122C169.378 71.107 169.525 70.9602 169.519 70.7821C169.514 70.5987 169.367 70.4572 169.189 70.4624Z" fill="white"/>
</g>
<g opacity="0.69">
<path opacity="0.69" d="M94.9434 207.777L65.2955 208.316C64.4414 208.332 63.734 207.792 63.7183 207.111L63.3619 187.424C63.3515 186.743 64.0379 186.177 64.892 186.162L94.5399 185.622C95.3993 185.606 96.1015 186.146 96.1172 186.827L96.4735 206.514C96.4892 207.195 95.8028 207.761 94.9434 207.777ZM64.9025 186.528C64.2475 186.539 63.7235 186.937 63.734 187.419L64.0903 207.106C64.1008 207.583 64.6405 207.965 65.2903 207.955L94.9382 207.415C95.5932 207.405 96.1172 207.006 96.1067 206.524L95.7504 186.838C95.7399 186.361 95.2002 185.978 94.5504 185.989L64.9025 186.528Z" fill="white"/>
<path opacity="0.69" d="M95.7965 189.6L63.6084 190.186L63.6151 190.553L95.8032 189.967L95.7965 189.6Z" fill="white"/>
<path opacity="0.69" d="M65.9189 189.206C65.5364 189.211 65.222 188.907 65.2115 188.525C65.2063 188.142 65.5102 187.828 65.8927 187.817C66.2752 187.812 66.5896 188.116 66.6001 188.499C66.6106 188.881 66.3014 189.196 65.9189 189.206ZM65.9032 188.184C65.725 188.189 65.5783 188.336 65.5835 188.514C65.5888 188.693 65.7355 188.839 65.9137 188.834C66.0918 188.829 66.2385 188.682 66.2333 188.504C66.2281 188.326 66.0813 188.184 65.9032 188.184Z" fill="white"/>
<path opacity="0.69" d="M67.832 189.169C67.4495 189.175 67.1351 188.871 67.1246 188.488C67.1193 188.106 67.4233 187.791 67.8058 187.781C68.1883 187.776 68.5027 188.08 68.5132 188.462C68.5184 188.845 68.2145 189.164 67.832 189.169ZM67.811 188.153C67.6329 188.158 67.4861 188.305 67.4914 188.483C67.4966 188.661 67.6433 188.808 67.8215 188.803C67.9997 188.797 68.1464 188.651 68.1411 188.473C68.1411 188.294 67.9944 188.148 67.811 188.153Z" fill="white"/>
<path opacity="0.69" d="M69.708 189.138C69.3254 189.143 69.011 188.839 69.0006 188.457C68.9953 188.074 69.2992 187.76 69.6818 187.749C70.0643 187.744 70.3787 188.048 70.3892 188.431C70.3944 188.813 70.0852 189.127 69.708 189.138ZM69.687 188.116C69.5088 188.121 69.3621 188.268 69.3674 188.446C69.3726 188.624 69.5193 188.771 69.6975 188.766C69.8756 188.761 70.0224 188.614 70.0171 188.436C70.0171 188.258 69.8652 188.116 69.687 188.116Z" fill="white"/>
</g>
<g opacity="0.55">
<g opacity="0.55">
<path opacity="0.55" d="M218.132 152.087L215.067 149.629C216.083 147.727 216.665 145.673 216.822 143.603L220.731 143.174C221.47 143.095 221.999 142.429 221.921 141.691L221.606 138.824C221.528 138.086 220.862 137.556 220.123 137.635L216.214 138.065C215.612 136.079 214.6 134.197 213.191 132.563L215.648 129.497C216.115 128.916 216.02 128.072 215.439 127.606L213.185 125.803C212.604 125.337 211.76 125.431 211.294 126.013L208.836 129.078C206.934 128.061 204.88 127.48 202.81 127.323L202.381 123.414C202.302 122.675 201.637 122.145 200.898 122.224L198.031 122.538C197.293 122.622 196.763 123.283 196.842 124.021L197.272 127.93C195.286 128.533 193.404 129.544 191.77 130.954L188.704 128.496C188.123 128.03 187.279 128.124 186.813 128.706L185.01 130.959C184.544 131.541 184.638 132.384 185.22 132.851L188.285 135.308C187.268 137.21 186.687 139.265 186.53 141.334L182.621 141.764C181.882 141.843 181.352 142.508 181.431 143.247L181.745 146.113C181.829 146.852 182.49 147.381 183.228 147.303L187.137 146.873C187.74 148.859 188.751 150.74 190.161 152.375L187.703 155.44C187.237 156.022 187.331 156.866 187.913 157.332L190.166 159.135C190.748 159.601 191.591 159.507 192.058 158.925L194.515 155.86C196.417 156.876 198.472 157.458 200.541 157.615L200.971 161.519C201.055 162.258 201.715 162.787 202.454 162.708L205.32 162.394C206.059 162.31 206.588 161.65 206.51 160.911L206.08 157.002C208.066 156.399 209.947 155.388 211.582 153.978L214.647 156.436C215.229 156.902 216.073 156.808 216.539 156.226L218.342 153.973C218.803 153.397 218.714 152.548 218.132 152.087ZM196.795 148.555C193.431 145.862 192.891 140.952 195.59 137.588C198.283 134.224 203.193 133.684 206.557 136.383C209.921 139.076 210.461 143.986 207.767 147.35C205.069 150.709 200.159 151.248 196.795 148.555Z" fill="white"/>
<path opacity="0.55" d="M202.301 162.975C201.939 162.975 201.588 162.854 201.3 162.624C200.965 162.356 200.755 161.974 200.708 161.544L200.299 157.855C198.292 157.677 196.369 157.122 194.577 156.189L192.256 159.087C191.988 159.422 191.606 159.631 191.176 159.679C190.752 159.726 190.333 159.605 189.997 159.338L187.749 157.535C187.414 157.268 187.204 156.886 187.157 156.456C187.11 156.032 187.231 155.612 187.498 155.277L189.819 152.379C188.525 150.834 187.561 149.078 186.953 147.16L183.259 147.569C182.834 147.616 182.415 147.496 182.08 147.223C181.744 146.956 181.535 146.573 181.487 146.144L181.173 143.277C181.126 142.853 181.246 142.434 181.519 142.098C181.786 141.763 182.169 141.553 182.598 141.506L186.287 141.098C186.465 139.091 187.021 137.168 187.954 135.376L185.056 133.054C184.721 132.787 184.511 132.404 184.464 131.98C184.417 131.556 184.537 131.136 184.81 130.801L186.612 128.548C186.879 128.212 187.262 128.003 187.692 127.956C188.116 127.909 188.535 128.029 188.871 128.302L191.768 130.623C193.314 129.329 195.07 128.364 196.987 127.751L196.579 124.062C196.479 123.182 197.118 122.386 197.999 122.291L200.865 121.977C201.745 121.883 202.542 122.517 202.636 123.397L203.045 127.086C205.052 127.264 206.975 127.819 208.767 128.752L211.088 125.854C211.644 125.163 212.655 125.053 213.347 125.608L215.595 127.411C215.93 127.678 216.14 128.06 216.187 128.49C216.234 128.915 216.113 129.334 215.841 129.669L213.52 132.567C214.814 134.113 215.778 135.868 216.391 137.786L220.085 137.377C220.51 137.33 220.929 137.451 221.264 137.723C221.6 137.99 221.809 138.373 221.856 138.802L222.171 141.669C222.218 142.093 222.097 142.512 221.825 142.848C221.558 143.183 221.175 143.393 220.746 143.44L217.057 143.849C216.878 145.856 216.323 147.779 215.39 149.571L218.288 151.892C218.623 152.159 218.833 152.542 218.88 152.971C218.927 153.396 218.807 153.815 218.534 154.15L216.732 156.398C216.176 157.09 215.165 157.2 214.473 156.65L211.576 154.329C210.03 155.623 208.28 156.587 206.357 157.2L206.765 160.889C206.812 161.314 206.692 161.733 206.419 162.068C206.152 162.403 205.77 162.613 205.34 162.66L202.474 162.975C202.421 162.969 202.364 162.975 202.301 162.975ZM194.446 155.518L194.64 155.623C196.484 156.613 198.476 157.19 200.561 157.347L200.776 157.363L201.232 161.486C201.263 161.775 201.405 162.031 201.63 162.21C201.855 162.393 202.138 162.477 202.427 162.44L205.293 162.126C205.581 162.094 205.838 161.953 206.016 161.727C206.199 161.502 206.278 161.219 206.246 160.931L205.791 156.807L206 156.744C208.002 156.136 209.82 155.141 211.403 153.773L211.565 153.632L214.803 156.225C215.27 156.598 215.951 156.524 216.323 156.058L218.126 153.81C218.309 153.585 218.388 153.302 218.356 153.013C218.325 152.725 218.183 152.468 217.958 152.29L214.72 149.696L214.824 149.503C215.815 147.658 216.391 145.667 216.548 143.581L216.564 143.367L220.688 142.911C220.976 142.879 221.233 142.738 221.411 142.512C221.594 142.287 221.673 142.004 221.642 141.716L221.327 138.85C221.296 138.561 221.154 138.305 220.929 138.127C220.704 137.948 220.421 137.859 220.132 137.896L216.009 138.352L215.946 138.142C215.343 136.141 214.342 134.322 212.975 132.74L212.833 132.577L215.427 129.339C215.605 129.114 215.689 128.831 215.658 128.543C215.626 128.254 215.485 127.998 215.259 127.819L213.011 126.017C212.545 125.645 211.864 125.718 211.492 126.185L208.898 129.423L208.704 129.318C206.86 128.328 204.868 127.751 202.783 127.594L202.568 127.578L202.112 123.455C202.049 122.862 201.51 122.433 200.917 122.496L198.051 122.81C197.763 122.841 197.506 122.983 197.328 123.208C197.145 123.434 197.066 123.717 197.097 124.005L197.553 128.129L197.344 128.191C195.342 128.794 193.524 129.795 191.941 131.163L191.779 131.304L188.541 128.71C188.315 128.527 188.032 128.448 187.744 128.48C187.456 128.511 187.199 128.653 187.021 128.878L185.218 131.131C185.04 131.356 184.956 131.639 184.988 131.928C185.019 132.216 185.161 132.473 185.386 132.651L188.624 135.245L188.52 135.438C187.529 137.283 186.953 139.274 186.796 141.36L186.78 141.574L182.656 142.03C182.368 142.062 182.111 142.203 181.933 142.429C181.749 142.654 181.671 142.937 181.702 143.225L182.017 146.091C182.048 146.38 182.19 146.636 182.415 146.814C182.64 146.993 182.923 147.076 183.211 147.045L187.335 146.589L187.398 146.799C188.001 148.8 189.002 150.619 190.369 152.201L190.511 152.364L187.917 155.602C187.734 155.827 187.655 156.11 187.686 156.398C187.718 156.687 187.859 156.943 188.085 157.122L190.333 158.924C190.558 159.102 190.841 159.186 191.129 159.155C191.417 159.123 191.674 158.982 191.852 158.756L194.446 155.518ZM201.667 150.524C199.896 150.524 198.114 149.948 196.631 148.758C194.949 147.412 193.896 145.489 193.66 143.351C193.424 141.208 194.037 139.106 195.384 137.424C196.731 135.742 198.654 134.689 200.792 134.453C202.935 134.217 205.036 134.831 206.718 136.177C210.187 138.96 210.748 144.042 207.965 147.511C206.377 149.492 204.03 150.524 201.667 150.524ZM201.688 134.925C201.41 134.925 201.127 134.941 200.849 134.972C198.848 135.192 197.05 136.177 195.793 137.749C193.194 140.993 193.718 145.745 196.961 148.35C200.205 150.949 204.957 150.425 207.562 147.181C210.161 143.938 209.637 139.185 206.393 136.581C205.041 135.501 203.396 134.925 201.688 134.925Z" fill="white"/>
</g>
</g>
<g opacity="0.38">
<path opacity="0.38" d="M237.681 175.378H208.012C207.498 175.378 207.084 174.88 207.084 174.272V163.352C207.084 162.739 207.504 162.246 208.012 162.246H237.681C238.194 162.246 238.608 162.744 238.608 163.352V174.272C238.614 174.88 238.194 175.378 237.681 175.378ZM208.012 162.77C207.792 162.77 207.608 163.038 207.608 163.352V174.272C207.608 174.587 207.792 174.854 208.012 174.854H237.681C237.901 174.854 238.084 174.587 238.084 174.272V163.352C238.084 163.038 237.901 162.77 237.681 162.77H208.012Z" fill="white"/>
<g opacity="0.38">
<path opacity="0.38" d="M233.274 166.464H213.189V166.988H233.274V166.464Z" fill="white"/>
<path opacity="0.38" d="M233.274 167.25H213.189C212.901 167.25 212.665 167.015 212.665 166.726C212.665 166.438 212.901 166.202 213.189 166.202H233.274C233.562 166.202 233.798 166.438 233.798 166.726C233.798 167.02 233.567 167.25 233.274 167.25ZM233.274 166.726V166.988V166.726Z" fill="white"/>
</g>
<g opacity="0.38">
<path opacity="0.38" d="M222.165 168.849H213.189V169.373H222.165V168.849Z" fill="white"/>
<path opacity="0.38" d="M222.165 169.635H213.189C212.901 169.635 212.665 169.399 212.665 169.111C212.665 168.822 212.901 168.587 213.189 168.587H222.165C222.453 168.587 222.689 168.822 222.689 169.111C222.689 169.399 222.453 169.635 222.165 169.635ZM222.165 169.111V169.373V169.111Z" fill="white"/>
</g>
<g opacity="0.38">
<path opacity="0.38" d="M233.279 168.849H224.303V169.373H233.279V168.849Z" fill="white"/>
<path opacity="0.38" d="M233.274 169.635H224.298C224.01 169.635 223.774 169.399 223.774 169.111C223.774 168.822 224.01 168.587 224.298 168.587H233.274C233.562 168.587 233.798 168.822 233.798 169.111C233.798 169.399 233.567 169.635 233.274 169.635ZM233.274 169.111V169.373V169.111Z" fill="white"/>
</g>
<g opacity="0.38">
<path opacity="0.38" d="M233.274 171.343H213.189V171.867H233.274V171.343Z" fill="white"/>
<path opacity="0.38" d="M233.274 172.129H213.189C212.901 172.129 212.665 171.893 212.665 171.605C212.665 171.317 212.901 171.081 213.189 171.081H233.274C233.562 171.081 233.798 171.317 233.798 171.605C233.798 171.893 233.567 172.129 233.274 172.129ZM233.274 171.605V171.867V171.605Z" fill="white"/>
</g>
</g>
<g opacity="0.55">
<path opacity="0.55" d="M155.073 223.911C154.659 223.911 154.266 223.769 153.936 223.507C153.553 223.203 153.317 222.768 153.265 222.286L152.898 218.938C151.075 218.749 149.324 218.241 147.684 217.423L145.578 220.054C144.949 220.84 143.796 220.966 143.015 220.337L140.841 218.592C140.463 218.288 140.222 217.853 140.17 217.371C140.118 216.889 140.254 216.412 140.558 216.03L142.664 213.399C141.506 211.979 140.631 210.381 140.05 208.641L136.701 209.008C135.7 209.113 134.799 208.395 134.689 207.394L134.385 204.622C134.275 203.621 134.998 202.72 135.999 202.61L139.347 202.243C139.536 200.42 140.044 198.669 140.862 197.029L138.231 194.923C137.445 194.294 137.32 193.146 137.948 192.36L139.693 190.186C139.997 189.803 140.432 189.568 140.914 189.515C141.396 189.463 141.873 189.599 142.256 189.903L144.886 192.009C146.306 190.851 147.904 189.976 149.644 189.395L149.277 186.046C149.225 185.564 149.361 185.087 149.665 184.705C149.969 184.322 150.404 184.087 150.886 184.034L153.658 183.73C154.14 183.678 154.617 183.814 154.999 184.118C155.382 184.422 155.618 184.857 155.67 185.339L156.037 188.687C157.86 188.876 159.61 189.384 161.251 190.202L163.357 187.571C163.986 186.785 165.133 186.659 165.919 187.288L168.094 189.033C168.471 189.337 168.712 189.772 168.765 190.254C168.817 190.736 168.681 191.213 168.377 191.595L166.271 194.226C167.429 195.646 168.304 197.244 168.885 198.984L172.234 198.617C173.229 198.507 174.136 199.23 174.246 200.231L174.55 203.003C174.66 204.004 173.937 204.905 172.936 205.015L169.587 205.382C169.399 207.205 168.891 208.956 168.073 210.59L170.704 212.697C171.086 213.001 171.322 213.436 171.374 213.918C171.427 214.4 171.29 214.877 170.987 215.259L169.242 217.434C168.938 217.816 168.503 218.052 168.021 218.105C167.539 218.162 167.062 218.021 166.679 217.717L164.049 215.61C162.629 216.768 161.031 217.643 159.291 218.225L159.658 221.574C159.768 222.574 159.045 223.476 158.044 223.586L155.272 223.89C155.209 223.905 155.141 223.911 155.073 223.911ZM147.407 216.087L147.789 216.292C149.539 217.23 151.426 217.78 153.406 217.926L153.841 217.958L154.302 222.166C154.323 222.37 154.428 222.559 154.585 222.684C154.748 222.815 154.952 222.873 155.156 222.852L157.928 222.548C158.133 222.527 158.321 222.422 158.447 222.26C158.578 222.097 158.636 221.898 158.615 221.689L158.154 217.481L158.573 217.355C160.47 216.784 162.199 215.836 163.698 214.536L164.028 214.253L167.334 216.899C167.497 217.03 167.696 217.088 167.905 217.067C168.11 217.046 168.298 216.941 168.424 216.779L170.169 214.604C170.3 214.442 170.358 214.237 170.337 214.033C170.316 213.829 170.211 213.64 170.054 213.514L166.747 210.863L166.952 210.48C167.89 208.73 168.44 206.844 168.587 204.863L168.618 204.428L172.826 203.967C173.25 203.92 173.559 203.537 173.512 203.113L173.208 200.341C173.161 199.917 172.773 199.613 172.354 199.655L168.146 200.116L168.021 199.696C167.45 197.8 166.501 196.076 165.202 194.572L164.919 194.242L167.57 190.935C167.701 190.773 167.759 190.574 167.738 190.364C167.717 190.16 167.612 189.971 167.455 189.845L165.28 188.1C164.95 187.833 164.457 187.886 164.19 188.221L161.544 191.527L161.162 191.323C159.411 190.385 157.525 189.835 155.544 189.688L155.109 189.657L154.648 185.449C154.627 185.245 154.522 185.056 154.365 184.93C154.203 184.799 153.998 184.742 153.794 184.762L151.022 185.066C150.818 185.087 150.629 185.192 150.503 185.349C150.372 185.512 150.315 185.711 150.336 185.921L150.797 190.128L150.378 190.254C148.481 190.825 146.752 191.774 145.253 193.073L144.923 193.356L141.616 190.71C141.454 190.579 141.255 190.521 141.045 190.542C140.841 190.563 140.652 190.668 140.526 190.825L138.781 193C138.65 193.162 138.593 193.367 138.614 193.571C138.635 193.775 138.74 193.964 138.897 194.09L142.203 196.741L141.999 197.124C141.061 198.874 140.511 200.76 140.364 202.741L140.332 203.176L136.125 203.637C135.7 203.684 135.391 204.067 135.438 204.491L135.742 207.263C135.789 207.688 136.172 207.991 136.596 207.949L140.804 207.488L140.93 207.908C141.501 209.804 142.449 211.534 143.749 213.032L144.032 213.362L141.38 216.669C141.249 216.831 141.192 217.03 141.213 217.24C141.234 217.444 141.339 217.633 141.496 217.759L143.67 219.504C144 219.771 144.493 219.719 144.76 219.383L147.407 216.087ZM154.46 211.874C152.688 211.874 150.907 211.298 149.424 210.103C147.742 208.756 146.689 206.833 146.453 204.69C146.217 202.547 146.83 200.446 148.177 198.764C149.523 197.082 151.447 196.028 153.59 195.793C155.733 195.557 157.839 196.17 159.516 197.517C161.198 198.863 162.251 200.786 162.487 202.93C162.723 205.073 162.11 207.174 160.763 208.856C159.17 210.842 156.823 211.874 154.46 211.874ZM154.481 196.794C154.219 196.794 153.962 196.809 153.7 196.835C151.834 197.04 150.163 197.957 148.994 199.424C147.82 200.886 147.291 202.72 147.496 204.58C147.7 206.446 148.617 208.117 150.084 209.286C153.102 211.707 157.53 211.219 159.951 208.201C161.125 206.739 161.654 204.905 161.45 203.045C161.245 201.179 160.328 199.508 158.861 198.339C157.598 197.328 156.068 196.794 154.481 196.794Z" fill="white"/>
</g>
<g opacity="0.61">
<g opacity="0.61">
<path opacity="0.74" d="M87.1463 97.784L88.1157 177.568C88.1262 178.564 87.3297 179.376 86.3394 179.392L38.4039 179.973C37.4083 179.984 36.5961 179.187 36.5803 178.197L35.6109 98.4128C35.6005 97.4172 36.3969 96.605 37.3873 96.5893L85.3228 96.0077C86.3184 95.9972 87.1306 96.7937 87.1463 97.784Z" fill="#488D9A"/>
<g opacity="0.61">
<path opacity="0.61" d="M87.3192 97.7523L87.3768 102.494L35.8414 103.123L35.7838 98.292C35.7733 97.3383 36.5331 96.5628 37.4868 96.5471L85.4852 95.9654C86.486 95.955 87.3035 96.7567 87.3192 97.7523Z" fill="#3E479B"/>
</g>
</g>
<path opacity="0.61" d="M39.3312 100.76C38.7443 100.765 38.2675 100.294 38.2623 99.7067C38.257 99.1198 38.7286 98.643 39.3155 98.6377C39.9024 98.6325 40.3792 99.1041 40.3844 99.691C40.3897 100.278 39.9181 100.755 39.3312 100.76ZM39.3207 99.0622C38.9696 99.0674 38.6867 99.3504 38.6867 99.7015C38.6867 100.053 38.9749 100.335 39.326 100.335C39.677 100.33 39.96 100.047 39.96 99.6962C39.96 99.3451 39.6718 99.0622 39.3207 99.0622Z" fill="white"/>
<path opacity="0.61" d="M42.8791 100.734C42.2922 100.739 41.8153 100.267 41.8101 99.6806C41.8049 99.0937 42.2765 98.6169 42.8633 98.6116C43.4502 98.6064 43.9271 99.078 43.9323 99.6649C43.9323 100.252 43.4607 100.729 42.8791 100.734ZM42.8633 99.0361C42.5123 99.0413 42.2293 99.3243 42.2293 99.6753C42.2345 100.026 42.5175 100.309 42.8686 100.309C43.2197 100.304 43.5026 100.021 43.5026 99.6701C43.5026 99.319 43.2144 99.0361 42.8633 99.0361Z" fill="white"/>
<path opacity="0.61" d="M46.3214 100.708C45.7346 100.713 45.2577 100.241 45.2525 99.6544C45.2472 99.0676 45.7188 98.5907 46.3057 98.5855C46.8926 98.5803 47.3694 99.0518 47.3747 99.6387C47.3799 100.226 46.9083 100.702 46.3214 100.708ZM46.311 99.0099C45.9599 99.0152 45.6769 99.2981 45.6769 99.6492C45.6769 100 45.9651 100.283 46.3162 100.283C46.6673 100.278 46.9502 99.9951 46.9502 99.644C46.9502 99.2929 46.662 99.0099 46.311 99.0099Z" fill="white"/>
<path opacity="0.61" d="M64.0697 110.486L40.2539 110.664C40.0181 110.664 39.8295 110.475 39.8242 110.245C39.8242 110.009 40.0129 109.82 40.2434 109.815L64.0592 109.637C64.295 109.637 64.4837 109.825 64.4889 110.056C64.4941 110.292 64.3055 110.48 64.0697 110.486Z" fill="white"/>
<path opacity="0.61" d="M72.0082 110.423L67.0669 110.459C66.8311 110.459 66.6424 110.271 66.6372 110.04C66.6372 109.804 66.8258 109.616 67.0564 109.61L71.9977 109.574C72.2335 109.574 72.4222 109.762 72.4274 109.993C72.4326 110.229 72.244 110.423 72.0082 110.423Z" fill="#3E479B"/>
<path opacity="0.61" d="M64.2216 130.256L40.4058 130.434C40.17 130.434 39.9813 130.245 39.9761 130.015C39.9761 129.779 40.1647 129.59 40.3953 129.585L64.2111 129.407C64.4469 129.407 64.6355 129.596 64.6408 129.826C64.646 130.062 64.4574 130.251 64.2216 130.256Z" fill="white"/>
<path opacity="0.61" d="M72.1601 130.193L67.2187 130.23C66.9829 130.23 66.7943 130.041 66.7891 129.811C66.7891 129.575 66.9777 129.386 67.2083 129.381L72.1496 129.344C72.3854 129.344 72.574 129.533 72.5793 129.763C72.5845 129.999 72.3959 130.193 72.1601 130.193Z" fill="#599AF2"/>
<path opacity="0.61" d="M64.1424 119.917L40.3267 120.096C40.0909 120.096 39.9022 119.907 39.897 119.676C39.897 119.441 40.0856 119.252 40.3162 119.247L64.132 119.069C64.3678 119.069 64.5564 119.257 64.5616 119.488C64.5669 119.729 64.3782 119.917 64.1424 119.917Z" fill="#599AF2"/>
<path opacity="0.61" d="M72.081 119.86L67.1396 119.897C66.9038 119.897 66.7152 119.708 66.71 119.477C66.71 119.242 66.8986 119.053 67.1292 119.048L72.0705 119.011C72.3063 119.011 72.4949 119.2 72.5002 119.43C72.5054 119.666 72.3168 119.86 72.081 119.86Z" fill="white"/>
<path opacity="0.61" d="M80.2191 119.797L75.2778 119.834C75.042 119.834 74.8534 119.645 74.8481 119.415C74.8481 119.179 75.0368 118.99 75.2673 118.985L80.2087 118.948C80.4445 118.948 80.6331 119.137 80.6383 119.367C80.6436 119.603 80.4549 119.797 80.2191 119.797Z" fill="#3E479B"/>
<path opacity="0.61" d="M56.1672 115.186L40.29 115.306C40.0542 115.306 39.8656 115.118 39.8604 114.887C39.8604 114.651 40.049 114.463 40.2796 114.457L56.1567 114.337C56.3925 114.337 56.5812 114.526 56.5864 114.756C56.5917 114.992 56.403 115.186 56.1672 115.186Z" fill="#3E479B"/>
<path d="M66.0553 115.112L59.0913 115.165C58.8555 115.165 58.6669 114.976 58.6616 114.746C58.6616 114.51 58.8503 114.321 59.0808 114.316L66.0448 114.263C66.2806 114.263 66.4692 114.452 66.4745 114.683C66.4745 114.918 66.2911 115.112 66.0553 115.112Z" fill="#2B555D"/>
<path opacity="0.61" d="M66.1287 125.058L50.2515 125.178C50.0157 125.178 49.827 124.99 49.8218 124.759C49.8218 124.523 50.0104 124.335 50.241 124.33L66.1182 124.209C66.354 124.209 66.5426 124.398 66.5479 124.628C66.5531 124.864 66.3645 125.053 66.1287 125.058Z" fill="#3E479B"/>
<path d="M47.3331 125.199L40.3691 125.252C40.1333 125.252 39.9447 125.063 39.9395 124.833C39.9395 124.597 40.1281 124.408 40.3587 124.403L47.3226 124.351C47.5584 124.351 47.747 124.539 47.7523 124.77C47.7575 125.006 47.5689 125.194 47.3331 125.199Z" fill="#2B555D"/>
<path d="M64.2733 136.921L40.4575 137.099C40.2217 137.099 40.0331 136.911 40.0278 136.68C40.0278 136.444 40.2165 136.256 40.447 136.25L64.2628 136.072C64.4986 136.072 64.6873 136.261 64.6925 136.491C64.6925 136.727 64.5039 136.916 64.2733 136.921Z" fill="#2B555D"/>
<path opacity="0.61" d="M72.2123 136.858L67.271 136.895C67.0352 136.895 66.8465 136.706 66.8413 136.476C66.8413 136.24 67.03 136.051 67.2605 136.046L72.2018 136.01C72.4376 136.01 72.6263 136.198 72.6315 136.429C72.6315 136.665 72.4429 136.858 72.2123 136.858Z" fill="#3E479B"/>
<path opacity="0.61" d="M64.4208 156.692L40.605 156.87C40.3692 156.87 40.1805 156.681 40.1753 156.451C40.1753 156.215 40.3639 156.026 40.5945 156.021L64.4103 155.843C64.6461 155.843 64.8347 156.031 64.84 156.262C64.8452 156.498 64.6566 156.686 64.4208 156.692Z" fill="white"/>
<path opacity="0.61" d="M72.3593 156.629L67.418 156.666C67.1822 156.666 66.9935 156.477 66.9883 156.246C66.9883 156.011 67.1769 155.822 67.4075 155.817L72.3488 155.78C72.5846 155.78 72.7732 155.969 72.7785 156.199C72.7837 156.44 72.5951 156.629 72.3593 156.629Z" fill="#599AF2"/>
<path opacity="0.61" d="M64.3417 146.358L40.5259 146.537C40.2901 146.537 40.1014 146.348 40.0962 146.117C40.0962 145.882 40.2848 145.693 40.5154 145.688L64.3312 145.51C64.567 145.51 64.7556 145.698 64.7609 145.929C64.7661 146.165 64.5775 146.353 64.3417 146.358Z" fill="#599AF2"/>
<path opacity="0.61" d="M72.2802 146.296L67.3389 146.332C67.1031 146.332 66.9144 146.144 66.9092 145.913C66.9092 145.677 67.0978 145.489 67.3284 145.483L72.2697 145.447C72.5055 145.447 72.6941 145.635 72.6994 145.866C72.7046 146.102 72.516 146.296 72.2802 146.296Z" fill="white"/>
<path opacity="0.61" d="M80.4185 146.233L75.4771 146.269C75.2413 146.269 75.0527 146.081 75.0475 145.85C75.0422 145.62 75.2361 145.426 75.4667 145.42L80.408 145.384C80.6438 145.384 80.8324 145.572 80.8377 145.803C80.8429 146.044 80.6543 146.233 80.4185 146.233Z" fill="#3E479B"/>
<path opacity="0.61" d="M56.3664 141.622L40.4893 141.742C40.2535 141.742 40.0648 141.553 40.0596 141.323C40.0596 141.087 40.2482 140.898 40.4788 140.893L56.356 140.773C56.5918 140.773 56.7804 140.961 56.7857 141.192C56.7909 141.428 56.6022 141.622 56.3664 141.622Z" fill="#3E479B"/>
<path d="M66.2545 141.548L59.2905 141.601C59.0547 141.601 58.8661 141.412 58.8608 141.182C58.8608 140.946 59.0495 140.757 59.28 140.752L66.244 140.699C66.4798 140.699 66.6684 140.888 66.6737 141.119C66.6789 141.354 66.4903 141.548 66.2545 141.548Z" fill="#2B555D"/>
<path opacity="0.61" d="M66.3279 151.494L50.4507 151.614C50.2149 151.614 50.0262 151.426 50.021 151.195C50.021 150.959 50.2096 150.771 50.4402 150.765L66.3174 150.645C66.5532 150.645 66.7418 150.833 66.7471 151.064C66.7523 151.3 66.5637 151.488 66.3279 151.494Z" fill="#3E479B"/>
<path d="M47.5318 151.635L40.5679 151.688C40.3321 151.688 40.1434 151.499 40.1382 151.268C40.1382 151.033 40.3268 150.844 40.5574 150.839L47.5213 150.786C47.7571 150.786 47.9458 150.975 47.951 151.206C47.9563 151.441 47.7676 151.63 47.5318 151.635Z" fill="#2B555D"/>
<path d="M64.4676 162.807L40.6518 162.985C40.416 162.985 40.2274 162.796 40.2222 162.566C40.2222 162.33 40.4108 162.141 40.6414 162.136L64.4572 161.958C64.693 161.958 64.8816 162.147 64.8868 162.377C64.8921 162.613 64.7034 162.802 64.4676 162.807Z" fill="#2B555D"/>
<path opacity="0.61" d="M72.4066 162.744L67.4653 162.781C67.2295 162.781 67.0409 162.592 67.0356 162.361C67.0356 162.126 67.2243 161.937 67.4548 161.932L72.3962 161.895C72.632 161.895 72.8206 162.084 72.8258 162.314C72.8311 162.55 72.6424 162.744 72.4066 162.744Z" fill="#3E479B"/>
<path opacity="0.61" d="M72.5004 175.226L67.5591 175.263C67.3233 175.263 67.1346 175.074 67.1294 174.843C67.1294 174.608 67.318 174.419 67.5486 174.414L72.4899 174.377C72.7257 174.377 72.9144 174.566 72.9196 174.796C72.9248 175.037 72.7362 175.226 72.5004 175.226Z" fill="white"/>
<path opacity="0.61" d="M80.6381 175.168L75.6968 175.205C75.461 175.205 75.2723 175.016 75.2671 174.785C75.2671 174.55 75.4557 174.361 75.6863 174.356L80.6276 174.319C80.8634 174.319 81.0521 174.508 81.0573 174.738C81.0625 174.974 80.8739 175.163 80.6381 175.168Z" fill="#3E479B"/>
<path opacity="0.61" d="M56.5657 167.507L40.6885 167.628C40.4527 167.628 40.264 167.439 40.2588 167.208C40.2588 166.973 40.4474 166.784 40.678 166.779L56.5552 166.658C56.791 166.658 56.9796 166.847 56.9849 167.077C56.9901 167.313 56.8015 167.507 56.5657 167.507Z" fill="#3E479B"/>
<path d="M66.4483 167.434L59.4844 167.486C59.2486 167.486 59.0599 167.298 59.0547 167.067C59.0547 166.831 59.2433 166.643 59.4739 166.637L66.4379 166.585C66.6737 166.585 66.8623 166.774 66.8675 167.004C66.8728 167.24 66.6841 167.429 66.4483 167.434Z" fill="#2B555D"/>
</g>
<path d="M80.3711 57.1057L80.3763 67.6538V70.1061L80.3868 99.3872L80.413 156.687L80.4235 185.968V188.42L80.4287 195.546C80.4287 198.764 82.4619 201.499 85.3072 202.568C86.1299 202.877 87.0102 203.05 87.9377 203.05H93.2877L152.201 203.024C153.778 203.024 155.235 202.537 156.44 201.709C158.41 200.357 159.705 198.088 159.705 195.515L159.642 57.0742C159.642 54.7686 158.599 52.7041 156.959 51.3312C155.654 50.236 153.972 49.5706 152.133 49.5706L87.8748 49.5915C83.7299 49.5968 80.3659 52.9556 80.3711 57.1057Z" fill="#22252A"/>
<path d="M80.9214 59.7256L80.9266 69.9331V72.3016L80.9371 100.634L80.9633 156.073L80.9738 184.406V186.775L80.979 193.67C80.979 196.783 82.9807 199.429 85.7894 200.462C86.5963 200.76 87.4714 200.928 88.3832 200.928H93.6598L151.756 200.902C153.307 200.902 154.748 200.43 155.937 199.628C157.881 198.318 159.155 196.123 159.155 193.639L159.097 59.6994C159.097 57.4672 158.065 55.4707 156.451 54.1398C155.162 53.0813 153.506 52.4368 151.693 52.4368L88.3203 52.463C84.2331 52.463 80.9162 55.717 80.9214 59.7256Z" fill="#333E4A"/>
<path d="M155.508 70.6621L155.555 181.923C155.555 182.919 154.748 183.72 153.757 183.726L86.3658 183.757C85.3702 183.757 84.5685 182.95 84.5633 181.96L84.5161 70.6988C84.5161 69.7032 85.3231 68.8962 86.3134 68.8962L153.705 68.8648C154.701 68.8595 155.508 69.6665 155.508 70.6621Z" fill="white"/>
<path d="M155.508 70.6145L155.513 77.83L84.5214 77.8614L84.5161 70.5621C84.5161 69.6084 85.2864 68.8381 86.2401 68.8381L153.695 68.8067C154.695 68.8014 155.508 69.6136 155.508 70.6145Z" fill="#488D9A"/>
<path d="M146.746 72.307C146.6 72.307 146.484 72.1917 146.484 72.045C146.484 71.8982 146.6 71.783 146.746 71.783H152.07C152.217 71.783 152.332 71.8982 152.332 72.045C152.332 72.1917 152.217 72.307 152.07 72.307H146.746Z" fill="white"/>
<path d="M146.746 73.6693C146.6 73.6693 146.484 73.554 146.484 73.4073C146.484 73.2605 146.6 73.1453 146.746 73.1453H152.07C152.217 73.1453 152.332 73.2605 152.332 73.4073C152.332 73.554 152.217 73.6693 152.07 73.6693H146.746Z" fill="white"/>
<path d="M146.746 75.0318C146.6 75.0318 146.484 74.9165 146.484 74.7698C146.484 74.6231 146.6 74.5078 146.746 74.5078H152.07C152.217 74.5078 152.332 74.6231 152.332 74.7698C152.332 74.9165 152.217 75.0318 152.07 75.0318H146.746Z" fill="white"/>
<path d="M90.8672 75.8963C90.7991 75.8963 90.731 75.8701 90.6838 75.8177L88.7503 73.8842C88.5826 73.7165 88.5826 73.444 88.7503 73.2816L90.6105 71.4214C90.7153 71.3166 90.8777 71.3166 90.9825 71.4214C91.0873 71.5209 91.0873 71.6886 90.9825 71.7934L89.1904 73.5855L91.0559 75.4509C91.1607 75.5505 91.1607 75.7182 91.0559 75.823C91.0035 75.8701 90.9354 75.8963 90.8672 75.8963Z" fill="white"/>
<path d="M120.074 62.2041C119.016 62.2041 118.151 61.3447 118.151 60.281C118.151 59.2225 119.011 58.3579 120.074 58.3579C121.133 58.3579 121.998 59.2173 121.998 60.281C121.998 61.3395 121.138 62.2041 120.074 62.2041ZM120.074 59.1753C119.461 59.1753 118.969 59.6732 118.969 60.2862C118.969 60.8941 119.467 61.3919 120.074 61.3919C120.368 61.3919 120.646 61.2766 120.855 61.067C121.065 60.8574 121.18 60.5797 121.18 60.281C121.18 59.9876 121.065 59.7098 120.855 59.5002C120.651 59.2906 120.373 59.1753 120.074 59.1753Z" fill="white"/>
<path d="M118.246 197.559C117.564 197.559 117.014 197.003 117.014 196.327V192.685C117.014 192.004 117.564 191.454 118.246 191.454H121.887C122.569 191.454 123.119 192.01 123.119 192.685V196.327C123.119 197.008 122.569 197.559 121.887 197.559H118.246ZM121.887 191.973H118.246C117.853 191.973 117.538 192.292 117.538 192.68V196.322C117.538 196.715 117.858 197.029 118.246 197.029H121.887C122.28 197.029 122.595 196.71 122.595 196.322V192.68C122.595 192.292 122.28 191.973 121.887 191.973Z" fill="white"/>
<path d="M96.3059 192.57C96.1592 192.57 96.0439 192.455 96.0439 192.308C96.0439 192.161 96.1592 192.046 96.3059 192.046H99.8115C99.9582 192.046 100.074 192.161 100.074 192.308C100.074 192.455 99.9582 192.57 99.8115 192.57H96.3059Z" fill="white"/>
<path d="M96.3113 194.462C96.1646 194.462 96.0493 194.346 96.0493 194.2C96.0493 194.053 96.1646 193.938 96.3113 193.938H99.8169C99.9636 193.938 100.079 194.053 100.079 194.2C100.079 194.346 99.9636 194.462 99.8169 194.462H96.3113Z" fill="white"/>
<path d="M96.3113 196.38C96.1646 196.38 96.0493 196.264 96.0493 196.118C96.0493 195.971 96.1646 195.856 96.3113 195.856H99.8169C99.9636 195.856 100.079 195.971 100.079 196.118C100.079 196.264 99.9636 196.38 99.8169 196.38H96.3113Z" fill="white"/>
<path d="M144.718 197.548C144.65 197.548 144.582 197.522 144.535 197.469L141.778 194.713L144.461 192.025C144.566 191.92 144.728 191.92 144.833 192.025C144.938 192.13 144.938 192.292 144.833 192.397L142.517 194.713L144.901 197.097C145.006 197.202 145.006 197.365 144.901 197.469C144.854 197.522 144.786 197.548 144.718 197.548Z" fill="white"/>
<path opacity="0.36" d="M155.518 77.9556H84.6362V101.169H155.518V77.9556Z" fill="#599AF2"/>
<path opacity="0.43" d="M116.626 88.399L91.1754 88.4095C90.7666 88.4095 90.4365 88.0794 90.4365 87.6707V83.3948C90.4365 82.9861 90.7666 82.656 91.1754 82.656L116.626 82.6455C117.035 82.6455 117.365 82.9756 117.365 83.3843V87.6602C117.365 88.0637 117.035 88.399 116.626 88.399Z" fill="white"/>
<path opacity="0.43" d="M130.612 94.4878L91.1807 94.5036C90.772 94.5036 90.4419 94.1734 90.4419 93.7647V92.3656C90.4419 91.9569 90.772 91.6268 91.1807 91.6268L130.612 91.6111C131.02 91.6111 131.351 91.9412 131.351 92.3499V93.749C131.351 94.1577 131.02 94.4878 130.612 94.4878Z" fill="white"/>
<path opacity="0.43" d="M146.788 94.0162C145.337 94.0162 143.969 93.4502 142.942 92.4232C141.915 91.3962 141.349 90.0285 141.344 88.577C141.344 87.1256 141.91 85.7579 142.937 84.7256C143.964 83.6986 145.331 83.1327 146.783 83.1274C148.234 83.1274 149.602 83.6934 150.629 84.7204C151.656 85.7474 152.222 87.1151 152.227 88.5666C152.227 90.018 151.661 91.3857 150.634 92.418C149.612 93.4502 148.245 94.0162 146.788 94.0162ZM146.788 84.1754C145.609 84.1754 144.509 84.6313 143.681 85.4645C142.853 86.2976 142.392 87.398 142.397 88.5718C142.397 89.7456 142.853 90.8512 143.686 91.6791C144.519 92.507 145.62 92.9629 146.793 92.9629C147.967 92.9629 149.073 92.507 149.901 91.6739C150.729 90.8407 151.19 89.7403 151.184 88.5666C151.184 87.3928 150.729 86.2872 149.895 85.4592C149.062 84.6313 147.962 84.1754 146.788 84.1754Z" fill="white"/>
<path d="M105.025 126.09L93.298 126.096C91.9775 126.096 90.9086 125.027 90.9086 123.711L90.9033 111.984C90.9033 110.664 91.9723 109.595 93.2875 109.595L105.015 109.59C106.335 109.59 107.404 110.659 107.404 111.974L107.409 123.701C107.415 125.021 106.346 126.09 105.025 126.09Z" fill="#488D9A"/>
<g opacity="0.36">
<path opacity="0.36" d="M102.72 117.921C102.72 119.886 101.127 121.484 99.1618 121.484C97.1968 121.484 95.5986 119.891 95.5986 117.926C95.5986 115.961 97.1916 114.363 99.1566 114.363C101.127 114.363 102.72 115.956 102.72 117.921Z" fill="white"/>
</g>
<g opacity="0.26">
<path opacity="0.26" d="M120.158 115.113L110.878 115.118C110.548 115.118 110.281 114.851 110.281 114.521V112.755C110.281 112.425 110.548 112.157 110.878 112.157L120.158 112.152C120.488 112.152 120.756 112.419 120.756 112.749V114.515C120.756 114.845 120.488 115.113 120.158 115.113Z" fill="#3E479B"/>
<path opacity="0.26" d="M110.286 119.666C109.998 119.666 109.762 119.43 109.762 119.142C109.762 118.854 109.998 118.618 110.286 118.618L128.155 118.608C128.443 118.608 128.679 118.843 128.679 119.132C128.679 119.42 128.443 119.656 128.155 119.656L110.286 119.666Z" fill="#3E479B"/>
<path opacity="0.26" d="M110.286 123.408C109.998 123.408 109.762 123.172 109.762 122.884C109.762 122.595 109.998 122.36 110.286 122.36L139.426 122.349C139.714 122.349 139.95 122.585 139.95 122.873C139.95 123.161 139.714 123.397 139.426 123.397L110.286 123.408Z" fill="#3E479B"/>
<path opacity="0.26" d="M132.137 119.656C131.849 119.656 131.613 119.42 131.613 119.132C131.613 118.844 131.849 118.608 132.137 118.608L150.005 118.603C150.293 118.603 150.529 118.838 150.529 119.127C150.529 119.415 150.293 119.651 150.005 119.651L132.137 119.656Z" fill="#3E479B"/>
</g>
<path d="M105.046 174.089L93.319 174.094C91.9985 174.094 90.9296 173.025 90.9296 171.71L90.9243 159.983C90.9243 158.662 91.9933 157.593 93.3085 157.593L105.036 157.588C106.356 157.588 107.425 158.657 107.425 159.972L107.43 171.699C107.436 173.02 106.367 174.089 105.046 174.089Z" fill="#488D9A"/>
<g opacity="0.57">
<path opacity="0.57" d="M102.74 165.925C102.74 167.89 101.147 169.488 99.1823 169.488C97.2173 169.488 95.6191 167.895 95.6191 165.93C95.6191 163.965 97.2121 162.367 99.1771 162.367C101.147 162.361 102.74 163.954 102.74 165.925Z" fill="white"/>
</g>
<g opacity="0.26">
<path opacity="0.26" d="M120.179 163.116L110.899 163.121C110.569 163.121 110.302 162.854 110.302 162.524V160.758C110.302 160.428 110.569 160.161 110.899 160.161L120.179 160.156C120.509 160.156 120.777 160.423 120.777 160.753V162.519C120.777 162.849 120.509 163.116 120.179 163.116Z" fill="#3E479B"/>
<path opacity="0.26" d="M110.307 167.67C110.019 167.67 109.783 167.434 109.783 167.146C109.783 166.858 110.019 166.622 110.307 166.622L128.176 166.616C128.464 166.616 128.7 166.852 128.7 167.14C128.7 167.429 128.464 167.664 128.176 167.664L110.307 167.67Z" fill="#3E479B"/>
<path opacity="0.26" d="M110.307 171.411C110.019 171.411 109.783 171.175 109.783 170.887C109.783 170.599 110.019 170.363 110.307 170.363L139.447 170.353C139.735 170.353 139.971 170.588 139.971 170.877C139.971 171.165 139.735 171.401 139.447 171.401L110.307 171.411Z" fill="#3E479B"/>
<path opacity="0.26" d="M132.158 167.659C131.87 167.659 131.634 167.423 131.634 167.135C131.634 166.847 131.87 166.611 132.158 166.611L150.026 166.606C150.314 166.606 150.55 166.842 150.55 167.13C150.55 167.418 150.314 167.654 150.026 167.654L132.158 167.659Z" fill="#3E479B"/>
</g>
<path d="M105.036 150.037L93.3087 150.042C91.9883 150.042 90.9193 148.973 90.9193 147.658L90.9141 135.931C90.9141 134.611 91.983 133.542 93.2983 133.542L105.025 133.536C106.346 133.536 107.415 134.605 107.415 135.921L107.42 147.648C107.425 148.963 106.356 150.032 105.036 150.037Z" fill="#488D9A"/>
<path opacity="0.43" d="M99.1726 145.431C101.14 145.431 102.736 143.836 102.736 141.868C102.736 139.9 101.14 138.305 99.1726 138.305C97.2047 138.305 95.6094 139.9 95.6094 141.868C95.6094 143.836 97.2047 145.431 99.1726 145.431Z" fill="white"/>
<g opacity="0.26">
<path opacity="0.26" d="M120.169 139.059L110.889 139.064C110.559 139.064 110.292 138.797 110.292 138.467V136.701C110.292 136.371 110.559 136.104 110.889 136.104L120.169 136.099C120.499 136.099 120.766 136.366 120.766 136.696V138.462C120.766 138.792 120.499 139.059 120.169 139.059Z" fill="#3E479B"/>
<path opacity="0.26" d="M110.297 143.613C110.009 143.613 109.773 143.377 109.773 143.089C109.773 142.801 110.009 142.565 110.297 142.565L118.56 142.56C118.849 142.56 119.084 142.795 119.084 143.084C119.084 143.372 118.849 143.608 118.56 143.608L110.297 143.613Z" fill="#3E479B"/>
<path opacity="0.26" d="M110.297 147.354C110.009 147.354 109.773 147.118 109.773 146.83C109.773 146.542 110.009 146.306 110.297 146.306L127.259 146.301C127.547 146.301 127.783 146.537 127.783 146.825C127.783 147.113 127.547 147.349 127.259 147.349L110.297 147.354Z" fill="#3E479B"/>
<path opacity="0.26" d="M122.019 143.607C121.73 143.607 121.495 143.372 121.495 143.083C121.495 142.795 121.73 142.559 122.019 142.559L138.525 142.554C138.813 142.554 139.049 142.79 139.049 143.078C139.049 143.366 138.813 143.602 138.525 143.602L122.019 143.607Z" fill="#3E479B"/>
<path opacity="0.26" d="M141.595 143.597C141.307 143.597 141.071 143.361 141.071 143.073C141.071 142.785 141.307 142.549 141.595 142.549L149.859 142.544C150.147 142.544 150.383 142.78 150.383 143.068C150.383 143.356 150.147 143.592 149.859 143.592L141.595 143.597Z" fill="#3E479B"/>
</g>
<path opacity="0.39" d="M209.344 150.289L210.03 206.739C210.04 207.735 209.244 208.547 208.254 208.563L174.739 208.971C173.743 208.982 172.931 208.185 172.915 207.195L172.229 150.744C172.218 149.749 173.015 148.937 174.005 148.921L207.52 148.512C208.516 148.496 209.333 149.293 209.344 150.289Z" fill="white"/>
<path opacity="0.5" d="M209.344 150.289L210.03 206.739C210.04 207.735 209.244 208.547 208.254 208.563L174.739 208.971C173.743 208.982 172.931 208.185 172.915 207.195L172.229 150.744C172.218 149.749 173.015 148.937 174.005 148.921L207.52 148.512C208.516 148.496 209.333 149.293 209.344 150.289Z" fill="#2B555D"/>
<path d="M209.47 150.268L209.507 153.176L172.397 153.626L172.36 150.629C172.35 149.675 173.11 148.9 174.063 148.884L207.641 148.475C208.637 148.465 209.46 149.267 209.47 150.268Z" fill="#488D9A"/>
<path d="M174.907 151.923C174.487 151.928 174.142 151.588 174.136 151.163C174.131 150.744 174.472 150.398 174.896 150.393C175.315 150.388 175.661 150.728 175.666 151.153C175.672 151.577 175.331 151.923 174.907 151.923ZM174.901 150.702C174.65 150.702 174.445 150.912 174.445 151.163C174.445 151.415 174.655 151.619 174.907 151.619C175.158 151.619 175.362 151.41 175.362 151.158C175.357 150.907 175.153 150.702 174.901 150.702Z" fill="white"/>
<path d="M177.458 151.908C177.039 151.913 176.693 151.572 176.688 151.148C176.683 150.723 177.023 150.383 177.448 150.378C177.867 150.372 178.213 150.713 178.218 151.137C178.223 151.557 177.883 151.902 177.458 151.908ZM177.453 150.681C177.202 150.681 176.997 150.891 176.997 151.143C176.997 151.394 177.207 151.598 177.458 151.598C177.71 151.598 177.914 151.389 177.914 151.137C177.909 150.886 177.705 150.681 177.453 150.681Z" fill="white"/>
<path d="M179.942 151.887C179.523 151.892 179.177 151.551 179.171 151.127C179.166 150.708 179.507 150.362 179.931 150.357C180.35 150.351 180.696 150.692 180.702 151.116C180.702 151.541 180.361 151.887 179.942 151.887ZM179.931 150.666C179.68 150.666 179.475 150.875 179.475 151.127C179.475 151.378 179.685 151.583 179.937 151.583C180.188 151.583 180.392 151.373 180.392 151.122C180.392 150.865 180.188 150.66 179.931 150.666Z" fill="white"/>
<path d="M192.722 158.929L175.572 159.06C175.404 159.06 175.263 158.924 175.263 158.756C175.263 158.589 175.399 158.447 175.567 158.447L192.717 158.316C192.885 158.316 193.026 158.452 193.026 158.62C193.026 158.788 192.895 158.924 192.722 158.929Z" fill="white"/>
<path d="M198.439 158.882L194.881 158.908C194.713 158.908 194.572 158.772 194.572 158.604C194.572 158.437 194.708 158.295 194.876 158.295L198.434 158.269C198.601 158.269 198.743 158.405 198.743 158.573C198.743 158.746 198.612 158.882 198.439 158.882Z" fill="white"/>
<path d="M192.832 173.166L175.682 173.297C175.514 173.297 175.373 173.161 175.373 172.993C175.373 172.826 175.509 172.684 175.676 172.684L192.827 172.553C192.995 172.553 193.136 172.689 193.136 172.857C193.136 173.025 193 173.166 192.832 173.166Z" fill="white"/>
<path d="M198.549 173.124L194.991 173.151C194.823 173.151 194.682 173.014 194.682 172.847C194.682 172.679 194.818 172.537 194.986 172.537L198.544 172.511C198.711 172.511 198.853 172.647 198.853 172.815C198.853 172.983 198.716 173.119 198.549 173.124Z" fill="white"/>
<path d="M192.775 165.72L175.624 165.851C175.456 165.851 175.315 165.715 175.315 165.547C175.315 165.38 175.451 165.238 175.619 165.238L192.769 165.107C192.937 165.107 193.079 165.243 193.079 165.411C193.079 165.584 192.942 165.72 192.775 165.72Z" fill="white"/>
<path d="M198.492 165.679L194.934 165.705C194.766 165.705 194.625 165.568 194.625 165.401C194.625 165.233 194.761 165.092 194.928 165.092L198.486 165.065C198.654 165.065 198.796 165.202 198.796 165.369C198.796 165.542 198.659 165.679 198.492 165.679Z" fill="white"/>
<path d="M204.355 165.637L200.797 165.663C200.63 165.663 200.488 165.526 200.488 165.359C200.488 165.191 200.625 165.05 200.792 165.05L204.35 165.023C204.518 165.023 204.659 165.16 204.659 165.327C204.659 165.495 204.523 165.631 204.355 165.637Z" fill="white"/>
<path d="M187.032 162.314L175.598 162.403C175.431 162.403 175.289 162.267 175.289 162.099C175.289 161.932 175.425 161.79 175.593 161.79L187.027 161.701C187.194 161.701 187.336 161.837 187.336 162.005C187.336 162.173 187.2 162.314 187.032 162.314Z" fill="white"/>
<path d="M194.153 162.262L189.138 162.299C188.971 162.299 188.829 162.162 188.829 161.995C188.829 161.827 188.965 161.686 189.133 161.686L194.148 161.649C194.315 161.649 194.457 161.785 194.457 161.953C194.457 162.121 194.321 162.257 194.153 162.262Z" fill="white"/>
<path d="M194.205 169.42L182.772 169.509C182.604 169.509 182.462 169.373 182.462 169.205C182.462 169.037 182.599 168.896 182.766 168.896L194.2 168.807C194.368 168.807 194.509 168.943 194.509 169.111C194.509 169.284 194.373 169.42 194.205 169.42Z" fill="white"/>
<path d="M180.671 169.524L175.656 169.561C175.488 169.561 175.347 169.425 175.347 169.257C175.347 169.09 175.483 168.948 175.651 168.948L180.665 168.911C180.833 168.911 180.974 169.048 180.974 169.215C180.974 169.383 180.838 169.524 180.671 169.524Z" fill="white"/>
<path d="M192.869 177.966L175.718 178.097C175.551 178.097 175.409 177.961 175.409 177.793C175.409 177.626 175.545 177.484 175.713 177.484L192.864 177.353C193.031 177.353 193.173 177.489 193.173 177.657C193.173 177.825 193.037 177.966 192.869 177.966Z" fill="white"/>
<path d="M198.586 177.924L195.028 177.95C194.86 177.95 194.719 177.814 194.719 177.646C194.719 177.479 194.855 177.337 195.023 177.337L198.581 177.311C198.748 177.311 198.89 177.447 198.89 177.615C198.89 177.783 198.754 177.919 198.586 177.924Z" fill="white"/>
<path d="M192.974 192.203L175.823 192.334C175.656 192.334 175.514 192.198 175.514 192.03C175.514 191.863 175.65 191.721 175.818 191.721L192.969 191.59C193.136 191.59 193.278 191.726 193.278 191.894C193.283 192.062 193.147 192.203 192.974 192.203Z" fill="white"/>
<path d="M198.691 192.161L195.133 192.188C194.965 192.188 194.824 192.051 194.824 191.884C194.824 191.716 194.96 191.575 195.128 191.575L198.686 191.548C198.853 191.548 198.995 191.685 198.995 191.852C199 192.02 198.864 192.156 198.691 192.161Z" fill="white"/>
<path d="M192.922 184.762L175.771 184.893C175.603 184.893 175.462 184.757 175.462 184.59C175.462 184.422 175.598 184.28 175.766 184.28L192.916 184.149C193.084 184.149 193.225 184.286 193.225 184.453C193.225 184.621 193.089 184.757 192.922 184.762Z" fill="white"/>
<path d="M198.638 184.715L195.08 184.741C194.912 184.741 194.771 184.605 194.771 184.437C194.771 184.27 194.907 184.128 195.075 184.128L198.633 184.102C198.801 184.102 198.942 184.238 198.942 184.406C198.942 184.579 198.806 184.715 198.638 184.715Z" fill="white"/>
<path d="M204.497 184.673L200.939 184.7C200.771 184.7 200.629 184.563 200.629 184.396C200.629 184.228 200.766 184.086 200.933 184.086L204.491 184.06C204.659 184.06 204.8 184.197 204.8 184.364C204.8 184.532 204.664 184.673 204.497 184.673Z" fill="white"/>
<path d="M187.178 181.351L175.745 181.44C175.577 181.44 175.436 181.304 175.436 181.137C175.436 180.969 175.572 180.827 175.739 180.827L187.173 180.738C187.341 180.738 187.482 180.875 187.482 181.042C187.482 181.215 187.346 181.351 187.178 181.351Z" fill="white"/>
<path d="M194.294 181.299L189.279 181.336C189.112 181.336 188.97 181.199 188.97 181.032C188.97 180.864 189.106 180.722 189.274 180.722L194.289 180.686C194.456 180.686 194.598 180.822 194.598 180.99C194.598 181.157 194.462 181.299 194.294 181.299Z" fill="white"/>
<path d="M194.352 188.457L182.918 188.546C182.75 188.546 182.609 188.409 182.609 188.242C182.609 188.074 182.745 187.933 182.913 187.933L194.346 187.844C194.514 187.844 194.656 187.98 194.656 188.147C194.656 188.32 194.519 188.457 194.352 188.457Z" fill="white"/>
<path d="M180.812 188.562L175.797 188.598C175.63 188.598 175.488 188.462 175.488 188.294C175.488 188.127 175.625 187.985 175.792 187.985L180.807 187.948C180.975 187.948 181.116 188.085 181.116 188.252C181.116 188.42 180.98 188.562 180.812 188.562Z" fill="white"/>
<path d="M193.01 196.605L175.86 196.736C175.692 196.736 175.551 196.6 175.551 196.432C175.551 196.264 175.687 196.123 175.855 196.123L193.005 195.992C193.173 195.992 193.314 196.128 193.314 196.296C193.314 196.469 193.178 196.605 193.01 196.605Z" fill="white"/>
<path d="M198.727 196.563L195.169 196.589C195.001 196.589 194.86 196.453 194.86 196.285C194.86 196.118 194.996 195.976 195.164 195.976L198.722 195.95C198.889 195.95 199.031 196.086 199.031 196.254C199.031 196.422 198.895 196.563 198.727 196.563Z" fill="white"/>
<path d="M198.795 205.555L195.237 205.581C195.07 205.581 194.928 205.445 194.928 205.277C194.928 205.109 195.064 204.968 195.232 204.968L198.79 204.942C198.958 204.942 199.099 205.078 199.099 205.246C199.099 205.413 198.963 205.549 198.795 205.555Z" fill="white"/>
<path d="M204.654 205.508L201.096 205.534C200.928 205.534 200.787 205.398 200.787 205.23C200.787 205.062 200.923 204.921 201.091 204.921L204.648 204.895C204.816 204.895 204.958 205.031 204.958 205.198C204.958 205.371 204.821 205.508 204.654 205.508Z" fill="white"/>
<path d="M187.32 199.995L175.886 200.084C175.718 200.084 175.577 199.948 175.577 199.78C175.577 199.613 175.713 199.471 175.881 199.471L187.314 199.382C187.482 199.382 187.623 199.518 187.623 199.686C187.623 199.854 187.487 199.99 187.32 199.995Z" fill="white"/>
<path d="M194.436 199.938L189.421 199.974C189.254 199.974 189.112 199.838 189.112 199.67C189.112 199.503 189.249 199.361 189.416 199.361L194.431 199.324C194.599 199.324 194.74 199.461 194.74 199.628C194.74 199.801 194.604 199.938 194.436 199.938Z" fill="white"/>
<path opacity="0.22" d="M219.792 64.2006L220.484 131.713C220.494 132.708 219.698 133.521 218.702 133.531L178.349 133.945C177.353 133.956 176.541 133.159 176.531 132.163L175.839 64.6513C175.828 63.6557 176.625 62.8435 177.621 62.833L217.974 62.419C218.969 62.4086 219.782 63.205 219.792 64.2006Z" fill="#53ABB9"/>
<path d="M217.387 61.0725L218.078 128.585C218.089 129.58 217.292 130.392 216.297 130.403L175.944 130.817C174.948 130.827 174.136 130.031 174.125 129.035L173.434 61.5231C173.423 60.5275 174.22 59.7153 175.215 59.7048L215.569 59.2909C216.564 59.2804 217.376 60.0821 217.387 61.0725Z" fill="white"/>
<path d="M217.534 61.0461L217.57 64.8241L173.617 65.2748L173.575 61.4076C173.565 60.454 174.33 59.6784 175.278 59.668L215.694 59.254C216.706 59.2435 217.523 60.0505 217.534 61.0461Z" fill="#488D9A"/>
<path d="M212.11 61.5595C211.969 61.5595 211.848 61.4443 211.848 61.2975C211.848 61.1508 211.963 61.0355 212.11 61.0355L215.406 61.0041C215.532 60.9831 215.668 61.1194 215.668 61.2661C215.668 61.4128 215.553 61.5281 215.406 61.5281L212.11 61.5595C212.115 61.5595 212.11 61.5595 212.11 61.5595Z" fill="white"/>
<path d="M212.121 62.4031C211.979 62.4031 211.859 62.2878 211.859 62.1411C211.859 61.9944 211.974 61.8791 212.121 61.8791L215.417 61.8477C215.537 61.8529 215.679 61.9629 215.679 62.1097C215.679 62.2564 215.564 62.3717 215.417 62.3717L212.121 62.4031Z" fill="white"/>
<path d="M212.131 63.2468C211.99 63.2468 211.869 63.1316 211.869 62.9848C211.869 62.8381 211.984 62.7228 212.131 62.7228L215.427 62.6914C215.569 62.6914 215.689 62.8067 215.689 62.9534C215.689 63.1001 215.574 63.2154 215.427 63.2154L212.131 63.2468Z" fill="white"/>
<path d="M177.537 64.1221C177.469 64.1221 177.406 64.0959 177.353 64.0487L176.143 62.8645C176.001 62.723 175.996 62.4924 176.138 62.3509L177.28 61.1877C177.385 61.0829 177.547 61.0829 177.652 61.1824C177.757 61.282 177.757 61.4497 177.657 61.5545L176.63 62.6025L177.725 63.6767C177.83 63.7762 177.83 63.9439 177.731 64.0487C177.673 64.0959 177.605 64.1221 177.537 64.1221Z" fill="white"/>
<path opacity="0.36" d="M216.202 130.523L175.713 130.754C174.738 130.759 173.942 129.973 173.937 128.993L173.858 114.96L217.884 114.714L217.963 128.747C217.968 129.721 217.177 130.518 216.202 130.523Z" fill="#599AF2"/>
<path d="M204.486 74.8534L186.801 74.953C186.476 74.953 186.214 74.6962 186.214 74.3713L186.204 72.4325C186.204 72.1077 186.46 71.8457 186.785 71.8457L204.47 71.7461C204.795 71.7461 205.057 72.0029 205.057 72.3277L205.068 74.2665C205.073 74.5862 204.811 74.8482 204.486 74.8534Z" fill="#488D9A"/>
<path opacity="0.32" d="M210.129 87.5081L181.304 87.6706C179.937 87.6758 178.82 86.5754 178.81 85.2025L178.805 84.5947C178.799 83.2271 179.9 82.1109 181.273 82.1004L210.098 81.938C211.466 81.9328 212.582 83.0332 212.592 84.406L212.597 85.0139C212.603 86.3868 211.497 87.5029 210.129 87.5081Z" fill="#599AF2"/>
<path opacity="0.43" d="M183.437 84.8987C183.442 85.8471 182.677 86.6174 181.734 86.6226C180.785 86.6279 180.015 85.8628 180.01 84.9196C180.005 83.9712 180.77 83.2009 181.713 83.1957C182.656 83.1852 183.432 83.9502 183.437 84.8987Z" fill="white"/>
<path d="M182.337 84.4114C182.337 84.752 182.064 85.0298 181.724 85.0298C181.383 85.0298 181.105 84.7573 181.105 84.4167C181.105 84.0761 181.378 83.7983 181.719 83.7983C182.059 83.7983 182.337 84.0708 182.337 84.4114Z" fill="white"/>
<path d="M182.646 86.0095L180.817 86.02V85.7946C180.812 85.2654 181.241 84.8305 181.776 84.8252C182.258 84.82 182.646 85.2078 182.651 85.6898L182.646 86.0095Z" fill="white"/>
<path opacity="0.32" d="M210.177 96.5784L181.352 96.7409C179.984 96.7461 178.868 95.6457 178.857 94.2728L178.852 93.665C178.847 92.2974 179.947 91.1812 181.32 91.1708L210.145 91.0083C211.513 91.0031 212.629 92.1035 212.64 93.4764L212.645 94.0842C212.65 95.4571 211.55 96.5732 210.177 96.5784Z" fill="#599AF2"/>
<path opacity="0.43" d="M183.484 93.9689C183.489 94.9173 182.724 95.6876 181.781 95.6928C180.833 95.6981 180.062 94.933 180.057 93.9898C180.052 93.0414 180.817 92.2711 181.76 92.2659C182.709 92.2607 183.479 93.0205 183.484 93.9689Z" fill="white"/>
<path d="M182.352 95.0533L181.2 95.0586C181.105 95.0586 181.032 94.9852 181.027 94.8909L181.021 93.8691C181.021 93.7748 181.095 93.7014 181.189 93.6962L182.342 93.6909C182.436 93.6909 182.51 93.7643 182.515 93.8586L182.52 94.8804C182.525 94.9747 182.447 95.0533 182.352 95.0533Z" fill="white"/>
<path d="M181.173 93.822V93.3976C181.173 93.2876 181.215 93.1827 181.294 93.0989C181.372 93.0203 181.477 92.9731 181.587 92.9731H181.975C182.075 92.9731 182.169 93.0098 182.242 93.0832C182.316 93.1565 182.352 93.2509 182.352 93.3504L182.358 93.8168H182.227L182.221 93.3504C182.221 93.2823 182.195 93.2247 182.148 93.1775C182.101 93.1304 182.038 93.1041 181.975 93.1041H181.587C181.509 93.1041 181.435 93.1356 181.383 93.188C181.331 93.2404 181.299 93.3137 181.299 93.3923V93.8168L181.173 93.822Z" fill="white"/>
<path d="M202.594 106.713L190.16 106.781C188.656 106.791 187.429 105.576 187.419 104.072C187.409 102.568 188.624 101.342 190.128 101.331L202.563 101.263C204.066 101.253 205.293 102.468 205.303 103.972C205.314 105.476 204.098 106.702 202.594 106.713Z" fill="#2B555D"/>
<path d="M183.867 120.751C183.579 120.751 183.343 120.52 183.343 120.232C183.343 119.944 183.573 119.708 183.862 119.703L207.924 119.566C207.924 119.566 207.924 119.566 207.929 119.566C208.217 119.566 208.453 119.797 208.453 120.085C208.453 120.373 208.222 120.609 207.934 120.614L183.867 120.751C183.872 120.751 183.872 120.751 183.867 120.751Z" fill="white"/>
<path d="M188.766 124.366C188.478 124.366 188.242 124.136 188.242 123.848C188.242 123.559 188.473 123.324 188.761 123.318L203.066 123.24C203.066 123.24 203.066 123.24 203.071 123.24C203.36 123.24 203.595 123.47 203.595 123.758C203.595 124.047 203.365 124.282 203.077 124.288L188.766 124.366C188.771 124.366 188.766 124.366 188.766 124.366Z" fill="white"/>
<path opacity="0.22" d="M189.059 110.035L189.751 177.547C189.761 178.543 188.965 179.355 187.969 179.365L147.616 179.779C146.62 179.79 145.808 178.993 145.798 177.998L145.106 110.486C145.096 109.49 145.892 108.678 146.888 108.667L187.241 108.253C188.236 108.243 189.049 109.039 189.059 110.035Z" fill="#3E479B"/>
<path d="M186.659 106.907L187.351 174.419C187.361 175.414 186.565 176.227 185.569 176.237L145.216 176.651C144.221 176.662 143.408 175.865 143.398 174.869L142.706 107.357C142.696 106.362 143.492 105.55 144.488 105.539L184.841 105.125C185.831 105.115 186.649 105.916 186.659 106.907Z" fill="white"/>
<path opacity="0.42" d="M186.659 106.907L187.351 174.419C187.361 175.414 186.565 176.227 185.569 176.237L145.216 176.651C144.221 176.662 143.408 175.865 143.398 174.869L142.706 107.357C142.696 106.362 143.492 105.55 144.488 105.539L184.841 105.125C185.831 105.115 186.649 105.916 186.659 106.907Z" fill="#599AF2"/>
<path d="M186.806 106.88L186.843 110.658L142.89 111.109L142.848 107.242C142.837 106.288 143.602 105.513 144.551 105.502L184.967 105.088C185.973 105.078 186.796 105.885 186.806 106.88Z" fill="#488D9A"/>
<path d="M181.383 107.394C181.241 107.394 181.121 107.279 181.121 107.132C181.121 106.985 181.236 106.87 181.383 106.87L184.679 106.838C184.799 106.838 184.941 106.954 184.941 107.1C184.941 107.247 184.825 107.362 184.679 107.362L181.383 107.394Z" fill="white"/>
<path d="M181.388 108.237C181.246 108.237 181.126 108.122 181.126 107.975C181.126 107.829 181.241 107.713 181.388 107.713L184.684 107.682C184.825 107.682 184.946 107.797 184.946 107.944C184.946 108.091 184.831 108.206 184.684 108.206L181.388 108.237C181.393 108.237 181.388 108.237 181.388 108.237Z" fill="white"/>
<path d="M181.398 109.081C181.257 109.081 181.136 108.966 181.136 108.819C181.136 108.672 181.252 108.557 181.398 108.557L184.694 108.526C184.836 108.526 184.956 108.641 184.956 108.788C184.956 108.934 184.841 109.05 184.694 109.05L181.398 109.081Z" fill="white"/>
<path d="M146.809 109.956C146.741 109.956 146.678 109.93 146.626 109.883L145.415 108.699C145.274 108.557 145.269 108.327 145.41 108.185L146.552 107.022C146.657 106.917 146.82 106.917 146.925 107.017C147.029 107.116 147.029 107.284 146.93 107.389L145.903 108.437L146.998 109.511C147.103 109.61 147.103 109.778 147.003 109.883C146.94 109.93 146.872 109.956 146.809 109.956Z" fill="white"/>
<g opacity="0.36">
<path opacity="0.36" d="M185.47 176.357L144.981 176.588C144.006 176.593 143.21 175.807 143.205 174.827L143.126 160.795L187.152 160.548L187.231 174.581C187.236 175.556 186.45 176.352 185.47 176.357Z" fill="white"/>
<path opacity="0.36" d="M144.97 176.85C144.431 176.85 143.927 176.64 143.545 176.263C143.157 175.881 142.948 175.372 142.942 174.833L142.864 160.538L187.414 160.286L187.493 174.581C187.498 175.702 186.592 176.614 185.475 176.625L144.986 176.855C144.981 176.85 144.975 176.85 144.97 176.85ZM143.388 161.057L143.466 174.827C143.466 175.231 143.629 175.608 143.912 175.891C144.195 176.174 144.572 176.326 144.97 176.326C144.97 176.326 144.975 176.326 144.981 176.326L185.47 176.095C186.298 176.09 186.974 175.409 186.969 174.581L186.89 160.81L143.388 161.057Z" fill="white"/>
</g>
<path d="M182.137 121.526L150.398 121.484C149.832 121.484 149.376 121.023 149.376 120.462L149.382 117.297C149.382 116.732 149.843 116.276 150.404 116.276L182.142 116.318C182.708 116.318 183.164 116.779 183.164 117.339L183.159 120.504C183.164 121.07 182.703 121.526 182.137 121.526Z" fill="white"/>
<path d="M182.294 125.561L150.241 125.519C149.764 125.519 149.376 125.131 149.376 124.654C149.376 124.178 149.764 123.79 150.241 123.79L182.294 123.832C182.771 123.832 183.159 124.219 183.159 124.696C183.159 125.178 182.771 125.561 182.294 125.561Z" fill="white"/>
<path d="M182.289 129.543L150.236 129.501C149.759 129.501 149.372 129.114 149.372 128.637C149.372 128.16 149.759 127.772 150.236 127.772L182.289 127.814C182.766 127.814 183.154 128.202 183.154 128.679C183.154 129.161 182.766 129.543 182.289 129.543Z" fill="white"/>
<path d="M153.71 135.381C153.71 136.581 152.736 137.55 151.536 137.55C150.336 137.55 149.366 136.575 149.366 135.375C149.366 134.175 150.341 133.206 151.541 133.206C152.741 133.206 153.71 134.181 153.71 135.381Z" fill="#305E67"/>
<path d="M153.695 145.232C153.695 146.432 152.72 147.401 151.52 147.401C150.32 147.401 149.351 146.426 149.351 145.226C149.351 144.027 150.325 143.057 151.525 143.057C152.725 143.057 153.7 144.032 153.695 145.232Z" fill="#305E67"/>
<path d="M153.684 154.795C153.684 155.995 152.709 156.964 151.509 156.964C150.309 156.964 149.34 155.99 149.34 154.79C149.34 153.59 150.314 152.615 151.514 152.62C152.714 152.62 153.684 153.595 153.684 154.795Z" fill="#305E67"/>
<path d="M175.734 134.611L154.941 134.584C154.794 134.584 154.679 134.469 154.679 134.322C154.679 134.176 154.794 134.06 154.941 134.06L175.734 134.087C175.88 134.087 175.996 134.202 175.996 134.349C175.996 134.49 175.88 134.611 175.734 134.611Z" fill="white"/>
<path d="M165.337 136.806L154.941 136.796C154.794 136.796 154.679 136.68 154.679 136.533C154.679 136.387 154.794 136.271 154.941 136.271L165.337 136.282C165.484 136.282 165.599 136.397 165.599 136.544C165.599 136.691 165.479 136.806 165.337 136.806Z" fill="white"/>
<path d="M175.723 144.787L154.931 144.76C154.784 144.76 154.669 144.645 154.669 144.498C154.669 144.352 154.784 144.236 154.931 144.236L175.723 144.263C175.87 144.263 175.985 144.378 175.985 144.525C175.985 144.666 175.865 144.787 175.723 144.787Z" fill="white"/>
<path d="M165.322 146.982L154.926 146.972C154.779 146.972 154.664 146.856 154.664 146.71C154.664 146.563 154.779 146.448 154.926 146.448L165.322 146.458C165.468 146.458 165.584 146.573 165.584 146.72C165.584 146.867 165.468 146.982 165.322 146.982Z" fill="white"/>
<path d="M175.708 154.077L154.915 154.051C154.769 154.051 154.653 153.936 154.653 153.789C154.653 153.642 154.769 153.527 154.915 153.527L175.708 153.553C175.854 153.553 175.97 153.668 175.97 153.815C175.97 153.957 175.854 154.077 175.708 154.077Z" fill="white"/>
<path d="M165.311 156.273L154.915 156.262C154.769 156.262 154.653 156.147 154.653 156C154.653 155.853 154.769 155.738 154.915 155.738L165.311 155.749C165.458 155.749 165.573 155.864 165.573 156.011C165.573 156.157 165.453 156.273 165.311 156.273Z" fill="white"/>
<path d="M153.139 166.585C152.851 166.585 152.615 166.354 152.615 166.066C152.615 165.778 152.846 165.542 153.134 165.537L177.196 165.401C177.196 165.401 177.196 165.401 177.201 165.401C177.49 165.401 177.725 165.631 177.725 165.919C177.725 166.208 177.495 166.443 177.207 166.449L153.139 166.585Z" fill="white"/>
<path d="M158.033 170.201C157.745 170.201 157.509 169.97 157.509 169.682C157.509 169.394 157.74 169.158 158.028 169.153L172.333 169.074C172.333 169.074 172.333 169.074 172.338 169.074C172.627 169.074 172.862 169.305 172.862 169.593C172.862 169.881 172.632 170.117 172.344 170.122L158.033 170.201C158.039 170.201 158.039 170.201 158.033 170.201Z" fill="white"/>
<path d="M93.8326 95.6458H56.267C55.8006 95.6458 55.4233 95.2685 55.4233 94.8021V83.882C55.4233 83.4156 55.8006 83.0383 56.267 83.0383H93.8326C94.2989 83.0383 94.6762 83.4156 94.6762 83.882V94.8021C94.6762 95.2685 94.2989 95.6458 93.8326 95.6458Z" fill="#5EC8D9"/>
<path d="M62.0205 93.162C59.783 93.162 57.9595 91.3385 57.9595 89.101C57.9595 86.8636 59.783 85.04 62.0205 85.04C64.258 85.04 66.0815 86.8636 66.0815 89.101C66.0815 91.3385 64.2632 93.162 62.0205 93.162Z" fill="#53ABB9"/>
<path d="M61.6645 90.626L60.1449 88.5247C60.0139 88.3466 60.0558 88.095 60.234 87.964C60.3231 87.9012 60.4279 87.875 60.5327 87.8907C60.6375 87.9064 60.7318 87.964 60.7947 88.0531L61.7588 89.3893L66.5849 84.5633C66.6582 84.4899 66.7578 84.448 66.8678 84.448C66.9726 84.448 67.0774 84.4899 67.1508 84.5633C67.308 84.7205 67.308 84.972 67.1508 85.1292L61.6645 90.626Z" fill="white"/>
<path opacity="0.38" d="M89.6038 87.5238H69.5188C69.3721 87.5238 69.2568 87.4085 69.2568 87.2618C69.2568 87.115 69.3721 86.9998 69.5188 86.9998H89.6038C89.7505 86.9998 89.8658 87.115 89.8658 87.2618C89.8658 87.4032 89.7452 87.5238 89.6038 87.5238Z" fill="white"/>
<path opacity="0.38" d="M78.4901 89.9026H69.514C69.3672 89.9026 69.252 89.7874 69.252 89.6407C69.252 89.4939 69.3672 89.3787 69.514 89.3787H78.4901C78.6368 89.3787 78.7521 89.4939 78.7521 89.6407C78.7521 89.7874 78.6368 89.9026 78.4901 89.9026Z" fill="white"/>
<path opacity="0.38" d="M89.6038 89.9026H80.6277C80.481 89.9026 80.3657 89.7874 80.3657 89.6407C80.3657 89.4939 80.481 89.3787 80.6277 89.3787H89.6038C89.7506 89.3787 89.8658 89.4939 89.8658 89.6407C89.8658 89.7874 89.7453 89.9026 89.6038 89.9026Z" fill="white"/>
<path opacity="0.38" d="M89.6038 92.3968H69.5188C69.3721 92.3968 69.2568 92.2815 69.2568 92.1348C69.2568 91.9881 69.3721 91.8728 69.5188 91.8728H89.6038C89.7505 91.8728 89.8658 91.9881 89.8658 92.1348C89.8658 92.2815 89.7452 92.3968 89.6038 92.3968Z" fill="white"/>
<path d="M237.503 153.574H199.937C199.471 153.574 199.094 153.197 199.094 152.73V141.81C199.094 141.344 199.471 140.967 199.937 140.967H237.503C237.969 140.967 238.347 141.344 238.347 141.81V152.73C238.352 153.197 237.975 153.574 237.503 153.574Z" fill="#5EC8D9"/>
<path d="M205.696 151.09C203.459 151.09 201.635 149.267 201.635 147.029C201.635 144.792 203.459 142.968 205.696 142.968C207.934 142.968 209.757 144.792 209.757 147.029C209.757 149.272 207.934 151.09 205.696 151.09Z" fill="#488D9A"/>
<path d="M205.34 148.559L203.82 146.458C203.758 146.369 203.731 146.264 203.747 146.159C203.763 146.055 203.821 145.96 203.91 145.897C203.993 145.834 204.098 145.808 204.208 145.824C204.313 145.84 204.407 145.897 204.47 145.986L205.434 147.323L210.26 142.497C210.418 142.339 210.669 142.339 210.826 142.497C210.984 142.654 210.984 142.905 210.826 143.062L205.34 148.559Z" fill="white"/>
<path opacity="0.38" d="M233.274 145.452H213.189C213.043 145.452 212.927 145.337 212.927 145.19C212.927 145.043 213.043 144.928 213.189 144.928H233.274C233.421 144.928 233.536 145.043 233.536 145.19C233.536 145.337 233.421 145.452 233.274 145.452Z" fill="white"/>
<path opacity="0.38" d="M222.165 147.836H213.189C213.043 147.836 212.927 147.721 212.927 147.574C212.927 147.428 213.043 147.312 213.189 147.312H222.165C222.312 147.312 222.427 147.428 222.427 147.574C222.427 147.716 222.312 147.836 222.165 147.836Z" fill="white"/>
<path opacity="0.38" d="M233.274 147.836H224.298C224.151 147.836 224.036 147.721 224.036 147.574C224.036 147.428 224.151 147.312 224.298 147.312H233.274C233.421 147.312 233.536 147.428 233.536 147.574C233.536 147.716 233.421 147.836 233.274 147.836Z" fill="white"/>
<path opacity="0.38" d="M233.274 150.33H213.189C213.043 150.33 212.927 150.215 212.927 150.068C212.927 149.922 213.043 149.806 213.189 149.806H233.274C233.421 149.806 233.536 149.922 233.536 150.068C233.536 150.21 233.421 150.33 233.274 150.33Z" fill="white"/>
</svg>
