<svg width="30" height="30" viewBox="0 0 30 30" fill="none" xmlns="http://www.w3.org/2000/svg">
<g clip-path="url(#clip0)">
<path d="M6.25006 18.75H1.25002C0.90502 18.75 0.625 19.03 0.625 19.375V29.375C0.625 29.72 0.90502 30.0001 1.25002 30.0001H6.25C6.595 30.0001 6.87502 29.72 6.87502 29.375V19.375C6.87502 19.03 6.59506 18.75 6.25006 18.75Z" fill="#4F4F4F"/>
<path d="M13.75 12.5H8.75002C8.40502 12.5 8.125 12.78 8.125 13.125V29.375C8.125 29.72 8.40502 30 8.75002 30H13.75C14.095 30 14.375 29.72 14.375 29.375V13.125C14.375 12.78 14.095 12.5 13.75 12.5Z" fill="#4F4F4F"/>
<path d="M21.25 6.25003H16.25C15.905 6.25003 15.625 6.53005 15.625 6.87505V29.3751C15.625 29.7201 15.905 30.0001 16.25 30.0001H21.25C21.595 30.0001 21.875 29.7201 21.875 29.3751V6.87505C21.875 6.52999 21.595 6.25003 21.25 6.25003Z" fill="#4F4F4F"/>
<path d="M28.75 0H23.75C23.405 0 23.125 0.28002 23.125 0.62502V29.375C23.125 29.72 23.405 30.0001 23.75 30.0001H28.75C29.095 30.0001 29.375 29.72 29.375 29.375V0.62502C29.375 0.28002 29.095 0 28.75 0Z" fill="#4F4F4F"/>
</g>
<defs>
<clipPath id="clip0">
<rect width="30" height="30" fill="white"/>
</clipPath>
</defs>
</svg>
