<svg width="30" height="30" viewBox="0 0 30 30" fill="none" xmlns="http://www.w3.org/2000/svg">
<path d="M14.9998 15.6536C15.3608 15.6536 15.6534 15.361 15.6534 15C15.6534 14.639 15.3608 14.3464 14.9998 14.3464C14.6388 14.3464 14.3462 14.639 14.3462 15C14.3462 15.361 14.6388 15.6536 14.9998 15.6536Z" fill="#4F4F4F"/>
<path d="M28.0118 15C28.0118 14.6392 28.3046 14.3464 28.6654 14.3464H30C29.664 6.56734 23.4314 0.33462 15.6536 0V1.33333C15.6536 1.69412 15.3608 1.98695 15 1.98695C14.6392 1.98695 14.3464 1.69412 14.3464 1.33333V0C6.56734 0.33462 0.33462 6.56734 0 14.3464H1.33462C1.6954 14.3464 1.98824 14.6392 1.98824 15C1.98824 15.3608 1.6954 15.6536 1.33462 15.6536H0C0.33462 23.4314 6.56734 29.664 14.3464 30V28.6667C14.3464 28.3059 14.6392 28.0131 15 28.0131C15.3608 28.0131 15.6536 28.3059 15.6536 28.6667V30C23.4314 29.6654 29.664 23.4327 30 15.6536H28.6654C28.3046 15.6536 28.0118 15.3608 28.0118 15ZM20.6902 20.6902C20.5621 20.8183 20.3948 20.8811 20.2275 20.8811C20.0601 20.8811 19.8928 20.817 19.7647 20.6902L15.8431 16.7686C15.8419 16.7673 15.8405 16.7647 15.8392 16.7634C15.583 16.8863 15.3007 16.9608 14.9974 16.9608C13.9163 16.9608 13.0366 16.0811 13.0366 15C13.0366 14.149 13.5843 13.4301 14.3438 13.1595V5.84969C14.3438 5.48891 14.6366 5.19608 14.9974 5.19608C15.3581 5.19608 15.651 5.48891 15.651 5.84969V13.1595C16.4105 13.4301 16.9581 14.149 16.9581 15C16.9581 15.302 16.8836 15.5856 16.7608 15.8419C16.7621 15.8431 16.7647 15.8445 16.766 15.8458L20.6876 19.7673C20.9464 20.0222 20.9464 20.4353 20.6902 20.6902Z" fill="#4F4F4F"/>
</svg>
