<svg width="30" height="30" viewBox="0 0 30 30" fill="none" xmlns="http://www.w3.org/2000/svg">
<path d="M21.9505 3.2634C19.2416 3.2634 16.708 2.05976 14.9998 0C13.2931 2.0584 10.7594 3.2634 8.05055 3.2634C6.31321 3.2634 4.63014 2.76585 3.18604 1.84295V15.5149C3.18604 22.6337 13.0373 28.8353 14.9998 30C16.9608 28.8353 26.8135 22.6268 26.8135 15.5149V1.84431C25.3695 2.76579 23.6864 3.2634 21.9505 3.2634ZM19.6628 11.8374L14.0992 17.3968C13.9686 17.526 13.792 17.5997 13.6086 17.5997C13.4251 17.5997 13.2472 17.526 13.1166 17.3968L10.341 14.6171C10.07 14.3447 10.07 13.9054 10.341 13.633C10.612 13.3634 11.0526 13.362 11.325 13.633L13.6099 15.9208L18.6815 10.8534C18.9525 10.5823 19.3931 10.5823 19.6641 10.8534C19.9352 11.1244 19.9352 11.5664 19.6628 11.8374Z" fill="#4F4F4F"/>
</svg>
