<svg width="30" height="30" viewBox="0 0 30 30" fill="none" xmlns="http://www.w3.org/2000/svg">
<path d="M29.375 5.625H9.37502C9.03002 5.625 8.75 5.90502 8.75 6.25002C8.75 6.59502 9.03002 6.87504 9.37502 6.87504H29.375C29.72 6.87504 30 6.59502 30 6.25002C30 5.90502 29.72 5.625 29.375 5.625Z" fill="#4F4F4F"/>
<path d="M29.375 14.375H9.37502C9.03002 14.375 8.75 14.655 8.75 15C8.75 15.345 9.03002 15.625 9.37502 15.625H29.375C29.72 15.625 30 15.345 30 15C30 14.655 29.72 14.375 29.375 14.375Z" fill="#4F4F4F"/>
<path d="M29.375 23.125H9.37502C9.03002 23.125 8.75 23.405 8.75 23.75C8.75 24.095 9.03002 24.3751 9.37502 24.3751H29.375C29.72 24.3751 30 24.095 30 23.75C30 23.405 29.72 23.125 29.375 23.125Z" fill="#4F4F4F"/>
<path d="M3.12498 26.875C4.85086 26.875 6.24996 25.4759 6.24996 23.75C6.24996 22.0241 4.85086 20.625 3.12498 20.625C1.3991 20.625 0 22.0241 0 23.75C0 25.4759 1.3991 26.875 3.12498 26.875Z" fill="#4F4F4F"/>
<path d="M3.12498 18.125C4.85086 18.125 6.24996 16.7259 6.24996 15C6.24996 13.2741 4.85086 11.875 3.12498 11.875C1.3991 11.875 0 13.2741 0 15C0 16.7259 1.3991 18.125 3.12498 18.125Z" fill="#4F4F4F"/>
<path d="M3.12498 9.37501C4.85086 9.37501 6.24996 7.97591 6.24996 6.25003C6.24996 4.52415 4.85086 3.12505 3.12498 3.12505C1.3991 3.12505 0 4.52415 0 6.25003C0 7.97591 1.3991 9.37501 3.12498 9.37501Z" fill="#4F4F4F"/>
</svg>
