<svg width="30" height="30" viewBox="0 0 30 30" fill="none" xmlns="http://www.w3.org/2000/svg">
<g clip-path="url(#clip0)">
<path d="M26.8762 11.8749C25.3661 11.8749 24.1048 12.95 23.8148 14.375H22.2635L19.7222 9.29361C18.9771 7.80106 17.4758 6.87478 15.8083 6.87478H15.0008V4.99973C15.0008 4.65472 14.7207 4.37469 14.3757 4.37469H9.37559C9.03057 4.37469 8.75055 4.65472 8.75055 4.99973V9.99986C8.75055 10.3449 9.03057 10.6249 9.37559 10.6249H14.3757C14.7207 10.6249 15.0008 10.3449 15.0008 9.99986V8.1248H15.8083C17.0008 8.1248 18.0721 8.78606 18.6033 9.85238L20.8647 14.375H2.13411L4.81667 11.6925C5.06043 11.4487 5.06043 11.0524 4.81667 10.8087C4.57292 10.5649 4.17663 10.5649 3.93288 10.8087L0.184049 14.5575C0.126566 14.615 0.0802759 14.685 0.047814 14.7612C-0.015938 14.9137 -0.015938 15.0863 0.047814 15.2387C0.0790454 15.3162 0.125336 15.385 0.184049 15.4425L3.93294 19.1913C4.05546 19.3139 4.21542 19.3751 4.37545 19.3751C4.53547 19.3751 4.69544 19.3139 4.81796 19.1926C5.06172 18.9488 5.06172 18.5525 4.81796 18.3088L2.13411 15.6249H22.1147L19.8534 20.1476C19.3209 21.2138 18.2509 21.8751 17.0583 21.8751H16.1883C15.8983 20.4501 14.6358 19.375 13.127 19.375C11.4019 19.375 10.0006 20.7764 10.0006 22.5001C10.0006 24.2239 11.4019 25.6252 13.1257 25.6252C14.6358 25.6252 15.897 24.5501 16.187 23.1251H17.0571C18.7259 23.1251 20.2259 22.1988 20.9709 20.7063L23.5123 15.6249H23.8135C24.1035 17.0499 25.3661 18.125 26.8749 18.125C28.5987 18.125 29.9999 16.7236 29.9999 14.9999C30 13.2762 28.6 11.8749 26.8762 11.8749Z" fill="#4F4F4F"/>
</g>
<defs>
<clipPath id="clip0">
<rect width="30" height="30" fill="white"/>
</clipPath>
</defs>
</svg>
