<svg width="30" height="30" viewBox="0 0 30 30" fill="none" xmlns="http://www.w3.org/2000/svg">
<path d="M18.1025 11.53L16.6975 12.9363L18.605 15.225C18.8263 15.49 18.79 15.885 18.5263 16.1063C18.4088 16.2025 18.2663 16.25 18.125 16.25C17.9462 16.25 17.7688 16.1738 17.645 16.025L11.875 9.10126L6.25 15.8513V18.75H23.75V17.7413L18.1025 11.53Z" fill="#4F4F4F"/>
<path d="M25.625 0H4.37504C2.6525 0 1.25 1.4025 1.25 3.12498V26.875C1.25 28.5987 2.6525 29.9999 4.37498 29.9999H25.625C27.3488 29.9999 28.75 28.5987 28.75 26.875V3.12498C28.75 1.4025 27.3488 0 25.625 0ZM25 19.375C25 19.72 24.72 20 24.375 20H5.62502C5.28002 20 5 19.72 5 19.375V4.37502C5 4.03002 5.28002 3.75 5.62502 3.75H24.375C24.72 3.75 25 4.03002 25 4.37502V19.375Z" fill="#4F4F4F"/>
</svg>
