<svg width="30" height="30" viewBox="0 0 30 30" fill="none" xmlns="http://www.w3.org/2000/svg">
<g clip-path="url(#clip0)">
<path d="M23.1254 9.375H1.87541C1.62539 9.375 1.38791 9.42627 1.17041 9.51498L11.5066 17.8437C12.0916 18.2325 12.9079 18.2312 13.5417 17.8112L23.8317 9.51498C23.6129 9.42627 23.3754 9.375 23.1254 9.375Z" fill="#4F4F4F"/>
<path d="M24.7677 10.365L15.2114 18.0663L24.7414 24.6838C24.9014 24.4075 25.0002 24.0913 25.0002 23.75V11.25C25.0002 10.9275 24.9114 10.63 24.7677 10.365Z" fill="#4F4F4F"/>
<path d="M14.1738 18.8688C13.6438 19.1963 13.0638 19.3725 12.4838 19.3725C11.9 19.3725 11.325 19.2012 10.8175 18.875L1.25879 25.5125C1.45256 25.58 1.65752 25.625 1.87502 25.625H23.125C23.3425 25.625 23.5476 25.58 23.7413 25.5125L14.1738 18.8688Z" fill="#4F4F4F"/>
<path d="M0.2325 10.365C0.0887695 10.63 0 10.9287 0 11.25V23.75C0 24.0912 0.0987305 24.4075 0.25875 24.6837L9.79125 18.065L0.2325 10.365Z" fill="#4F4F4F"/>
<path d="M28.125 4.37503H6.875C5.84123 4.37503 5 5.21626 5 6.25003V8.12503H23.75C25.1312 8.12503 26.25 9.24376 26.25 10.6251V20.625H28.125C29.1588 20.625 30 19.7838 30 18.75V6.25003C30 5.21626 29.1588 4.37503 28.125 4.37503Z" fill="#4F4F4F"/>
</g>
<defs>
<clipPath id="clip0">
<rect width="30" height="30" fill="white"/>
</clipPath>
</defs>
</svg>
