<svg width="284" height="560" viewBox="0 0 284 560" fill="none" xmlns="http://www.w3.org/2000/svg">
<path d="M236.579 6.64069H47.4213C24.545 6.64069 6 25.4674 6 48.6913V511.949C6 535.173 24.545 554 47.4213 554H236.579C259.455 554 278 535.173 278 511.949V48.6913C278 25.4674 259.455 6.64069 236.579 6.64069Z" fill="black" stroke="#2C2F34" stroke-width="12"/>
<path opacity="0.5" d="M210.219 519.714H73.4142C72.0809 519.714 71 520.407 71 521.261C71 522.115 72.0809 522.807 73.4142 522.807H210.219C211.552 522.807 212.633 522.115 212.633 521.261C212.633 520.407 211.552 519.714 210.219 519.714Z" fill="#CCD1D9"/>
<path d="M200.562 2H83.071C76.4044 2 71 7.19197 71 13.5966V18.2352C71 24.6399 76.4044 29.8318 83.071 29.8318H200.562C207.229 29.8318 212.633 24.6399 212.633 18.2352V13.5966C212.633 7.19197 207.229 2 200.562 2Z" fill="#2C2F34"/>
<path d="M157.91 15.9159H116.868C115.535 15.9159 114.454 16.6083 114.454 17.4625C114.454 18.3166 115.535 19.009 116.868 19.009H157.91C159.243 19.009 160.324 18.3166 160.324 17.4625C160.324 16.6083 159.243 15.9159 157.91 15.9159Z" fill="white"/>
<path d="M171.59 18.2352C171.59 16.9543 170.509 15.9159 169.176 15.9159C167.843 15.9159 166.762 16.9543 166.762 18.2352C166.762 19.5161 167.843 20.5545 169.176 20.5545C170.509 20.5545 171.59 19.5161 171.59 18.2352Z" fill="white"/>
</svg>
