<svg width="30" height="30" viewBox="0 0 30 30" fill="none" xmlns="http://www.w3.org/2000/svg">
<path d="M15.6027 3.01332C15.5701 2.93243 15.5218 2.86071 15.4605 2.80073L12.8531 0.190759C12.5988 -0.0635863 12.1853 -0.0635863 11.9309 0.190759C11.6766 0.445104 11.6766 0.858598 11.9309 1.11294L13.5235 2.70553C7.38538 3.43983 2.60889 8.66895 2.60889 15.0002C2.60889 20.8358 6.5845 25.8027 12.2766 27.0822C12.3249 27.0927 12.3718 27.0979 12.4188 27.0979C12.7175 27.0979 12.9874 26.8918 13.0553 26.5879C13.1349 26.2358 12.9132 25.8875 12.5623 25.808C7.47018 24.6654 3.91326 20.2202 3.91326 15.0002C3.91326 9.47509 7.9815 4.89296 13.2784 4.06078L11.9297 5.40813C11.6753 5.66248 11.6753 6.07597 11.9297 6.33032C12.0575 6.45816 12.2244 6.52206 12.3914 6.52206C12.5584 6.52206 12.7253 6.45816 12.8531 6.3316L15.4605 3.72426C15.5204 3.66428 15.5687 3.59122 15.6026 3.51167C15.6692 3.35246 15.6692 3.17247 15.6027 3.01332Z" fill="#4F4F4F"/>
<path d="M27.3913 15.0002C27.3913 9.16463 23.4157 4.19768 17.7236 2.91813C17.3675 2.8425 17.0232 3.06029 16.9436 3.41246C16.8641 3.76463 17.0858 4.11288 17.4379 4.19243C22.53 5.33502 26.087 9.78019 26.087 15.0001C26.087 20.5253 22.0187 25.1074 16.7219 25.9396L18.0692 24.5922C18.3236 24.3379 18.3236 23.9244 18.0692 23.6701C17.8149 23.4157 17.4014 23.4157 17.147 23.6701L14.5397 26.2774C14.4797 26.3374 14.4314 26.4104 14.3975 26.49C14.331 26.6491 14.331 26.8291 14.3975 26.9882C14.4301 27.0691 14.4784 27.1408 14.5397 27.2008L17.147 29.8082C17.2749 29.936 17.4418 29.9999 17.6088 29.9999C17.7758 29.9999 17.9427 29.936 18.0705 29.8094C18.3249 29.5551 18.3249 29.1416 18.0705 28.8873L16.4779 27.2947C22.6149 26.5605 27.3913 21.3314 27.3913 15.0002Z" fill="#4F4F4F"/>
</svg>
