<svg width="30" height="30" viewBox="0 0 30 30" fill="none" xmlns="http://www.w3.org/2000/svg">
<path d="M29.9696 11.5149C29.8822 11.2449 29.6318 11.061 29.3474 11.061H18.7394L15.6221 1.08424C15.4512 0.541628 14.5473 0.541628 14.3765 1.08424L11.2592 11.061H0.65253C0.368169 11.061 0.117741 11.2449 0.0303719 11.5149C-0.054429 11.7849 0.0421107 12.0796 0.272974 12.2453L8.99621 18.4747L5.25935 28.441C5.1589 28.7097 5.24498 29.0123 5.47193 29.1871C5.70017 29.3632 6.01192 29.3658 6.24933 29.2014L15 22.9498L23.7506 29.2014C23.8653 29.2823 23.9971 29.3227 24.1301 29.3227C24.2697 29.3227 24.4106 29.2784 24.528 29.1871C24.7549 29.0123 24.841 28.7097 24.7406 28.441L21.0037 18.4747L29.7269 12.2453C29.9579 12.0796 30.0544 11.7849 29.9696 11.5149Z" fill="#4F4F4F"/>
</svg>
