<svg width="30" height="30" viewBox="0 0 30 30" fill="none" xmlns="http://www.w3.org/2000/svg">
<path d="M15 0C6.72915 0 0 6.72915 0 15C0 23.2708 6.72915 29.9999 15 29.9999C23.2708 29.9999 29.9999 23.2708 29.9999 15C29.9999 6.72915 23.2709 0 15 0ZM15 3.91304C17.5174 3.91304 19.5652 5.96085 19.5652 8.47828C19.5652 10.9957 17.5174 13.0435 15 13.0435C12.4825 13.0435 10.4347 10.9957 10.4347 8.47828C10.4347 5.96085 12.4826 3.91304 15 3.91304ZM22.8261 23.4782H7.17389C6.81389 23.4782 6.52169 23.1861 6.52169 22.8261C6.52169 18.1513 10.3252 14.3478 15 14.3478C19.6748 14.3478 23.4782 18.1513 23.4782 22.8261C23.4782 23.1861 23.1861 23.4782 22.8261 23.4782Z" fill="#4F4F4F"/>
</svg>
